<svg xmlns="http://www.w3.org/2000/svg" viewBox="0 0 128 128"><defs><style>.a{fill:#0000;}.b{fill:#00c9ea;}.c{fill:#fff;}</style></defs><rect class="a" x="-1909" y="-1101" width="2450" height="2182"/><path class="b" d="M79.01,65.2l-3.52-6.54a1.5,1.5,0,0,0-1.4-.86,1.479,1.479,0,0,0-1.38.86L69.19,65.2q-.66,1.24-1.27,2.71a7.778,7.778,0,0,0-.61,3.01,6.363,6.363,0,0,0,.91,3.35,6.891,6.891,0,0,0,11.78,0,6.372,6.372,0,0,0,.91-3.35,7.681,7.681,0,0,0-.62-3.01Q79.669,66.44,79.01,65.2Z"/><path class="c" d="M69.33,60l.84-1.58a12.793,12.793,0,0,0-3.7.75,23.056,23.056,0,0,0-3.24,1.49l-3.05,1.7a19.45,19.45,0,0,1-3.14,1.4,10.809,10.809,0,0,1-3.53.56,8.29,8.29,0,0,1-2.15-.28,9.714,9.714,0,0,1-2.25-.96,1.308,1.308,0,0,0-1.07-.16,1.342,1.342,0,0,0-.77.58,1.556,1.556,0,0,0-.23,1.12,1.47,1.47,0,0,0,.83,1.06,11.051,11.051,0,0,0,5.64,1.52,12.256,12.256,0,0,0,3.44-.46,17.173,17.173,0,0,0,3.01-1.19q1.429-.73,2.79-1.52t2.77-1.46a13.685,13.685,0,0,1,2.97-1.01Z"/><path class="c" d="M59.69,70.99a17.681,17.681,0,0,1-2.92,1.24,10.627,10.627,0,0,1-3.28.49,8.29,8.29,0,0,1-2.15-.28,9.714,9.714,0,0,1-2.25-.96,1.308,1.308,0,0,0-1.07-.16,1.342,1.342,0,0,0-.77.58,1.556,1.556,0,0,0-.23,1.12,1.47,1.47,0,0,0,.83,1.06,11.051,11.051,0,0,0,5.64,1.52,12,12,0,0,0,3.28-.43,17.6,17.6,0,0,0,2.9-1.1q1.38-.67,2.68-1.42t2.66-1.41a5.677,5.677,0,0,1,.05-1.51,11.461,11.461,0,0,1,.37-1.75,26.679,26.679,0,0,0-2.93,1.45Q61.09,70.24,59.69,70.99Z"/><path class="c" d="M60.39,53.84a20.692,20.692,0,0,1-3.25,1.48,10.837,10.837,0,0,1-3.65.6,8.29,8.29,0,0,1-2.15-.28,9.714,9.714,0,0,1-2.25-.96,1.308,1.308,0,0,0-1.07-.16,1.342,1.342,0,0,0-.77.58,1.556,1.556,0,0,0-.23,1.12,1.47,1.47,0,0,0,.83,1.06,11.051,11.051,0,0,0,5.64,1.52,12.24,12.24,0,0,0,3.91-.6,20.6,20.6,0,0,0,3.39-1.48q1.6-.88,3.17-1.76a21.2,21.2,0,0,1,3.25-1.48,10.808,10.808,0,0,1,3.66-.6,8.3,8.3,0,0,1,2.15.28,9.714,9.714,0,0,1,2.25.96,1.287,1.287,0,0,0,1.06.16,1.468,1.468,0,0,0,.78-.56,1.462,1.462,0,0,0-.62-2.2A10.95,10.95,0,0,0,70.87,50a12.3,12.3,0,0,0-3.93.6,20.53,20.53,0,0,0-3.39,1.48Q61.95,52.961,60.39,53.84Z"/></svg>