<svg xmlns="http://www.w3.org/2000/svg" viewBox="0 0 128 128"><defs><style>.a{fill:#0000;}.b{fill:none;}.c{fill:#fff;}</style></defs><rect class="a" x="-1909" y="-645" width="2450" height="2182"/><path class="b" d="M85.394,68.02l-5.04-9.46a.3.3,0,0,0-.56,0l-5.08,9.46q-1.08,2.021-1.93,3.99a9.937,9.937,0,0,0-.85,3.97,7.516,7.516,0,0,0,1.09,3.99,8.03,8.03,0,0,0,2.93,2.84,8.549,8.549,0,0,0,8.21,0,8.02,8.02,0,0,0,2.94-2.84,7.525,7.525,0,0,0,1.09-3.99,9.85,9.85,0,0,0-.86-3.97Q86.473,70.041,85.394,68.02Z"/><path class="c" d="M36.024,79.2a1.763,1.763,0,0,0,1.01,1.28,17.6,17.6,0,0,0,9.18,2.48,18.958,18.958,0,0,0,5.53-.78,29.892,29.892,0,0,0,4.92-1.98q2.349-1.2,4.63-2.5t4.66-2.36a8.587,8.587,0,0,1,.11-1.89,12.854,12.854,0,0,1,.49-2.13,35.327,35.327,0,0,0-5.08,2.38q-2.421,1.38-4.82,2.69a30.847,30.847,0,0,1-4.96,2.17,17.112,17.112,0,0,1-5.48.86,14.613,14.613,0,0,1-3.82-.49,16.093,16.093,0,0,1-3.78-1.61,1.652,1.652,0,0,0-1.34-.2,1.778,1.778,0,0,0-.96.7A1.916,1.916,0,0,0,36.024,79.2Z"/><path class="c" d="M73.164,57.78l1.03-1.9a22.006,22.006,0,0,0-5.49.84,28.646,28.646,0,0,0-4.73,1.85q-2.22,1.11-4.3,2.32t-4.18,2.28a25.579,25.579,0,0,1-4.37,1.74,17.121,17.121,0,0,1-4.87.67,14.915,14.915,0,0,1-3.82-.48,15.693,15.693,0,0,1-3.8-1.62,1.62,1.62,0,0,0-1.33-.2,1.746,1.746,0,0,0-.97.72,1.906,1.906,0,0,0-.27,1.36,1.816,1.816,0,0,0,1.01,1.3,18.545,18.545,0,0,0,4.43,1.87,18.064,18.064,0,0,0,4.75.61,18.921,18.921,0,0,0,4.85-.6,26.3,26.3,0,0,0,4.36-1.57q2.09-.971,4.08-2.1t4-2.2a36.523,36.523,0,0,1,4.13-1.88,19.335,19.335,0,0,1,4.46-1.11Q72.653,58.72,73.164,57.78Z"/><path class="c" d="M38.614,49.64a1.652,1.652,0,0,0-1.34-.2,1.743,1.743,0,0,0-.96.72,1.85,1.85,0,0,0-.29,1.36,1.816,1.816,0,0,0,1.01,1.3,18.9,18.9,0,0,0,4.45,1.87,17.983,17.983,0,0,0,4.73.61,18.975,18.975,0,0,0,5.28-.71,28.431,28.431,0,0,0,4.71-1.82q2.25-1.11,4.41-2.35t4.36-2.35a27.7,27.7,0,0,1,4.58-1.82,17.62,17.62,0,0,1,5.06-.71,14.705,14.705,0,0,1,3.84.49,15.707,15.707,0,0,1,3.78,1.63,1.632,1.632,0,0,0,1.33.2,1.888,1.888,0,0,0,.97-.7,1.826,1.826,0,0,0-.72-2.68,18.921,18.921,0,0,0-4.45-1.87,18.069,18.069,0,0,0-4.75-.61,19.922,19.922,0,0,0-5.42.71,28.056,28.056,0,0,0-4.78,1.82q-2.261,1.11-4.42,2.35t-4.33,2.35a27.542,27.542,0,0,1-4.49,1.82,16.876,16.876,0,0,1-4.96.71,14.613,14.613,0,0,1-3.82-.49A15.673,15.673,0,0,1,38.614,49.64Z"/><path class="c" d="M89.474,69.51q-.72-1.53-1.44-2.89l-5.84-10.86a3.359,3.359,0,0,0-.89-1.15,2.407,2.407,0,0,0-2.5,0,3.569,3.569,0,0,0-.91,1.13l-5.8,10.88q-.72,1.361-1.44,2.89a22,22,0,0,0-1.2,3.16,11.661,11.661,0,0,0-.48,3.31,10.375,10.375,0,0,0,.86,4.22,10.919,10.919,0,0,0,2.38,3.45,11.247,11.247,0,0,0,15.7,0,10.952,10.952,0,0,0,2.38-3.45,10.391,10.391,0,0,0,.86-4.22,11.661,11.661,0,0,0-.48-3.31A22,22,0,0,0,89.474,69.51ZM87.1,79.97a8.02,8.02,0,0,1-2.94,2.84,8.549,8.549,0,0,1-8.21,0,8.03,8.03,0,0,1-2.93-2.84,7.516,7.516,0,0,1-1.09-3.99,9.937,9.937,0,0,1,.85-3.97q.849-1.969,1.93-3.99l5.08-9.46a.3.3,0,0,1,.56,0l5.04,9.46q1.08,2.021,1.94,3.99a9.85,9.85,0,0,1,.86,3.97A7.525,7.525,0,0,1,87.1,79.97Z"/></svg>