<svg xmlns="http://www.w3.org/2000/svg" viewBox="0 0 128 128"><defs><style>.a{fill:#0000;}.b{fill:none;}.c{fill:#fff;}</style></defs><rect class="a" x="-1909" y="-797" width="2450" height="2182"/><path class="b" d="M71.84,74.66a4.432,4.432,0,0,0,2.25.58,4.527,4.527,0,0,0,2.28-.58,4.442,4.442,0,0,0,1.62-1.56,4.092,4.092,0,0,0,.6-2.18,5.367,5.367,0,0,0-.5-2.24q-.5-1.1-1.14-2.3L74.27,61.3a.162.162,0,0,0-.3,0l-2.74,5.08q-.621,1.2-1.11,2.3a5.449,5.449,0,0,0-.49,2.24,4.092,4.092,0,0,0,.6,2.18A4.468,4.468,0,0,0,71.84,74.66Z"/><path class="c" d="M70.67,76.68a6.65,6.65,0,0,0,3.42.9,6.748,6.748,0,0,0,3.45-.9,6.908,6.908,0,0,0,2.47-2.41,6.316,6.316,0,0,0,.92-3.35,7.539,7.539,0,0,0-.62-2.99q-.621-1.451-1.24-2.65L75.63,58.9a2.849,2.849,0,0,0-.64-.84,1.4,1.4,0,0,0-.9-.26,1.357,1.357,0,0,0-.88.26,2.833,2.833,0,0,0-.64.84l-3.42,6.38q-.621,1.2-1.24,2.65a7.522,7.522,0,0,0-.62,2.99,6.307,6.307,0,0,0,.92,3.35A6.919,6.919,0,0,0,70.67,76.68Zm-.55-8q.489-1.1,1.11-2.3l2.74-5.08a.163.163,0,0,1,.3,0l2.68,5.08q.639,1.2,1.14,2.3a5.367,5.367,0,0,1,.5,2.24,4.092,4.092,0,0,1-.6,2.18,4.442,4.442,0,0,1-1.62,1.56,4.527,4.527,0,0,1-2.28.58,4.462,4.462,0,0,1-3.86-2.14,4.092,4.092,0,0,1-.6-2.18A5.449,5.449,0,0,1,70.12,68.68Z"/><path class="c" d="M76.49,51.52A10.95,10.95,0,0,0,70.87,50a12.3,12.3,0,0,0-3.93.6,20.53,20.53,0,0,0-3.39,1.48q-1.6.881-3.16,1.76a20.692,20.692,0,0,1-3.25,1.48,10.837,10.837,0,0,1-3.65.6,8.29,8.29,0,0,1-2.15-.28,9.714,9.714,0,0,1-2.25-.96,1.308,1.308,0,0,0-1.07-.16,1.342,1.342,0,0,0-.77.58,1.556,1.556,0,0,0-.23,1.12,1.47,1.47,0,0,0,.83,1.06,11.051,11.051,0,0,0,5.64,1.52,12.24,12.24,0,0,0,3.91-.6,20.6,20.6,0,0,0,3.39-1.48q1.6-.88,3.17-1.76a21.2,21.2,0,0,1,3.25-1.48,10.808,10.808,0,0,1,3.66-.6,8.3,8.3,0,0,1,2.15.28,9.714,9.714,0,0,1,2.25.96,1.287,1.287,0,0,0,1.06.16,1.468,1.468,0,0,0,.78-.56,1.462,1.462,0,0,0-.62-2.2Z"/><path class="c" d="M68.49,61.56,69.33,60l.84-1.58a12.793,12.793,0,0,0-3.7.75,23.056,23.056,0,0,0-3.24,1.49l-3.05,1.7a19.45,19.45,0,0,1-3.14,1.4,10.809,10.809,0,0,1-3.53.56,8.29,8.29,0,0,1-2.15-.28,9.714,9.714,0,0,1-2.25-.96,1.308,1.308,0,0,0-1.07-.16,1.342,1.342,0,0,0-.77.58,1.556,1.556,0,0,0-.23,1.12,1.47,1.47,0,0,0,.83,1.06,11.051,11.051,0,0,0,5.64,1.52,12.256,12.256,0,0,0,3.44-.46,17.173,17.173,0,0,0,3.01-1.19q1.429-.73,2.79-1.52t2.77-1.46A13.685,13.685,0,0,1,68.49,61.56Z"/><path class="c" d="M65.43,67.98a26.679,26.679,0,0,0-2.93,1.45q-1.41.81-2.81,1.56a17.681,17.681,0,0,1-2.92,1.24,10.627,10.627,0,0,1-3.28.49,8.29,8.29,0,0,1-2.15-.28,9.714,9.714,0,0,1-2.25-.96,1.308,1.308,0,0,0-1.07-.16,1.342,1.342,0,0,0-.77.58,1.556,1.556,0,0,0-.23,1.12,1.47,1.47,0,0,0,.83,1.06,11.051,11.051,0,0,0,5.64,1.52,12,12,0,0,0,3.28-.43,17.6,17.6,0,0,0,2.9-1.1q1.38-.67,2.68-1.42t2.66-1.41a5.677,5.677,0,0,1,.05-1.51A11.461,11.461,0,0,1,65.43,67.98Z"/></svg>