<svg xmlns="http://www.w3.org/2000/svg" viewBox="0 0 128 128"><defs><style>.a{fill:#0000;}.b{fill:#fff;}</style></defs><rect class="a" x="-997" y="-1101" width="2450" height="2182"/><path class="b" d="M75.26,80.8a1.25,1.25,0,0,0,1.04.14,1.337,1.337,0,0,0,.82-.68l1.92-3.36a1.324,1.324,0,0,0,.18-1.06,1.345,1.345,0,0,0-.64-.84,1.3,1.3,0,0,0-1.04-.12,1.487,1.487,0,0,0-.84.68l-1.94,3.38a1.407,1.407,0,0,0-.15,1.04A1.291,1.291,0,0,0,75.26,80.8Z"/><path class="b" d="M59.48,84.66a1.325,1.325,0,0,0,1.04.13,1.3,1.3,0,0,0,.82-.67l4.2-7.28a1.437,1.437,0,0,0,.17-1.07,1.308,1.308,0,0,0-.63-.83,1.36,1.36,0,0,0-1.88.54L58.98,82.8a1.369,1.369,0,0,0-.15,1.03A1.294,1.294,0,0,0,59.48,84.66Z"/><path class="b" d="M68.54,88.42a.816.816,0,0,0,.06.64.7.7,0,0,0,.53.37.844.844,0,0,0,.63-.15L71.9,87.9l-.12,2.5a.941.941,0,0,0,.18.63.677.677,0,0,0,.58.27.656.656,0,0,0,.56-.27,1.032,1.032,0,0,0,.2-.63l-.16-2.52,2.12,1.4a.858.858,0,0,0,.63.12.75.75,0,0,0,.53-.34.717.717,0,0,0,.07-.63.874.874,0,0,0-.47-.53l-2.24-1.12,2.26-1.16a.776.776,0,0,0,.46-.5.816.816,0,0,0-.06-.64.661.661,0,0,0-.53-.35.879.879,0,0,0-.65.15L73.14,85.7l.18-2.54a.885.885,0,0,0-.2-.63.769.769,0,0,0-1.17,0,.912.912,0,0,0-.19.63l.14,2.54-2.14-1.42a.81.81,0,0,0-.61-.15.693.693,0,0,0-.51.35.75.75,0,0,0-.08.63.845.845,0,0,0,.44.51l2.26,1.16L69,87.92A.776.776,0,0,0,68.54,88.42Z"/><path class="b" d="M51.54,74.92a1.282,1.282,0,0,0-1.05-.14,1.41,1.41,0,0,0-.83.68l-1.94,3.38a1.447,1.447,0,0,0-.16,1.04,1.254,1.254,0,0,0,.64.82,1.282,1.282,0,0,0,1.05.14,1.41,1.41,0,0,0,.83-.68L52,76.8a1.341,1.341,0,0,0,.17-1.04A1.31,1.31,0,0,0,51.54,74.92Z"/><path class="b" d="M53.82,92.28a.816.816,0,0,0,.06.64.7.7,0,0,0,.53.35.9.9,0,0,0,.63-.13l2.14-1.4-.12,2.52a.908.908,0,0,0,.18.61.677.677,0,0,0,.58.27.656.656,0,0,0,.56-.27.908.908,0,0,0,.18-.61l-.14-2.52,2.12,1.38a.81.81,0,0,0,.63.14.738.738,0,0,0,.6-.98.873.873,0,0,0-.47-.52l-2.24-1.12,2.26-1.16a.845.845,0,0,0,.44-.51.855.855,0,0,0-.04-.63.71.71,0,0,0-.54-.35.915.915,0,0,0-.64.13l-2.12,1.44.16-2.54a.814.814,0,0,0-.18-.64.788.788,0,0,0-1.17,0,.907.907,0,0,0-.19.64l.14,2.54-2.14-1.44a.9.9,0,0,0-.61-.14.658.658,0,0,0-.51.36.78.78,0,0,0-.09.63.8.8,0,0,0,.45.51l2.26,1.16-2.26,1.14A.776.776,0,0,0,53.82,92.28Z"/><path class="b" d="M89.24,46.57a14.916,14.916,0,0,0-4.86-2.93,17.052,17.052,0,0,0-6.02-1.04A20.6,20.6,0,0,0,74.28,37a17.762,17.762,0,0,0-5.64-3.69A18.1,18.1,0,0,0,61.68,32a17.507,17.507,0,0,0-6.78,1.32A18.468,18.468,0,0,0,49.23,37a19.186,19.186,0,0,0-4.03,5.48,18.792,18.792,0,0,0-1.86,6.72,11.938,11.938,0,0,0-4.25,2.16,10.918,10.918,0,0,0-2.99,3.68,11.36,11.36,0,0,0,.3,10.34,10.163,10.163,0,0,0,4.07,3.92,13.226,13.226,0,0,0,6.43,1.46H79.04a15.166,15.166,0,0,0,5.79-1.09,14.2,14.2,0,0,0,4.65-3.04A13.9,13.9,0,0,0,93.64,56.6a13.3,13.3,0,0,0-4.4-10.03Z"/><path class="b" d="M41.5,88.33a.8.8,0,0,0,.06.63.7.7,0,0,0,.53.37.844.844,0,0,0,.63-.15l2.14-1.38-.12,2.5a.941.941,0,0,0,.18.63.677.677,0,0,0,.58.27.656.656,0,0,0,.56-.27.941.941,0,0,0,.18-.63l-.14-2.52,2.12,1.4a.9.9,0,0,0,.63.13.7.7,0,0,0,.53-.35.717.717,0,0,0,.07-.63.874.874,0,0,0-.47-.53l-2.24-1.12L49,85.52a.779.779,0,0,0,.44-.5.879.879,0,0,0-.04-.64.71.71,0,0,0-.54-.35.862.862,0,0,0-.64.15L46.1,85.6l.16-2.54a.813.813,0,0,0-.18-.63.769.769,0,0,0-1.17,0,.912.912,0,0,0-.19.63l.14,2.54-2.14-1.42a.81.81,0,0,0-.61-.15.693.693,0,0,0-.51.35.78.78,0,0,0-.09.63.8.8,0,0,0,.45.51l2.26,1.16-2.26,1.14A.84.84,0,0,0,41.5,88.33Z"/></svg>