<svg xmlns="http://www.w3.org/2000/svg" viewBox="0 0 128 128"><defs><style>.a{fill:#0000;}.b{fill:#00c9ea;}.c{fill:#fff;}.d{fill:#ff0;}</style></defs><rect class="a" x="-1453" y="-341" width="2450" height="2182"/><path class="b" d="M82.4,91.68a1.325,1.325,0,0,0,1.04.13,1.368,1.368,0,0,0,.84-.67l3.54-6.12a1.326,1.326,0,0,0,.17-1.07,1.385,1.385,0,0,0-.65-.83,1.241,1.241,0,0,0-1.02-.15,1.429,1.429,0,0,0-.84.69l-3.56,6.16a1.322,1.322,0,0,0-.17,1.03A1.294,1.294,0,0,0,82.4,91.68Z"/><path class="b" d="M77.34,84.46a1.36,1.36,0,0,0,1.88-.54l3.54-6.12a1.36,1.36,0,0,0,.18-1.07,1.329,1.329,0,0,0-.66-.83,1.211,1.211,0,0,0-1.02-.14,1.487,1.487,0,0,0-.84.68L76.86,82.6a1.322,1.322,0,0,0-.17,1.03A1.294,1.294,0,0,0,77.34,84.46Z"/><path class="c" d="M40.47,70.3a13.226,13.226,0,0,0,6.43,1.46H79.04a15.166,15.166,0,0,0,5.79-1.09,14.2,14.2,0,0,0,4.65-3.04A13.9,13.9,0,0,0,93.64,57.6a13.3,13.3,0,0,0-4.4-10.03,14.916,14.916,0,0,0-4.86-2.93,17.052,17.052,0,0,0-6.02-1.04A20.6,20.6,0,0,0,74.28,38a17.762,17.762,0,0,0-5.64-3.69A18.1,18.1,0,0,0,61.68,33a17.507,17.507,0,0,0-6.78,1.32A18.468,18.468,0,0,0,49.23,38a19.186,19.186,0,0,0-4.03,5.48,18.792,18.792,0,0,0-1.86,6.72,11.938,11.938,0,0,0-4.25,2.16,10.918,10.918,0,0,0-2.99,3.68,11.36,11.36,0,0,0,.3,10.34A10.163,10.163,0,0,0,40.47,70.3Z"/><path class="d" d="M67.51,75.81a.6.6,0,0,0-.59-.29H62.16a1.265,1.265,0,0,0-.79.2,1.574,1.574,0,0,0-.43.6L57.4,84.38a.733.733,0,0,0-.01.77.847.847,0,0,0,.71.27h4.206l.634-1.54-.32,1.54h-.314L58.76,94.04q-.24.581.18.74a.7.7,0,0,0,.8-.28L70.16,83.04a.847.847,0,0,0,.26-.86.647.647,0,0,0-.7-.42H64.695l-.555,1.06-.02-1.06h.575l2.745-5.24A.751.751,0,0,0,67.51,75.81Z"/><polygon class="c" points="62.94 83.88 62.306 85.42 62.62 85.42 62.94 83.88"/><polygon class="c" points="64.14 82.82 64.695 81.76 64.12 81.76 64.14 82.82"/><path class="b" d="M46.15,90.85a1.294,1.294,0,0,0,.65.83,1.325,1.325,0,0,0,1.04.13,1.368,1.368,0,0,0,.84-.67l3.54-6.12a1.36,1.36,0,0,0,.18-1.07,1.329,1.329,0,0,0-.66-.83,1.241,1.241,0,0,0-1.02-.15,1.429,1.429,0,0,0-.84.69l-3.56,6.16A1.322,1.322,0,0,0,46.15,90.85Z"/><path class="b" d="M46.7,75.9a1.263,1.263,0,0,0-1.04-.14,1.487,1.487,0,0,0-.84.68L41.26,82.6a1.322,1.322,0,0,0-.17,1.03,1.294,1.294,0,0,0,.65.83,1.36,1.36,0,0,0,1.88-.54l3.54-6.12a1.36,1.36,0,0,0,.18-1.07A1.344,1.344,0,0,0,46.7,75.9Z"/></svg>