<svg xmlns="http://www.w3.org/2000/svg" viewBox="0 0 128 128"><defs><style>.a{fill:#0000;}.b{fill:#ff0;}.c{fill:#fff;}</style></defs><rect class="a" x="-1149" y="-645" width="2450" height="2182"/><path class="b" d="M86.88,76.48a1.835,1.835,0,0,0,0,2.56l4.28,4.28a1.811,1.811,0,0,0,2.54-.02,1.821,1.821,0,0,0,.53-1.28,1.651,1.651,0,0,0-.53-1.26l-4.28-4.28a1.8,1.8,0,0,0-1.27-.51A1.692,1.692,0,0,0,86.88,76.48Z"/><path class="c" d="M31.99,88.45a11.782,11.782,0,0,0,5.57,1.25H65.58a13.279,13.279,0,0,0,5.07-.96,12.64,12.64,0,0,0,4.1-2.67,12.454,12.454,0,0,0,2.74-3.99,12.218,12.218,0,0,0,.99-4.92,11.758,11.758,0,0,0-1.01-4.87,11.91,11.91,0,0,0-2.82-3.92,13.2,13.2,0,0,0-4.25-2.61,14.9,14.9,0,0,0-5.3-.96,18.268,18.268,0,0,0-3.68-4.91,15.651,15.651,0,0,0-10.98-4.31,15.473,15.473,0,0,0-5.91,1.14,16.176,16.176,0,0,0-4.98,3.19,16.991,16.991,0,0,0-3.57,4.78,16.11,16.11,0,0,0-1.66,5.91,10.524,10.524,0,0,0-3.81,1.97A9.49,9.49,0,0,0,27,80.1a9.354,9.354,0,0,0,1.31,4.93A9.209,9.209,0,0,0,31.99,88.45Z"/><path class="b" d="M100.92,65.81a1.771,1.771,0,0,0,.52-1.29,1.748,1.748,0,0,0-.52-1.27,1.724,1.724,0,0,0-1.28-.53H93.62a1.767,1.767,0,0,0-1.28.53,1.717,1.717,0,0,0-.54,1.27,1.738,1.738,0,0,0,.54,1.29,1.767,1.767,0,0,0,1.28.53h6.02A1.724,1.724,0,0,0,100.92,65.81Z"/><path class="b" d="M66.72,62.36a17.6,17.6,0,0,1,7.26,2.08,13.8,13.8,0,0,1,4.95,4.62,15,15,0,0,1,2.25,6.6,14.377,14.377,0,0,0,4.64-4.76,12.205,12.205,0,0,0,1.72-6.38,12.5,12.5,0,0,0-3.67-8.93,12.68,12.68,0,0,0-4.02-2.71,12.353,12.353,0,0,0-4.91-.98,12.212,12.212,0,0,0-4.54.84,12.386,12.386,0,0,0-3.77,2.33,12.1,12.1,0,0,0-2.67,3.47,17.157,17.157,0,0,1,1.5,1.8A17.973,17.973,0,0,1,66.72,62.36Z"/><path class="b" d="M57.46,45.25a1.753,1.753,0,0,0-1.26.53,1.727,1.727,0,0,0-.52,1.27,1.793,1.793,0,0,0,.52,1.29l4.26,4.26a1.736,1.736,0,0,0,1.3.53,1.706,1.706,0,0,0,1.26-.53,1.753,1.753,0,0,0,.53-1.26,1.714,1.714,0,0,0-.53-1.28l-4.28-4.28A1.714,1.714,0,0,0,57.46,45.25Z"/><path class="b" d="M94.23,47.05a1.81,1.81,0,0,0-1.79-1.8,1.714,1.714,0,0,0-1.28.53l-4.28,4.28a1.745,1.745,0,0,0-.51,1.28,1.792,1.792,0,0,0,.51,1.26,1.719,1.719,0,0,0,1.27.53,1.749,1.749,0,0,0,1.31-.53l4.24-4.26A1.725,1.725,0,0,0,94.23,47.05Z"/><path class="b" d="M73.67,38.53a1.734,1.734,0,0,0-.53,1.27v6.02a1.778,1.778,0,0,0,.53,1.27,1.776,1.776,0,0,0,2.57,0,1.76,1.76,0,0,0,.54-1.27V39.8a1.717,1.717,0,0,0-.54-1.27,1.823,1.823,0,0,0-2.57,0Z"/></svg>