<svg xmlns="http://www.w3.org/2000/svg" viewBox="0 0 128 128"><defs><style>.a{fill:#0000;}.b{fill:#fff;}.c{fill:#00c9ea;}</style></defs><rect class="a" x="-845" y="-1709" width="2450" height="2182"/><path class="b" d="M52.64,76.8a1.793,1.793,0,0,0-1.78,1.76,1.748,1.748,0,0,0,.52,1.27,1.7,1.7,0,0,0,1.26.53,1.679,1.679,0,0,0,1.24-.53,1.748,1.748,0,0,0,.52-1.27,1.7,1.7,0,0,0-.52-1.23A1.679,1.679,0,0,0,52.64,76.8Z"/><path class="b" d="M77.29,53.44a10.147,10.147,0,0,0-4.83-1.14,11.838,11.838,0,0,0-2.5-3.33,11.17,11.17,0,0,0-3.46-2.19,11.427,11.427,0,0,0-9.63.62,11.862,11.862,0,0,0-4.08,3.76,11.039,11.039,0,0,0-1.85,5.28,6.9,6.9,0,0,0-3.53,2.39A6.639,6.639,0,0,0,46,63.1a6.859,6.859,0,0,0,.88,3.45,6.4,6.4,0,0,0,2.56,2.47,8.345,8.345,0,0,0,4.06.92H72.88a9.034,9.034,0,0,0,4.65-1.2,8.877,8.877,0,0,0,3.23-3.21,8.624,8.624,0,0,0,1.18-4.45,8.29,8.29,0,0,0-1.25-4.52A8.827,8.827,0,0,0,77.29,53.44Z"/><path class="c" d="M56.18,72.38a1.071,1.071,0,0,0-1.46.4l-.96,1.7a1.09,1.09,0,0,0-.1.79.961.961,0,0,0,.5.63,1.079,1.079,0,0,0,.82.11.939.939,0,0,0,.62-.49l.96-1.68a1.052,1.052,0,0,0,.12-.8A1.029,1.029,0,0,0,56.18,72.38Z"/><path class="b" d="M59.48,79.2a1.793,1.793,0,0,0-1.78,1.76,1.748,1.748,0,0,0,.52,1.27,1.7,1.7,0,0,0,1.26.53,1.679,1.679,0,0,0,1.24-.53,1.748,1.748,0,0,0,.52-1.27,1.7,1.7,0,0,0-.52-1.23A1.679,1.679,0,0,0,59.48,79.2Z"/><path class="b" d="M69.06,76.86a1.793,1.793,0,0,0-1.78,1.76,1.748,1.748,0,0,0,.52,1.27,1.7,1.7,0,0,0,1.26.53,1.679,1.679,0,0,0,1.24-.53,1.748,1.748,0,0,0,.52-1.27,1.7,1.7,0,0,0-.52-1.23A1.679,1.679,0,0,0,69.06,76.86Z"/><path class="c" d="M64.4,72.4a1.079,1.079,0,0,0-.82-.11,1,1,0,0,0-.64.51L60.6,76.88A1.01,1.01,0,0,0,61,78.3a1.079,1.079,0,0,0,.82.11.939.939,0,0,0,.62-.49l2.34-4.06a1.091,1.091,0,0,0,.12-.81A1.028,1.028,0,0,0,64.4,72.4Z"/><path class="c" d="M72.6,72.44a1.071,1.071,0,0,0-1.46.4l-.96,1.7a1.09,1.09,0,0,0-.1.79.961.961,0,0,0,.5.63,1.079,1.079,0,0,0,.82.11.939.939,0,0,0,.62-.49l.96-1.68a1.052,1.052,0,0,0,.12-.8A1.029,1.029,0,0,0,72.6,72.44Z"/></svg>