<svg xmlns="http://www.w3.org/2000/svg" viewBox="0 0 128 128"><defs><style>.a{fill:#0000;}.b{fill:#fff;}.c{fill:#00c9ea;}</style></defs><rect class="a" x="-845" y="-1557" width="2450" height="2182"/><path class="b" d="M55.23,88.93a2.555,2.555,0,0,0-.79,1.87,2.611,2.611,0,0,0,.79,1.9,2.609,2.609,0,0,0,3.76,0,2.611,2.611,0,0,0,.79-1.9A2.573,2.573,0,0,0,59,88.93a2.545,2.545,0,0,0-1.88-.79A2.579,2.579,0,0,0,55.23,88.93Z"/><path class="b" d="M89.24,48.57a14.916,14.916,0,0,0-4.86-2.93,17.052,17.052,0,0,0-6.02-1.04A20.6,20.6,0,0,0,74.28,39a17.762,17.762,0,0,0-5.64-3.69A18.1,18.1,0,0,0,61.68,34a17.507,17.507,0,0,0-6.78,1.32A18.468,18.468,0,0,0,49.23,39a19.186,19.186,0,0,0-4.03,5.48,18.792,18.792,0,0,0-1.86,6.72,11.938,11.938,0,0,0-4.25,2.16,10.918,10.918,0,0,0-2.99,3.68,11.36,11.36,0,0,0,.3,10.34,10.163,10.163,0,0,0,4.07,3.92,13.226,13.226,0,0,0,6.43,1.46H79.04a15.166,15.166,0,0,0,5.79-1.09,14.2,14.2,0,0,0,4.65-3.04A13.9,13.9,0,0,0,93.64,58.6a13.3,13.3,0,0,0-4.4-10.03Z"/><path class="c" d="M48.2,82.7a1.282,1.282,0,0,0,1.05.14,1.41,1.41,0,0,0,.83-.68L52,78.8a1.341,1.341,0,0,0,.17-1.04,1.31,1.31,0,0,0-.63-.84,1.282,1.282,0,0,0-1.05-.14,1.41,1.41,0,0,0-.83.68l-1.94,3.38a1.447,1.447,0,0,0-.16,1.04A1.254,1.254,0,0,0,48.2,82.7Z"/><path class="b" d="M48.52,86.86a2.7,2.7,0,0,0-2.66-2.66,2.6,2.6,0,0,0-1.91.79,2.632,2.632,0,0,0,0,3.76,2.6,2.6,0,0,0,1.91.79,2.7,2.7,0,0,0,2.66-2.68Z"/><path class="c" d="M59.48,86.66a1.325,1.325,0,0,0,1.04.13,1.3,1.3,0,0,0,.82-.67l4.2-7.28a1.437,1.437,0,0,0,.17-1.07,1.308,1.308,0,0,0-.63-.83,1.36,1.36,0,0,0-1.88.54L58.98,84.8a1.369,1.369,0,0,0-.15,1.03A1.294,1.294,0,0,0,59.48,86.66Z"/><path class="b" d="M71,85.08a2.668,2.668,0,0,0,0,3.77,2.675,2.675,0,0,0,4.56-1.89,2.605,2.605,0,0,0-.78-1.88,2.633,2.633,0,0,0-3.78,0Z"/><path class="c" d="M75.26,82.8a1.25,1.25,0,0,0,1.04.14,1.337,1.337,0,0,0,.82-.68l1.92-3.36a1.324,1.324,0,0,0,.18-1.06,1.345,1.345,0,0,0-.64-.84,1.3,1.3,0,0,0-1.04-.12,1.487,1.487,0,0,0-.84.68l-1.94,3.38a1.407,1.407,0,0,0-.15,1.04A1.291,1.291,0,0,0,75.26,82.8Z"/></svg>