<svg xmlns="http://www.w3.org/2000/svg" viewBox="0 0 128 128"><defs><style>.a{fill:#0000;}.b{fill:#fff;}.c{fill:#ff0;}</style></defs><rect class="a" x="-1301" y="-341" width="2450" height="2182"/><polygon class="b" points="57.46 78.98 57.835 78.26 57.54 78.26 57.46 78.98"/><path class="c" d="M79.7,68.96a1.4,1.4,0,0,0,1.05.43,1.5,1.5,0,0,0,1.48-1.5,1.3,1.3,0,0,0-.43-1.03l-2.24-2.22a1.506,1.506,0,0,0-1.05-.43,1.4,1.4,0,0,0-1.05.43,1.522,1.522,0,0,0,0,2.1Z"/><path class="b" d="M68.62,71.62A7.793,7.793,0,0,0,71.5,68.8a7.665,7.665,0,0,0,1.06-4,7.263,7.263,0,0,0-1.09-3.94,7.868,7.868,0,0,0-2.96-2.76,8.886,8.886,0,0,0-4.25-1.04A10.482,10.482,0,0,0,62,54.11a9.7,9.7,0,0,0-3.05-1.88,9.921,9.921,0,0,0-3.59-.65,9.765,9.765,0,0,0-4.77,1.2,10.359,10.359,0,0,0-3.61,3.27,9.658,9.658,0,0,0-1.66,4.65,5.908,5.908,0,0,0-3.15,2.2A6.072,6.072,0,0,0,41,66.58a5.665,5.665,0,0,0,1.85,4.4,6.879,6.879,0,0,0,4.81,1.68h16.9A8.04,8.04,0,0,0,68.62,71.62Z"/><polygon class="b" points="55.94 79.84 55.566 80.74 55.74 80.74 55.94 79.84"/><path class="c" d="M53.64,86.08a.4.4,0,0,0,.46-.14l7.2-6.92a.49.49,0,0,0,.19-.5.353.353,0,0,0-.39-.26H57.835l-.375.72.08-.72h.3L59.2,75.64a.433.433,0,0,0,.05-.42.365.365,0,0,0-.35-.16H55.16a.7.7,0,0,0-.46.12.971.971,0,0,0-.24.34l-2.04,4.62a.47.47,0,0,0-.02.44.436.436,0,0,0,.4.16h2.766l.374-.9-.2.9h-.174L53.52,85.66Q53.4,86,53.64,86.08Z"/><path class="c" d="M71.28,46.67a1.456,1.456,0,0,0,.44-1.05V42.5a1.5,1.5,0,0,0-3,0v3.12a1.456,1.456,0,0,0,.44,1.05,1.473,1.473,0,0,0,2.12,0Z"/><path class="c" d="M86.13,58.43a1.428,1.428,0,0,0,.43-1.05,1.461,1.461,0,0,0-.43-1.06,1.414,1.414,0,0,0-1.05-.44H81.96a1.456,1.456,0,0,0-1.05.44,1.429,1.429,0,0,0-.45,1.06,1.4,1.4,0,0,0,.45,1.05,1.471,1.471,0,0,0,1.05.43h3.12A1.428,1.428,0,0,0,86.13,58.43Z"/><path class="c" d="M79.6,50.14l2.2-2.22a1.41,1.41,0,0,0,.43-1.06,1.468,1.468,0,0,0-1.48-1.49,1.4,1.4,0,0,0-1.05.43l-2.24,2.24a1.48,1.48,0,0,0,1.06,2.53A1.434,1.434,0,0,0,79.6,50.14Z"/><path class="c" d="M58.22,46.86a1.446,1.446,0,0,0,.44,1.06l2.2,2.22a1.422,1.422,0,0,0,1.07.43,1.461,1.461,0,0,0,1.05-.43,1.506,1.506,0,0,0,.43-1.05,1.4,1.4,0,0,0-.43-1.05L60.74,45.8a1.348,1.348,0,0,0-1.04-.43,1.485,1.485,0,0,0-1.48,1.49Z"/><path class="c" d="M74.5,64.04a8.775,8.775,0,0,0,2.63-2.92,7.9,7.9,0,0,0-.11-7.71,8.028,8.028,0,0,0-2.84-2.85,7.591,7.591,0,0,0-3.96-1.06,7.508,7.508,0,0,0-3.78.98,7.883,7.883,0,0,0-2.76,2.58,9.623,9.623,0,0,1,1.74,2.32,11.074,11.074,0,0,1,4.61,1.34,8.6,8.6,0,0,1,3.12,2.98A9.584,9.584,0,0,1,74.5,64.04Z"/></svg>