<svg xmlns="http://www.w3.org/2000/svg" viewBox="0 0 128 128"><defs><style>.a{fill:#0000;}.b{fill:none;}.c{fill:#fff;}</style></defs><rect class="a" x="-1149" y="-493" width="2450" height="2182"/><path class="b" d="M67.42,76.28a5.149,5.149,0,0,0,1.87-1.82,4.811,4.811,0,0,0,.69-2.54,4.88,4.88,0,0,0-.71-2.56,5,5,0,0,0-2.09-1.88,7.457,7.457,0,0,0-3.4-.7,2.019,2.019,0,0,1-1.03-.22,1.82,1.82,0,0,1-.65-.78,8.463,8.463,0,0,0-2.78-3.31,6.656,6.656,0,0,0-3.8-1.13,6.825,6.825,0,0,0-3.51.93,7.461,7.461,0,0,0-2.61,2.59,8.572,8.572,0,0,0-1.2,3.84,1.808,1.808,0,0,1-.33.99,1.649,1.649,0,0,1-.89.49,4.075,4.075,0,0,0-2.4,1.42,3.542,3.542,0,0,0-.7,2.1,3.1,3.1,0,0,0,.97,2.32,3.968,3.968,0,0,0,2.87.94H64.74A5.274,5.274,0,0,0,67.42,76.28Z"/><path class="b" d="M74.66,67.5a5.4,5.4,0,0,0,.3-5.79,5.272,5.272,0,0,0-1.88-1.89,5.385,5.385,0,0,0-5.31,0,5.113,5.113,0,0,0-2.547,4.171A8.836,8.836,0,0,1,68.77,65.02a7.974,7.974,0,0,1,2.99,2.81,7.143,7.143,0,0,1,.659,1.416A5.121,5.121,0,0,0,74.66,67.5Z"/><path class="c" d="M85.28,62.88H82.16a1.456,1.456,0,0,0-1.05.44,1.473,1.473,0,0,0,0,2.12,1.456,1.456,0,0,0,1.05.44h3.12a1.414,1.414,0,0,0,1.05-.44,1.522,1.522,0,0,0,0-2.12A1.414,1.414,0,0,0,85.28,62.88Z"/><path class="c" d="M62.59,64.71q.01.169.03.33l2.68.26c-.027-.147-.05-.3-.07-.45a3.627,3.627,0,0,1-.03-.47c0-.133.015-.259.023-.389-.239-.02-.476-.047-.723-.051a10.92,10.92,0,0,0-1.492-2.131,7.941,7.941,0,0,0-.428,2.571C62.58,64.487,62.583,64.6,62.59,64.71Z"/><path class="c" d="M68.84,78.78a8.063,8.063,0,0,0,2.93-2.87,7.731,7.731,0,0,0,1.088-4.036c-.247.078-.5.151-.758.206v-2.7c.111-.037.212-.09.319-.134a7.143,7.143,0,0,0-.659-1.416,7.974,7.974,0,0,0-2.99-2.81,8.836,8.836,0,0,0-3.547-1.029c-.008.13-.023.256-.023.389a3.627,3.627,0,0,0,.03.47c.02.153.043.3.07.45l-2.68-.26q-.02-.16-.03-.33c-.007-.113-.01-.223-.01-.33a7.941,7.941,0,0,1,.428-2.571,10.067,10.067,0,0,0-2.258-1.9,9.824,9.824,0,0,0-5.23-1.45,9.986,9.986,0,0,0-4.86,1.21,10.418,10.418,0,0,0-3.65,3.29,9.831,9.831,0,0,0-1.69,4.66,6.006,6.006,0,0,0-3.14,2.25A6.229,6.229,0,0,0,41,73.62a6.065,6.065,0,0,0,.86,3.24,5.937,5.937,0,0,0,2.39,2.19,7.627,7.627,0,0,0,3.55.79H64.7A8.141,8.141,0,0,0,68.84,78.78ZM47.72,76.96a3.968,3.968,0,0,1-2.87-.94,3.1,3.1,0,0,1-.97-2.32,3.542,3.542,0,0,1,.7-2.1,4.075,4.075,0,0,1,2.4-1.42,1.649,1.649,0,0,0,.89-.49,1.808,1.808,0,0,0,.33-.99,8.572,8.572,0,0,1,1.2-3.84,7.461,7.461,0,0,1,2.61-2.59,6.825,6.825,0,0,1,3.51-.93,6.656,6.656,0,0,1,3.8,1.13,8.463,8.463,0,0,1,2.78,3.31,1.82,1.82,0,0,0,.65.78,2.019,2.019,0,0,0,1.03.22,7.457,7.457,0,0,1,3.4.7,5,5,0,0,1,2.09,1.88,4.88,4.88,0,0,1,.71,2.56,4.811,4.811,0,0,1-.69,2.54,5.149,5.149,0,0,1-1.87,1.82,5.274,5.274,0,0,1-2.68.68Z"/><path class="c" d="M72.419,69.246c-.107.044-.208.1-.319.134v2.7c.26-.055.511-.128.758-.206,0-.012,0-.022,0-.034A7.794,7.794,0,0,0,72.419,69.246Z"/><path class="c" d="M65.223,63.991A5.251,5.251,0,0,1,73.08,59.82a5.272,5.272,0,0,1,1.88,1.89,5.26,5.26,0,0,1-2.541,7.536,7.794,7.794,0,0,1,.441,2.594c0,.012,0,.022,0,.034A7.461,7.461,0,0,0,75.27,70.59a8.09,8.09,0,0,0,2.2-2.72,7.945,7.945,0,0,0-.25-7.46,8.028,8.028,0,0,0-2.84-2.85,7.927,7.927,0,0,0-7.92,0,7.944,7.944,0,0,0-2.83,2.85,7.52,7.52,0,0,0-.622,1.4A10.92,10.92,0,0,1,64.5,63.94C64.747,63.944,64.984,63.971,65.223,63.991Z"/><path class="c" d="M80.95,52.38a1.467,1.467,0,0,0-1.05.42l-2.24,2.24a1.48,1.48,0,0,0,1.06,2.53,1.434,1.434,0,0,0,1.08-.43L82,54.92a1.41,1.41,0,0,0,.43-1.06A1.519,1.519,0,0,0,82,52.8,1.467,1.467,0,0,0,80.95,52.38Z"/><path class="c" d="M79.76,71.64a1.506,1.506,0,0,0-1.05-.43,1.4,1.4,0,0,0-1.05.43,1.522,1.522,0,0,0,0,2.1l2.24,2.22a1.4,1.4,0,0,0,1.05.43A1.471,1.471,0,0,0,82,75.94a1.449,1.449,0,0,0,.43-1.04A1.348,1.348,0,0,0,82,73.86Z"/><path class="c" d="M71.48,53.67a1.456,1.456,0,0,0,.44-1.05V49.5a1.5,1.5,0,0,0-3,0v3.12a1.456,1.456,0,0,0,.44,1.05,1.473,1.473,0,0,0,2.12,0Z"/><path class="c" d="M62.13,57.57a1.461,1.461,0,0,0,1.05-.43,1.506,1.506,0,0,0,.43-1.05,1.4,1.4,0,0,0-.43-1.05L60.94,52.8a1.5,1.5,0,0,0-2.08,0,1.5,1.5,0,0,0,0,2.12l2.2,2.22A1.422,1.422,0,0,0,62.13,57.57Z"/></svg>