<svg xmlns="http://www.w3.org/2000/svg" viewBox="0 0 128 128"><defs><style>.a{fill:#0000;}.b{fill:#ff0;}.c{fill:#00c9ea;}.d{fill:#fff;}</style></defs><rect class="a" x="-1149" y="-1253" width="2450" height="2182"/><path class="b" d="M100.76,55.81a1.748,1.748,0,0,0,.52-1.27,1.771,1.771,0,0,0-.52-1.29,1.724,1.724,0,0,0-1.28-.53H93.46a1.767,1.767,0,0,0-1.28.53,1.738,1.738,0,0,0-.54,1.29,1.717,1.717,0,0,0,.54,1.27,1.767,1.767,0,0,0,1.28.53h6.02A1.724,1.724,0,0,0,100.76,55.81Z"/><path class="c" d="M68.66,91.3a1.261,1.261,0,0,0-1.03-.15,1.43,1.43,0,0,0-.85.69L63.24,98a1.322,1.322,0,0,0-.17,1.03,1.294,1.294,0,0,0,.65.83,1.325,1.325,0,0,0,1.04.13,1.368,1.368,0,0,0,.84-.67l3.54-6.12a1.4,1.4,0,0,0,.16-1.07A1.344,1.344,0,0,0,68.66,91.3Z"/><path class="b" d="M73.51,28.53a1.734,1.734,0,0,0-.53,1.27v6.02a1.767,1.767,0,0,0,.53,1.28,1.825,1.825,0,0,0,3.11-1.28V29.8a1.717,1.717,0,0,0-.54-1.27,1.823,1.823,0,0,0-2.57,0Z"/><path class="c" d="M40.02,84.06A1.284,1.284,0,0,0,39,83.93a1.441,1.441,0,0,0-.84.67L34.6,90.76a1.359,1.359,0,0,0-.17,1.04,1.405,1.405,0,0,0,1.7.96,1.41,1.41,0,0,0,.83-.68l3.54-6.12a1.36,1.36,0,0,0,.18-1.07A1.329,1.329,0,0,0,40.02,84.06Z"/><path class="c" d="M60.56,84.04a1.3,1.3,0,0,0-1.03-.13,1.443,1.443,0,0,0-.85.67l-3.54,6.16a1.359,1.359,0,0,0-.17,1.04,1.291,1.291,0,0,0,.65.82,1.25,1.25,0,0,0,1.04.14,1.409,1.409,0,0,0,.84-.68l3.52-6.12a1.36,1.36,0,0,0,.18-1.07A1.344,1.344,0,0,0,60.56,84.04Z"/><path class="d" d="M32.01,78.35a11.7,11.7,0,0,0,5.43,1.21H65.48a13.127,13.127,0,0,0,5.02-.95,12.55,12.55,0,0,0,4.06-2.65A12.336,12.336,0,0,0,77.28,72a12.138,12.138,0,0,0,.98-4.88,11.633,11.633,0,0,0-3.81-8.74,13.158,13.158,0,0,0-4.24-2.59,14.678,14.678,0,0,0-5.29-.93,18.038,18.038,0,0,0-3.74-5,15.693,15.693,0,0,0-4.97-3.14,15.912,15.912,0,0,0-5.87-1.08,15.344,15.344,0,0,0-5.88,1.14,16.314,16.314,0,0,0-4.97,3.18,16.592,16.592,0,0,0-3.55,4.76,16.253,16.253,0,0,0-1.64,5.9,10.361,10.361,0,0,0-3.87,2.01A9.5,9.5,0,0,0,27,70.04a8.986,8.986,0,0,0,5.01,8.31Z"/><path class="b" d="M60.3,42.6a1.772,1.772,0,0,0,1.3.54,1.643,1.643,0,0,0,1.26-.54,1.753,1.753,0,0,0,.53-1.26,1.651,1.651,0,0,0-.53-1.26l-4.28-4.3a1.782,1.782,0,0,0-1.28-.52,1.776,1.776,0,0,0-1.78,1.79,1.793,1.793,0,0,0,.52,1.29Z"/><path class="b" d="M94.07,37.05a1.764,1.764,0,0,0-.53-1.27,1.716,1.716,0,0,0-1.26-.52,1.782,1.782,0,0,0-1.28.52l-4.28,4.3a1.68,1.68,0,0,0-.51,1.26,1.792,1.792,0,0,0,.51,1.26,1.655,1.655,0,0,0,1.27.54,1.784,1.784,0,0,0,1.31-.54l4.24-4.26A1.725,1.725,0,0,0,94.07,37.05Z"/><path class="b" d="M86.72,66.5a1.811,1.811,0,0,0,0,2.54L91,73.32a1.811,1.811,0,0,0,2.54-.02,1.764,1.764,0,0,0,.53-1.27,1.662,1.662,0,0,0-.53-1.27L89.26,66.5a1.764,1.764,0,0,0-1.27-.53A1.662,1.662,0,0,0,86.72,66.5Z"/><path class="b" d="M66.56,52.38a17.279,17.279,0,0,1,7.26,2.07,13.921,13.921,0,0,1,4.95,4.62,14.926,14.926,0,0,1,2.25,6.59,14.377,14.377,0,0,0,4.64-4.76,12.168,12.168,0,0,0,1.72-6.36,12.5,12.5,0,0,0-3.67-8.95,12.68,12.68,0,0,0-4.02-2.71,12.353,12.353,0,0,0-4.91-.98,12.223,12.223,0,0,0-8.31,3.18,12.34,12.34,0,0,0-2.67,3.46,16.773,16.773,0,0,1,2.76,3.84Z"/><path class="c" d="M43.18,99.88a1.36,1.36,0,0,0,1.88-.54l3.54-6.12a1.36,1.36,0,0,0,.18-1.07,1.329,1.329,0,0,0-.66-.83,1.241,1.241,0,0,0-1.02-.15,1.429,1.429,0,0,0-.84.69L42.7,98.02a1.322,1.322,0,0,0-.17,1.03A1.294,1.294,0,0,0,43.18,99.88Z"/></svg>