<svg xmlns="http://www.w3.org/2000/svg" viewBox="0 0 128 128"><defs><style>.a{fill:#0000;}.b{fill:none;}.c{fill:#fff;}</style></defs><rect class="a" x="-1301" y="-1709" width="2450" height="2182"/><path class="b" d="M86.87,50.29a11.409,11.409,0,0,0-3.85-2.27,14.877,14.877,0,0,0-5.1-.82,3.168,3.168,0,0,1-1.6-.34,2.712,2.712,0,0,1-1-1.2,18.653,18.653,0,0,0-3.41-4.91,14.051,14.051,0,0,0-4.58-3.14,14.319,14.319,0,0,0-5.65-1.09,13.669,13.669,0,0,0-5.46,1.11,14.923,14.923,0,0,0-4.61,3.11,15.869,15.869,0,0,0-3.28,4.71,16.7,16.7,0,0,0-1.47,5.89,2.544,2.544,0,0,1-.46,1.47,2.481,2.481,0,0,1-1.36.73,9.05,9.05,0,0,0-4.94,2.93,7.191,7.191,0,0,0-1.6,4.57,7.118,7.118,0,0,0,.95,3.65,6.712,6.712,0,0,0,2.81,2.59,9.953,9.953,0,0,0,4.6.96H79.24a11.247,11.247,0,0,0,4.3-.81A10.651,10.651,0,0,0,87,65.17a10.536,10.536,0,0,0,2.31-3.36,10.2,10.2,0,0,0,.83-4.11,9.854,9.854,0,0,0-3.27-7.41Z"/><path class="c" d="M82.94,76.73a1.329,1.329,0,0,0-.66-.83,1.211,1.211,0,0,0-1.02-.14,1.487,1.487,0,0,0-.84.68L76.86,82.6a1.322,1.322,0,0,0-.17,1.03,1.294,1.294,0,0,0,.65.83,1.36,1.36,0,0,0,1.88-.54l3.54-6.12A1.36,1.36,0,0,0,82.94,76.73Z"/><path class="c" d="M89.24,47.57a14.916,14.916,0,0,0-4.86-2.93,17.052,17.052,0,0,0-6.02-1.04A20.6,20.6,0,0,0,74.28,38a17.762,17.762,0,0,0-5.64-3.69A18.1,18.1,0,0,0,61.68,33a17.507,17.507,0,0,0-6.78,1.32A18.468,18.468,0,0,0,49.23,38a19.186,19.186,0,0,0-4.03,5.48,18.792,18.792,0,0,0-1.86,6.72,11.938,11.938,0,0,0-4.25,2.16,10.918,10.918,0,0,0-2.99,3.68,11.36,11.36,0,0,0,.3,10.34,10.163,10.163,0,0,0,4.07,3.92,13.226,13.226,0,0,0,6.43,1.46H79.04a15.166,15.166,0,0,0,5.79-1.09,14.2,14.2,0,0,0,4.65-3.04A13.9,13.9,0,0,0,93.64,57.6a13.3,13.3,0,0,0-4.4-10.03Zm.07,14.24A10.536,10.536,0,0,1,87,65.17a10.651,10.651,0,0,1-3.46,2.26,11.247,11.247,0,0,1-4.3.81H46.86a9.953,9.953,0,0,1-4.6-.96,6.712,6.712,0,0,1-2.81-2.59,7.118,7.118,0,0,1-.95-3.65,7.191,7.191,0,0,1,1.6-4.57,9.05,9.05,0,0,1,4.94-2.93,2.481,2.481,0,0,0,1.36-.73,2.544,2.544,0,0,0,.46-1.47,16.7,16.7,0,0,1,1.47-5.89,15.869,15.869,0,0,1,3.28-4.71,14.923,14.923,0,0,1,4.61-3.11,13.669,13.669,0,0,1,5.46-1.11,14.319,14.319,0,0,1,5.65,1.09,14.051,14.051,0,0,1,4.58,3.14,18.653,18.653,0,0,1,3.41,4.91,2.712,2.712,0,0,0,1,1.2,3.168,3.168,0,0,0,1.6.34,14.877,14.877,0,0,1,5.1.82,11.409,11.409,0,0,1,3.85,2.27,9.854,9.854,0,0,1,3.27,7.41A10.2,10.2,0,0,1,89.31,61.81Z"/><path class="c" d="M87.34,83.12a1.241,1.241,0,0,0-1.02-.15,1.429,1.429,0,0,0-.84.69l-3.56,6.16a1.322,1.322,0,0,0-.17,1.03,1.294,1.294,0,0,0,.65.83,1.325,1.325,0,0,0,1.04.13,1.368,1.368,0,0,0,.84-.67l3.54-6.12a1.326,1.326,0,0,0,.17-1.07A1.385,1.385,0,0,0,87.34,83.12Z"/><path class="c" d="M47.34,76.73a1.344,1.344,0,0,0-.64-.83,1.263,1.263,0,0,0-1.04-.14,1.487,1.487,0,0,0-.84.68L41.26,82.6a1.322,1.322,0,0,0-.17,1.03,1.294,1.294,0,0,0,.65.83,1.36,1.36,0,0,0,1.88-.54l3.54-6.12A1.36,1.36,0,0,0,47.34,76.73Z"/><path class="c" d="M69.72,81.76H64.695l-.555,1.06-.02-1.06h.575l2.745-5.24a.751.751,0,0,0,.07-.71.6.6,0,0,0-.59-.29H62.16a1.265,1.265,0,0,0-.79.2,1.574,1.574,0,0,0-.43.6L57.4,84.38a.733.733,0,0,0-.01.77.847.847,0,0,0,.71.27h4.206l.634-1.54-.32,1.54h-.314L58.76,94.04q-.24.581.18.74a.7.7,0,0,0,.8-.28L70.16,83.04a.847.847,0,0,0,.26-.86A.647.647,0,0,0,69.72,81.76Z"/><path class="c" d="M51.74,83.12a1.241,1.241,0,0,0-1.02-.15,1.429,1.429,0,0,0-.84.69l-3.56,6.16a1.322,1.322,0,0,0-.17,1.03,1.294,1.294,0,0,0,.65.83,1.325,1.325,0,0,0,1.04.13,1.368,1.368,0,0,0,.84-.67l3.54-6.12a1.36,1.36,0,0,0,.18-1.07A1.329,1.329,0,0,0,51.74,83.12Z"/><polygon class="c" points="64.14 82.82 64.695 81.76 64.12 81.76 64.14 82.82"/><polygon class="c" points="62.94 83.88 62.306 85.42 62.62 85.42 62.94 83.88"/></svg>