<svg xmlns="http://www.w3.org/2000/svg" viewBox="0 0 128 128"><defs><style>.a{fill:#0000;}.b{fill:none;}.c{fill:#fff;}</style></defs><rect class="a" x="-1301" y="-1253" width="2450" height="2182"/><path class="b" d="M76.18,60.8a8.914,8.914,0,0,0,2.39-.72,7.778,7.778,0,0,0,1.82-1.18,5.683,5.683,0,0,0,1.21-1.46l-.1-.12a7.368,7.368,0,0,1-1.18.27,10,10,0,0,1-1.54.11,8.4,8.4,0,0,1-4.07-.97,7.212,7.212,0,0,1-2.82-2.71,7.779,7.779,0,0,1-1.03-4.04,9.1,9.1,0,0,1,.13-1.58,10.854,10.854,0,0,1,.31-1.32l-.2-.12a6.955,6.955,0,0,0-1.42,1.16,7.556,7.556,0,0,0-1.81,3.26,7.5,7.5,0,0,0-.25,1.94,8.2,8.2,0,0,0,.386,2.508,8.623,8.623,0,0,1,2.764.932,7.945,7.945,0,0,1,2.99,2.82,7.308,7.308,0,0,1,.63,1.337A10.828,10.828,0,0,0,76.18,60.8Z"/><path class="b" d="M49.72,68.7H66.74a5.329,5.329,0,0,0,2.68-.67,5.048,5.048,0,0,0,1.87-1.82,4.995,4.995,0,0,0-.02-5.1,5.09,5.09,0,0,0-2.09-1.88,7.377,7.377,0,0,0-3.4-.71,2.019,2.019,0,0,1-1.03-.22,1.82,1.82,0,0,1-.65-.78,8.463,8.463,0,0,0-2.78-3.31,6.656,6.656,0,0,0-3.8-1.13,6.766,6.766,0,0,0-3.51.94,7.55,7.55,0,0,0-2.61,2.6,8.541,8.541,0,0,0-1.2,3.82,1.866,1.866,0,0,1-.33,1,1.612,1.612,0,0,1-.89.5,4.1,4.1,0,0,0-2.4,1.41,3.5,3.5,0,0,0-.7,2.09,3.1,3.1,0,0,0,.97,2.32A3.968,3.968,0,0,0,49.72,68.7Z"/><path class="c" d="M68.54,78.456a1.014,1.014,0,0,0-.82-.12,1.125,1.125,0,0,0-.64.5l-1.94,3.4a.976.976,0,0,0-.12.77,1.018,1.018,0,0,0,.52.65.991.991,0,0,0,.8.1,1.049,1.049,0,0,0,.64-.5l1.94-3.36a.949.949,0,0,0,.12-.8A1.049,1.049,0,0,0,68.54,78.456Z"/><path class="c" d="M56.08,78.476a1.048,1.048,0,0,0-.82-.13,1.062,1.062,0,0,0-.64.51l-1.94,3.4a.976.976,0,0,0-.12.77,1.018,1.018,0,0,0,.52.65.991.991,0,0,0,.8.1,1.049,1.049,0,0,0,.64-.5l1.94-3.36a.949.949,0,0,0,.12-.8A1.049,1.049,0,0,0,56.08,78.476Z"/><path class="c" d="M68.006,55.824a8.2,8.2,0,0,1-.386-2.508,7.569,7.569,0,0,1,.96-3.7,7.6,7.6,0,0,1,1.1-1.5,6.955,6.955,0,0,1,1.42-1.16l.2.12a10.854,10.854,0,0,0-.31,1.32,9.1,9.1,0,0,0-.13,1.58,7.779,7.779,0,0,0,1.03,4.04,7.212,7.212,0,0,0,2.82,2.71,8.4,8.4,0,0,0,4.07.97,10,10,0,0,0,1.54-.11,7.368,7.368,0,0,0,1.18-.27l.1.12a5.683,5.683,0,0,1-1.21,1.46,7.778,7.778,0,0,1-1.82,1.18,8.914,8.914,0,0,1-2.39.72,10.828,10.828,0,0,1-1.79.117,7.717,7.717,0,0,1,.466,2.6,12.468,12.468,0,0,0,2.294-.278,11.1,11.1,0,0,0,3.16-1.21,9.19,9.19,0,0,0,2.37-1.95,9.594,9.594,0,0,0,1.56-2.5,2.033,2.033,0,0,0,0-1.92,1.624,1.624,0,0,0-1.52-.84,5.492,5.492,0,0,0-1.43.18,7.564,7.564,0,0,1-1.87.18,6.07,6.07,0,0,1-4.49-1.52,5.752,5.752,0,0,1-1.51-4.24,7.355,7.355,0,0,1,.13-1.46q.13-.641.25-1.16a4.367,4.367,0,0,0,.12-.98,1.668,1.668,0,0,0-.82-1.56,2.258,2.258,0,0,0-1.98-.06,8.461,8.461,0,0,0-2.46,1.38,9.5,9.5,0,0,0-1.94,2.12A10.187,10.187,0,0,0,65,53.376c0,.061.007.121.008.182A10.944,10.944,0,0,1,66.5,55.676,10.179,10.179,0,0,1,68.006,55.824Z"/><path class="c" d="M63.64,74.036a.963.963,0,0,0-.8-.12,1.125,1.125,0,0,0-.64.5l-1.96,3.4a.948.948,0,0,0-.11.77,1.064,1.064,0,0,0,.51.65,1.071,1.071,0,0,0,1.46-.4l1.94-3.36a1.022,1.022,0,0,0,.11-.8A1,1,0,0,0,63.64,74.036Z"/><path class="c" d="M44.18,61.616A6.184,6.184,0,0,0,43,65.356a6.065,6.065,0,0,0,.86,3.24,5.937,5.937,0,0,0,2.39,2.19,7.627,7.627,0,0,0,3.55.79H66.7a8.078,8.078,0,0,0,7.07-3.93,7.732,7.732,0,0,0,1.09-4.07c0-.021,0-.041,0-.062A15.671,15.671,0,0,1,73.24,63.5v-2.62c.4.035.775.036,1.15.037a7.308,7.308,0,0,0-.63-1.337,7.945,7.945,0,0,0-2.99-2.82,8.623,8.623,0,0,0-2.764-.932,7.159,7.159,0,0,0,.774,1.692h-3a11.142,11.142,0,0,1-.58-2,11.359,11.359,0,0,1-.192-1.958,10.164,10.164,0,0,0-2.258-1.9,9.779,9.779,0,0,0-5.23-1.46,9.986,9.986,0,0,0-4.86,1.21,10.418,10.418,0,0,0-3.65,3.29,9.831,9.831,0,0,0-1.69,4.66A6.14,6.14,0,0,0,44.18,61.616Zm2.4,1.73a4.1,4.1,0,0,1,2.4-1.41,1.612,1.612,0,0,0,.89-.5,1.866,1.866,0,0,0,.33-1,8.541,8.541,0,0,1,1.2-3.82,7.55,7.55,0,0,1,2.61-2.6,6.766,6.766,0,0,1,3.51-.94,6.656,6.656,0,0,1,3.8,1.13,8.463,8.463,0,0,1,2.78,3.31,1.82,1.82,0,0,0,.65.78,2.019,2.019,0,0,0,1.03.22,7.377,7.377,0,0,1,3.4.71,5.09,5.09,0,0,1,2.09,1.88,4.995,4.995,0,0,1,.02,5.1,5.048,5.048,0,0,1-1.87,1.82,5.329,5.329,0,0,1-2.68.67H49.72a3.968,3.968,0,0,1-2.87-.94,3.1,3.1,0,0,1-.97-2.32A3.5,3.5,0,0,1,46.58,63.346Z"/><path class="c" d="M65.78,57.516h3a7.159,7.159,0,0,1-.774-1.692,10.179,10.179,0,0,0-1.506-.148,10.944,10.944,0,0,0-1.492-2.118,11.359,11.359,0,0,0,.192,1.958A11.142,11.142,0,0,0,65.78,57.516Z"/><path class="c" d="M73.24,60.876V63.5a15.671,15.671,0,0,0,1.616.018,7.717,7.717,0,0,0-.466-2.6C74.015,60.912,73.639,60.911,73.24,60.876Z"/><path class="c" d="M51.18,74.056a.963.963,0,0,0-.8-.12,1.125,1.125,0,0,0-.64.5l-1.96,3.4a.948.948,0,0,0-.11.77,1.064,1.064,0,0,0,.51.65,1.071,1.071,0,0,0,1.46-.4l1.94-3.36a1.022,1.022,0,0,0,.11-.8A1,1,0,0,0,51.18,74.056Z"/></svg>