<svg xmlns="http://www.w3.org/2000/svg" viewBox="0 0 128 128"><defs><style>.a{fill:#0000;}.b{fill:#fff;}.c{fill:#00c9ea;}</style></defs><rect class="a" x="-693" y="-949" width="2450" height="2182"/><path class="b" d="M50.94,56.44a6.9,6.9,0,0,0-3.53,2.39A6.639,6.639,0,0,0,46,63.1a6.859,6.859,0,0,0,.88,3.45,6.4,6.4,0,0,0,2.56,2.47,8.345,8.345,0,0,0,4.06.92H72.88a9.034,9.034,0,0,0,4.65-1.2,8.877,8.877,0,0,0,3.23-3.21,8.624,8.624,0,0,0,1.18-4.45,8.29,8.29,0,0,0-1.25-4.52,8.827,8.827,0,0,0-3.4-3.12,10.147,10.147,0,0,0-4.83-1.14,11.838,11.838,0,0,0-2.5-3.33,11.17,11.17,0,0,0-3.46-2.19,11.427,11.427,0,0,0-9.63.62,11.862,11.862,0,0,0-4.08,3.76A11.039,11.039,0,0,0,50.94,56.44Z"/><path class="c" d="M68.1,72.36a1.094,1.094,0,0,0-.82-.11,1.062,1.062,0,0,0-.64.51l-1.94,3.4a.976.976,0,0,0-.12.77.955.955,0,0,0,.52.63,1.022,1.022,0,0,0,.8.11,1.01,1.01,0,0,0,.64-.49l1.94-3.36a.982.982,0,0,0,.12-.81A1.126,1.126,0,0,0,68.1,72.36Z"/><path class="c" d="M60.52,76.8a1.055,1.055,0,0,0-1.46.4l-1.94,3.38a1.01,1.01,0,0,0,.4,1.42,1.022,1.022,0,0,0,.8.11,1.01,1.01,0,0,0,.64-.49l1.94-3.36a.982.982,0,0,0,.12-.81A1.126,1.126,0,0,0,60.52,76.8Z"/><path class="c" d="M72.98,76.78a1.055,1.055,0,0,0-1.46.4l-1.94,3.4a.948.948,0,0,0-.11.77,1,1,0,0,0,.51.63,1.079,1.079,0,0,0,.82.11.939.939,0,0,0,.62-.49l1.94-3.36a1.014,1.014,0,0,0,.13-.81A1.064,1.064,0,0,0,72.98,76.78Z"/><path class="c" d="M55.64,72.38a1.094,1.094,0,0,0-.82-.11,1.062,1.062,0,0,0-.64.51l-1.96,3.4a1.03,1.03,0,0,0-.1.77.955.955,0,0,0,.52.63,1.022,1.022,0,0,0,.8.11,1.01,1.01,0,0,0,.64-.49l1.94-3.36a.982.982,0,0,0,.12-.81A1.126,1.126,0,0,0,55.64,72.38Z"/></svg>