<svg xmlns="http://www.w3.org/2000/svg" viewBox="0 0 128 128"><defs><style>.a{fill:#0000;}.b{fill:#fff;}</style></defs><rect class="a" x="-997" y="-493" width="2450" height="2182"/><path class="b" d="M89.24,47.57a14.916,14.916,0,0,0-4.86-2.93,17.052,17.052,0,0,0-6.02-1.04A20.6,20.6,0,0,0,74.28,38a17.762,17.762,0,0,0-5.64-3.69A18.1,18.1,0,0,0,61.68,33a17.507,17.507,0,0,0-6.78,1.32A18.468,18.468,0,0,0,49.23,38a19.186,19.186,0,0,0-4.03,5.48,18.792,18.792,0,0,0-1.86,6.72,11.938,11.938,0,0,0-4.25,2.16,10.918,10.918,0,0,0-2.99,3.68,11.36,11.36,0,0,0,.3,10.34,10.163,10.163,0,0,0,4.07,3.92,13.226,13.226,0,0,0,6.43,1.46H79.04a15.166,15.166,0,0,0,5.79-1.09,14.2,14.2,0,0,0,4.65-3.04A13.9,13.9,0,0,0,93.64,57.6a13.3,13.3,0,0,0-4.4-10.03Z"/><path class="b" d="M44.6,81.84a.816.816,0,0,0,.06.64.655.655,0,0,0,.52.35.915.915,0,0,0,.64-.13l2.14-1.4-.14,2.52a1,1,0,0,0,.2.61.677.677,0,0,0,.58.27.663.663,0,0,0,.55-.27.88.88,0,0,0,.19-.61l-.14-2.54,2.12,1.4a.792.792,0,0,0,.62.14.811.811,0,0,0,.54-.34.766.766,0,0,0,.07-.65.809.809,0,0,0-.47-.51L49.82,80.2l2.28-1.16a.845.845,0,0,0,.44-.51.855.855,0,0,0-.04-.63.71.71,0,0,0-.54-.35.915.915,0,0,0-.64.13L49.2,79.12l.16-2.54a.8.8,0,0,0-.19-.64.731.731,0,0,0-.57-.26.717.717,0,0,0-.59.26.986.986,0,0,0-.21.64l.16,2.54-2.14-1.44a.913.913,0,0,0-.62-.14.663.663,0,0,0-.52.36.828.828,0,0,0-.07.63.8.8,0,0,0,.45.51l2.26,1.16-2.26,1.12A.838.838,0,0,0,44.6,81.84Z"/><path class="b" d="M58.88,81.84a.769.769,0,0,0,.08.64.655.655,0,0,0,.52.35.915.915,0,0,0,.64-.13l2.14-1.4-.14,2.52a.908.908,0,0,0,.18.61.7.7,0,0,0,.6.27.663.663,0,0,0,.55-.27.88.88,0,0,0,.19-.61l-.14-2.54,2.1,1.4a.81.81,0,0,0,.63.14.818.818,0,0,0,.55-.34.838.838,0,0,0,.06-.65.778.778,0,0,0-.46-.51L64.12,80.2l2.28-1.16a.845.845,0,0,0,.44-.51.855.855,0,0,0-.04-.63.717.717,0,0,0-.55-.35.935.935,0,0,0-.65.13l-2.1,1.44.16-2.54a.881.881,0,0,0-.2-.64.7.7,0,0,0-.56-.26.739.739,0,0,0-.61.26.907.907,0,0,0-.19.64l.16,2.54-2.14-1.44a.913.913,0,0,0-.62-.14.663.663,0,0,0-.52.36.828.828,0,0,0-.07.63.807.807,0,0,0,.43.51L61.6,80.2l-2.26,1.12A.838.838,0,0,0,58.88,81.84Z"/><path class="b" d="M39,91.52a.816.816,0,0,0,.06.64.682.682,0,0,0,.52.36.827.827,0,0,0,.64-.14l2.14-1.4-.14,2.52a1,1,0,0,0,.2.61.677.677,0,0,0,.58.27.663.663,0,0,0,.55-.27.88.88,0,0,0,.19-.61l-.14-2.52,2.12,1.4a.838.838,0,0,0,.62.12.811.811,0,0,0,.54-.34.717.717,0,0,0,.07-.63.874.874,0,0,0-.47-.53l-2.26-1.12,2.28-1.16a.845.845,0,0,0,.44-.51.855.855,0,0,0-.04-.63.71.71,0,0,0-.54-.35.862.862,0,0,0-.64.15L43.6,88.8l.16-2.54a.8.8,0,0,0-.19-.64.731.731,0,0,0-.57-.26.717.717,0,0,0-.59.26.986.986,0,0,0-.21.64l.16,2.54-2.14-1.42a.86.86,0,0,0-.62-.16.663.663,0,0,0-.52.36.828.828,0,0,0-.07.63.8.8,0,0,0,.45.51l2.26,1.16-2.26,1.14A.776.776,0,0,0,39,91.52Z"/><path class="b" d="M53.28,91.52a.769.769,0,0,0,.08.64.682.682,0,0,0,.52.36.827.827,0,0,0,.64-.14l2.14-1.4-.14,2.52a.88.88,0,0,0,.19.61.7.7,0,0,0,.59.27.663.663,0,0,0,.55-.27.88.88,0,0,0,.19-.61l-.14-2.52,2.1,1.4a.858.858,0,0,0,.63.12.818.818,0,0,0,.55-.34.784.784,0,0,0,.06-.63.84.84,0,0,0-.46-.53l-2.26-1.12,2.28-1.16a.845.845,0,0,0,.44-.51.855.855,0,0,0-.04-.63.717.717,0,0,0-.55-.35.879.879,0,0,0-.65.15L57.9,88.8l.16-2.54a.881.881,0,0,0-.2-.64.7.7,0,0,0-.56-.26.747.747,0,0,0-.6.26.881.881,0,0,0-.2.64l.16,2.54-2.14-1.42a.86.86,0,0,0-.62-.16.663.663,0,0,0-.52.36.828.828,0,0,0-.07.63.807.807,0,0,0,.43.51l2.28,1.16-2.28,1.14A.776.776,0,0,0,53.28,91.52Z"/><path class="b" d="M67.58,91.52a.816.816,0,0,0,.06.64.735.735,0,0,0,.53.36.87.87,0,0,0,.65-.14l2.12-1.4-.12,2.52a.908.908,0,0,0,.18.61.747.747,0,0,0,1.15,0,.88.88,0,0,0,.19-.61l-.16-2.52,2.12,1.4a.858.858,0,0,0,.63.12.75.75,0,0,0,.53-.34.717.717,0,0,0,.07-.63.881.881,0,0,0-.45-.53l-2.26-1.12,2.28-1.16a.845.845,0,0,0,.44-.51.8.8,0,0,0-.06-.63.661.661,0,0,0-.53-.35.879.879,0,0,0-.65.15L72.18,88.8l.18-2.54a.881.881,0,0,0-.2-.64.788.788,0,0,0-1.17,0,.907.907,0,0,0-.19.64l.14,2.54-2.12-1.42a.91.91,0,0,0-.63-.16.658.658,0,0,0-.51.36.75.75,0,0,0-.08.63.845.845,0,0,0,.44.51l2.26,1.16-2.26,1.14A.776.776,0,0,0,67.58,91.52Z"/><path class="b" d="M73.18,81.84a.816.816,0,0,0,.06.64.7.7,0,0,0,.53.35.965.965,0,0,0,.65-.13l2.12-1.4-.12,2.52a.908.908,0,0,0,.18.61.747.747,0,0,0,1.15,0,.88.88,0,0,0,.19-.61l-.16-2.54,2.12,1.4a.81.81,0,0,0,.63.14.75.75,0,0,0,.53-.34.766.766,0,0,0,.07-.65.813.813,0,0,0-.45-.51L78.42,80.2l2.28-1.16a.845.845,0,0,0,.44-.51.8.8,0,0,0-.06-.63.661.661,0,0,0-.53-.35.935.935,0,0,0-.65.13l-2.12,1.44.18-2.54a.881.881,0,0,0-.2-.64.788.788,0,0,0-1.17,0,.907.907,0,0,0-.19.64l.14,2.54-2.12-1.44a.967.967,0,0,0-.63-.14.658.658,0,0,0-.51.36.75.75,0,0,0-.08.63.845.845,0,0,0,.44.51L75.9,80.2l-2.26,1.12A.838.838,0,0,0,73.18,81.84Z"/></svg>