<svg xmlns="http://www.w3.org/2000/svg" viewBox="0 0 128 128"><defs><style>.a{fill:#0000;}.b{fill:#00c9ea;}.c{fill:#fff;}.d{fill:#b3b3b3;}</style></defs><rect class="a" x="-1301" y="-1405" width="2450" height="2182"/><path class="b" d="M66.54,95.1a1.25,1.25,0,0,0,1.04.14,1.333,1.333,0,0,0,.82-.68l3.54-6.12a1.324,1.324,0,0,0,.18-1.06,1.358,1.358,0,0,0-1.68-.97,1.445,1.445,0,0,0-.84.67l-3.56,6.18a1.274,1.274,0,0,0-.16,1.02A1.327,1.327,0,0,0,66.54,95.1Z"/><path class="c" d="M40.46,74.844H68.48a13.181,13.181,0,0,0,5.03-.95,12.6,12.6,0,0,0,4.07-2.64,12.153,12.153,0,0,0,3.7-8.83,11.714,11.714,0,0,0-1-4.85,11.871,11.871,0,0,0-2.81-3.9,12.952,12.952,0,0,0-4.24-2.59,15.147,15.147,0,0,0-5.29-.94,17.946,17.946,0,0,0-3.75-5,15.668,15.668,0,0,0-10.83-4.22,15.325,15.325,0,0,0-5.89,1.14,16.341,16.341,0,0,0-4.96,3.18,16.684,16.684,0,0,0-3.56,4.77,16.236,16.236,0,0,0-1.65,5.91,10.55,10.55,0,0,0-3.86,2,9.425,9.425,0,0,0-2.54,3.27,9.615,9.615,0,0,0-.9,4.15,9.21,9.21,0,0,0,1.33,4.95,9.082,9.082,0,0,0,3.68,3.35A11.826,11.826,0,0,0,40.46,74.844Z"/><path class="b" d="M43.48,80.154a1.344,1.344,0,0,0-.64-.83,1.294,1.294,0,0,0-1.04-.15,1.429,1.429,0,0,0-.84.69l-3.56,6.16a1.37,1.37,0,0,0-.15,1.03,1.363,1.363,0,0,0,1.69.95,1.345,1.345,0,0,0,.82-.66L43.3,81.2A1.3,1.3,0,0,0,43.48,80.154Z"/><path class="d" d="M95.94,48.5a3.924,3.924,0,0,0-1.45.38,20.712,20.712,0,0,1-2.15.76,10.113,10.113,0,0,1-2.92.38,11.887,11.887,0,0,1-5.55-1.22,8.834,8.834,0,0,1-3.64-3.42,10.913,10.913,0,0,1-.86-8.18q.43-1.359.86-2.38a4.488,4.488,0,0,0,.43-1.62,1.129,1.129,0,0,0-.39-.91A1.571,1.571,0,0,0,79.14,32a9.087,9.087,0,0,0-3.83,1.17,14.572,14.572,0,0,0-3.55,2.78,17.392,17.392,0,0,0-2.8,3.96,15.9,15.9,0,0,0-1.58,4.75,9.608,9.608,0,0,1,1.96,2.86,17.242,17.242,0,0,1,5.84,1.44,15.815,15.815,0,0,1,4.64,3.15,14.518,14.518,0,0,1,3.1,4.46,14.28,14.28,0,0,1,1.22,5.37,17.659,17.659,0,0,0,5.59-1.92,16.4,16.4,0,0,0,4.07-3.13,13.993,13.993,0,0,0,2.48-3.58,7.914,7.914,0,0,0,.84-3.29,1.816,1.816,0,0,0-.31-1.09A1.013,1.013,0,0,0,95.94,48.5Z"/><path class="b" d="M58.44,87.864a1.273,1.273,0,0,0,1.03.12,1.421,1.421,0,0,0,.83-.66l3.54-6.14a1.3,1.3,0,0,0,.18-1.05,1.344,1.344,0,0,0-.64-.83,1.294,1.294,0,0,0-1.04-.15,1.429,1.429,0,0,0-.84.69L57.94,86a1.293,1.293,0,0,0-.16,1.03A1.327,1.327,0,0,0,58.44,87.864Z"/><path class="b" d="M46,95.124a1.25,1.25,0,0,0,1.04.14,1.405,1.405,0,0,0,.84-.68l3.52-6.12a1.324,1.324,0,0,0,.18-1.06,1.358,1.358,0,0,0-1.68-.97,1.445,1.445,0,0,0-.84.67l-3.56,6.18a1.349,1.349,0,0,0-.15,1.02A1.291,1.291,0,0,0,46,95.124Z"/></svg>