<svg xmlns="http://www.w3.org/2000/svg" viewBox="0 0 128 128"><defs><style>.a{fill:#0000;}.b{fill:#fff;}</style></defs><rect class="a" x="-693" y="-189" width="2450" height="2182"/><path class="b" d="M89.83,59.26a15.5,15.5,0,0,0-5.1-3.07,18.123,18.123,0,0,0-6.37-1.09,21.215,21.215,0,0,0-4.28-5.93,18.228,18.228,0,0,0-5.91-3.83A19.2,19.2,0,0,0,60.94,44a18.284,18.284,0,0,0-7.07,1.38,19.436,19.436,0,0,0-5.94,3.84,19.771,19.771,0,0,0-6.15,12.82,12.29,12.29,0,0,0-4.54,2.3,11.493,11.493,0,0,0-3.11,3.88,11.759,11.759,0,0,0,.4,10.83,10.692,10.692,0,0,0,4.32,4.01,13.988,13.988,0,0,0,6.57,1.46H79.18a15.585,15.585,0,0,0,5.99-1.14,15.264,15.264,0,0,0,4.85-3.15,14.407,14.407,0,0,0,4.4-10.49,13.951,13.951,0,0,0-1.21-5.83A14.124,14.124,0,0,0,89.83,59.26Z"/></svg>