<svg xmlns="http://www.w3.org/2000/svg" viewBox="0 0 128 128"><defs><style>.a{fill:#0000;}.b{fill:#fff;}.c{fill:#ff0;}</style></defs><rect class="a" x="-997" y="-1709" width="2450" height="2182"/><path class="b" d="M89.24,47.57a14.916,14.916,0,0,0-4.86-2.93,17.052,17.052,0,0,0-6.02-1.04A20.6,20.6,0,0,0,74.28,38a17.762,17.762,0,0,0-5.64-3.69A18.1,18.1,0,0,0,61.68,33a17.507,17.507,0,0,0-6.78,1.32A18.468,18.468,0,0,0,49.23,38a19.186,19.186,0,0,0-4.03,5.48,18.792,18.792,0,0,0-1.86,6.72,11.938,11.938,0,0,0-4.25,2.16,10.918,10.918,0,0,0-2.99,3.68,11.36,11.36,0,0,0,.3,10.34,10.163,10.163,0,0,0,4.07,3.92,13.226,13.226,0,0,0,6.43,1.46H79.04a15.166,15.166,0,0,0,5.79-1.09,14.2,14.2,0,0,0,4.65-3.04A13.9,13.9,0,0,0,93.64,57.6a13.3,13.3,0,0,0-4.4-10.03Z"/><polygon class="b" points="64.14 82.82 64.695 81.76 64.12 81.76 64.14 82.82"/><path class="c" d="M69.72,81.76H64.695l-.555,1.06-.02-1.06h.575l2.745-5.24a.751.751,0,0,0,.07-.71.6.6,0,0,0-.59-.29H62.16a1.265,1.265,0,0,0-.79.2,1.574,1.574,0,0,0-.43.6L57.4,84.38a.733.733,0,0,0-.01.77.847.847,0,0,0,.71.27h4.206l.634-1.54-.32,1.54h-.314L58.76,94.04q-.24.581.18.74a.7.7,0,0,0,.8-.28L70.16,83.04a.847.847,0,0,0,.26-.86A.647.647,0,0,0,69.72,81.76Z"/><polygon class="b" points="62.94 83.88 62.306 85.42 62.62 85.42 62.94 83.88"/></svg>