<svg xmlns="http://www.w3.org/2000/svg" viewBox="0 0 128 128"><defs><style>.a{fill:#0000;}.b{fill:#fff;}.c{fill:#b3b3b3;}</style></defs><rect class="a" x="-1301" y="-797" width="2450" height="2182"/><path class="b" d="M38.95,61.114a16.236,16.236,0,0,0-1.65,5.91,10.238,10.238,0,0,0-3.86,1.99A9.464,9.464,0,0,0,30,76.444a8.985,8.985,0,0,0,5.01,8.29,11.74,11.74,0,0,0,5.45,1.21H68.48a13.108,13.108,0,0,0,5.02-.95,12.743,12.743,0,0,0,4.07-2.64,12.019,12.019,0,0,0,2.72-3.95,12.232,12.232,0,0,0,.97-4.88,11.715,11.715,0,0,0-3.8-8.76,13.054,13.054,0,0,0-4.23-2.59,14.678,14.678,0,0,0-5.29-.93,18.389,18.389,0,0,0-3.76-5,15.693,15.693,0,0,0-4.97-3.14,15.912,15.912,0,0,0-5.87-1.08,15.344,15.344,0,0,0-5.88,1.14,16.184,16.184,0,0,0-4.96,3.18A16.782,16.782,0,0,0,38.95,61.114Z"/><path class="c" d="M93.7,67.9a13.757,13.757,0,0,0,2.48-3.58,7.981,7.981,0,0,0,.84-3.3,1.816,1.816,0,0,0-.31-1.09,1.013,1.013,0,0,0-.87-.43,3.924,3.924,0,0,0-1.45.38,20.712,20.712,0,0,1-2.15.76,10.113,10.113,0,0,1-2.92.38,11.887,11.887,0,0,1-5.55-1.22,8.834,8.834,0,0,1-3.64-3.42,10.913,10.913,0,0,1-.86-8.18q.431-1.359.86-2.37a4.428,4.428,0,0,0,.43-1.63,1.129,1.129,0,0,0-.39-.91A1.571,1.571,0,0,0,79.04,43a9.417,9.417,0,0,0-3.83,1.18,14.381,14.381,0,0,0-3.55,2.77,17.3,17.3,0,0,0-2.8,3.97,16.036,16.036,0,0,0-1.58,4.74,9.839,9.839,0,0,1,1.04,1.24,9.508,9.508,0,0,1,.92,1.64,17.4,17.4,0,0,1,5.84,1.43,15.672,15.672,0,0,1,4.64,3.14,14.518,14.518,0,0,1,3.1,4.46,14.28,14.28,0,0,1,1.22,5.37,17.659,17.659,0,0,0,5.59-1.92A16.515,16.515,0,0,0,93.7,67.9Z"/></svg>