<svg xmlns="http://www.w3.org/2000/svg" viewBox="0 0 128 128"><defs><style>.a{fill:#0000;}.b{fill:#fff;}.c{fill:#b3b3b3;}</style></defs><rect class="a" x="-1301" y="-1557" width="2450" height="2182"/><path class="b" d="M68.34,77.88a.982.982,0,0,0-.81-.12,1.126,1.126,0,0,0-.65.5l-1.94,3.4a.948.948,0,0,0-.11.77,1.061,1.061,0,0,0,.51.65.991.991,0,0,0,.8.1,1.045,1.045,0,0,0,.64-.5l1.94-3.36a.947.947,0,0,0,.12-.8A1.048,1.048,0,0,0,68.34,77.88Z"/><path class="b" d="M73.5,66.98A7.624,7.624,0,0,0,74.56,63a7.317,7.317,0,0,0-1.09-3.95,7.836,7.836,0,0,0-2.96-2.769,8.887,8.887,0,0,0-4.25-1.041A10.5,10.5,0,0,0,64,52.29a9.72,9.72,0,0,0-3.05-1.88,9.921,9.921,0,0,0-3.59-.65,9.765,9.765,0,0,0-4.77,1.2,10.359,10.359,0,0,0-3.61,3.27,9.658,9.658,0,0,0-1.66,4.65,5.919,5.919,0,0,0-3.15,2.2A6.074,6.074,0,0,0,43,64.76a5.663,5.663,0,0,0,1.85,4.4,6.874,6.874,0,0,0,4.81,1.68h16.9a8.03,8.03,0,0,0,4.06-1.04A7.793,7.793,0,0,0,73.5,66.98Z"/><path class="b" d="M63.46,73.46a1.014,1.014,0,0,0-.82-.12,1.125,1.125,0,0,0-.64.5l-1.96,3.4a.948.948,0,0,0-.11.77,1.051,1.051,0,0,0,.53.65.991.991,0,0,0,.8.1,1.045,1.045,0,0,0,.64-.5l1.94-3.36a1.022,1.022,0,0,0,.11-.8A1.01,1.01,0,0,0,63.46,73.46Z"/><path class="c" d="M76.72,62.76a9.488,9.488,0,0,0,3.18-1.12,10.207,10.207,0,0,0,2.44-1.93,8.767,8.767,0,0,0,1.56-2.3,5.382,5.382,0,0,0,.54-2.21,1.561,1.561,0,0,0-.21-.85.678.678,0,0,0-.61-.329,2.132,2.132,0,0,0-.95.269,9.776,9.776,0,0,1-1.3.53,6.092,6.092,0,0,1-1.93.26,6.3,6.3,0,0,1-4.48-1.549A5.384,5.384,0,0,1,73.3,49.4a5.807,5.807,0,0,1,.3-1.92q.3-.86.59-1.52a2.866,2.866,0,0,0,.29-1.1q0-.879-.98-.86a5.812,5.812,0,0,0-2.94.96,10.87,10.87,0,0,0-2.91,2.61,9.28,9.28,0,0,0-1.79,3.79,7.81,7.81,0,0,1,.77.86,6.229,6.229,0,0,1,.71,1.18,10.41,10.41,0,0,1,4.81,1.56,10.116,10.116,0,0,1,3.33,3.39A8.625,8.625,0,0,1,76.72,62.76Z"/><path class="b" d="M55.88,77.9a1.044,1.044,0,0,0-.82-.129,1.062,1.062,0,0,0-.64.51l-1.94,3.4a.976.976,0,0,0-.12.77,1.015,1.015,0,0,0,.52.65.987.987,0,0,0,.8.1,1.045,1.045,0,0,0,.64-.5l1.94-3.36a.949.949,0,0,0,.12-.8A1.049,1.049,0,0,0,55.88,77.9Z"/><path class="b" d="M50.98,73.48a.966.966,0,0,0-.8-.12,1.125,1.125,0,0,0-.64.5l-1.96,3.4a.95.95,0,0,0-.11.771,1.075,1.075,0,0,0,1.97.25l1.94-3.361a1.022,1.022,0,0,0,.11-.8A1,1,0,0,0,50.98,73.48Z"/></svg>