<svg xmlns="http://www.w3.org/2000/svg" viewBox="0 0 128 128"><defs><style>.a{fill:#0000;}.b{fill:none;}.c{fill:#fff;}</style></defs><rect class="a" x="-1149" y="-1101" width="2450" height="2182"/><path class="b" d="M74.66,61.5a5.4,5.4,0,0,0,.3-5.79,5.272,5.272,0,0,0-1.88-1.89,5.385,5.385,0,0,0-5.31,0,5.11,5.11,0,0,0-2.546,4.166A8.594,8.594,0,0,1,68.77,59.01a8.055,8.055,0,0,1,2.99,2.82,7.143,7.143,0,0,1,.659,1.416A5.121,5.121,0,0,0,74.66,61.5Z"/><path class="b" d="M67.42,70.28a5.149,5.149,0,0,0,1.87-1.82,4.811,4.811,0,0,0,.69-2.54,4.864,4.864,0,0,0-.71-2.57,5.029,5.029,0,0,0-2.09-1.87,7.457,7.457,0,0,0-3.4-.7,2.019,2.019,0,0,1-1.03-.22,1.82,1.82,0,0,1-.65-.78,8.463,8.463,0,0,0-2.78-3.31,6.656,6.656,0,0,0-3.8-1.13,6.825,6.825,0,0,0-3.51.93,7.461,7.461,0,0,0-2.61,2.59,8.572,8.572,0,0,0-1.2,3.84,1.808,1.808,0,0,1-.33.99,1.649,1.649,0,0,1-.89.49,4.1,4.1,0,0,0-2.4,1.41,3.53,3.53,0,0,0-.7,2.11,3.1,3.1,0,0,0,.97,2.32,3.968,3.968,0,0,0,2.87.94H64.74A5.274,5.274,0,0,0,67.42,70.28Z"/><path class="c" d="M65.224,57.986A5.251,5.251,0,0,1,73.08,53.82a5.272,5.272,0,0,1,1.88,1.89,5.26,5.26,0,0,1-2.541,7.536,7.794,7.794,0,0,1,.441,2.594c0,.012,0,.022,0,.034A7.461,7.461,0,0,0,75.27,64.59a8.09,8.09,0,0,0,2.2-2.72,7.965,7.965,0,0,0-.25-7.47,8.048,8.048,0,0,0-2.84-2.84,7.927,7.927,0,0,0-7.92,0,7.964,7.964,0,0,0-2.83,2.84,7.387,7.387,0,0,0-.625,1.406A10.924,10.924,0,0,1,64.5,57.94C64.748,57.942,64.984,57.968,65.224,57.986Z"/><path class="c" d="M68.92,46.62a1.456,1.456,0,0,0,.44,1.05,1.473,1.473,0,0,0,2.12,0,1.456,1.456,0,0,0,.44-1.05V43.5a1.5,1.5,0,0,0-3,0Z"/><path class="c" d="M79.76,65.64a1.506,1.506,0,0,0-1.05-.43,1.4,1.4,0,0,0-1.05.43,1.522,1.522,0,0,0,0,2.1l2.24,2.22a1.4,1.4,0,0,0,1.05.43,1.5,1.5,0,0,0,1.48-1.5A1.3,1.3,0,0,0,82,67.86Z"/><path class="c" d="M85.28,56.88H82.16a1.456,1.456,0,0,0-1.05.44,1.429,1.429,0,0,0-.45,1.06,1.4,1.4,0,0,0,.45,1.05,1.471,1.471,0,0,0,1.05.43h3.12a1.468,1.468,0,0,0,1.48-1.48,1.461,1.461,0,0,0-.43-1.06A1.414,1.414,0,0,0,85.28,56.88Z"/><path class="c" d="M59.9,46.36a1.382,1.382,0,0,0-1.04.44,1.5,1.5,0,0,0,0,2.12l2.2,2.22a1.422,1.422,0,0,0,1.07.43,1.461,1.461,0,0,0,1.05-.43,1.506,1.506,0,0,0,.43-1.05,1.4,1.4,0,0,0-.43-1.05L60.94,46.8A1.382,1.382,0,0,0,59.9,46.36Z"/><path class="c" d="M68.84,72.78a8.063,8.063,0,0,0,2.93-2.87,7.731,7.731,0,0,0,1.088-4.036c-.247.078-.5.151-.758.206v-2.7c.111-.037.212-.09.319-.134a7.143,7.143,0,0,0-.659-1.416,8.055,8.055,0,0,0-2.99-2.82,8.594,8.594,0,0,0-3.546-1.024c-.009.131-.024.259-.024.394a3.627,3.627,0,0,0,.03.47c.02.153.043.3.07.45l-2.68-.26q-.02-.16-.03-.33c-.007-.113-.01-.223-.01-.33a7.976,7.976,0,0,1,.425-2.574,10.039,10.039,0,0,0-2.255-1.9,9.824,9.824,0,0,0-5.23-1.45,9.986,9.986,0,0,0-4.86,1.21,10.418,10.418,0,0,0-3.65,3.29,9.831,9.831,0,0,0-1.69,4.66,6.006,6.006,0,0,0-3.14,2.25A6.229,6.229,0,0,0,41,67.62a6.065,6.065,0,0,0,.86,3.24,5.937,5.937,0,0,0,2.39,2.19,7.627,7.627,0,0,0,3.55.79H64.7A8.141,8.141,0,0,0,68.84,72.78ZM47.72,70.96a3.968,3.968,0,0,1-2.87-.94,3.1,3.1,0,0,1-.97-2.32,3.53,3.53,0,0,1,.7-2.11,4.1,4.1,0,0,1,2.4-1.41,1.649,1.649,0,0,0,.89-.49,1.808,1.808,0,0,0,.33-.99,8.572,8.572,0,0,1,1.2-3.84,7.461,7.461,0,0,1,2.61-2.59,6.825,6.825,0,0,1,3.51-.93,6.656,6.656,0,0,1,3.8,1.13,8.463,8.463,0,0,1,2.78,3.31,1.82,1.82,0,0,0,.65.78,2.019,2.019,0,0,0,1.03.22,7.457,7.457,0,0,1,3.4.7,5.029,5.029,0,0,1,2.09,1.87,4.864,4.864,0,0,1,.71,2.57,4.811,4.811,0,0,1-.69,2.54,5.149,5.149,0,0,1-1.87,1.82,5.274,5.274,0,0,1-2.68.68Z"/><path class="c" d="M62.59,58.71q.01.169.03.33l2.68.26c-.027-.147-.05-.3-.07-.45a3.627,3.627,0,0,1-.03-.47c0-.135.015-.263.024-.394-.24-.018-.476-.044-.724-.046a10.924,10.924,0,0,0-1.495-2.134,7.976,7.976,0,0,0-.425,2.574C62.58,58.487,62.583,58.6,62.59,58.71Z"/><path class="c" d="M49.18,76.3a1.037,1.037,0,0,0-.8-.11,1.062,1.062,0,0,0-.64.51l-1.96,3.4a.948.948,0,0,0-.11.77,1,1,0,0,0,.51.63,1.079,1.079,0,0,0,.82.11,1.01,1.01,0,0,0,.64-.49l1.94-3.36a1.055,1.055,0,0,0-.4-1.46Z"/><path class="c" d="M54.08,80.72a1.094,1.094,0,0,0-.82-.11,1.062,1.062,0,0,0-.64.51l-1.94,3.4a.976.976,0,0,0-.12.77.955.955,0,0,0,.52.63,1.022,1.022,0,0,0,.8.11,1.01,1.01,0,0,0,.64-.49l1.94-3.36a.982.982,0,0,0,.12-.81A1.126,1.126,0,0,0,54.08,80.72Z"/><path class="c" d="M80.95,46.36a1.434,1.434,0,0,0-1.05.44l-2.24,2.24a1.48,1.48,0,0,0,1.06,2.53,1.434,1.434,0,0,0,1.08-.43L82,48.92a1.41,1.41,0,0,0,.43-1.06A1.519,1.519,0,0,0,82,46.8,1.434,1.434,0,0,0,80.95,46.36Z"/><path class="c" d="M72.419,63.246c-.107.044-.208.1-.319.134v2.7c.26-.055.511-.128.758-.206,0-.012,0-.022,0-.034A7.794,7.794,0,0,0,72.419,63.246Z"/><path class="c" d="M64.34,86.01a1.01,1.01,0,0,0,.64-.49l1.94-3.36a.982.982,0,0,0,.12-.81,1.126,1.126,0,0,0-.5-.65,1.094,1.094,0,0,0-.82-.11,1.062,1.062,0,0,0-.64.51l-1.94,3.4a.976.976,0,0,0-.12.77.955.955,0,0,0,.52.63A1.022,1.022,0,0,0,64.34,86.01Z"/><path class="c" d="M61.64,76.28a1.037,1.037,0,0,0-.8-.11,1.062,1.062,0,0,0-.64.51l-1.96,3.4a.948.948,0,0,0-.11.77,1,1,0,0,0,.51.63,1.079,1.079,0,0,0,.82.11,1.01,1.01,0,0,0,.64-.49l1.94-3.36a1.055,1.055,0,0,0-.4-1.46Z"/></svg>