<svg xmlns="http://www.w3.org/2000/svg" viewBox="0 0 128 128"><defs><style>.a{fill:#0000;}.b{fill:#00c9ea;}.c{fill:#fff;}</style></defs><rect class="a" x="-845" y="-341" width="2450" height="2182"/><path class="b" d="M80.34,76.94a1.368,1.368,0,0,0-1.01-.13,1.294,1.294,0,0,0-.83.65L70.74,90.92a1.477,1.477,0,0,0-.18,1.07,1.257,1.257,0,0,0,.64.83,1.218,1.218,0,0,0,1,.13,1.313,1.313,0,0,0,.82-.65l7.8-13.5a1.379,1.379,0,0,0,.17-1.05A1.229,1.229,0,0,0,80.34,76.94Z"/><path class="b" d="M70.08,76.94a1.345,1.345,0,0,0-1.88.54L60.44,90.96a1.407,1.407,0,0,0-.16,1.03,1.257,1.257,0,0,0,.64.83,1.325,1.325,0,0,0,1.04.13,1.368,1.368,0,0,0,.84-.67l7.74-13.44a1.36,1.36,0,0,0,.18-1.07A1.344,1.344,0,0,0,70.08,76.94Z"/><path class="b" d="M49.52,76.94a1.317,1.317,0,0,0-1.02-.14,1.386,1.386,0,0,0-.84.68L39.88,90.96a1.407,1.407,0,0,0-.16,1.03,1.257,1.257,0,0,0,.64.83,1.36,1.36,0,0,0,1.88-.54L50,78.84a1.36,1.36,0,0,0,.18-1.07A1.329,1.329,0,0,0,49.52,76.94Z"/><path class="b" d="M59.82,76.94a1.345,1.345,0,0,0-1.88.54L50.16,90.96a1.469,1.469,0,0,0-.14,1.03,1.257,1.257,0,0,0,.64.83,1.325,1.325,0,0,0,1.04.13,1.368,1.368,0,0,0,.84-.67l7.74-13.44a1.36,1.36,0,0,0,.18-1.07A1.344,1.344,0,0,0,59.82,76.94Z"/><path class="c" d="M89.24,48.57a14.916,14.916,0,0,0-4.86-2.93,17.052,17.052,0,0,0-6.02-1.04A20.6,20.6,0,0,0,74.28,39a17.762,17.762,0,0,0-5.64-3.69A18.1,18.1,0,0,0,61.68,34a17.507,17.507,0,0,0-6.78,1.32A18.468,18.468,0,0,0,49.23,39a19.186,19.186,0,0,0-4.03,5.48,18.792,18.792,0,0,0-1.86,6.72,11.938,11.938,0,0,0-4.25,2.16,10.918,10.918,0,0,0-2.99,3.68,11.36,11.36,0,0,0,.3,10.34,10.163,10.163,0,0,0,4.07,3.92,13.226,13.226,0,0,0,6.43,1.46H79.04a15.166,15.166,0,0,0,5.79-1.09,14.2,14.2,0,0,0,4.65-3.04A13.9,13.9,0,0,0,93.64,58.6a13.3,13.3,0,0,0-4.4-10.03Z"/></svg>