<svg xmlns="http://www.w3.org/2000/svg" viewBox="0 0 128 128"><defs><style>.a{fill:#0000;}.b{fill:#00c9ea;}.c{fill:#fff;}</style></defs><rect class="a" x="-845" y="-493" width="2450" height="2182"/><path class="b" d="M55.52,82.04a1.079,1.079,0,0,0,.82.11.939.939,0,0,0,.62-.49l4.5-7.8a1.048,1.048,0,0,0,.13-.82,1.062,1.062,0,0,0-.51-.64,1.091,1.091,0,0,0-.81-.12,1.018,1.018,0,0,0-.65.52l-4.5,7.82a1.09,1.09,0,0,0-.1.79A.961.961,0,0,0,55.52,82.04Z"/><path class="b" d="M61.76,82.04a1.022,1.022,0,0,0,.8.11,1.01,1.01,0,0,0,.64-.49l4.5-7.8a1.014,1.014,0,0,0,.12-.82,1.125,1.125,0,0,0-.5-.64,1.091,1.091,0,0,0-.81-.12,1.018,1.018,0,0,0-.65.52l-4.5,7.82a1.09,1.09,0,0,0-.1.79A.961.961,0,0,0,61.76,82.04Z"/><path class="c" d="M80.76,65.53a8.624,8.624,0,0,0,1.18-4.45,8.29,8.29,0,0,0-1.25-4.52,8.827,8.827,0,0,0-3.4-3.12,10.147,10.147,0,0,0-4.83-1.14,11.838,11.838,0,0,0-2.5-3.33,11.17,11.17,0,0,0-3.46-2.19,11.427,11.427,0,0,0-9.63.62,11.862,11.862,0,0,0-4.08,3.76,11.039,11.039,0,0,0-1.85,5.28,6.9,6.9,0,0,0-3.53,2.39A6.639,6.639,0,0,0,46,63.1a6.859,6.859,0,0,0,.88,3.45,6.4,6.4,0,0,0,2.56,2.47,8.345,8.345,0,0,0,4.06.92H72.88a9.034,9.034,0,0,0,4.65-1.2A8.877,8.877,0,0,0,80.76,65.53Z"/><path class="b" d="M55.34,73.04a1.125,1.125,0,0,0-.5-.64,1.091,1.091,0,0,0-.81-.12,1.018,1.018,0,0,0-.65.52l-4.5,7.82a1.09,1.09,0,0,0-.1.79.961.961,0,0,0,.5.63,1.022,1.022,0,0,0,.8.11,1.01,1.01,0,0,0,.64-.49l4.5-7.8A1.014,1.014,0,0,0,55.34,73.04Z"/><path class="b" d="M67.98,82.04a.968.968,0,0,0,.78.11,1.025,1.025,0,0,0,.64-.47l4.52-7.86a1.052,1.052,0,0,0,.12-.8.9.9,0,0,0-.5-.62,1.2,1.2,0,0,0-.81-.11.927.927,0,0,0-.63.49L67.62,80.6a1.006,1.006,0,0,0-.14.8A.963.963,0,0,0,67.98,82.04Z"/></svg>