<svg xmlns="http://www.w3.org/2000/svg" viewBox="0 0 128 128"><defs><style>.a{fill:#0000;}.b{fill:none;}.c{fill:#fff;}</style></defs><rect class="a" x="-1149" y="-1557" width="2450" height="2182"/><path class="b" d="M83.59,57.52a9.384,9.384,0,1,0-17.83-3.98c0,.041.006.082.007.123a15.045,15.045,0,0,1,4.883.967,13.144,13.144,0,0,1,4.27,2.65,12.28,12.28,0,0,1,2.84,3.96,11.186,11.186,0,0,1,.479,1.28A9.338,9.338,0,0,0,81.2,60.74,9.917,9.917,0,0,0,83.59,57.52Z"/><path class="b" d="M69.52,74.63a9.546,9.546,0,0,0,3.01-1.95,8.951,8.951,0,0,0,2.01-2.88,8.951,8.951,0,0,0-.56-8.13,9.1,9.1,0,0,0-3.67-3.33,12.2,12.2,0,0,0-5.69-1.24,2.675,2.675,0,0,1-1.39-.3,2.527,2.527,0,0,1-.87-1.04,15.972,15.972,0,0,0-2.93-4.17,12.462,12.462,0,0,0-3.95-2.71,12.167,12.167,0,0,0-4.88-.96,11.716,11.716,0,0,0-4.7.96,12.883,12.883,0,0,0-3.97,2.69,13.821,13.821,0,0,0-2.83,4.06,14.8,14.8,0,0,0-1.3,5.09,2.191,2.191,0,0,1-.42,1.27,2.275,2.275,0,0,1-1.2.65,8.031,8.031,0,0,0-4.28,2.55,6.216,6.216,0,0,0-1.4,3.99,6,6,0,0,0,.82,3.11,5.876,5.876,0,0,0,2.4,2.22,8.315,8.315,0,0,0,3.9.83H65.78A9.712,9.712,0,0,0,69.52,74.63Z"/><path class="c" d="M99.8,51.72H93.78a1.767,1.767,0,0,0-1.28.53,1.738,1.738,0,0,0-.54,1.29,1.717,1.717,0,0,0,.54,1.27,1.767,1.767,0,0,0,1.28.53H99.8a1.724,1.724,0,0,0,1.28-.53,1.748,1.748,0,0,0,.52-1.27,1.771,1.771,0,0,0-.52-1.29A1.724,1.724,0,0,0,99.8,51.72Z"/><path class="c" d="M88.31,42.14a1.784,1.784,0,0,0,1.31-.54l4.24-4.26a1.725,1.725,0,0,0,.53-1.29,1.764,1.764,0,0,0-.53-1.27,1.716,1.716,0,0,0-1.26-.52,1.782,1.782,0,0,0-1.28.52l-4.28,4.3a1.68,1.68,0,0,0-.51,1.26,1.792,1.792,0,0,0,.51,1.26A1.655,1.655,0,0,0,88.31,42.14Z"/><polygon class="c" points="53.08 89.18 53.61 88.18 53.04 88.18 53.08 89.18"/><path class="c" d="M89.58,65.5a1.764,1.764,0,0,0-1.27-.53,1.662,1.662,0,0,0-1.27.53,1.811,1.811,0,0,0,0,2.54l4.28,4.28a1.811,1.811,0,0,0,2.54-.02,1.764,1.764,0,0,0,.53-1.27,1.662,1.662,0,0,0-.53-1.27Z"/><path class="c" d="M48.22,100.34a.625.625,0,0,0,.78-.28l9.94-10.64a.844.844,0,0,0,.23-.83.615.615,0,0,0-.67-.41H53.61l-.53,1-.04-1h.57l2.47-4.66a.732.732,0,0,0,.07-.7.586.586,0,0,0-.57-.28h-4.6a1.219,1.219,0,0,0-.78.2,1.494,1.494,0,0,0-.4.58l-3.26,7.4a.743.743,0,0,0,0,.75.791.791,0,0,0,.68.27h4.106l.634-1.52-.34,1.52h-.294L48.04,99.62Q47.82,100.179,48.22,100.34Z"/><path class="c" d="M77.7,62.72l.04,3.32c.347-.08.687-.175,1.02-.281a12.012,12.012,0,0,0-.521-3.239C78.06,62.588,77.885,62.662,77.7,62.72Z"/><path class="c" d="M73.83,27.53a1.734,1.734,0,0,0-.53,1.27v6.02a1.767,1.767,0,0,0,.53,1.28,1.825,1.825,0,0,0,3.11-1.28V28.8a1.717,1.717,0,0,0-.54-1.27,1.823,1.823,0,0,0-2.57,0Z"/><path class="c" d="M70.85,77.87A12.917,12.917,0,0,0,75,75.17a12.531,12.531,0,0,0,2.78-4.03,12.345,12.345,0,0,0,1-4.98c0-.136-.016-.266-.02-.4-.333.106-.673.2-1.02.281l-.04-3.32c.185-.058.36-.132.539-.2a11.186,11.186,0,0,0-.479-1.28,12.28,12.28,0,0,0-2.84-3.96,13.144,13.144,0,0,0-4.27-2.65,15.045,15.045,0,0,0-4.883-.967c0,.133.008.265.023.4a3.916,3.916,0,0,0,.09.5l-3.34-.3q-.02-.18-.03-.36c-.007-.12-.01-.24-.01-.36a12.732,12.732,0,0,1,.455-3.383A17.271,17.271,0,0,0,59.27,46.9a16.265,16.265,0,0,0-14.64-1.33,16.437,16.437,0,0,0-5.02,3.21,17.107,17.107,0,0,0-3.6,4.79,16.262,16.262,0,0,0-1.69,5.91,10.619,10.619,0,0,0-3.81,2.01,9.7,9.7,0,0,0-2.58,3.31A9.818,9.818,0,0,0,27,69.1a9.265,9.265,0,0,0,5.06,8.47,11.889,11.889,0,0,0,5.64,1.27H65.72A13.406,13.406,0,0,0,70.85,77.87ZM37.62,75.34a8.315,8.315,0,0,1-3.9-.83,5.876,5.876,0,0,1-2.4-2.22,6,6,0,0,1-.82-3.11,6.216,6.216,0,0,1,1.4-3.99,8.031,8.031,0,0,1,4.28-2.55,2.275,2.275,0,0,0,1.2-.65,2.191,2.191,0,0,0,.42-1.27,14.8,14.8,0,0,1,1.3-5.09,13.821,13.821,0,0,1,2.83-4.06,12.883,12.883,0,0,1,3.97-2.69,11.716,11.716,0,0,1,4.7-.96,12.167,12.167,0,0,1,4.88.96,12.462,12.462,0,0,1,3.95,2.71,15.972,15.972,0,0,1,2.93,4.17,2.527,2.527,0,0,0,.87,1.04,2.675,2.675,0,0,0,1.39.3,12.2,12.2,0,0,1,5.69,1.24,9.1,9.1,0,0,1,3.67,3.33,8.951,8.951,0,0,1,.56,8.13,8.951,8.951,0,0,1-2.01,2.88,9.546,9.546,0,0,1-3.01,1.95,9.712,9.712,0,0,1-3.74.71Z"/><path class="c" d="M65.767,53.663c0-.041-.007-.082-.007-.123a9.254,9.254,0,0,1,4.6-8.14A9.415,9.415,0,0,1,83.59,57.52a9.917,9.917,0,0,1-2.39,3.22,9.338,9.338,0,0,1-2.961,1.78,12.012,12.012,0,0,1,.521,3.239,12.5,12.5,0,0,0,2.96-1.379,12.951,12.951,0,0,0,5.24-6.54,12.642,12.642,0,0,0-2.93-13.25,12.68,12.68,0,0,0-4.02-2.71,12.79,12.79,0,0,0-9.82,0,12.569,12.569,0,0,0-4.01,2.71,12.752,12.752,0,0,0-2.7,4.02,11.833,11.833,0,0,0-.525,1.547A18.961,18.961,0,0,1,65.34,53.64C65.485,53.642,65.624,53.658,65.767,53.663Z"/><path class="c" d="M62.51,53.9q.011.18.03.36l3.34.3a3.916,3.916,0,0,1-.09-.5c-.015-.132-.019-.264-.023-.4-.143,0-.282-.021-.427-.023a18.961,18.961,0,0,0-2.385-3.483A12.732,12.732,0,0,0,62.5,53.54C62.5,53.66,62.5,53.78,62.51,53.9Z"/><polygon class="c" points="51.96 90.22 51.326 91.74 51.62 91.74 51.96 90.22"/><path class="c" d="M56.36,34.78a1.727,1.727,0,0,0-.52,1.27,1.793,1.793,0,0,0,.52,1.29l4.26,4.26a1.772,1.772,0,0,0,1.3.54,1.643,1.643,0,0,0,1.26-.54,1.753,1.753,0,0,0,.53-1.26,1.651,1.651,0,0,0-.53-1.26l-4.28-4.3a1.782,1.782,0,0,0-1.28-.52A1.716,1.716,0,0,0,56.36,34.78Z"/></svg>