<svg xmlns="http://www.w3.org/2000/svg" viewBox="0 0 128 128"><defs><style>.a{fill:#0000;}.b{fill:none;}.c{fill:#fff;}</style></defs><rect class="a" x="-541" y="-1557" width="2450" height="2182"/><path class="b" d="M87.43,62.01a12.018,12.018,0,0,0-4.05-2.4A15.6,15.6,0,0,0,78,58.74a3.314,3.314,0,0,1-1.66-.34,2.7,2.7,0,0,1-1-1.22,19.174,19.174,0,0,0-3.56-5.14,14.72,14.72,0,0,0-10.84-4.5,14.482,14.482,0,0,0-5.81,1.18,15.541,15.541,0,0,0-4.86,3.31,17.027,17.027,0,0,0-3.44,4.98,17.412,17.412,0,0,0-1.53,6.17,2.484,2.484,0,0,1-.48,1.49,2.7,2.7,0,0,1-1.38.75,9.919,9.919,0,0,0-5.08,2.93,7.326,7.326,0,0,0-1.82,5.01,7.448,7.448,0,0,0,1.05,3.96,7.11,7.11,0,0,0,3.03,2.69,10.725,10.725,0,0,0,4.76.97h34a11.85,11.85,0,0,0,4.51-.85,11.284,11.284,0,0,0,3.66-2.38,10.875,10.875,0,0,0,3.31-7.89,10.645,10.645,0,0,0-.88-4.3A10.42,10.42,0,0,0,87.43,62.01Z"/><path class="c" d="M89.85,59.27a15.529,15.529,0,0,0-5.1-3.09,18.106,18.106,0,0,0-6.41-1.1,21.194,21.194,0,0,0-4.29-5.91,18.4,18.4,0,0,0-5.9-3.83A19.043,19.043,0,0,0,60.94,44a18.383,18.383,0,0,0-7.04,1.36,19.3,19.3,0,0,0-5.94,3.82,19.913,19.913,0,0,0-6.2,12.88,12.619,12.619,0,0,0-4.54,2.31,11.322,11.322,0,0,0-3.1,3.86,11.793,11.793,0,0,0,.34,10.7,10.693,10.693,0,0,0,4.24,4.08,13.75,13.75,0,0,0,6.72,1.53H79.16a15.585,15.585,0,0,0,5.99-1.14,15.377,15.377,0,0,0,4.86-3.15,14.323,14.323,0,0,0,3.25-4.7,14.468,14.468,0,0,0,1.16-5.79,13.976,13.976,0,0,0-4.57-10.49Zm.14,14.93a10.957,10.957,0,0,1-2.44,3.55,11.284,11.284,0,0,1-3.66,2.38,11.85,11.85,0,0,1-4.51.85h-34a10.725,10.725,0,0,1-4.76-.97,7.11,7.11,0,0,1-3.03-2.69,7.448,7.448,0,0,1-1.05-3.96,7.326,7.326,0,0,1,1.82-5.01,9.919,9.919,0,0,1,5.08-2.93,2.7,2.7,0,0,0,1.38-.75,2.484,2.484,0,0,0,.48-1.49,17.412,17.412,0,0,1,1.53-6.17,17.027,17.027,0,0,1,3.44-4.98,15.541,15.541,0,0,1,4.86-3.31,14.482,14.482,0,0,1,5.81-1.18,14.72,14.72,0,0,1,10.84,4.5,19.174,19.174,0,0,1,3.56,5.14,2.7,2.7,0,0,0,1,1.22,3.314,3.314,0,0,0,1.66.34,15.6,15.6,0,0,1,5.38.87,12.018,12.018,0,0,1,4.05,2.4,10.42,10.42,0,0,1,2.55,3.55,10.645,10.645,0,0,1,.88,4.3A10.854,10.854,0,0,1,89.99,74.2Z"/></svg>