<svg xmlns="http://www.w3.org/2000/svg" viewBox="0 0 128 128"><defs><style>.a{fill:#0000;}.b{fill:#ff0;}.c{fill:#00c9ea;}.d{fill:#fff;}</style></defs><rect class="a" x="-1149" y="-1405" width="2450" height="2182"/><path class="b" d="M77.04,50.09a1.452,1.452,0,0,0,1.48,1.48,1.434,1.434,0,0,0,1.08-.43l2.2-2.22a1.41,1.41,0,0,0,.43-1.06,1.468,1.468,0,0,0-1.48-1.49,1.4,1.4,0,0,0-1.05.43l-2.24,2.24A1.467,1.467,0,0,0,77.04,50.09Z"/><path class="b" d="M79.7,69.96a1.4,1.4,0,0,0,1.05.43,1.5,1.5,0,0,0,1.48-1.5,1.3,1.3,0,0,0-.43-1.03l-2.24-2.22a1.506,1.506,0,0,0-1.05-.43,1.4,1.4,0,0,0-1.05.43,1.522,1.522,0,0,0,0,2.1Z"/><path class="b" d="M78.08,58.38a7.642,7.642,0,0,0-1.06-3.97,8.028,8.028,0,0,0-2.84-2.85,7.591,7.591,0,0,0-3.96-1.06,7.508,7.508,0,0,0-3.78.98,7.883,7.883,0,0,0-2.76,2.58,9.623,9.623,0,0,1,1.74,2.32,11.074,11.074,0,0,1,4.61,1.34,8.6,8.6,0,0,1,3.12,2.98,9.584,9.584,0,0,1,1.35,4.34,8.775,8.775,0,0,0,2.63-2.92A7.613,7.613,0,0,0,78.08,58.38Z"/><path class="b" d="M60.74,46.8a1.348,1.348,0,0,0-1.04-.43,1.492,1.492,0,0,0-1.04,2.55l2.2,2.22a1.422,1.422,0,0,0,1.07.43,1.461,1.461,0,0,0,1.05-.43,1.506,1.506,0,0,0,.43-1.05,1.4,1.4,0,0,0-.43-1.05Z"/><path class="b" d="M86.13,59.43a1.428,1.428,0,0,0,.43-1.05,1.461,1.461,0,0,0-.43-1.06,1.414,1.414,0,0,0-1.05-.44H81.96a1.456,1.456,0,0,0-1.05.44,1.429,1.429,0,0,0-.45,1.06,1.4,1.4,0,0,0,.45,1.05,1.471,1.471,0,0,0,1.05.43h3.12A1.428,1.428,0,0,0,86.13,59.43Z"/><path class="b" d="M68.72,46.62a1.456,1.456,0,0,0,.44,1.05,1.473,1.473,0,0,0,2.12,0,1.456,1.456,0,0,0,.44-1.05V43.5a1.5,1.5,0,0,0-3,0Z"/><path class="c" d="M49.18,76.32a1.055,1.055,0,0,0-1.46.4l-1.94,3.4a.948.948,0,0,0-.11.77,1,1,0,0,0,.51.63,1.022,1.022,0,0,0,.8.11,1.01,1.01,0,0,0,.64-.49l1.94-3.36a.982.982,0,0,0,.12-.81A1.126,1.126,0,0,0,49.18,76.32Z"/><path class="c" d="M58.64,81.5a1.079,1.079,0,0,0,.82.11.939.939,0,0,0,.62-.49l1.94-3.36a1.014,1.014,0,0,0,.13-.81,1.071,1.071,0,0,0-1.97-.25l-1.94,3.4a.948.948,0,0,0-.11.77A1,1,0,0,0,58.64,81.5Z"/><path class="c" d="M64.34,86.03a1.01,1.01,0,0,0,.64-.49l1.92-3.36a1.014,1.014,0,0,0,.13-.81,1.093,1.093,0,0,0-1.32-.76,1,1,0,0,0-.63.51l-1.96,3.4a.948.948,0,0,0-.11.77,1,1,0,0,0,.51.63A1.079,1.079,0,0,0,64.34,86.03Z"/><path class="d" d="M71.5,69.8a7.665,7.665,0,0,0,1.06-4,7.263,7.263,0,0,0-1.09-3.94,7.868,7.868,0,0,0-2.96-2.76,8.886,8.886,0,0,0-4.25-1.04A10.482,10.482,0,0,0,62,55.11a9.7,9.7,0,0,0-3.05-1.88,9.921,9.921,0,0,0-3.59-.65,9.765,9.765,0,0,0-4.77,1.2,10.359,10.359,0,0,0-3.61,3.27,9.658,9.658,0,0,0-1.66,4.65,5.908,5.908,0,0,0-3.15,2.2A6.072,6.072,0,0,0,41,67.58a5.677,5.677,0,0,0,1.84,4.4,6.87,6.87,0,0,0,4.82,1.68h16.9a8.04,8.04,0,0,0,4.06-1.04A7.793,7.793,0,0,0,71.5,69.8Z"/><path class="c" d="M54.06,80.74a1.059,1.059,0,0,0-.81-.11,1,1,0,0,0-.63.51l-1.96,3.4a.948.948,0,0,0-.11.77,1,1,0,0,0,.51.63,1.079,1.079,0,0,0,.82.11,1.01,1.01,0,0,0,.64-.49l1.92-3.36a1.014,1.014,0,0,0,.13-.81A1.064,1.064,0,0,0,54.06,80.74Z"/></svg>