<svg xmlns="http://www.w3.org/2000/svg" viewBox="0 0 128 128"><defs><style>.a{fill:#0000;}.b{fill:#fff;}</style></defs><rect class="a" x="-997" y="-645" width="2450" height="2182"/><path class="b" d="M50.94,55.44a6.9,6.9,0,0,0-3.53,2.39A6.639,6.639,0,0,0,46,62.1a6.859,6.859,0,0,0,.88,3.45,6.4,6.4,0,0,0,2.56,2.47,8.345,8.345,0,0,0,4.06.92H72.88a9.034,9.034,0,0,0,4.65-1.2,8.877,8.877,0,0,0,3.23-3.21,8.624,8.624,0,0,0,1.18-4.45,8.29,8.29,0,0,0-1.25-4.52,8.827,8.827,0,0,0-3.4-3.12,10.147,10.147,0,0,0-4.83-1.14,11.838,11.838,0,0,0-2.5-3.33,11.17,11.17,0,0,0-3.46-2.19,11.427,11.427,0,0,0-9.63.62,11.862,11.862,0,0,0-4.08,3.76A11.039,11.039,0,0,0,50.94,55.44Z"/><path class="b" d="M70.62,78.88a.557.557,0,0,0-.04-.42.455.455,0,0,0-.35-.22.648.648,0,0,0-.43.06l-1.2.88.14-1.48a.532.532,0,0,0-.52-.58.49.49,0,0,0-.4.17.625.625,0,0,0-.14.41l.12,1.48-1.22-.88a.625.625,0,0,0-.4-.07.453.453,0,0,0-.34.23.6.6,0,0,0-.06.41.475.475,0,0,0,.28.35l1.32.64-1.32.64a.451.451,0,0,0-.29.33.634.634,0,0,0,.05.43.438.438,0,0,0,.34.24.562.562,0,0,0,.42-.08l1.22-.84-.1,1.44a.652.652,0,0,0,.13.41.462.462,0,0,0,.39.17.445.445,0,0,0,.36-.17.625.625,0,0,0,.14-.41l-.12-1.44,1.2.84a.515.515,0,0,0,.41.07.539.539,0,0,0,.35-.23.5.5,0,0,0,.06-.42.481.481,0,0,0-.3-.34L69,79.86l1.34-.64A.483.483,0,0,0,70.62,78.88Z"/><path class="b" d="M74.02,73a.557.557,0,0,0-.04-.42.455.455,0,0,0-.35-.22.648.648,0,0,0-.43.06L72,73.3l.14-1.48a.532.532,0,0,0-.52-.58.49.49,0,0,0-.4.17.625.625,0,0,0-.14.41l.12,1.48-1.22-.88a.625.625,0,0,0-.4-.07.453.453,0,0,0-.34.23.6.6,0,0,0-.06.41.475.475,0,0,0,.28.35l1.32.64-1.32.64a.451.451,0,0,0-.29.33.634.634,0,0,0,.05.43.438.438,0,0,0,.34.24.562.562,0,0,0,.42-.08l1.22-.84-.1,1.44a.652.652,0,0,0,.13.41.462.462,0,0,0,.39.17.445.445,0,0,0,.36-.17.625.625,0,0,0,.14-.41L72,74.7l1.2.84a.515.515,0,0,0,.41.07.539.539,0,0,0,.35-.23.5.5,0,0,0,.06-.42.481.481,0,0,0-.3-.34l-1.32-.64,1.34-.64A.483.483,0,0,0,74.02,73Z"/><path class="b" d="M56.66,73a.557.557,0,0,0-.04-.42.455.455,0,0,0-.35-.22.648.648,0,0,0-.43.06l-1.2.88.14-1.48a.532.532,0,0,0-.52-.58.49.49,0,0,0-.4.17.625.625,0,0,0-.14.41l.12,1.48-1.22-.88a.625.625,0,0,0-.4-.07.453.453,0,0,0-.34.23.6.6,0,0,0-.06.41.475.475,0,0,0,.28.35l1.32.64-1.32.64a.451.451,0,0,0-.29.33.634.634,0,0,0,.05.43.438.438,0,0,0,.34.24.562.562,0,0,0,.42-.08l1.22-.84-.1,1.44a.652.652,0,0,0,.13.41.462.462,0,0,0,.39.17.445.445,0,0,0,.36-.17.625.625,0,0,0,.14-.41l-.12-1.44,1.2.84a.515.515,0,0,0,.41.07.539.539,0,0,0,.35-.23.5.5,0,0,0,.06-.42.481.481,0,0,0-.3-.34l-1.32-.64,1.34-.64A.483.483,0,0,0,56.66,73Z"/><path class="b" d="M65.34,73a.557.557,0,0,0-.04-.42.455.455,0,0,0-.35-.22.648.648,0,0,0-.43.06l-1.2.88.14-1.48a.532.532,0,0,0-.52-.58.49.49,0,0,0-.4.17.625.625,0,0,0-.14.41l.12,1.48-1.22-.88a.625.625,0,0,0-.4-.07.453.453,0,0,0-.34.23.6.6,0,0,0-.06.41.475.475,0,0,0,.28.35l1.32.64-1.32.64a.451.451,0,0,0-.29.33.634.634,0,0,0,.05.43.438.438,0,0,0,.34.24.562.562,0,0,0,.42-.08l1.22-.84-.1,1.44a.652.652,0,0,0,.13.41.462.462,0,0,0,.39.17.445.445,0,0,0,.36-.17.625.625,0,0,0,.14-.41l-.12-1.44,1.2.84a.515.515,0,0,0,.41.07.539.539,0,0,0,.35-.23.5.5,0,0,0,.06-.42.481.481,0,0,0-.3-.34l-1.32-.64,1.34-.64A.483.483,0,0,0,65.34,73Z"/><path class="b" d="M61.94,78.88a.557.557,0,0,0-.04-.42.455.455,0,0,0-.35-.22.648.648,0,0,0-.43.06l-1.2.88.14-1.48a.532.532,0,0,0-.52-.58.49.49,0,0,0-.4.17.625.625,0,0,0-.14.41l.12,1.48L57.9,78.3a.625.625,0,0,0-.4-.07.453.453,0,0,0-.34.23.6.6,0,0,0-.06.41.475.475,0,0,0,.28.35l1.32.64-1.32.64a.451.451,0,0,0-.29.33.634.634,0,0,0,.05.43.438.438,0,0,0,.34.24.562.562,0,0,0,.42-.08l1.22-.84-.1,1.44a.652.652,0,0,0,.13.41.462.462,0,0,0,.39.17.445.445,0,0,0,.36-.17.625.625,0,0,0,.14-.41l-.12-1.44,1.2.84a.515.515,0,0,0,.41.07.539.539,0,0,0,.35-.23.5.5,0,0,0,.06-.42.481.481,0,0,0-.3-.34l-1.32-.64,1.34-.64A.483.483,0,0,0,61.94,78.88Z"/><path class="b" d="M53.26,78.88a.557.557,0,0,0-.04-.42.455.455,0,0,0-.35-.22.648.648,0,0,0-.43.06l-1.2.88.14-1.48a.532.532,0,0,0-.52-.58.49.49,0,0,0-.4.17.625.625,0,0,0-.14.41l.12,1.48-1.22-.88a.625.625,0,0,0-.4-.07.453.453,0,0,0-.34.23.6.6,0,0,0-.06.41.475.475,0,0,0,.28.35l1.32.64-1.32.64a.451.451,0,0,0-.29.33.634.634,0,0,0,.05.43.438.438,0,0,0,.34.24.562.562,0,0,0,.42-.08l1.22-.84-.1,1.44a.652.652,0,0,0,.13.41.462.462,0,0,0,.39.17.445.445,0,0,0,.36-.17.625.625,0,0,0,.14-.41l-.12-1.44,1.2.84a.515.515,0,0,0,.41.07.539.539,0,0,0,.35-.23.5.5,0,0,0,.06-.42.481.481,0,0,0-.3-.34l-1.32-.64,1.34-.64A.483.483,0,0,0,53.26,78.88Z"/></svg>