<svg xmlns="http://www.w3.org/2000/svg" viewBox="0 0 128 128"><defs><style>.a{fill:#0000;}.b{fill:none;}.c{fill:#fff;}</style></defs><rect class="a" x="-1453" y="-797" width="2450" height="2182"/><path class="b" d="M46.58,63.346a3.5,3.5,0,0,0-.7,2.09,3.1,3.1,0,0,0,.97,2.32,3.968,3.968,0,0,0,2.87.94H66.74a5.329,5.329,0,0,0,2.68-.67,5.048,5.048,0,0,0,1.87-1.82,4.995,4.995,0,0,0-.02-5.1,5.09,5.09,0,0,0-2.09-1.88,7.377,7.377,0,0,0-3.4-.71,2.019,2.019,0,0,1-1.03-.22,1.82,1.82,0,0,1-.65-.78,8.463,8.463,0,0,0-2.78-3.31,6.656,6.656,0,0,0-3.8-1.13,6.766,6.766,0,0,0-3.51.94,7.55,7.55,0,0,0-2.61,2.6,8.541,8.541,0,0,0-1.2,3.82,1.866,1.866,0,0,1-.33,1,1.612,1.612,0,0,1-.89.5A4.1,4.1,0,0,0,46.58,63.346Z"/><path class="b" d="M76.18,60.8a8.914,8.914,0,0,0,2.39-.72,7.778,7.778,0,0,0,1.82-1.18,5.683,5.683,0,0,0,1.21-1.46l-.1-.12a7.368,7.368,0,0,1-1.18.27,10,10,0,0,1-1.54.11,8.4,8.4,0,0,1-4.07-.97,7.212,7.212,0,0,1-2.82-2.71,7.779,7.779,0,0,1-1.03-4.04,9.1,9.1,0,0,1,.13-1.58,10.854,10.854,0,0,1,.31-1.32l-.2-.12a6.955,6.955,0,0,0-1.42,1.16,7.556,7.556,0,0,0-1.81,3.26,7.5,7.5,0,0,0-.25,1.94,8.2,8.2,0,0,0,.386,2.508,8.623,8.623,0,0,1,2.764.932,7.945,7.945,0,0,1,2.99,2.82,7.308,7.308,0,0,1,.63,1.337A10.828,10.828,0,0,0,76.18,60.8Z"/><path class="c" d="M73.24,60.876V63.5a15.671,15.671,0,0,0,1.616.018,7.717,7.717,0,0,0-.466-2.6C74.015,60.912,73.639,60.911,73.24,60.876Z"/><path class="c" d="M65.78,57.516h3a7.159,7.159,0,0,1-.774-1.692,10.179,10.179,0,0,0-1.506-.148,10.944,10.944,0,0,0-1.492-2.118,11.359,11.359,0,0,0,.192,1.958A11.142,11.142,0,0,0,65.78,57.516Z"/><path class="c" d="M68.006,55.824a8.2,8.2,0,0,1-.386-2.508,7.569,7.569,0,0,1,.96-3.7,7.6,7.6,0,0,1,1.1-1.5,6.955,6.955,0,0,1,1.42-1.16l.2.12a10.854,10.854,0,0,0-.31,1.32,9.1,9.1,0,0,0-.13,1.58,7.779,7.779,0,0,0,1.03,4.04,7.212,7.212,0,0,0,2.82,2.71,8.4,8.4,0,0,0,4.07.97,10,10,0,0,0,1.54-.11,7.368,7.368,0,0,0,1.18-.27l.1.12a5.683,5.683,0,0,1-1.21,1.46,7.778,7.778,0,0,1-1.82,1.18,8.914,8.914,0,0,1-2.39.72,10.828,10.828,0,0,1-1.79.117,7.717,7.717,0,0,1,.466,2.6,12.468,12.468,0,0,0,2.294-.278,11.1,11.1,0,0,0,3.16-1.21,9.19,9.19,0,0,0,2.37-1.95,9.594,9.594,0,0,0,1.56-2.5,2.033,2.033,0,0,0,0-1.92,1.624,1.624,0,0,0-1.52-.84,5.492,5.492,0,0,0-1.43.18,7.564,7.564,0,0,1-1.87.18,6.07,6.07,0,0,1-4.49-1.52,5.752,5.752,0,0,1-1.51-4.24,7.355,7.355,0,0,1,.13-1.46q.13-.641.25-1.16a4.367,4.367,0,0,0,.12-.98,1.668,1.668,0,0,0-.82-1.56,2.258,2.258,0,0,0-1.98-.06,8.461,8.461,0,0,0-2.46,1.38,9.5,9.5,0,0,0-1.94,2.12A10.187,10.187,0,0,0,65,53.376c0,.061.007.121.008.182A10.944,10.944,0,0,1,66.5,55.676,10.179,10.179,0,0,1,68.006,55.824Z"/><path class="c" d="M47.32,59.356a6.179,6.179,0,0,0-4.32,6,6.065,6.065,0,0,0,.86,3.24,5.937,5.937,0,0,0,2.39,2.19,7.627,7.627,0,0,0,3.55.79H66.7a8.078,8.078,0,0,0,7.07-3.93,7.732,7.732,0,0,0,1.09-4.07c0-.021,0-.041,0-.062A15.671,15.671,0,0,1,73.24,63.5v-2.62c.4.035.775.036,1.15.037a7.308,7.308,0,0,0-.63-1.337,7.945,7.945,0,0,0-2.99-2.82,8.623,8.623,0,0,0-2.764-.932,7.159,7.159,0,0,0,.774,1.692h-3a11.142,11.142,0,0,1-.58-2,11.359,11.359,0,0,1-.192-1.958,10.164,10.164,0,0,0-2.258-1.9,9.779,9.779,0,0,0-5.23-1.46,9.986,9.986,0,0,0-4.86,1.21,10.418,10.418,0,0,0-3.65,3.29A9.831,9.831,0,0,0,47.32,59.356Zm2.88,1.08a8.541,8.541,0,0,1,1.2-3.82,7.55,7.55,0,0,1,2.61-2.6,6.766,6.766,0,0,1,3.51-.94,6.656,6.656,0,0,1,3.8,1.13,8.463,8.463,0,0,1,2.78,3.31,1.82,1.82,0,0,0,.65.78,2.019,2.019,0,0,0,1.03.22,7.377,7.377,0,0,1,3.4.71,5.09,5.09,0,0,1,2.09,1.88,4.995,4.995,0,0,1,.02,5.1,5.048,5.048,0,0,1-1.87,1.82,5.329,5.329,0,0,1-2.68.67H49.72a3.968,3.968,0,0,1-2.87-.94,3.1,3.1,0,0,1-.97-2.32,3.5,3.5,0,0,1,.7-2.09,4.1,4.1,0,0,1,2.4-1.41,1.612,1.612,0,0,0,.89-.5A1.866,1.866,0,0,0,50.2,60.436Z"/><polygon class="c" points="57.96 78.556 57.579 79.476 57.76 79.476 57.96 78.556"/><path class="c" d="M55.64,84.816a.4.4,0,0,0,.46-.14l7.22-6.94a.522.522,0,0,0,.18-.5q-.06-.26-.4-.26H59.842l-.382.72.08-.72h.3l1.378-2.6a.477.477,0,0,0,.03-.43.34.34,0,0,0-.33-.17H57.16a.7.7,0,0,0-.46.12.95.95,0,0,0-.24.36l-2.02,4.62a.409.409,0,0,0-.03.43.452.452,0,0,0,.41.17h2.759l.381-.92-.2.92h-.181L55.54,84.4Q55.4,84.715,55.64,84.816Z"/><polygon class="c" points="59.46 77.696 59.842 76.976 59.54 76.976 59.46 77.696"/></svg>