<svg xmlns="http://www.w3.org/2000/svg" viewBox="0 0 128 128"><defs><style>.a{fill:#0000;}.b{fill:none;}.c{fill:#fff;}</style></defs><rect class="a" x="-541" y="-1709" width="2450" height="2182"/><path class="b" d="M76.33,62.42a9.007,9.007,0,0,0-4.15-.86,2.422,2.422,0,0,1-1.21-.25,1.941,1.941,0,0,1-.73-.87,10.52,10.52,0,0,0-3.4-4.12,8.159,8.159,0,0,0-4.76-1.44,8.394,8.394,0,0,0-3.37.68,8.928,8.928,0,0,0-2.79,1.9,9.488,9.488,0,0,0-1.96,2.88,11.044,11.044,0,0,0-.9,3.62,2.071,2.071,0,0,1-.37,1.16,1.877,1.877,0,0,1-1.03.56,5.639,5.639,0,0,0-2.8,1.6,3.913,3.913,0,0,0-.98,2.7,3.751,3.751,0,0,0,1.3,3.01,5.339,5.339,0,0,0,3.58,1.11h20.6a6.333,6.333,0,0,0,3.22-.83,6.2,6.2,0,0,0,2.28-2.25,6.129,6.129,0,0,0,.84-3.18,6.011,6.011,0,0,0-.85-3.13A6.076,6.076,0,0,0,76.33,62.42Z"/><path class="c" d="M77.77,59.79a10.7,10.7,0,0,0-5.15-1.21,11.965,11.965,0,0,0-4.34-4.83A11.4,11.4,0,0,0,62.08,52a11.556,11.556,0,0,0-5.66,1.43,12.216,12.216,0,0,0-4.28,3.91,11.7,11.7,0,0,0-1.96,5.62,6.993,6.993,0,0,0-3.77,2.56,7.437,7.437,0,0,0-.49,7.94,6.63,6.63,0,0,0,2.66,2.57,8.7,8.7,0,0,0,4.22.95H73.14a9.524,9.524,0,0,0,4.8-1.22,9.251,9.251,0,0,0,3.4-3.31,8.906,8.906,0,0,0,1.26-4.69,8.7,8.7,0,0,0-1.29-4.68A9.207,9.207,0,0,0,77.77,59.79Zm1.09,11.23a6.2,6.2,0,0,1-2.28,2.25,6.333,6.333,0,0,1-3.22.83H52.76a5.339,5.339,0,0,1-3.58-1.11,3.751,3.751,0,0,1-1.3-3.01,3.913,3.913,0,0,1,.98-2.7,5.639,5.639,0,0,1,2.8-1.6,1.877,1.877,0,0,0,1.03-.56,2.071,2.071,0,0,0,.37-1.16,11.044,11.044,0,0,1,.9-3.62,9.488,9.488,0,0,1,1.96-2.88,8.928,8.928,0,0,1,2.79-1.9,8.394,8.394,0,0,1,3.37-.68,8.159,8.159,0,0,1,4.76,1.44,10.52,10.52,0,0,1,3.4,4.12,1.941,1.941,0,0,0,.73.87,2.422,2.422,0,0,0,1.21.25,9.007,9.007,0,0,1,4.15.86,6.076,6.076,0,0,1,2.52,2.29,6.011,6.011,0,0,1,.85,3.13A6.129,6.129,0,0,1,78.86,71.02Z"/></svg>