<svg xmlns="http://www.w3.org/2000/svg" viewBox="0 0 128 128"><defs><style>.a{fill:#0000;}.b{fill:none;}.c{fill:#fff;}</style></defs><rect class="a" x="-1453" y="-189" width="2450" height="2182"/><path class="b" d="M53.46,66.06h19.6a5.909,5.909,0,0,0,3.07-.8,6.008,6.008,0,0,0,2.14-2.13,5.7,5.7,0,0,0,.79-2.97,5.631,5.631,0,0,0-.8-2.94,5.724,5.724,0,0,0-2.38-2.15,8.533,8.533,0,0,0-3.92-.81,2.373,2.373,0,0,1-1.19-.25,1.93,1.93,0,0,1-.73-.89,9.685,9.685,0,0,0-3.24-3.91,7.815,7.815,0,0,0-4.46-1.33,7.975,7.975,0,0,0-4.09,1.09A8.624,8.624,0,0,0,55.2,52a9.96,9.96,0,0,0-1.38,4.46,2.093,2.093,0,0,1-.36,1.14,1.82,1.82,0,0,1-1.02.56,4.877,4.877,0,0,0-2.76,1.64,4,4,0,0,0-.8,2.4,3.7,3.7,0,0,0,1.13,2.75A4.747,4.747,0,0,0,53.46,66.06Z"/><path class="c" d="M53.59,72.06a1,1,0,0,0-.51-.64.982.982,0,0,0-.81-.12,1.048,1.048,0,0,0-.63.5l-1.96,3.4a.948.948,0,0,0-.11.77,1.064,1.064,0,0,0,.51.65,1.071,1.071,0,0,0,1.46-.4l1.92-3.34A1.033,1.033,0,0,0,53.59,72.06Z"/><polygon class="c" points="64.44 75.26 64.833 74.5 64.52 74.5 64.44 75.26"/><path class="c" d="M75.53,72.06a1.085,1.085,0,0,0-1.31-.76,1.125,1.125,0,0,0-.64.5l-1.96,3.4a.948.948,0,0,0-.11.77,1.053,1.053,0,0,0,.53.65.991.991,0,0,0,.8.1,1.049,1.049,0,0,0,.64-.5l1.94-3.34A1.079,1.079,0,0,0,75.53,72.06Z"/><polygon class="c" points="62.86 76.16 62.48 77.08 62.66 77.08 62.86 76.16"/><path class="c" d="M75.04,81a1.071,1.071,0,0,0,1.46-.4l1.92-3.34a1.033,1.033,0,0,0,.13-.82,1,1,0,0,0-.51-.64.982.982,0,0,0-.81-.12,1.126,1.126,0,0,0-.65.5l-1.94,3.4a.948.948,0,0,0-.11.77A1.064,1.064,0,0,0,75.04,81Z"/><path class="c" d="M60.46,82.68a.47.47,0,0,0,.48-.16l7.5-7.22a.51.51,0,0,0,.2-.53.383.383,0,0,0-.42-.27H64.833l-.393.76.08-.76h.313l1.427-2.76a.429.429,0,0,0,.05-.42.354.354,0,0,0-.35-.18h-3.9a.758.758,0,0,0-.74.48L59.2,76.46a.468.468,0,0,0-.01.45.452.452,0,0,0,.41.17h2.88l.38-.92-.2.92h-.18l-2.12,5.14Q60.221,82.58,60.46,82.68Z"/><path class="c" d="M49.44,68.02a8.345,8.345,0,0,0,4.06.92H72.88a9.034,9.034,0,0,0,4.65-1.2,8.877,8.877,0,0,0,3.23-3.21,8.624,8.624,0,0,0,1.18-4.45,8.29,8.29,0,0,0-1.25-4.52,8.827,8.827,0,0,0-3.4-3.12,10.147,10.147,0,0,0-4.83-1.14,11.838,11.838,0,0,0-2.5-3.33,11.17,11.17,0,0,0-3.46-2.19,11.427,11.427,0,0,0-9.63.62,11.862,11.862,0,0,0-4.08,3.76,11.039,11.039,0,0,0-1.85,5.28,6.9,6.9,0,0,0-3.53,2.39A6.639,6.639,0,0,0,46,62.1a6.859,6.859,0,0,0,.88,3.45A6.4,6.4,0,0,0,49.44,68.02Zm.24-8.22a4.877,4.877,0,0,1,2.76-1.64,1.82,1.82,0,0,0,1.02-.56,2.093,2.093,0,0,0,.36-1.14A9.96,9.96,0,0,1,55.2,52a8.624,8.624,0,0,1,3.05-3.03,7.975,7.975,0,0,1,4.09-1.09,7.815,7.815,0,0,1,4.46,1.33,9.685,9.685,0,0,1,3.24,3.91,1.93,1.93,0,0,0,.73.89,2.373,2.373,0,0,0,1.19.25,8.533,8.533,0,0,1,3.92.81,5.724,5.724,0,0,1,2.38,2.15,5.631,5.631,0,0,1,.8,2.94,5.7,5.7,0,0,1-.79,2.97,6.008,6.008,0,0,1-2.14,2.13,5.909,5.909,0,0,1-3.07.8H53.46a4.747,4.747,0,0,1-3.45-1.11,3.7,3.7,0,0,1-1.13-2.75A4,4,0,0,1,49.68,59.8Z"/><path class="c" d="M53.1,81a.991.991,0,0,0,.8.1,1.049,1.049,0,0,0,.64-.5l1.94-3.34a1,1,0,0,0,.12-.82,1.049,1.049,0,0,0-.5-.64,1.014,1.014,0,0,0-.82-.12,1.125,1.125,0,0,0-.64.5l-1.96,3.4a1.03,1.03,0,0,0-.1.77A1.018,1.018,0,0,0,53.1,81Z"/></svg>