<svg xmlns="http://www.w3.org/2000/svg" viewBox="0 0 128 128"><defs><style>.a{fill:#0000;}.b{fill:#fff;}.c{fill:#ff0;}</style></defs><rect class="a" x="-1301" y="-189" width="2450" height="2182"/><polygon class="b" points="52.98 89.2 53.51 88.2 52.94 88.2 52.98 89.2"/><path class="c" d="M56.05,82.84a.586.586,0,0,0-.57-.28h-4.6a1.219,1.219,0,0,0-.78.2,1.673,1.673,0,0,0-.42.58l-3.24,7.4a.743.743,0,0,0,0,.75.791.791,0,0,0,.68.27h4.089l.631-1.52-.32,1.52h-.311L47.94,99.64q-.24.559.18.72.4.18.78-.28l9.92-10.64a.829.829,0,0,0,.25-.83.615.615,0,0,0-.67-.41H53.51l-.53,1-.04-1h.57l2.47-4.66A.732.732,0,0,0,56.05,82.84Z"/><path class="b" d="M37.46,78.56H65.48a13.2,13.2,0,0,0,5.03-.95,12.53,12.53,0,0,0,4.07-2.65A12.336,12.336,0,0,0,77.3,71a12.138,12.138,0,0,0,.98-4.88,11.633,11.633,0,0,0-3.81-8.74,13.158,13.158,0,0,0-4.24-2.59,14.678,14.678,0,0,0-5.29-.93,17.931,17.931,0,0,0-3.75-5,15.668,15.668,0,0,0-10.83-4.22,15.325,15.325,0,0,0-5.89,1.14,16.341,16.341,0,0,0-4.96,3.18,16.735,16.735,0,0,0-3.56,4.76,16.146,16.146,0,0,0-1.65,5.9,10.463,10.463,0,0,0-3.86,2.01A9.463,9.463,0,0,0,27,69.04a8.986,8.986,0,0,0,5.01,8.31A11.74,11.74,0,0,0,37.46,78.56Z"/><path class="c" d="M91,72.32a1.811,1.811,0,0,0,2.54-.02,1.764,1.764,0,0,0,.53-1.27,1.662,1.662,0,0,0-.53-1.27L89.26,65.5a1.764,1.764,0,0,0-1.27-.53,1.662,1.662,0,0,0-1.27.53,1.811,1.811,0,0,0,0,2.54Z"/><polygon class="b" points="51.84 90.24 51.209 91.76 51.52 91.76 51.84 90.24"/><path class="c" d="M87.99,42.14a1.784,1.784,0,0,0,1.31-.54l4.24-4.26a1.725,1.725,0,0,0,.53-1.29,1.764,1.764,0,0,0-.53-1.27,1.716,1.716,0,0,0-1.26-.52,1.782,1.782,0,0,0-1.28.52l-4.28,4.3a1.68,1.68,0,0,0-.51,1.26,1.792,1.792,0,0,0,.51,1.26A1.655,1.655,0,0,0,87.99,42.14Z"/><path class="c" d="M74.8,36.64a1.844,1.844,0,0,0,1.82-1.82V28.8a1.717,1.717,0,0,0-.54-1.27,1.823,1.823,0,0,0-2.57,0,1.734,1.734,0,0,0-.53,1.27v6.02a1.767,1.767,0,0,0,.53,1.28A1.738,1.738,0,0,0,74.8,36.64Z"/><path class="c" d="M99.48,51.72H93.46a1.767,1.767,0,0,0-1.28.53,1.738,1.738,0,0,0-.54,1.29,1.717,1.717,0,0,0,.54,1.27,1.767,1.767,0,0,0,1.28.53h6.02a1.724,1.724,0,0,0,1.28-.53,1.748,1.748,0,0,0,.52-1.27,1.771,1.771,0,0,0-.52-1.29A1.724,1.724,0,0,0,99.48,51.72Z"/><path class="c" d="M60.3,41.6a1.772,1.772,0,0,0,1.3.54,1.643,1.643,0,0,0,1.26-.54,1.753,1.753,0,0,0,.53-1.26,1.651,1.651,0,0,0-.53-1.26l-4.28-4.3a1.782,1.782,0,0,0-1.28-.52,1.776,1.776,0,0,0-1.78,1.79,1.793,1.793,0,0,0,.52,1.29Z"/><path class="c" d="M66.56,51.38a17.279,17.279,0,0,1,7.26,2.07,13.921,13.921,0,0,1,4.95,4.62,14.926,14.926,0,0,1,2.25,6.59,14.377,14.377,0,0,0,4.64-4.76,12.168,12.168,0,0,0,1.72-6.36,12.5,12.5,0,0,0-3.67-8.95,12.68,12.68,0,0,0-4.02-2.71,12.353,12.353,0,0,0-4.91-.98,12.223,12.223,0,0,0-8.31,3.18,12.34,12.34,0,0,0-2.67,3.46,16.773,16.773,0,0,1,2.76,3.84Z"/></svg>