<svg xmlns="http://www.w3.org/2000/svg" viewBox="0 0 128 128"><defs><style>.a{fill:#0000;}.b{fill:#fff;}.c{fill:#ff0;}.d{fill:#00c9ea;}</style></defs><rect class="a" x="-1453" y="-493" width="2450" height="2182"/><polygon class="b" points="64.44 75.26 64.833 74.5 64.52 74.5 64.44 75.26"/><polygon class="b" points="62.86 76.16 62.48 77.08 62.66 77.08 62.86 76.16"/><path class="c" d="M60.46,82.68a.47.47,0,0,0,.48-.16l7.5-7.22a.51.51,0,0,0,.2-.53.383.383,0,0,0-.42-.27H64.833l-.393.76.08-.76h.313l1.427-2.76a.429.429,0,0,0,.05-.42.354.354,0,0,0-.35-.18h-3.9a.758.758,0,0,0-.74.48L59.2,76.46a.468.468,0,0,0-.01.45.452.452,0,0,0,.41.17h2.88l.38-.92-.2.92h-.18l-2.12,5.14Q60.221,82.58,60.46,82.68Z"/><path class="b" d="M80.76,64.53a8.624,8.624,0,0,0,1.18-4.45,8.29,8.29,0,0,0-1.25-4.52,8.827,8.827,0,0,0-3.4-3.12,10.147,10.147,0,0,0-4.83-1.14,11.838,11.838,0,0,0-2.5-3.33,11.17,11.17,0,0,0-3.46-2.19,11.427,11.427,0,0,0-9.63.62,11.862,11.862,0,0,0-4.08,3.76,11.039,11.039,0,0,0-1.85,5.28,6.9,6.9,0,0,0-3.53,2.39A6.639,6.639,0,0,0,46,62.1a6.859,6.859,0,0,0,.88,3.45,6.4,6.4,0,0,0,2.56,2.47,8.345,8.345,0,0,0,4.06.92H72.88a9.034,9.034,0,0,0,4.65-1.2A8.877,8.877,0,0,0,80.76,64.53Z"/><path class="d" d="M75.04,81a1.071,1.071,0,0,0,1.46-.4l1.92-3.34a1.033,1.033,0,0,0,.13-.82,1,1,0,0,0-.51-.64.982.982,0,0,0-.81-.12,1.126,1.126,0,0,0-.65.5l-1.94,3.4a.948.948,0,0,0-.11.77A1.064,1.064,0,0,0,75.04,81Z"/><path class="d" d="M75.53,72.06a1.085,1.085,0,0,0-1.31-.76,1.125,1.125,0,0,0-.64.5l-1.96,3.4a.948.948,0,0,0-.11.77,1.053,1.053,0,0,0,.53.65.991.991,0,0,0,.8.1,1.049,1.049,0,0,0,.64-.5l1.94-3.34A1.079,1.079,0,0,0,75.53,72.06Z"/><path class="d" d="M53.1,81a.991.991,0,0,0,.8.1,1.049,1.049,0,0,0,.64-.5l1.94-3.34a1,1,0,0,0,.12-.82,1.049,1.049,0,0,0-.5-.64,1.014,1.014,0,0,0-.82-.12,1.125,1.125,0,0,0-.64.5l-1.96,3.4a1.03,1.03,0,0,0-.1.77A1.018,1.018,0,0,0,53.1,81Z"/><path class="d" d="M53.59,72.06a1,1,0,0,0-.51-.64.982.982,0,0,0-.81-.12,1.048,1.048,0,0,0-.63.5l-1.96,3.4a.948.948,0,0,0-.11.77,1.064,1.064,0,0,0,.51.65,1.071,1.071,0,0,0,1.46-.4l1.92-3.34A1.033,1.033,0,0,0,53.59,72.06Z"/></svg>