<svg xmlns="http://www.w3.org/2000/svg" viewBox="0 0 128 128"><defs><style>.a{fill:#0000;}.b{fill:#b3b3b3;}.c{fill:#fff;}.d{fill:#ff0;}</style></defs><rect class="a" x="-1453" y="-1101" width="2450" height="2182"/><path class="b" d="M83.62,54.02a2.134,2.134,0,0,0-.95.27,9.776,9.776,0,0,1-1.3.53,6.092,6.092,0,0,1-1.93.26,6.3,6.3,0,0,1-4.48-1.55A5.38,5.38,0,0,1,73.3,49.4a5.807,5.807,0,0,1,.3-1.92q.3-.86.59-1.52a2.871,2.871,0,0,0,.29-1.1q0-.879-.98-.86a5.812,5.812,0,0,0-2.94.96,10.87,10.87,0,0,0-2.91,2.61,9.28,9.28,0,0,0-1.79,3.79,7.81,7.81,0,0,1,.77.86,6.229,6.229,0,0,1,.71,1.18,10.41,10.41,0,0,1,4.81,1.56,10.116,10.116,0,0,1,3.33,3.39,8.625,8.625,0,0,1,1.24,4.41,9.488,9.488,0,0,0,3.18-1.12,10.207,10.207,0,0,0,2.44-1.93,8.767,8.767,0,0,0,1.56-2.3,5.382,5.382,0,0,0,.54-2.21,1.561,1.561,0,0,0-.21-.85A.679.679,0,0,0,83.62,54.02Z"/><path class="c" d="M47.32,58.88a5.913,5.913,0,0,0-3.15,2.2A6.074,6.074,0,0,0,43,64.76a5.663,5.663,0,0,0,1.85,4.4,6.879,6.879,0,0,0,4.81,1.68h16.9a8.03,8.03,0,0,0,4.06-1.04,7.793,7.793,0,0,0,2.88-2.82A7.624,7.624,0,0,0,74.56,63a7.317,7.317,0,0,0-1.09-3.95,7.847,7.847,0,0,0-2.96-2.77,8.9,8.9,0,0,0-4.25-1.04A10.5,10.5,0,0,0,64,52.29a9.72,9.72,0,0,0-3.05-1.88,9.921,9.921,0,0,0-3.59-.65,9.765,9.765,0,0,0-4.77,1.2,10.359,10.359,0,0,0-3.61,3.27A9.658,9.658,0,0,0,47.32,58.88Z"/><path class="d" d="M55.64,84.28a.431.431,0,0,0,.46-.16l7.2-6.92a.489.489,0,0,0,.19-.5.353.353,0,0,0-.39-.26H59.835l-.375.72.08-.72h.3L61.2,73.82a.412.412,0,0,0,.05-.41.36.36,0,0,0-.35-.17H57.16a.7.7,0,0,0-.46.12.98.98,0,0,0-.24.34l-2.04,4.62a.49.49,0,0,0-.02.45.424.424,0,0,0,.4.17h2.757l.383-.92-.2.92h-.183l-2.037,4.9Q55.4,84.181,55.64,84.28Z"/><polygon class="c" points="59.46 77.16 59.835 76.44 59.54 76.44 59.46 77.16"/><polygon class="c" points="57.94 78.02 57.557 78.94 57.74 78.94 57.94 78.02"/></svg>