<svg xmlns="http://www.w3.org/2000/svg" viewBox="0 0 128 128"><defs><style>.a{fill:#0000;}.b{fill:#fff;}.c{fill:#b3b3b3;}</style></defs><rect class="a" x="-845" y="-1101" width="2450" height="2182"/><path class="b" d="M46.88,66.55a6.4,6.4,0,0,0,2.56,2.47,8.345,8.345,0,0,0,4.06.92H72.88a9.034,9.034,0,0,0,4.65-1.2,8.877,8.877,0,0,0,3.23-3.21,8.624,8.624,0,0,0,1.18-4.45,8.29,8.29,0,0,0-1.25-4.52,8.827,8.827,0,0,0-3.4-3.12,10.147,10.147,0,0,0-4.83-1.14,11.838,11.838,0,0,0-2.5-3.33,11.17,11.17,0,0,0-3.46-2.19,11.427,11.427,0,0,0-9.63.62,11.862,11.862,0,0,0-4.08,3.76,11.039,11.039,0,0,0-1.85,5.28,6.9,6.9,0,0,0-3.53,2.39A6.639,6.639,0,0,0,46,63.1,6.859,6.859,0,0,0,46.88,66.55Z"/><path class="c" d="M75,73.76a1.062,1.062,0,0,0-.78-.32H54.06a1.062,1.062,0,0,0-.78.32,1.16,1.16,0,0,0,0,1.6,1.062,1.062,0,0,0,.78.32H74.22a1.062,1.062,0,0,0,.78-.32,1.16,1.16,0,0,0,0-1.6Z"/><path class="c" d="M74.22,78.76H54.06a1.062,1.062,0,0,0-.78.32,1.16,1.16,0,0,0,0,1.6,1.062,1.062,0,0,0,.78.32H74.22a1.062,1.062,0,0,0,.78-.32,1.16,1.16,0,0,0,0-1.6A1.062,1.062,0,0,0,74.22,78.76Z"/></svg>