<svg xmlns="http://www.w3.org/2000/svg" viewBox="0 0 128 128"><defs><style>.a{fill:#0000;}.b{fill:#fff;}.c{fill:#ff0;}.d{fill:#b3b3b3;}</style></defs><rect class="a" x="-1453" y="-949" width="2450" height="2182"/><polygon class="b" points="54.84 86.524 54.209 88.044 54.52 88.044 54.84 86.524"/><path class="c" d="M59.05,79.124a.588.588,0,0,0-.57-.28h-4.6a1.219,1.219,0,0,0-.78.2,1.657,1.657,0,0,0-.42.6l-3.24,7.4a.708.708,0,0,0,0,.73.791.791,0,0,0,.68.27h4.089l.631-1.52-.32,1.52h-.311l-3.269,7.88q-.24.581.18.74a.665.665,0,0,0,.78-.28l9.92-10.66a.816.816,0,0,0,.25-.82.616.616,0,0,0-.67-.4H56.508l-.528,1-.04-1h.568l2.472-4.68A.732.732,0,0,0,59.05,79.124Z"/><polygon class="b" points="55.98 85.504 56.508 84.504 55.94 84.504 55.98 85.504"/><path class="d" d="M95.94,48.5a3.924,3.924,0,0,0-1.45.38,20.712,20.712,0,0,1-2.15.76,10.113,10.113,0,0,1-2.92.38,11.887,11.887,0,0,1-5.55-1.22,8.834,8.834,0,0,1-3.64-3.42,10.913,10.913,0,0,1-.86-8.18q.43-1.359.86-2.38a4.488,4.488,0,0,0,.43-1.62,1.129,1.129,0,0,0-.39-.91A1.571,1.571,0,0,0,79.14,32a9.087,9.087,0,0,0-3.83,1.17,14.572,14.572,0,0,0-3.55,2.78,17.392,17.392,0,0,0-2.8,3.96,15.9,15.9,0,0,0-1.58,4.75,9.608,9.608,0,0,1,1.96,2.86,17.242,17.242,0,0,1,5.84,1.44,15.815,15.815,0,0,1,4.64,3.15,14.518,14.518,0,0,1,3.1,4.46,14.28,14.28,0,0,1,1.22,5.37,17.659,17.659,0,0,0,5.59-1.92,16.4,16.4,0,0,0,4.07-3.13,13.993,13.993,0,0,0,2.48-3.58,7.914,7.914,0,0,0,.84-3.29,1.816,1.816,0,0,0-.31-1.09A1.013,1.013,0,0,0,95.94,48.5Z"/><path class="b" d="M40.46,74.844H68.48a13.181,13.181,0,0,0,5.03-.95,12.6,12.6,0,0,0,4.07-2.64,12.153,12.153,0,0,0,3.7-8.83,11.714,11.714,0,0,0-1-4.85,11.871,11.871,0,0,0-2.81-3.9,12.952,12.952,0,0,0-4.24-2.59,15.147,15.147,0,0,0-5.29-.94,17.946,17.946,0,0,0-3.75-5,15.668,15.668,0,0,0-10.83-4.22,15.325,15.325,0,0,0-5.89,1.14,16.341,16.341,0,0,0-4.96,3.18,16.684,16.684,0,0,0-3.56,4.77,16.236,16.236,0,0,0-1.65,5.91,10.55,10.55,0,0,0-3.86,2,9.425,9.425,0,0,0-2.54,3.27,9.615,9.615,0,0,0-.9,4.15,9.21,9.21,0,0,0,1.33,4.95,9.082,9.082,0,0,0,3.68,3.35A11.826,11.826,0,0,0,40.46,74.844Z"/></svg>