<svg xmlns="http://www.w3.org/2000/svg" viewBox="0 0 128 128"><defs><style>.a{fill:#0000;}.b{fill:none;}.c{fill:#fff;}</style></defs><rect class="a" x="-997" y="-949" width="2450" height="2182"/><path class="b" d="M49.68,59.8a4,4,0,0,0-.8,2.4,3.7,3.7,0,0,0,1.13,2.75,4.747,4.747,0,0,0,3.45,1.11h19.6a5.909,5.909,0,0,0,3.07-.8,6.008,6.008,0,0,0,2.14-2.13,5.7,5.7,0,0,0,.79-2.97,5.631,5.631,0,0,0-.8-2.94,5.724,5.724,0,0,0-2.38-2.15,8.533,8.533,0,0,0-3.92-.81,2.373,2.373,0,0,1-1.19-.25,1.93,1.93,0,0,1-.73-.89,9.685,9.685,0,0,0-3.24-3.91,7.815,7.815,0,0,0-4.46-1.33,7.975,7.975,0,0,0-4.09,1.09A8.624,8.624,0,0,0,55.2,52a9.96,9.96,0,0,0-1.38,4.46,2.093,2.093,0,0,1-.36,1.14,1.82,1.82,0,0,1-1.02.56A4.877,4.877,0,0,0,49.68,59.8Z"/><path class="c" d="M62.47,79.94a.591.591,0,0,0-.05-.42.455.455,0,0,0-.35-.22.519.519,0,0,0-.41.08l-1.22.86.14-1.48a.528.528,0,0,0-.13-.41.532.532,0,0,0-.78,0,.528.528,0,0,0-.13.41l.12,1.48-1.24-.86a.515.515,0,0,0-.39-.09.46.46,0,0,0-.35.23.569.569,0,0,0-.05.41.508.508,0,0,0,.27.35l1.34.64-1.34.64a.481.481,0,0,0-.28.33.594.594,0,0,0,.04.43.5.5,0,0,0,.36.24.5.5,0,0,0,.4-.08l1.24-.84-.1,1.46a.519.519,0,0,0,.12.39.51.51,0,0,0,.76,0,.519.519,0,0,0,.12-.39l-.12-1.46,1.22.84a.545.545,0,0,0,.74-.16.5.5,0,0,0,.06-.42.481.481,0,0,0-.3-.34l-1.32-.64,1.34-.64A.453.453,0,0,0,62.47,79.94Z"/><path class="c" d="M71.41,77.6a.591.591,0,0,0-.05-.42.455.455,0,0,0-.35-.22.519.519,0,0,0-.41.08l-1.22.86.14-1.48a.528.528,0,0,0-.13-.41.532.532,0,0,0-.78,0,.528.528,0,0,0-.13.41l.12,1.48-1.24-.86a.515.515,0,0,0-.39-.09.46.46,0,0,0-.35.23.569.569,0,0,0-.05.41.508.508,0,0,0,.27.35l1.34.64-1.34.64a.481.481,0,0,0-.28.33.594.594,0,0,0,.04.43.5.5,0,0,0,.36.24.5.5,0,0,0,.4-.08l1.24-.84-.1,1.46a.519.519,0,0,0,.12.39.51.51,0,0,0,.76,0,.519.519,0,0,0,.12-.39l-.12-1.46,1.22.84a.545.545,0,0,0,.74-.16.5.5,0,0,0,.06-.42.481.481,0,0,0-.3-.34l-1.32-.64,1.34-.64A.453.453,0,0,0,71.41,77.6Z"/><path class="c" d="M50.94,55.44a6.9,6.9,0,0,0-3.53,2.39A6.639,6.639,0,0,0,46,62.1a6.859,6.859,0,0,0,.88,3.45,6.4,6.4,0,0,0,2.56,2.47,8.345,8.345,0,0,0,4.06.92H72.88a9.034,9.034,0,0,0,4.65-1.2,8.877,8.877,0,0,0,3.23-3.21,8.624,8.624,0,0,0,1.18-4.45,8.29,8.29,0,0,0-1.25-4.52,8.827,8.827,0,0,0-3.4-3.12,10.147,10.147,0,0,0-4.83-1.14,11.838,11.838,0,0,0-2.5-3.33,11.17,11.17,0,0,0-3.46-2.19,11.427,11.427,0,0,0-9.63.62,11.862,11.862,0,0,0-4.08,3.76A11.039,11.039,0,0,0,50.94,55.44Zm2.88,1.02A9.96,9.96,0,0,1,55.2,52a8.624,8.624,0,0,1,3.05-3.03,7.975,7.975,0,0,1,4.09-1.09,7.815,7.815,0,0,1,4.46,1.33,9.685,9.685,0,0,1,3.24,3.91,1.93,1.93,0,0,0,.73.89,2.373,2.373,0,0,0,1.19.25,8.533,8.533,0,0,1,3.92.81,5.724,5.724,0,0,1,2.38,2.15,5.631,5.631,0,0,1,.8,2.94,5.7,5.7,0,0,1-.79,2.97,6.008,6.008,0,0,1-2.14,2.13,5.909,5.909,0,0,1-3.07.8H53.46a4.747,4.747,0,0,1-3.45-1.11,3.7,3.7,0,0,1-1.13-2.75,4,4,0,0,1,.8-2.4,4.877,4.877,0,0,1,2.76-1.64,1.82,1.82,0,0,0,1.02-.56A2.093,2.093,0,0,0,53.82,56.46Z"/><path class="c" d="M72.02,74.58l.96-1.68a1.052,1.052,0,0,0,.12-.8,1.029,1.029,0,0,0-.5-.66,1.071,1.071,0,0,0-1.46.4l-.96,1.7a1.09,1.09,0,0,0-.1.79.961.961,0,0,0,.5.63,1.079,1.079,0,0,0,.82.11A.939.939,0,0,0,72.02,74.58Z"/><path class="c" d="M55.6,74.52l.96-1.68a1.052,1.052,0,0,0,.12-.8,1.029,1.029,0,0,0-.5-.66,1.071,1.071,0,0,0-1.46.4l-.96,1.7a1.09,1.09,0,0,0-.1.79.961.961,0,0,0,.5.63,1.079,1.079,0,0,0,.82.11A.939.939,0,0,0,55.6,74.52Z"/><path class="c" d="M64.9,72.05a1.028,1.028,0,0,0-.5-.65,1.079,1.079,0,0,0-.82-.11,1,1,0,0,0-.64.51L60.6,75.88A1.01,1.01,0,0,0,61,77.3a1.079,1.079,0,0,0,.82.11.939.939,0,0,0,.62-.49l2.34-4.06A1.091,1.091,0,0,0,64.9,72.05Z"/><path class="c" d="M54.99,77.54a.591.591,0,0,0-.05-.42.455.455,0,0,0-.35-.22.519.519,0,0,0-.41.08l-1.22.86.14-1.48a.528.528,0,0,0-.13-.41.532.532,0,0,0-.78,0,.528.528,0,0,0-.13.41l.12,1.48-1.24-.86a.515.515,0,0,0-.39-.09.46.46,0,0,0-.35.23.569.569,0,0,0-.05.41.508.508,0,0,0,.27.35l1.34.64-1.34.64a.481.481,0,0,0-.28.33.594.594,0,0,0,.04.43.5.5,0,0,0,.36.24.5.5,0,0,0,.4-.08l1.24-.84-.1,1.46a.519.519,0,0,0,.12.39.51.51,0,0,0,.76,0,.519.519,0,0,0,.12-.39l-.12-1.46,1.22.84a.545.545,0,0,0,.74-.16.5.5,0,0,0,.06-.42.481.481,0,0,0-.3-.34l-1.32-.64,1.34-.64A.453.453,0,0,0,54.99,77.54Z"/></svg>