<svg xmlns="http://www.w3.org/2000/svg" viewBox="0 0 128 128"><defs><style>.a{fill:#0000;}.b{fill:#fff;}</style></defs><rect class="a" x="-693" y="-341" width="2450" height="2182"/><path class="b" d="M48.72,76.06a8.84,8.84,0,0,0,4.08.9H73.16a9.524,9.524,0,0,0,4.8-1.22,9.171,9.171,0,0,0,3.39-3.31,8.964,8.964,0,0,0,1.25-4.69,8.63,8.63,0,0,0-1.3-4.69,9.236,9.236,0,0,0-3.55-3.27,10.531,10.531,0,0,0-5.11-1.18,11.9,11.9,0,0,0-4.35-4.85,11.891,11.891,0,0,0-11.9-.3,12.2,12.2,0,0,0-4.27,3.93,11.57,11.57,0,0,0-1.92,5.56,6.944,6.944,0,0,0-3.77,2.56A7.06,7.06,0,0,0,45,69.86a6.944,6.944,0,0,0,.98,3.7A6.723,6.723,0,0,0,48.72,76.06Z"/></svg>