<svg xmlns="http://www.w3.org/2000/svg" viewBox="0 0 128 128"><defs><style>.a{fill:#0000;}.b{fill:none;}.c{fill:#fff;}</style></defs><rect class="a" x="-1453" y="-645" width="2450" height="2182"/><path class="b" d="M73.31,54.343a12.13,12.13,0,0,0-5.69-1.25,2.744,2.744,0,0,1-1.39-.29,2.43,2.43,0,0,1-.87-1.05,16.257,16.257,0,0,0-2.93-4.16,12.016,12.016,0,0,0-8.83-3.66,11.716,11.716,0,0,0-4.7.96,12.975,12.975,0,0,0-3.97,2.68,13.653,13.653,0,0,0-2.83,4.06,14.87,14.87,0,0,0-1.3,5.08,2.171,2.171,0,0,1-.42,1.28,2.312,2.312,0,0,1-1.2.64,8.011,8.011,0,0,0-4.28,2.56,6.228,6.228,0,0,0-1.4,3.98,6.054,6.054,0,0,0,.82,3.12,5.784,5.784,0,0,0,2.4,2.22,8.392,8.392,0,0,0,3.9.82H68.78a9.821,9.821,0,0,0,3.74-.7,9.309,9.309,0,0,0,3.01-1.95,9.047,9.047,0,0,0,2.01-2.89,8.931,8.931,0,0,0-.56-8.12A9.2,9.2,0,0,0,73.31,54.343Z"/><path class="b" d="M77.92,53.283a12.152,12.152,0,0,1,2.84,3.96,11.268,11.268,0,0,1,.508,1.394,16.3,16.3,0,0,0,3.042-.254,15.179,15.179,0,0,0,3.58-1.1,13.089,13.089,0,0,0,2.78-1.69,12.183,12.183,0,0,0,1.99-1.99,9.484,9.484,0,0,0,1.22-1.99l-.16-.16a14.138,14.138,0,0,1-2.28.56,16.131,16.131,0,0,1-2.7.22,13.578,13.578,0,0,1-6.59-1.56,11.479,11.479,0,0,1-4.5-4.33,12.4,12.4,0,0,1-1.63-6.41A14.227,14.227,0,0,1,76.3,37a14.479,14.479,0,0,1,.64-2.25l-.22-.18a11.822,11.822,0,0,0-2.52,1.58,12.567,12.567,0,0,0-2.26,2.4,12.074,12.074,0,0,0-1.63,3.15,11.622,11.622,0,0,0-.61,3.85,13.124,13.124,0,0,0,.695,4.259,14.073,14.073,0,0,1,3.255.821A13.386,13.386,0,0,1,77.92,53.283Z"/><polygon class="c" points="54.96 86.213 54.326 87.733 54.62 87.733 54.96 86.213"/><path class="c" d="M67.62,51.913l3.62-.14a11.739,11.739,0,0,1-.845-1.961,15.984,15.984,0,0,0-2.055-.159,19.331,19.331,0,0,0-1.824-2.775,17.535,17.535,0,0,0,.234,1.975A16.478,16.478,0,0,0,67.62,51.913Z"/><path class="c" d="M59.15,78.813a.588.588,0,0,0-.57-.28h-4.6a1.219,1.219,0,0,0-.78.2,1.5,1.5,0,0,0-.4.58l-3.26,7.42a.708.708,0,0,0,0,.73.791.791,0,0,0,.68.27h4.106l.634-1.52-.34,1.52h-.294l-3.286,7.88q-.22.581.18.74a.655.655,0,0,0,.78-.28l9.94-10.66a.83.83,0,0,0,.23-.82.616.616,0,0,0-.67-.4H56.608l-.528,1-.04-1h.568l2.472-4.68A.732.732,0,0,0,59.15,78.813Z"/><polygon class="c" points="56.08 85.193 56.608 84.193 56.04 84.193 56.08 85.193"/><path class="c" d="M96.57,48.813a2.208,2.208,0,0,0-1.43-.46,6.244,6.244,0,0,0-1.49.19q-.77.191-1.78.38a13.323,13.323,0,0,1-2.43.19,11.925,11.925,0,0,1-5.59-1.2,8.1,8.1,0,0,1-3.47-3.4,10.842,10.842,0,0,1-1.18-5.2,11.883,11.883,0,0,1,.25-2.64q.251-1.08.5-1.87a4.931,4.931,0,0,0,.25-1.49,2.317,2.317,0,0,0-.48-1.51,2.14,2.14,0,0,0-1.29-.75,3.633,3.633,0,0,0-1.81.16,12.755,12.755,0,0,0-3.71,1.83,15.014,15.014,0,0,0-3.26,3.15,15.774,15.774,0,0,0-2.32,4.27,15.007,15.007,0,0,0-.87,5.17c0,.419.027.832.056,1.245a19.331,19.331,0,0,1,1.824,2.775,15.984,15.984,0,0,1,2.055.159,13.124,13.124,0,0,1-.695-4.259,11.622,11.622,0,0,1,.61-3.85,12.074,12.074,0,0,1,1.63-3.15,12.567,12.567,0,0,1,2.26-2.4,11.822,11.822,0,0,1,2.52-1.58l.22.18A14.479,14.479,0,0,0,76.3,37a14.227,14.227,0,0,0-.28,2.93,12.4,12.4,0,0,0,1.63,6.41,11.479,11.479,0,0,0,4.5,4.33,13.578,13.578,0,0,0,6.59,1.56,16.131,16.131,0,0,0,2.7-.22,14.138,14.138,0,0,0,2.28-.56l.16.16a9.484,9.484,0,0,1-1.22,1.99,12.183,12.183,0,0,1-1.99,1.99,13.089,13.089,0,0,1-2.78,1.69,15.179,15.179,0,0,1-3.58,1.1,16.3,16.3,0,0,1-3.042.254,12.112,12.112,0,0,1,.5,3.218,18.716,18.716,0,0,0,3.6-.4,17.7,17.7,0,0,0,4.43-1.57,16.017,16.017,0,0,0,3.44-2.38,14.645,14.645,0,0,0,2.44-2.86,13.569,13.569,0,0,0,1.47-2.99,2.773,2.773,0,0,0,.17-1.63A2.1,2.1,0,0,0,96.57,48.813Z"/><path class="c" d="M79.92,61.833v-3.24c.462.031.909.043,1.348.044a11.268,11.268,0,0,0-.508-1.394,12.152,12.152,0,0,0-2.84-3.96,13.386,13.386,0,0,0-4.27-2.65,14.073,14.073,0,0,0-3.255-.821,11.739,11.739,0,0,0,.845,1.961l-3.62.14a16.478,16.478,0,0,1-.87-3.06,17.535,17.535,0,0,1-.234-1.975A17.427,17.427,0,0,0,62.27,42.9a16.179,16.179,0,0,0-14.64-1.33,16.7,16.7,0,0,0-5.02,3.21,16.937,16.937,0,0,0-3.6,4.79,16.353,16.353,0,0,0-1.69,5.92,10.619,10.619,0,0,0-3.81,2.01A9.65,9.65,0,0,0,30,65.093a9.52,9.52,0,0,0,1.33,5.01,9.285,9.285,0,0,0,3.73,3.47,11.97,11.97,0,0,0,5.64,1.26H68.72a13.535,13.535,0,0,0,5.13-.96A12.759,12.759,0,0,0,78,71.183a12.5,12.5,0,0,0,2.78-4.04,12.366,12.366,0,0,0,1-4.97c0-.108-.013-.211-.016-.318C81.165,61.869,80.555,61.867,79.92,61.833Zm-2.38,3.96a9.047,9.047,0,0,1-2.01,2.89,9.309,9.309,0,0,1-3.01,1.95,9.821,9.821,0,0,1-3.74.7H40.62a8.392,8.392,0,0,1-3.9-.82,5.784,5.784,0,0,1-2.4-2.22,6.054,6.054,0,0,1-.82-3.12,6.228,6.228,0,0,1,1.4-3.98,8.011,8.011,0,0,1,4.28-2.56,2.312,2.312,0,0,0,1.2-.64,2.171,2.171,0,0,0,.42-1.28,14.87,14.87,0,0,1,1.3-5.08,13.653,13.653,0,0,1,2.83-4.06,12.975,12.975,0,0,1,3.97-2.68,11.716,11.716,0,0,1,4.7-.96,12.016,12.016,0,0,1,8.83,3.66,16.257,16.257,0,0,1,2.93,4.16,2.43,2.43,0,0,0,.87,1.05,2.744,2.744,0,0,0,1.39.29,12.13,12.13,0,0,1,5.69,1.25,9.2,9.2,0,0,1,3.67,3.33,8.931,8.931,0,0,1,.56,8.12Z"/><path class="c" d="M79.92,58.593v3.24c.635.034,1.245.036,1.844.022a12.112,12.112,0,0,0-.5-3.218C80.829,58.636,80.382,58.624,79.92,58.593Z"/></svg>