<svg xmlns="http://www.w3.org/2000/svg" viewBox="0 0 128 128"><defs><style>.a{fill:#0000;}.b{fill:none;}.c{fill:#fff;}</style></defs><rect class="a" x="-845" y="-797" width="2450" height="2182"/><path class="b" d="M53.46,67.06h19.6a5.909,5.909,0,0,0,3.07-.8,6.008,6.008,0,0,0,2.14-2.13,5.7,5.7,0,0,0,.79-2.97,5.631,5.631,0,0,0-.8-2.94,5.724,5.724,0,0,0-2.38-2.15,8.533,8.533,0,0,0-3.92-.81,2.373,2.373,0,0,1-1.19-.25,1.93,1.93,0,0,1-.73-.89,9.685,9.685,0,0,0-3.24-3.91,7.815,7.815,0,0,0-4.46-1.33,7.975,7.975,0,0,0-4.09,1.09A8.624,8.624,0,0,0,55.2,53a9.96,9.96,0,0,0-1.38,4.46,2.093,2.093,0,0,1-.36,1.14,1.82,1.82,0,0,1-1.02.56,4.877,4.877,0,0,0-2.76,1.64,4,4,0,0,0-.8,2.4,3.7,3.7,0,0,0,1.13,2.75A4.747,4.747,0,0,0,53.46,67.06Z"/><path class="c" d="M46.88,66.55a6.4,6.4,0,0,0,2.56,2.47,8.345,8.345,0,0,0,4.06.92H72.88a9.034,9.034,0,0,0,4.65-1.2,8.877,8.877,0,0,0,3.23-3.21,8.624,8.624,0,0,0,1.18-4.45,8.29,8.29,0,0,0-1.25-4.52,8.827,8.827,0,0,0-3.4-3.12,10.147,10.147,0,0,0-4.83-1.14,11.838,11.838,0,0,0-2.5-3.33,11.17,11.17,0,0,0-3.46-2.19,11.427,11.427,0,0,0-9.63.62,11.862,11.862,0,0,0-4.08,3.76,11.039,11.039,0,0,0-1.85,5.28,6.9,6.9,0,0,0-3.53,2.39A6.639,6.639,0,0,0,46,63.1,6.859,6.859,0,0,0,46.88,66.55Zm2.8-5.75a4.877,4.877,0,0,1,2.76-1.64,1.82,1.82,0,0,0,1.02-.56,2.093,2.093,0,0,0,.36-1.14A9.96,9.96,0,0,1,55.2,53a8.624,8.624,0,0,1,3.05-3.03,7.975,7.975,0,0,1,4.09-1.09,7.815,7.815,0,0,1,4.46,1.33,9.685,9.685,0,0,1,3.24,3.91,1.93,1.93,0,0,0,.73.89,2.373,2.373,0,0,0,1.19.25,8.533,8.533,0,0,1,3.92.81,5.724,5.724,0,0,1,2.38,2.15,5.631,5.631,0,0,1,.8,2.94,5.7,5.7,0,0,1-.79,2.97,6.008,6.008,0,0,1-2.14,2.13,5.909,5.909,0,0,1-3.07.8H53.46a4.747,4.747,0,0,1-3.45-1.11,3.7,3.7,0,0,1-1.13-2.75A4,4,0,0,1,49.68,60.8Z"/><path class="c" d="M75,73.76a1.062,1.062,0,0,0-.78-.32H54.06a1.062,1.062,0,0,0-.78.32,1.16,1.16,0,0,0,0,1.6,1.062,1.062,0,0,0,.78.32H74.22a1.062,1.062,0,0,0,.78-.32,1.16,1.16,0,0,0,0-1.6Z"/><path class="c" d="M74.22,78.76H54.06a1.062,1.062,0,0,0-.78.32,1.16,1.16,0,0,0,0,1.6,1.062,1.062,0,0,0,.78.32H74.22a1.062,1.062,0,0,0,.78-.32,1.16,1.16,0,0,0,0-1.6A1.062,1.062,0,0,0,74.22,78.76Z"/></svg>