<svg xmlns="http://www.w3.org/2000/svg" viewBox="0 0 128 128"><defs><style>.a{fill:#0000;}.b{fill:#fff;}.c{fill:#b3b3b3;}</style></defs><rect class="a" x="-1301" y="-949" width="2450" height="2182"/><path class="b" d="M70.51,63.32a8.886,8.886,0,0,0-4.25-1.04A10.337,10.337,0,0,0,64,59.34a9.964,9.964,0,0,0-3.05-1.88,10.043,10.043,0,0,0-8.36.55,10.5,10.5,0,0,0-3.61,3.27,9.6,9.6,0,0,0-1.66,4.64A6.026,6.026,0,0,0,43,71.82a5.641,5.641,0,0,0,1.85,4.38,6.879,6.879,0,0,0,4.81,1.68h16.9a8.04,8.04,0,0,0,4.06-1.04,7.82,7.82,0,0,0,2.88-2.81,7.612,7.612,0,0,0,1.06-3.99,7.314,7.314,0,0,0-1.09-3.95A7.839,7.839,0,0,0,70.51,63.32Z"/><path class="c" d="M76.52,69.76a9.488,9.488,0,0,0,3.18-1.12,10.232,10.232,0,0,0,2.44-1.93,9.066,9.066,0,0,0,1.57-2.29,5.271,5.271,0,0,0,.55-2.22,1.514,1.514,0,0,0-.22-.84.7.7,0,0,0-.62-.34,2.134,2.134,0,0,0-.95.27,10.707,10.707,0,0,1-1.3.54,5.9,5.9,0,0,1-1.93.27,6.278,6.278,0,0,1-4.48-1.56,5.388,5.388,0,0,1-1.66-4.12,5.8,5.8,0,0,1,.3-1.92q.3-.859.59-1.52a2.9,2.9,0,0,0,.29-1.12q0-.859-.98-.86a6.036,6.036,0,0,0-2.94.97,10.638,10.638,0,0,0-2.91,2.61,9.362,9.362,0,0,0-1.79,3.78,5.9,5.9,0,0,1,.78.87,7.24,7.24,0,0,1,.7,1.17,10.472,10.472,0,0,1,4.82,1.56,9.987,9.987,0,0,1,3.33,3.39A8.673,8.673,0,0,1,76.52,69.76Z"/></svg>