<svg xmlns="http://www.w3.org/2000/svg" viewBox="0 0 128 128"><defs><style>.a{fill:#0000;}.b{fill:none;}.c{fill:#fff;}</style></defs><rect class="a" x="-1301" y="-493" width="2450" height="2182"/><path class="b" d="M73.31,65.359a12.13,12.13,0,0,0-5.69-1.25,2.754,2.754,0,0,1-1.39-.29,2.43,2.43,0,0,1-.87-1.05,16.24,16.24,0,0,0-2.93-4.16,12.016,12.016,0,0,0-8.83-3.66,11.828,11.828,0,0,0-4.7.95,12.731,12.731,0,0,0-3.97,2.68,13.821,13.821,0,0,0-2.83,4.06,14.8,14.8,0,0,0-1.3,5.09A2.191,2.191,0,0,1,40.38,69a2.275,2.275,0,0,1-1.2.65,8,8,0,0,0-4.28,2.56,6.226,6.226,0,0,0-1.4,3.98,6.054,6.054,0,0,0,.82,3.12,5.8,5.8,0,0,0,2.4,2.22,8.392,8.392,0,0,0,3.9.82H68.78a9.821,9.821,0,0,0,3.74-.7,9.342,9.342,0,0,0,3.01-1.95,9.058,9.058,0,0,0,2.01-2.89,8.931,8.931,0,0,0-.56-8.12A9.184,9.184,0,0,0,73.31,65.359Z"/><path class="b" d="M77.92,64.3a12.152,12.152,0,0,1,2.84,3.96,11.268,11.268,0,0,1,.508,1.394A16.467,16.467,0,0,0,84.31,69.4a14.951,14.951,0,0,0,3.58-1.11,13.689,13.689,0,0,0,2.78-1.69,11.874,11.874,0,0,0,1.99-1.98,9.509,9.509,0,0,0,1.22-1.99l-.16-.16a14.245,14.245,0,0,1-2.28.56,16.131,16.131,0,0,1-2.7.22,13.578,13.578,0,0,1-6.59-1.56,11.479,11.479,0,0,1-4.5-4.33,12.4,12.4,0,0,1-1.63-6.41,14.22,14.22,0,0,1,.28-2.93,14.415,14.415,0,0,1,.64-2.25l-.22-.18a11.782,11.782,0,0,0-2.52,1.58,12.683,12.683,0,0,0-2.26,2.39,11.857,11.857,0,0,0-1.63,3.15,11.708,11.708,0,0,0-.61,3.86,13.042,13.042,0,0,0,.695,4.25,14.4,14.4,0,0,1,3.255.83A13.368,13.368,0,0,1,77.92,64.3Z"/><path class="c" d="M79.92,69.609v3.24c.634.03,1.245.028,1.844.013a12.126,12.126,0,0,0-.5-3.209C80.829,69.651,80.382,69.64,79.92,69.609Z"/><path class="c" d="M67.62,62.909l3.62-.14a11.593,11.593,0,0,1-.845-1.95,16.334,16.334,0,0,0-2.055-.17,19.258,19.258,0,0,0-1.825-2.765,17.713,17.713,0,0,0,.235,1.985A16.022,16.022,0,0,0,67.62,62.909Z"/><path class="c" d="M96.57,59.829a2.2,2.2,0,0,0-1.43-.46,6.194,6.194,0,0,0-1.49.19q-.77.191-1.78.37a14.078,14.078,0,0,1-2.43.18,12.013,12.013,0,0,1-5.59-1.19,8.037,8.037,0,0,1-3.47-3.39,10.845,10.845,0,0,1-1.18-5.2,12.024,12.024,0,0,1,.25-2.65q.251-1.091.5-1.88a4.885,4.885,0,0,0,.25-1.47,2.307,2.307,0,0,0-.48-1.52,2.2,2.2,0,0,0-1.29-.75,3.543,3.543,0,0,0-1.81.15,13.139,13.139,0,0,0-3.71,1.85,15.014,15.014,0,0,0-3.26,3.15,15.788,15.788,0,0,0-2.32,4.26,14.978,14.978,0,0,0-.87,5.18c0,.416.027.825.055,1.235a19.258,19.258,0,0,1,1.825,2.765,16.334,16.334,0,0,1,2.055.17,13.042,13.042,0,0,1-.695-4.25,11.708,11.708,0,0,1,.61-3.86,11.857,11.857,0,0,1,1.63-3.15,12.683,12.683,0,0,1,2.26-2.39,11.782,11.782,0,0,1,2.52-1.58l.22.18a14.415,14.415,0,0,0-.64,2.25,14.22,14.22,0,0,0-.28,2.93,12.4,12.4,0,0,0,1.63,6.41,11.479,11.479,0,0,0,4.5,4.33,13.578,13.578,0,0,0,6.59,1.56,16.131,16.131,0,0,0,2.7-.22,14.245,14.245,0,0,0,2.28-.56l.16.16a9.509,9.509,0,0,1-1.22,1.99,11.874,11.874,0,0,1-1.99,1.98,13.689,13.689,0,0,1-2.78,1.69,14.951,14.951,0,0,1-3.58,1.11,16.467,16.467,0,0,1-3.042.254,12.126,12.126,0,0,1,.5,3.209,19.629,19.629,0,0,0,3.6-.4,17.418,17.418,0,0,0,4.43-1.56,16.053,16.053,0,0,0,3.44-2.38,14.645,14.645,0,0,0,2.44-2.86,13.591,13.591,0,0,0,1.47-2.99,2.774,2.774,0,0,0,.17-1.63A2.1,2.1,0,0,0,96.57,59.829Z"/><path class="c" d="M79.92,72.849v-3.24c.462.031.909.042,1.348.044a11.268,11.268,0,0,0-.508-1.394,12.152,12.152,0,0,0-2.84-3.96,13.368,13.368,0,0,0-4.27-2.65,14.4,14.4,0,0,0-3.255-.83,11.593,11.593,0,0,0,.845,1.95l-3.62.14a16.022,16.022,0,0,1-.87-3.04,17.713,17.713,0,0,1-.235-1.985,17.479,17.479,0,0,0-4.245-3.965,16.232,16.232,0,0,0-14.64-1.34,16.437,16.437,0,0,0-5.02,3.21,17.053,17.053,0,0,0-3.6,4.8,16.324,16.324,0,0,0-1.69,5.9,10.867,10.867,0,0,0-3.81,2.03A9.65,9.65,0,0,0,30,76.109a9.265,9.265,0,0,0,5.06,8.47,11.889,11.889,0,0,0,5.64,1.27H68.72a13.406,13.406,0,0,0,5.13-.97,12.917,12.917,0,0,0,4.15-2.7,12.531,12.531,0,0,0,2.78-4.03,12.3,12.3,0,0,0,1-4.96c0-.111-.013-.217-.016-.327C81.165,72.877,80.554,72.879,79.92,72.849Zm-2.38,3.96a9.058,9.058,0,0,1-2.01,2.89,9.342,9.342,0,0,1-3.01,1.95,9.821,9.821,0,0,1-3.74.7H40.62a8.392,8.392,0,0,1-3.9-.82,5.8,5.8,0,0,1-2.4-2.22,6.054,6.054,0,0,1-.82-3.12,6.226,6.226,0,0,1,1.4-3.98,8,8,0,0,1,4.28-2.56,2.275,2.275,0,0,0,1.2-.65,2.191,2.191,0,0,0,.42-1.27,14.8,14.8,0,0,1,1.3-5.09,13.821,13.821,0,0,1,2.83-4.06A12.731,12.731,0,0,1,48.9,55.9a11.828,11.828,0,0,1,4.7-.95,12.016,12.016,0,0,1,8.83,3.66,16.24,16.24,0,0,1,2.93,4.16,2.43,2.43,0,0,0,.87,1.05,2.754,2.754,0,0,0,1.39.29,12.13,12.13,0,0,1,5.69,1.25,9.184,9.184,0,0,1,3.67,3.33,8.931,8.931,0,0,1,.56,8.12Z"/></svg>