<svg xmlns="http://www.w3.org/2000/svg" viewBox="0 0 128 128"><defs><style>.a{fill:#0000;}.b{fill:none;}.c{fill:#fff;}</style></defs><rect class="a" x="-1149" y="-341" width="2450" height="2182"/><path class="b" d="M83.59,68.52a9.322,9.322,0,0,0,.87-4,9.212,9.212,0,0,0-1.25-4.75,9.357,9.357,0,0,0-3.37-3.38,9.612,9.612,0,0,0-9.48,0,9.285,9.285,0,0,0-4.6,8.13c0,.049.006.095.008.143a15.044,15.044,0,0,1,4.882.967,13.222,13.222,0,0,1,4.27,2.64,12.152,12.152,0,0,1,2.84,3.96,11.34,11.34,0,0,1,.48,1.285A9.622,9.622,0,0,0,81.2,71.73,9.8,9.8,0,0,0,83.59,68.52Z"/><path class="b" d="M33.72,85.5a8.392,8.392,0,0,0,3.9.82H65.78a9.821,9.821,0,0,0,3.74-.7,9.417,9.417,0,0,0,3.01-1.94,8.951,8.951,0,0,0,2.01-2.88,8.951,8.951,0,0,0-.56-8.13,9.1,9.1,0,0,0-3.67-3.33,12.2,12.2,0,0,0-5.69-1.24,2.675,2.675,0,0,1-1.39-.3,2.527,2.527,0,0,1-.87-1.04,16.13,16.13,0,0,0-2.93-4.18,12.016,12.016,0,0,0-8.83-3.66,11.716,11.716,0,0,0-4.7.96,12.883,12.883,0,0,0-3.97,2.69,13.821,13.821,0,0,0-2.83,4.06,14.768,14.768,0,0,0-1.3,5.07,2.173,2.173,0,0,1-.42,1.28,2.425,2.425,0,0,1-1.2.66,7.906,7.906,0,0,0-4.28,2.54,6.255,6.255,0,0,0-1.4,4,6,6,0,0,0,.82,3.11A5.814,5.814,0,0,0,33.72,85.5Z"/><path class="c" d="M57.62,45.25a1.753,1.753,0,0,0-1.26.53,1.727,1.727,0,0,0-.52,1.27,1.793,1.793,0,0,0,.52,1.29l4.26,4.26a1.736,1.736,0,0,0,1.3.53,1.706,1.706,0,0,0,1.26-.53,1.753,1.753,0,0,0,.53-1.26,1.714,1.714,0,0,0-.53-1.28L58.9,45.78A1.714,1.714,0,0,0,57.62,45.25Z"/><path class="c" d="M99.8,62.72H93.78a1.767,1.767,0,0,0-1.28.53,1.717,1.717,0,0,0-.54,1.27,1.738,1.738,0,0,0,.54,1.29,1.767,1.767,0,0,0,1.28.53H99.8a1.724,1.724,0,0,0,1.28-.53,1.771,1.771,0,0,0,.52-1.29,1.748,1.748,0,0,0-.52-1.27A1.724,1.724,0,0,0,99.8,62.72Z"/><path class="c" d="M89.58,76.48a1.8,1.8,0,0,0-1.27-.51,1.692,1.692,0,0,0-1.27.51,1.835,1.835,0,0,0,0,2.56l4.28,4.28a1.811,1.811,0,0,0,2.54-.02,1.821,1.821,0,0,0,.53-1.28,1.651,1.651,0,0,0-.53-1.26Z"/><path class="c" d="M73.83,38.53a1.734,1.734,0,0,0-.53,1.27v6.02a1.778,1.778,0,0,0,.53,1.27,1.776,1.776,0,0,0,2.57,0,1.76,1.76,0,0,0,.54-1.27V39.8a1.717,1.717,0,0,0-.54-1.27,1.823,1.823,0,0,0-2.57,0Z"/><path class="c" d="M77.7,73.72l.04,3.32c.347-.08.687-.175,1.02-.281a12.1,12.1,0,0,0-.52-3.244C78.06,73.585,77.885,73.66,77.7,73.72Z"/><path class="c" d="M32.06,88.57a11.889,11.889,0,0,0,5.64,1.27H65.72a13.406,13.406,0,0,0,5.13-.97A12.917,12.917,0,0,0,75,86.17a12.531,12.531,0,0,0,2.78-4.03,12.345,12.345,0,0,0,1-4.98c0-.136-.016-.267-.02-.4-.333.106-.673.2-1.02.281l-.04-3.32c.185-.06.36-.135.54-.2a11.34,11.34,0,0,0-.48-1.285,12.152,12.152,0,0,0-2.84-3.96,13.222,13.222,0,0,0-4.27-2.64,15.044,15.044,0,0,0-4.882-.967c0,.137.007.274.022.407a4.615,4.615,0,0,0,.09.53l-3.34-.32q-.02-.16-.03-.36c-.007-.133-.01-.267-.01-.4a12.63,12.63,0,0,1,.455-3.364A17.293,17.293,0,0,0,59.27,57.9a16.265,16.265,0,0,0-14.64-1.33,16.437,16.437,0,0,0-5.02,3.21,17.107,17.107,0,0,0-3.6,4.79,16.262,16.262,0,0,0-1.69,5.91,10.619,10.619,0,0,0-3.81,2.01,9.7,9.7,0,0,0-2.58,3.31A9.818,9.818,0,0,0,27,80.1a9.265,9.265,0,0,0,5.06,8.47ZM31.9,76.18a7.906,7.906,0,0,1,4.28-2.54,2.425,2.425,0,0,0,1.2-.66,2.173,2.173,0,0,0,.42-1.28,14.768,14.768,0,0,1,1.3-5.07,13.821,13.821,0,0,1,2.83-4.06,12.883,12.883,0,0,1,3.97-2.69,11.716,11.716,0,0,1,4.7-.96,12.016,12.016,0,0,1,8.83,3.66,16.13,16.13,0,0,1,2.93,4.18,2.527,2.527,0,0,0,.87,1.04,2.675,2.675,0,0,0,1.39.3,12.2,12.2,0,0,1,5.69,1.24,9.1,9.1,0,0,1,3.67,3.33,8.951,8.951,0,0,1,.56,8.13,8.951,8.951,0,0,1-2.01,2.88,9.417,9.417,0,0,1-3.01,1.94,9.821,9.821,0,0,1-3.74.7H37.62a8.392,8.392,0,0,1-3.9-.82,5.814,5.814,0,0,1-2.4-2.21,6,6,0,0,1-.82-3.11A6.255,6.255,0,0,1,31.9,76.18Z"/><path class="c" d="M62.51,64.92q.011.2.03.36l3.34.32a4.615,4.615,0,0,1-.09-.53c-.015-.133-.018-.27-.022-.407-.144,0-.283-.021-.428-.023a19.053,19.053,0,0,0-2.385-3.484A12.63,12.63,0,0,0,62.5,64.52C62.5,64.653,62.5,64.787,62.51,64.92Z"/><path class="c" d="M65.768,64.663c0-.048-.008-.094-.008-.143a9.285,9.285,0,0,1,4.6-8.13,9.612,9.612,0,0,1,9.48,0,9.357,9.357,0,0,1,3.37,3.38,9.212,9.212,0,0,1,1.25,4.75,9.322,9.322,0,0,1-.87,4,9.8,9.8,0,0,1-2.39,3.21,9.622,9.622,0,0,1-2.96,1.785,12.1,12.1,0,0,1,.52,3.244,12.415,12.415,0,0,0,2.96-1.389,13.122,13.122,0,0,0,3.16-2.84,12.967,12.967,0,0,0,2.08-3.7,12.634,12.634,0,0,0-2.93-13.24,12.68,12.68,0,0,0-4.02-2.71,12.79,12.79,0,0,0-9.82,0,12.569,12.569,0,0,0-4.01,2.71,12.752,12.752,0,0,0-2.7,4.02,11.921,11.921,0,0,0-.525,1.546A19.053,19.053,0,0,1,65.34,64.64C65.485,64.642,65.624,64.658,65.768,64.663Z"/><path class="c" d="M88.31,53.13a1.749,1.749,0,0,0,1.31-.53l4.24-4.26a1.725,1.725,0,0,0,.53-1.29,1.81,1.81,0,0,0-1.79-1.8,1.714,1.714,0,0,0-1.28.53l-4.28,4.28a1.745,1.745,0,0,0-.51,1.28,1.792,1.792,0,0,0,.51,1.26A1.719,1.719,0,0,0,88.31,53.13Z"/></svg>