<svg xmlns="http://www.w3.org/2000/svg" viewBox="0 0 128 128"><defs><style>.a{fill:#0000;}.b{fill:none;}.c{fill:#fff;}</style></defs><rect class="a" x="-1301" y="-645" width="2450" height="2182"/><path class="b" d="M76.18,66.784a8.914,8.914,0,0,0,2.39-.72,7.778,7.778,0,0,0,1.82-1.18,5.833,5.833,0,0,0,1.21-1.44l-.1-.14a8.1,8.1,0,0,1-1.18.28,9.144,9.144,0,0,1-1.54.12,8.338,8.338,0,0,1-4.07-.98A7.279,7.279,0,0,1,71.89,60a7.739,7.739,0,0,1-1.03-4.02,9.224,9.224,0,0,1,.13-1.6,9.908,9.908,0,0,1,.31-1.3l-.2-.14a6.955,6.955,0,0,0-1.42,1.16,7.493,7.493,0,0,0-1.1,1.51,7.78,7.78,0,0,0-.71,1.76,7.386,7.386,0,0,0-.25,1.93A8.211,8.211,0,0,0,68,61.811a8.623,8.623,0,0,1,2.768.933,7.945,7.945,0,0,1,2.99,2.82,7.242,7.242,0,0,1,.629,1.337A10.833,10.833,0,0,0,76.18,66.784Z"/><path class="b" d="M64.1,63.524a8.431,8.431,0,0,0-2.78-3.33,6.656,6.656,0,0,0-3.8-1.13,6.766,6.766,0,0,0-3.51.94,7.55,7.55,0,0,0-2.61,2.6,8.572,8.572,0,0,0-1.2,3.84,1.808,1.808,0,0,1-.33.99,1.649,1.649,0,0,1-.89.49,4.1,4.1,0,0,0-2.4,1.41,3.53,3.53,0,0,0-.7,2.11,3.069,3.069,0,0,0,.97,2.31,4,4,0,0,0,2.87.93H66.74a5.329,5.329,0,0,0,2.68-.67,5.076,5.076,0,0,0,1.87-1.81,4.811,4.811,0,0,0,.69-2.54,4.864,4.864,0,0,0-.71-2.57,5.09,5.09,0,0,0-2.09-1.88,7.377,7.377,0,0,0-3.4-.71,2.019,2.019,0,0,1-1.03-.22A1.831,1.831,0,0,1,64.1,63.524Z"/><path class="c" d="M65.78,63.524l3-.02A6.993,6.993,0,0,1,68,61.811a10.248,10.248,0,0,0-1.5-.147,10.944,10.944,0,0,0-1.492-2.118A11.369,11.369,0,0,0,65.2,61.5,11.673,11.673,0,0,0,65.78,63.524Z"/><path class="c" d="M68,61.811A8.211,8.211,0,0,1,67.62,59.3a7.386,7.386,0,0,1,.25-1.93,7.78,7.78,0,0,1,.71-1.76,7.493,7.493,0,0,1,1.1-1.51,6.955,6.955,0,0,1,1.42-1.16l.2.14a9.908,9.908,0,0,0-.31,1.3,9.224,9.224,0,0,0-.13,1.6A7.739,7.739,0,0,0,71.89,60a7.279,7.279,0,0,0,2.82,2.72,8.338,8.338,0,0,0,4.07.98,9.144,9.144,0,0,0,1.54-.12,8.1,8.1,0,0,0,1.18-.28l.1.14a5.833,5.833,0,0,1-1.21,1.44,7.778,7.778,0,0,1-1.82,1.18,8.914,8.914,0,0,1-2.39.72,10.833,10.833,0,0,1-1.791.117,7.76,7.76,0,0,1,.466,2.6,12.667,12.667,0,0,0,2.3-.27,10.7,10.7,0,0,0,3.16-1.21,9.367,9.367,0,0,0,2.37-1.96,9.722,9.722,0,0,0,1.56-2.48,2.033,2.033,0,0,0,0-1.92,1.624,1.624,0,0,0-1.52-.84,5.492,5.492,0,0,0-1.43.18,7.564,7.564,0,0,1-1.87.18,6.044,6.044,0,0,1-4.49-1.53,5.788,5.788,0,0,1-1.51-4.25,7.355,7.355,0,0,1,.13-1.46q.13-.641.25-1.16a4.3,4.3,0,0,0,.12-.96,1.664,1.664,0,0,0-.82-1.57,2.325,2.325,0,0,0-1.98-.07,8.461,8.461,0,0,0-2.46,1.38,9.4,9.4,0,0,0-1.94,2.13,10.343,10.343,0,0,0-1.27,2.67,10,10,0,0,0-.45,3c0,.061.007.12.008.182A10.944,10.944,0,0,1,66.5,61.664,10.248,10.248,0,0,1,68,61.811Z"/><path class="c" d="M62.75,57.644a9.779,9.779,0,0,0-5.23-1.46,9.929,9.929,0,0,0-4.86,1.22,10.544,10.544,0,0,0-3.65,3.29,9.767,9.767,0,0,0-1.69,4.65,6.14,6.14,0,0,0-3.14,2.26A6.214,6.214,0,0,0,43,71.364a6.029,6.029,0,0,0,.86,3.22,5.937,5.937,0,0,0,2.39,2.19,7.627,7.627,0,0,0,3.55.79H66.7a8.2,8.2,0,0,0,4.14-1.05,7.981,7.981,0,0,0,2.93-2.86,7.732,7.732,0,0,0,1.09-4.07c0-.027,0-.053,0-.08-.521.018-1.056.016-1.615-.02v-2.62c.4.035.774.036,1.149.037a7.242,7.242,0,0,0-.629-1.337,7.945,7.945,0,0,0-2.99-2.82A8.623,8.623,0,0,0,68,61.811,6.993,6.993,0,0,0,68.78,63.5l-3,.02a11.673,11.673,0,0,1-.58-2.02,11.369,11.369,0,0,1-.192-1.958A10.164,10.164,0,0,0,62.75,57.644Zm3.03,6.86a7.377,7.377,0,0,1,3.4.71,5.09,5.09,0,0,1,2.09,1.88,4.864,4.864,0,0,1,.71,2.57,4.811,4.811,0,0,1-.69,2.54,5.076,5.076,0,0,1-1.87,1.81,5.329,5.329,0,0,1-2.68.67H49.72a4,4,0,0,1-2.87-.93,3.069,3.069,0,0,1-.97-2.31,3.53,3.53,0,0,1,.7-2.11,4.1,4.1,0,0,1,2.4-1.41,1.649,1.649,0,0,0,.89-.49,1.808,1.808,0,0,0,.33-.99,8.572,8.572,0,0,1,1.2-3.84A7.55,7.55,0,0,1,54.01,60a6.766,6.766,0,0,1,3.51-.94,6.656,6.656,0,0,1,3.8,1.13,8.431,8.431,0,0,1,2.78,3.33,1.831,1.831,0,0,0,.65.76A2.019,2.019,0,0,0,65.78,64.5Z"/><path class="c" d="M73.24,66.864v2.62c.559.036,1.094.038,1.615.02a7.76,7.76,0,0,0-.466-2.6C74.014,66.9,73.639,66.9,73.24,66.864Z"/></svg>