<svg xmlns="http://www.w3.org/2000/svg" viewBox="0 0 128 128"><defs><style>.a{fill:#0000;}.b{fill:#00c9ea;}.c{fill:#fff;}</style></defs><rect class="a" x="-693" y="-797" width="2450" height="2182"/><path class="b" d="M65.96,86.48a1.325,1.325,0,0,0,1.04.13,1.3,1.3,0,0,0,.82-.67l3.54-6.12a1.36,1.36,0,0,0,.18-1.07,1.344,1.344,0,0,0-.64-.83,1.294,1.294,0,0,0-1.04-.15,1.429,1.429,0,0,0-.84.69l-3.56,6.16a1.369,1.369,0,0,0-.15,1.03A1.294,1.294,0,0,0,65.96,86.48Z"/><path class="b" d="M50.36,77.94a1.261,1.261,0,0,0-1.03-.15,1.43,1.43,0,0,0-.85.69l-3.54,6.16a1.322,1.322,0,0,0-.17,1.03,1.294,1.294,0,0,0,.65.83,1.325,1.325,0,0,0,1.04.13,1.368,1.368,0,0,0,.84-.67l3.54-6.12a1.326,1.326,0,0,0,.17-1.07A1.385,1.385,0,0,0,50.36,77.94Z"/><path class="b" d="M74.06,93.74a1.293,1.293,0,0,0,1.04.12,1.409,1.409,0,0,0,.84-.68l3.52-6.12A1.324,1.324,0,0,0,79.64,86a1.358,1.358,0,0,0-1.68-.97,1.429,1.429,0,0,0-.84.69l-3.56,6.16a1.369,1.369,0,0,0-.15,1.03A1.294,1.294,0,0,0,74.06,93.74Z"/><path class="c" d="M89.24,49.57a14.916,14.916,0,0,0-4.86-2.93,17.052,17.052,0,0,0-6.02-1.04A20.6,20.6,0,0,0,74.28,40a17.762,17.762,0,0,0-5.64-3.69A18.1,18.1,0,0,0,61.68,35a17.507,17.507,0,0,0-6.78,1.32A18.468,18.468,0,0,0,49.23,40a19.186,19.186,0,0,0-4.03,5.48,18.792,18.792,0,0,0-1.86,6.72,11.938,11.938,0,0,0-4.25,2.16,10.918,10.918,0,0,0-2.99,3.68,11.36,11.36,0,0,0,.3,10.34,10.163,10.163,0,0,0,4.07,3.92,13.226,13.226,0,0,0,6.43,1.46H79.04a15.166,15.166,0,0,0,5.79-1.09,14.2,14.2,0,0,0,4.65-3.04A13.9,13.9,0,0,0,93.64,59.6a13.3,13.3,0,0,0-4.4-10.03Z"/><path class="b" d="M53.52,93.76a1.293,1.293,0,0,0,1.04.12,1.427,1.427,0,0,0,.84-.66l3.54-6.14a1.274,1.274,0,0,0,.17-1.05,1.385,1.385,0,0,0-.65-.83,1.261,1.261,0,0,0-1.03-.15,1.359,1.359,0,0,0-.83.69L53.04,91.9a1.322,1.322,0,0,0-.17,1.03A1.294,1.294,0,0,0,53.52,93.76Z"/></svg>