<svg xmlns="http://www.w3.org/2000/svg" viewBox="0 0 128 128"><defs><style>.a{fill:#0000;}.b{fill:#fff;}.c{fill:#b3b3b3;}</style></defs><rect class="a" x="-845" y="-949" width="2450" height="2182"/><path class="b" d="M89.24,50.57a14.916,14.916,0,0,0-4.86-2.93,17.052,17.052,0,0,0-6.02-1.04A20.6,20.6,0,0,0,74.28,41a17.762,17.762,0,0,0-5.64-3.69A18.1,18.1,0,0,0,61.68,36a17.507,17.507,0,0,0-6.78,1.32A18.468,18.468,0,0,0,49.23,41a19.186,19.186,0,0,0-4.03,5.48,18.792,18.792,0,0,0-1.86,6.72,11.938,11.938,0,0,0-4.25,2.16,10.918,10.918,0,0,0-2.99,3.68,11.36,11.36,0,0,0,.3,10.34,10.163,10.163,0,0,0,4.07,3.92,13.226,13.226,0,0,0,6.43,1.46H79.04a15.166,15.166,0,0,0,5.79-1.09,14.2,14.2,0,0,0,4.65-3.04A13.9,13.9,0,0,0,93.64,60.6a13.3,13.3,0,0,0-4.4-10.03Z"/><path class="c" d="M47.6,83.78H81.56a1.423,1.423,0,0,0,1.02-.4,1.324,1.324,0,0,0,.42-1,1.348,1.348,0,0,0-.42-1.02,1.423,1.423,0,0,0-1.02-.4H47.6a1.389,1.389,0,0,0-1.01.4,1.366,1.366,0,0,0-.41,1.02,1.341,1.341,0,0,0,.41,1A1.389,1.389,0,0,0,47.6,83.78Z"/><path class="c" d="M46.59,92.15a1.373,1.373,0,0,0,1.01.41H81.56a1.407,1.407,0,0,0,1.02-.41,1.424,1.424,0,0,0,0-2.02,1.407,1.407,0,0,0-1.02-.41H47.6a1.428,1.428,0,0,0-1.01,2.43Z"/></svg>