<svg xmlns="http://www.w3.org/2000/svg" viewBox="0 0 128 128"><defs><style>.a{fill:#0000;}.b{fill:#fff;}.c{fill:#ff0;}</style></defs><rect class="a" x="-1149" y="-189" width="2450" height="2182"/><path class="b" d="M49.44,68.02a8.345,8.345,0,0,0,4.06.92H72.88a9.034,9.034,0,0,0,4.65-1.2,8.877,8.877,0,0,0,3.23-3.21,8.624,8.624,0,0,0,1.18-4.45,8.29,8.29,0,0,0-1.25-4.52,8.827,8.827,0,0,0-3.4-3.12,10.147,10.147,0,0,0-4.83-1.14,11.838,11.838,0,0,0-2.5-3.33,11.17,11.17,0,0,0-3.46-2.19,11.427,11.427,0,0,0-9.63.62,11.862,11.862,0,0,0-4.08,3.76,11.039,11.039,0,0,0-1.85,5.28,6.9,6.9,0,0,0-3.53,2.39A6.639,6.639,0,0,0,46,62.1a6.859,6.859,0,0,0,.88,3.45A6.4,6.4,0,0,0,49.44,68.02Z"/><path class="c" d="M68.64,74.77a.383.383,0,0,0-.42-.27H64.833l-.393.76.08-.76h.313l1.427-2.76a.429.429,0,0,0,.05-.42.354.354,0,0,0-.35-.18h-3.9a.758.758,0,0,0-.74.48L59.2,76.46a.468.468,0,0,0-.01.45.452.452,0,0,0,.41.17h2.88l.38-.92-.2.92h-.18l-2.12,5.14q-.139.36.1.46a.47.47,0,0,0,.48-.16l7.5-7.22A.51.51,0,0,0,68.64,74.77Z"/><polygon class="b" points="64.44 75.26 64.833 74.5 64.52 74.5 64.44 75.26"/><polygon class="b" points="62.86 76.16 62.48 77.08 62.66 77.08 62.86 76.16"/></svg>