<svg xmlns="http://www.w3.org/2000/svg" viewBox="0 0 128 128"><defs><style>.a{fill:#0000;}.b{fill:#fff;}.c{fill:#ff0;}</style></defs><rect class="a" x="-1149" y="-797" width="2450" height="2182"/><path class="b" d="M68.63,78.66a7.81,7.81,0,0,0,2.87-2.82,7.665,7.665,0,0,0,1.06-4,7.368,7.368,0,0,0-1.08-3.95,7.745,7.745,0,0,0-2.96-2.77,8.944,8.944,0,0,0-4.26-1.04,10.693,10.693,0,0,0-2.25-2.93,9.711,9.711,0,0,0-3.05-1.89,9.856,9.856,0,0,0-3.6-.66,9.755,9.755,0,0,0-4.78,1.21,10.372,10.372,0,0,0-3.61,3.27,9.656,9.656,0,0,0-1.65,4.64A6.026,6.026,0,0,0,41,73.62a5.685,5.685,0,0,0,1.84,4.39,6.844,6.844,0,0,0,4.82,1.69h16.9A8.025,8.025,0,0,0,68.63,78.66Z"/><path class="c" d="M61.97,57.57a1.461,1.461,0,0,0,1.05-.43,1.506,1.506,0,0,0,.43-1.05,1.4,1.4,0,0,0-.43-1.05L60.78,52.8a1.5,1.5,0,0,0-2.08,0,1.5,1.5,0,0,0,0,2.12l2.2,2.22A1.422,1.422,0,0,0,61.97,57.57Z"/><path class="c" d="M78.12,64.38a7.642,7.642,0,0,0-1.06-3.97,8.028,8.028,0,0,0-2.84-2.85,7.591,7.591,0,0,0-3.96-1.06,7.508,7.508,0,0,0-3.78.98,7.883,7.883,0,0,0-2.76,2.58,9.623,9.623,0,0,1,1.74,2.32,11.074,11.074,0,0,1,4.61,1.34,8.564,8.564,0,0,1,3.12,2.99,9.621,9.621,0,0,1,1.35,4.33,8.775,8.775,0,0,0,2.63-2.92A7.613,7.613,0,0,0,78.12,64.38Z"/><path class="c" d="M77.08,56.09a1.452,1.452,0,0,0,1.48,1.48,1.434,1.434,0,0,0,1.08-.43l2.2-2.22a1.41,1.41,0,0,0,.43-1.06,1.519,1.519,0,0,0-.43-1.06,1.522,1.522,0,0,0-2.1,0L77.5,55.04A1.467,1.467,0,0,0,77.08,56.09Z"/><path class="c" d="M71.32,53.67a1.456,1.456,0,0,0,.44-1.05V49.5a1.5,1.5,0,0,0-3,0v3.12a1.456,1.456,0,0,0,.44,1.05,1.473,1.473,0,0,0,2.12,0Z"/><path class="c" d="M79.74,75.96a1.4,1.4,0,0,0,1.05.43,1.471,1.471,0,0,0,1.05-.45,1.449,1.449,0,0,0,.43-1.04,1.348,1.348,0,0,0-.43-1.04L79.6,71.64a1.506,1.506,0,0,0-1.05-.43,1.4,1.4,0,0,0-1.05.43,1.522,1.522,0,0,0,0,2.1Z"/><path class="c" d="M86.17,65.44a1.522,1.522,0,0,0,0-2.12,1.414,1.414,0,0,0-1.05-.44H82a1.456,1.456,0,0,0-1.05.44,1.473,1.473,0,0,0,0,2.12,1.456,1.456,0,0,0,1.05.44h3.12A1.414,1.414,0,0,0,86.17,65.44Z"/></svg>