<svg xmlns="http://www.w3.org/2000/svg" viewBox="0 0 128 128"><defs><style>.a{fill:#0000;}.b{fill:#fff;}</style></defs><rect class="a" x="-693" y="-1557" width="2450" height="2182"/><path class="b" d="M56.14,73.03a1.126,1.126,0,0,0-.5-.65,1.094,1.094,0,0,0-.82-.11,1.062,1.062,0,0,0-.64.51l-1.96,3.4a1.03,1.03,0,0,0-.1.77.955.955,0,0,0,.52.63,1.022,1.022,0,0,0,.8.11,1.01,1.01,0,0,0,.64-.49l1.94-3.36A.982.982,0,0,0,56.14,73.03Z"/><path class="b" d="M56.32,82.04a.992.992,0,0,0,.77.12.97.97,0,0,0,.61-.48l4.54-7.86a1.012,1.012,0,0,0,.12-.78,1.041,1.041,0,0,0-.48-.64,1.072,1.072,0,0,0-.81-.12.965.965,0,0,0-.65.5L55.94,80.6a1.052,1.052,0,0,0-.12.8A.963.963,0,0,0,56.32,82.04Z"/><path class="b" d="M68.6,73.01a1.126,1.126,0,0,0-.5-.65,1.094,1.094,0,0,0-.82-.11,1.062,1.062,0,0,0-.64.51l-1.94,3.4a.976.976,0,0,0-.12.77.955.955,0,0,0,.52.63,1.022,1.022,0,0,0,.8.11,1.01,1.01,0,0,0,.64-.49l1.94-3.36A.982.982,0,0,0,68.6,73.01Z"/><path class="b" d="M68.78,82.02a1.012,1.012,0,0,0,.78.12.9.9,0,0,0,.6-.48L74.7,73.8a1.012,1.012,0,0,0,.12-.78,1.041,1.041,0,0,0-.48-.64,1.052,1.052,0,0,0-.8-.12,1.029,1.029,0,0,0-.66.5L68.4,80.58a1.052,1.052,0,0,0-.12.8A.963.963,0,0,0,68.78,82.02Z"/><path class="b" d="M56.87,47.4a11.862,11.862,0,0,0-4.08,3.76,11.039,11.039,0,0,0-1.85,5.28,6.9,6.9,0,0,0-3.53,2.39A6.639,6.639,0,0,0,46,63.1a6.859,6.859,0,0,0,.88,3.45,6.4,6.4,0,0,0,2.56,2.47,8.345,8.345,0,0,0,4.06.92H72.88a9.034,9.034,0,0,0,4.65-1.2,8.877,8.877,0,0,0,3.23-3.21,8.624,8.624,0,0,0,1.18-4.45,8.29,8.29,0,0,0-1.25-4.52,8.827,8.827,0,0,0-3.4-3.12,10.147,10.147,0,0,0-4.83-1.14,11.838,11.838,0,0,0-2.5-3.33,11.17,11.17,0,0,0-3.46-2.19,11.427,11.427,0,0,0-9.63.62Z"/></svg>