<svg xmlns="http://www.w3.org/2000/svg" viewBox="0 0 128 128"><defs><style>.a{fill:#0000;}.b{fill:none;}.c{fill:#fff;}</style></defs><rect class="a" x="-1149" y="-949" width="2450" height="2182"/><path class="b" d="M83.59,58.52a9.384,9.384,0,1,0-17.83-3.98c0,.043.006.081.007.123a15.05,15.05,0,0,1,4.883.967,13.144,13.144,0,0,1,4.27,2.65,12.28,12.28,0,0,1,2.84,3.96,11.186,11.186,0,0,1,.479,1.28A9.356,9.356,0,0,0,81.2,61.74,9.917,9.917,0,0,0,83.59,58.52Z"/><path class="b" d="M33.72,75.51a8.315,8.315,0,0,0,3.9.83H65.78a9.712,9.712,0,0,0,3.74-.71,9.546,9.546,0,0,0,3.01-1.95,8.951,8.951,0,0,0,2.01-2.88,8.951,8.951,0,0,0-.56-8.13,9.1,9.1,0,0,0-3.67-3.33,12.2,12.2,0,0,0-5.69-1.24,2.675,2.675,0,0,1-1.39-.3,2.527,2.527,0,0,1-.87-1.04,15.972,15.972,0,0,0-2.93-4.17,12.462,12.462,0,0,0-3.95-2.71,12.167,12.167,0,0,0-4.88-.96,11.716,11.716,0,0,0-4.7.96,12.883,12.883,0,0,0-3.97,2.69,13.821,13.821,0,0,0-2.83,4.06,14.8,14.8,0,0,0-1.3,5.09,2.191,2.191,0,0,1-.42,1.27,2.275,2.275,0,0,1-1.2.65,8.031,8.031,0,0,0-4.28,2.55,6.216,6.216,0,0,0-1.4,3.99,6,6,0,0,0,.82,3.11A5.876,5.876,0,0,0,33.72,75.51Z"/><path class="c" d="M89.58,66.5a1.764,1.764,0,0,0-1.27-.53,1.662,1.662,0,0,0-1.27.53,1.811,1.811,0,0,0,0,2.54l4.28,4.28a1.811,1.811,0,0,0,2.54-.02,1.764,1.764,0,0,0,.53-1.27,1.662,1.662,0,0,0-.53-1.27Z"/><path class="c" d="M94.39,37.05a1.764,1.764,0,0,0-.53-1.27,1.716,1.716,0,0,0-1.26-.52,1.782,1.782,0,0,0-1.28.52l-4.28,4.3a1.68,1.68,0,0,0-.51,1.26,1.792,1.792,0,0,0,.51,1.26,1.655,1.655,0,0,0,1.27.54,1.784,1.784,0,0,0,1.31-.54l4.24-4.26A1.725,1.725,0,0,0,94.39,37.05Z"/><path class="c" d="M73.83,28.53a1.734,1.734,0,0,0-.53,1.27v6.02a1.767,1.767,0,0,0,.53,1.28,1.825,1.825,0,0,0,3.11-1.28V29.8a1.717,1.717,0,0,0-.54-1.27,1.823,1.823,0,0,0-2.57,0Z"/><path class="c" d="M60.68,84.02a1.338,1.338,0,0,0-1.04-.13,1.441,1.441,0,0,0-.84.67l-3.56,6.16a1.407,1.407,0,0,0-.15,1.04,1.291,1.291,0,0,0,.65.82,1.25,1.25,0,0,0,1.04.14,1.409,1.409,0,0,0,.84-.68l3.52-6.12a1.36,1.36,0,0,0,.18-1.07A1.344,1.344,0,0,0,60.68,84.02Z"/><path class="c" d="M57.62,35.26a1.776,1.776,0,0,0-1.78,1.79,1.793,1.793,0,0,0,.52,1.29l4.26,4.26a1.772,1.772,0,0,0,1.3.54,1.643,1.643,0,0,0,1.26-.54,1.753,1.753,0,0,0,.53-1.26,1.651,1.651,0,0,0-.53-1.26l-4.28-4.3A1.782,1.782,0,0,0,57.62,35.26Z"/><path class="c" d="M43.3,99.86a1.325,1.325,0,0,0,1.04.13,1.368,1.368,0,0,0,.84-.67l3.54-6.12a1.36,1.36,0,0,0,.18-1.07,1.329,1.329,0,0,0-.66-.83,1.241,1.241,0,0,0-1.02-.15,1.429,1.429,0,0,0-.84.69L42.82,98a1.322,1.322,0,0,0-.17,1.03A1.294,1.294,0,0,0,43.3,99.86Z"/><path class="c" d="M68.78,91.28a1.294,1.294,0,0,0-1.04-.15,1.429,1.429,0,0,0-.84.69l-3.54,6.16a1.322,1.322,0,0,0-.17,1.03,1.294,1.294,0,0,0,.65.83,1.325,1.325,0,0,0,1.04.13,1.368,1.368,0,0,0,.84-.67l3.52-6.12a1.36,1.36,0,0,0,.18-1.07A1.344,1.344,0,0,0,68.78,91.28Z"/><path class="c" d="M99.8,52.72H93.78a1.767,1.767,0,0,0-1.28.53,1.738,1.738,0,0,0-.54,1.29,1.717,1.717,0,0,0,.54,1.27,1.767,1.767,0,0,0,1.28.53H99.8a1.724,1.724,0,0,0,1.28-.53,1.748,1.748,0,0,0,.52-1.27,1.771,1.771,0,0,0-.52-1.29A1.724,1.724,0,0,0,99.8,52.72Z"/><path class="c" d="M77.7,63.72l.04,3.32c.347-.08.687-.175,1.02-.281a12.012,12.012,0,0,0-.521-3.239C78.06,63.588,77.885,63.662,77.7,63.72Z"/><path class="c" d="M62.51,54.92c.007.133.017.26.03.38l3.34.3a4.714,4.714,0,0,1-.09-.52c-.015-.134-.02-.275-.023-.417-.143,0-.282-.021-.427-.023a18.961,18.961,0,0,0-2.385-3.483A12.732,12.732,0,0,0,62.5,54.54C62.5,54.66,62.5,54.787,62.51,54.92Z"/><path class="c" d="M65.767,54.663c0-.042-.007-.08-.007-.123a9.254,9.254,0,0,1,4.6-8.14A9.415,9.415,0,0,1,83.59,58.52a9.917,9.917,0,0,1-2.39,3.22,9.356,9.356,0,0,1-2.961,1.78,12.012,12.012,0,0,1,.521,3.239,12.5,12.5,0,0,0,2.96-1.379,12.951,12.951,0,0,0,5.24-6.54,12.642,12.642,0,0,0-2.93-13.25,12.68,12.68,0,0,0-4.02-2.71,12.79,12.79,0,0,0-9.82,0,12.569,12.569,0,0,0-4.01,2.71,12.752,12.752,0,0,0-2.7,4.02,11.833,11.833,0,0,0-.525,1.547A18.961,18.961,0,0,1,65.34,54.64C65.485,54.642,65.624,54.658,65.767,54.663Z"/><path class="c" d="M40.14,84.04a1.284,1.284,0,0,0-1.02-.13,1.441,1.441,0,0,0-.84.67l-3.56,6.16a1.359,1.359,0,0,0-.17,1.04,1.291,1.291,0,0,0,.65.82,1.25,1.25,0,0,0,1.04.14,1.409,1.409,0,0,0,.84-.68l3.54-6.12a1.326,1.326,0,0,0,.17-1.07A1.385,1.385,0,0,0,40.14,84.04Z"/><path class="c" d="M32.06,78.57a11.889,11.889,0,0,0,5.64,1.27H65.72a13.406,13.406,0,0,0,5.13-.97A12.917,12.917,0,0,0,75,76.17a12.531,12.531,0,0,0,2.78-4.03,12.345,12.345,0,0,0,1-4.98c0-.136-.016-.266-.02-.4-.333.106-.673.2-1.02.281l-.04-3.32c.185-.058.36-.132.539-.2a11.186,11.186,0,0,0-.479-1.28,12.28,12.28,0,0,0-2.84-3.96,13.144,13.144,0,0,0-4.27-2.65,15.05,15.05,0,0,0-4.883-.967c0,.142.008.283.023.417a4.714,4.714,0,0,0,.09.52l-3.34-.3c-.013-.12-.023-.247-.03-.38s-.01-.26-.01-.38a12.732,12.732,0,0,1,.455-3.383A17.271,17.271,0,0,0,59.27,47.9a16.265,16.265,0,0,0-14.64-1.33,16.437,16.437,0,0,0-5.02,3.21,17.107,17.107,0,0,0-3.6,4.79,16.262,16.262,0,0,0-1.69,5.91,10.619,10.619,0,0,0-3.81,2.01,9.7,9.7,0,0,0-2.58,3.31A9.818,9.818,0,0,0,27,70.1a9.265,9.265,0,0,0,5.06,8.47ZM31.9,66.19a8.031,8.031,0,0,1,4.28-2.55,2.275,2.275,0,0,0,1.2-.65,2.191,2.191,0,0,0,.42-1.27,14.8,14.8,0,0,1,1.3-5.09,13.821,13.821,0,0,1,2.83-4.06,12.883,12.883,0,0,1,3.97-2.69,11.716,11.716,0,0,1,4.7-.96,12.167,12.167,0,0,1,4.88.96,12.462,12.462,0,0,1,3.95,2.71,15.972,15.972,0,0,1,2.93,4.17,2.527,2.527,0,0,0,.87,1.04,2.675,2.675,0,0,0,1.39.3,12.2,12.2,0,0,1,5.69,1.24,9.1,9.1,0,0,1,3.67,3.33,8.951,8.951,0,0,1,.56,8.13,8.951,8.951,0,0,1-2.01,2.88,9.546,9.546,0,0,1-3.01,1.95,9.712,9.712,0,0,1-3.74.71H37.62a8.315,8.315,0,0,1-3.9-.83,5.876,5.876,0,0,1-2.4-2.22,6,6,0,0,1-.82-3.11A6.216,6.216,0,0,1,31.9,66.19Z"/></svg>