<svg xmlns="http://www.w3.org/2000/svg" viewBox="0 0 128 128"><defs><style>.a{fill:#0000;}.b{fill:none;}.c{fill:#fff;}</style></defs><rect class="a" x="-1605" y="-1557" width="2450" height="2182"/><path class="b" d="M64.16,67.2a3.585,3.585,0,1,0-2.51-1.05A3.43,3.43,0,0,0,64.16,67.2Z"/><path class="c" d="M78.56,37a30.083,30.083,0,0,0-8.67,1.23,26.922,26.922,0,0,0-7.51,3.55,24.947,24.947,0,0,0-5.88,5.6,25.414,25.414,0,0,0-3.84,7.38,28.031,28.031,0,0,0-1.36,8.88,12.365,12.365,0,0,0,1.01,4.97,13.248,13.248,0,0,0,2.78,4.11,13.034,13.034,0,0,0,4.1,2.79,12.365,12.365,0,0,0,4.97,1.01,11.224,11.224,0,0,0,7.6-2.92,20.634,20.634,0,0,1-3.54,5.52,22.511,22.511,0,0,1-5.06,4.21,24.1,24.1,0,0,1-6.26,2.68,26.95,26.95,0,0,1-7.14.93,1.745,1.745,0,0,0-1.26.48A1.572,1.572,0,0,0,48,88.6a1.605,1.605,0,0,0,.5,1.19,1.724,1.724,0,0,0,1.26.49,29.816,29.816,0,0,0,8.68-1.24,27.177,27.177,0,0,0,7.5-3.56A25.055,25.055,0,0,0,75.68,72.5a27.968,27.968,0,0,0,1.36-8.86,12.416,12.416,0,0,0-1.01-4.99,13.219,13.219,0,0,0-6.9-6.9,12.365,12.365,0,0,0-4.97-1.01,11.016,11.016,0,0,0-4.16.79,11.243,11.243,0,0,0-3.44,2.15,20.676,20.676,0,0,1,3.53-5.54,22.007,22.007,0,0,1,5.06-4.2,24.511,24.511,0,0,1,6.26-2.67,26.911,26.911,0,0,1,7.15-.93,1.718,1.718,0,0,0,1.27-.49,1.619,1.619,0,0,0,.49-1.19,1.586,1.586,0,0,0-.49-1.18A1.738,1.738,0,0,0,78.56,37ZM61.65,61.11a3.549,3.549,0,1,1-1.05,2.53A3.426,3.426,0,0,1,61.65,61.11Z"/></svg>