<svg xmlns="http://www.w3.org/2000/svg" viewBox="0 0 128 128"><defs><style>.a{fill:#0000;}.b{fill:none;}.c{fill:#fff;}</style></defs><rect class="a" x="-1605" y="-1709" width="2450" height="2182"/><path class="b" d="M64.14,65.86a2.291,2.291,0,0,0,1.68-.7,2.33,2.33,0,0,0,0-3.33,2.309,2.309,0,0,0-1.68-.69,2.285,2.285,0,0,0-1.66.69,2.342,2.342,0,0,0,0,3.34A2.285,2.285,0,0,0,64.14,65.86Z"/><path class="c" d="M72.94,47a19.2,19.2,0,0,0-6.66,1.13,15.884,15.884,0,0,0-5.39,3.27,14.852,14.852,0,0,0-3.6,5.2A17.608,17.608,0,0,0,56,63.5a7.8,7.8,0,0,0,1.11,4.09,8.509,8.509,0,0,0,2.96,2.96,7.762,7.762,0,0,0,4.07,1.11,7.667,7.667,0,0,0,2.08-.28,7.961,7.961,0,0,0,1.86-.78,12.035,12.035,0,0,1-3.11,3.66,13.735,13.735,0,0,1-4.36,2.28,17.207,17.207,0,0,1-5.25.78,1.316,1.316,0,0,0-.97.39A1.345,1.345,0,0,0,55.36,80a19.2,19.2,0,0,0,6.66-1.13,15.814,15.814,0,0,0,5.39-3.28,14.971,14.971,0,0,0,3.6-5.2A17.533,17.533,0,0,0,72.3,63.5a7.8,7.8,0,0,0-1.11-4.09,8.509,8.509,0,0,0-2.96-2.96,7.8,7.8,0,0,0-4.09-1.11,7.591,7.591,0,0,0-2.06.28,7.961,7.961,0,0,0-1.86.78,12.088,12.088,0,0,1,3.1-3.66,13.62,13.62,0,0,1,4.35-2.28,17.277,17.277,0,0,1,5.27-.78,1.309,1.309,0,0,0,.96-.4,1.316,1.316,0,0,0,0-1.89A1.327,1.327,0,0,0,72.94,47ZM62.48,61.83a2.285,2.285,0,0,1,1.66-.69,2.309,2.309,0,0,1,1.68.69,2.33,2.33,0,0,1,0,3.33,2.354,2.354,0,0,1-3.34.01,2.342,2.342,0,0,1,0-3.34Z"/></svg>