<svg xmlns="http://www.w3.org/2000/svg" viewBox="0 0 128 128"><defs><style>.a{fill:#0000;}.b{fill:none;}.c{fill:#fff;}</style></defs><rect class="a" x="-541" y="-1101" width="2450" height="2182"/><path class="b" d="M54.56,61.68a17.009,17.009,0,0,1,.13-2.12,8.706,8.706,0,0,1,.39-1.78,11.626,11.626,0,0,0-2.34,2.55,11.467,11.467,0,0,0-1.49,3.16,12.425,12.425,0,0,0-.51,3.57,11.379,11.379,0,0,0,1.44,5.73,10.539,10.539,0,0,0,3.98,3.99,11.431,11.431,0,0,0,5.8,1.46,12.375,12.375,0,0,0,5.15-1.07,10.251,10.251,0,0,0,3.85-2.91,6.913,6.913,0,0,1-1.27.23,16.855,16.855,0,0,1-1.81.09,14.348,14.348,0,0,1-6.96-1.63,11.8,11.8,0,0,1-4.68-4.54A13.217,13.217,0,0,1,54.56,61.68Z"/><path class="c" d="M58,56.1a1.415,1.415,0,0,0,.02-1.6,1.107,1.107,0,0,0-.66-.36,1.867,1.867,0,0,0-1.02.16,12,12,0,0,0-4.35,2.88,13.882,13.882,0,0,0-2.94,4.54A14.757,14.757,0,0,0,48,67.3a14.083,14.083,0,0,0,1.02,5.39,13.033,13.033,0,0,0,2.89,4.35,13.211,13.211,0,0,0,4.42,2.89,15.641,15.641,0,0,0,10.95.08,12.891,12.891,0,0,0,4.32-2.73,12.676,12.676,0,0,0,2.92-4.3,1.929,1.929,0,0,0,.16-.97,1.221,1.221,0,0,0-.3-.67.9.9,0,0,0-.59-.25,1.915,1.915,0,0,0-.81.13,9.533,9.533,0,0,1-1.97.55,14.051,14.051,0,0,1-2.41.19,12.627,12.627,0,0,1-6.04-1.37,9.75,9.75,0,0,1-3.97-3.86,11.675,11.675,0,0,1-1.41-5.85,15,15,0,0,1,.25-2.8A8.371,8.371,0,0,1,58,56.1Zm2.92,16.85a14.348,14.348,0,0,0,6.96,1.63,16.855,16.855,0,0,0,1.81-.09,6.913,6.913,0,0,0,1.27-.23,10.251,10.251,0,0,1-3.85,2.91,12.375,12.375,0,0,1-5.15,1.07,11.431,11.431,0,0,1-5.8-1.46,10.539,10.539,0,0,1-3.98-3.99,11.379,11.379,0,0,1-1.44-5.73,12.425,12.425,0,0,1,.51-3.57,11.467,11.467,0,0,1,1.49-3.16,11.626,11.626,0,0,1,2.34-2.55,8.706,8.706,0,0,0-.39,1.78,17.009,17.009,0,0,0-.13,2.12,13.217,13.217,0,0,0,1.68,6.73A11.8,11.8,0,0,0,60.92,72.95Z"/><path class="c" d="M67.4,60.34a.57.57,0,0,0,.54.6q1.62.3,2.55.55a3.2,3.2,0,0,1,1.4.7,2.709,2.709,0,0,1,.69,1.33A22.153,22.153,0,0,1,73,65.96a.541.541,0,0,0,.6.54q.521,0,.6-.58a19.054,19.054,0,0,1,.38-2.46,2.793,2.793,0,0,1,.69-1.36,2.983,2.983,0,0,1,1.39-.69q.919-.23,2.5-.47.619-.1.62-.6a.57.57,0,0,0-.54-.6q-1.6-.3-2.54-.55a3.367,3.367,0,0,1-1.42-.69,2.6,2.6,0,0,1-.7-1.32,18.3,18.3,0,0,1-.38-2.44q-.079-.581-.6-.58a.549.549,0,0,0-.6.56q-.2,1.6-.41,2.51a2.8,2.8,0,0,1-.68,1.38,2.887,2.887,0,0,1-1.41.69q-.94.221-2.56.44A.541.541,0,0,0,67.4,60.34Z"/><path class="c" d="M69.62,51.48a13.164,13.164,0,0,1-1.92-.5,1.293,1.293,0,0,1-.77-.79,13.811,13.811,0,0,1-.47-1.87A.341.341,0,0,0,66.1,48a.367.367,0,0,0-.38.32,15.406,15.406,0,0,1-.46,1.87,1.259,1.259,0,0,1-.77.79,13.736,13.736,0,0,1-1.91.5q-.34.06-.34.36a.374.374,0,0,0,.34.38,11.574,11.574,0,0,1,1.91.49,1.322,1.322,0,0,1,.78.8,12.664,12.664,0,0,1,.45,1.85.374.374,0,0,0,.38.34q.3,0,.36-.34a15.552,15.552,0,0,1,.46-1.85,1.288,1.288,0,0,1,.77-.8,11.553,11.553,0,0,1,1.93-.49.367.367,0,0,0,.32-.38A.341.341,0,0,0,69.62,51.48Z"/></svg>