<svg xmlns="http://www.w3.org/2000/svg" viewBox="0 0 128 128"><defs><style>.a{fill:#0000;}.b{fill:none;}.c{fill:#fff;}</style></defs><rect class="a" x="-389" y="-1557" width="2450" height="2182"/><path class="b" d="M77.86,76.26a32.5,32.5,0,0,1-11-1.74,22.5,22.5,0,0,1-8.26-5.06,21.9,21.9,0,0,1-5.19-8.06,30.307,30.307,0,0,1-1.79-10.76,26.884,26.884,0,0,1,.35-4.38,23.145,23.145,0,0,1,1.01-3.98,22.129,22.129,0,0,0-4.77,3.74,23.576,23.576,0,0,0-3.63,4.87,24.7,24.7,0,0,0-2.31,5.66,23.262,23.262,0,0,0-.81,6.11,24.831,24.831,0,0,0,1.74,9.4A22.117,22.117,0,0,0,55.56,84.44a25.767,25.767,0,0,0,17.48.41,23.478,23.478,0,0,0,6.98-3.8,21.021,21.021,0,0,0,5.12-5.87,18.077,18.077,0,0,1-3.42.82A27.355,27.355,0,0,1,77.86,76.26Z"/><path class="c" d="M87.88,71.4a2.725,2.725,0,0,0-.53.05,5.1,5.1,0,0,0-.65.19,15.1,15.1,0,0,1-2.35.71,27.553,27.553,0,0,1-2.93.49,27.021,27.021,0,0,1-3.1.18,26.543,26.543,0,0,1-12.47-2.75,19.33,19.33,0,0,1-8.09-7.83,24.379,24.379,0,0,1-2.84-12.08A30.308,30.308,0,0,1,55.36,45a14.844,14.844,0,0,1,1.2-3.96,4.675,4.675,0,0,0,.32-.81,2.607,2.607,0,0,0,.08-.65,1.583,1.583,0,0,0-.46-1.07A1.5,1.5,0,0,0,55.34,38a3.231,3.231,0,0,0-.48.06,4.767,4.767,0,0,0-.82.24,23.746,23.746,0,0,0-6.46,3.9,26.675,26.675,0,0,0-5.09,5.74,27.434,27.434,0,0,0-3.32,7.05A26.328,26.328,0,0,0,38,62.8a28.222,28.222,0,0,0,1.99,10.72A25.24,25.24,0,0,0,54.08,87.64a29.53,29.53,0,0,0,18.56.93,26.307,26.307,0,0,0,6.87-3.07,24.7,24.7,0,0,0,5.57-4.83,25.667,25.667,0,0,0,3.98-6.37,3.835,3.835,0,0,0,.24-.79,3.419,3.419,0,0,0,.06-.53,1.539,1.539,0,0,0-1.48-1.58Zm-7.86,9.65a23.478,23.478,0,0,1-6.98,3.8,25.767,25.767,0,0,1-17.48-.41A22.117,22.117,0,0,1,43.2,72.06a24.831,24.831,0,0,1-1.74-9.4,23.262,23.262,0,0,1,.81-6.11,24.7,24.7,0,0,1,2.31-5.66,23.576,23.576,0,0,1,3.63-4.87,22.129,22.129,0,0,1,4.77-3.74,23.145,23.145,0,0,0-1.01,3.98,26.884,26.884,0,0,0-.35,4.38A30.307,30.307,0,0,0,53.41,61.4a21.9,21.9,0,0,0,5.19,8.06,22.5,22.5,0,0,0,8.26,5.06,32.5,32.5,0,0,0,11,1.74A27.355,27.355,0,0,0,81.72,76a18.077,18.077,0,0,0,3.42-.82A21.021,21.021,0,0,1,80.02,81.05Z"/></svg>