<svg xmlns="http://www.w3.org/2000/svg" viewBox="0 0 128 128"><defs><style>.a{fill:#0000;}.b{fill:#b3b3b3;}.c{fill:#fff;}</style></defs><rect class="a" x="-541" y="-1253" width="2450" height="2182"/><path class="b" d="M45.11,84.63a20.8,20.8,0,0,0,6.95,4.6,23.229,23.229,0,0,0,8.9,1.65,24.6,24.6,0,0,0,8.59-1.46,20.5,20.5,0,0,0,6.93-4.23,19.911,19.911,0,0,0,4.7-6.71q.58-1.32-.1-2a1.114,1.114,0,0,0-.73-.33,2.188,2.188,0,0,0-1.03.17,16.283,16.283,0,0,1-3.42.95,24.087,24.087,0,0,1-4,.31,22.983,22.983,0,0,1-7.98-1.31,16.943,16.943,0,0,1-6.1-3.8,16.769,16.769,0,0,1-3.9-6,21.686,21.686,0,0,1-1.36-7.89,25.146,25.146,0,0,1,.38-4.32,13.722,13.722,0,0,1,1.08-3.62,1.759,1.759,0,0,0,0-2.04q-.66-.761-2.12-.14a19.367,19.367,0,0,0-5.26,3.28,21.561,21.561,0,0,0-4.07,4.77,23.092,23.092,0,0,0-2.64,5.91,23.888,23.888,0,0,0-.93,6.7,22.87,22.87,0,0,0,1.59,8.6A20.577,20.577,0,0,0,45.11,84.63Z"/><path class="c" d="M71.24,58.62q2.16.4,3.53.72a8.477,8.477,0,0,1,2.19.78,3.292,3.292,0,0,1,1.27,1.24,6.922,6.922,0,0,1,.71,2.09q.26,1.309.56,3.39a.8.8,0,0,0,.24.49.7.7,0,0,0,.5.19.7.7,0,0,0,.52-.2A.866.866,0,0,0,81,66.8q.28-2.081.54-3.41a7.07,7.07,0,0,1,.71-2.12,3.2,3.2,0,0,1,1.27-1.24,8.326,8.326,0,0,1,2.18-.75q1.36-.3,3.46-.66.761-.12.76-.76a.689.689,0,0,0-.19-.51.931.931,0,0,0-.49-.25q-2.1-.4-3.47-.71a8.741,8.741,0,0,1-2.2-.76,3.28,3.28,0,0,1-1.29-1.23,6.891,6.891,0,0,1-.73-2.09Q81.28,51,81,48.92a.842.842,0,0,0-.24-.53.723.723,0,0,0-.52-.19.7.7,0,0,0-.5.19.822.822,0,0,0-.24.51q-.3,2.1-.56,3.44a7.362,7.362,0,0,1-.71,2.15,3.182,3.182,0,0,1-1.26,1.26,7.941,7.941,0,0,1-2.19.74q-1.38.289-3.54.61a.829.829,0,0,0-.48.24.7.7,0,0,0-.2.52.672.672,0,0,0,.2.51A.975.975,0,0,0,71.24,58.62Z"/><path class="c" d="M62.14,44.68q1.7.34,2.65.62a3.241,3.241,0,0,1,1.42.76,3.079,3.079,0,0,1,.71,1.4q.24.919.52,2.54.1.42.46.42a.442.442,0,0,0,.46-.42q.3-1.62.54-2.55a3.161,3.161,0,0,1,.71-1.42,3.1,3.1,0,0,1,1.42-.76q.95-.27,2.65-.59a.459.459,0,0,0,.44-.48c0-.253-.147-.407-.44-.46a26.8,26.8,0,0,1-2.62-.63,3.157,3.157,0,0,1-1.38-.78,3.3,3.3,0,0,1-.71-1.41Q68.72,40,68.36,38.4a.434.434,0,0,0-.46-.4.451.451,0,0,0-.46.4q-.341,1.6-.59,2.52a3.371,3.371,0,0,1-.7,1.41,3.077,3.077,0,0,1-1.38.78q-.93.289-2.63.63c-.293.053-.44.207-.44.46A.459.459,0,0,0,62.14,44.68Z"/></svg>