<svg xmlns="http://www.w3.org/2000/svg" viewBox="0 0 128 128"><defs><style>.a{fill:#0000;}.b{fill:#b3b3b3;}</style></defs><rect class="a" x="-541" y="-189" width="2450" height="2182"/><path class="b" d="M43.95,79.24a24.651,24.651,0,0,0,5.63,5.47,25.753,25.753,0,0,0,7.22,3.52,28.162,28.162,0,0,0,8.4,1.23,26.646,26.646,0,0,0,7.84-1.15,27.325,27.325,0,0,0,6.92-3.2,25.117,25.117,0,0,0,5.48-4.77,20,20,0,0,0,3.52-5.86,3.186,3.186,0,0,0,.18-.72,4.73,4.73,0,0,0,.04-.52,1.452,1.452,0,0,0-1.42-1.48,2.164,2.164,0,0,0-.41.04,4.944,4.944,0,0,0-.53.14,32.246,32.246,0,0,1-3.77.92,25.155,25.155,0,0,1-4.75.44,26.26,26.26,0,0,1-9.36-1.59A19.878,19.878,0,0,1,57.12,59.98a25.724,25.724,0,0,1-1.62-9.36,29.094,29.094,0,0,1,.44-4.92,20.39,20.39,0,0,1,1.14-4.26,2.2,2.2,0,0,0,.22-.62,2.924,2.924,0,0,0,.04-.44,1.459,1.459,0,0,0-.36-.94A1.268,1.268,0,0,0,55.94,39a4.192,4.192,0,0,0-.55.05,3.216,3.216,0,0,0-.71.19,22.485,22.485,0,0,0-6.4,3.93,26.35,26.35,0,0,0-4.96,5.79,27.891,27.891,0,0,0-3.2,7.07A27.332,27.332,0,0,0,39,63.82a26.394,26.394,0,0,0,1.29,8.34A24.78,24.78,0,0,0,43.95,79.24Z"/></svg>