<svg xmlns="http://www.w3.org/2000/svg" viewBox="0 0 128 128"><defs><style>.a{fill:#0000;}.b{fill:#b3b3b3;}.c{fill:#fff;}</style></defs><rect class="a" x="-541" y="-645" width="2450" height="2182"/><path class="b" d="M45.1,86.66a20.482,20.482,0,0,0,6.95,4.6,23.438,23.438,0,0,0,8.91,1.64,24.623,24.623,0,0,0,8.58-1.46,20.474,20.474,0,0,0,6.94-4.23,19.911,19.911,0,0,0,4.7-6.71q.559-1.32-.1-2a1.079,1.079,0,0,0-.73-.32,2.284,2.284,0,0,0-1.03.18,17.663,17.663,0,0,1-3.43.93,23.9,23.9,0,0,1-3.99.31,23.069,23.069,0,0,1-7.99-1.31A17,17,0,0,1,57.8,74.5a16.534,16.534,0,0,1-3.89-6,21.919,21.919,0,0,1-1.35-7.9,25.739,25.739,0,0,1,.37-4.32,13.029,13.029,0,0,1,1.09-3.62,1.759,1.759,0,0,0,0-2.04q-.66-.761-2.14-.14a20.172,20.172,0,0,0-5.25,3.29,21.232,21.232,0,0,0-4.08,4.76,22.829,22.829,0,0,0-2.63,5.91,24.142,24.142,0,0,0-.92,6.7,22.87,22.87,0,0,0,1.59,8.6A20.745,20.745,0,0,0,45.1,86.66Z"/><path class="c" d="M69.46,63.78a5.166,5.166,0,0,0-.47.71,1.393,1.393,0,0,0-.15.65.99.99,0,0,0,.34.78,1.252,1.252,0,0,0,.86.3h5.82a1.055,1.055,0,0,0,.78-.3,1.082,1.082,0,0,0,.3-.8,1.029,1.029,0,0,0-.3-.76,1.055,1.055,0,0,0-.78-.3H72.18v-.12L75.94,59a7.46,7.46,0,0,0,.48-.73,1.241,1.241,0,0,0,.16-.61.96.96,0,0,0-.36-.79,1.359,1.359,0,0,0-.88-.29H69.9a1.124,1.124,0,0,0-.8.3,1.123,1.123,0,0,0,0,1.57,1.148,1.148,0,0,0,.8.29h3.3v.12Z"/><path class="c" d="M79.76,55.16a3.928,3.928,0,0,0-.48.75,1.615,1.615,0,0,0-.14.67,1.062,1.062,0,0,0,.35.82,1.269,1.269,0,0,0,.89.32H87a1.154,1.154,0,0,0,.84-.31,1.223,1.223,0,0,0,0-1.65,1.136,1.136,0,0,0-.84-.32H82.62v-.1L87.1,49.5a5.136,5.136,0,0,0,.5-.75,1.4,1.4,0,0,0,.16-.65,1,1,0,0,0-.37-.82,1.43,1.43,0,0,0-.93-.3H80.22a1.164,1.164,0,0,0-.83.31,1.037,1.037,0,0,0-.33.79,1.11,1.11,0,0,0,.33.85,1.164,1.164,0,0,0,.83.31h4v.12Z"/><path class="c" d="M66.22,45.42a5.991,5.991,0,0,0-.52.79,1.48,1.48,0,0,0-.16.69,1.085,1.085,0,0,0,.37.85,1.374,1.374,0,0,0,.95.33h8.4a1.207,1.207,0,0,0,.86-.32,1.245,1.245,0,0,0,0-1.71,1.184,1.184,0,0,0-.86-.33H69.3V45.6l6.06-7.96a6.469,6.469,0,0,0,.53-.8,1.392,1.392,0,0,0,.17-.66,1.054,1.054,0,0,0-.39-.86A1.48,1.48,0,0,0,74.7,35h-8a1.218,1.218,0,0,0-.87.33,1.219,1.219,0,0,0,0,1.71,1.241,1.241,0,0,0,.87.32h5.64v.14Z"/></svg>