<svg xmlns="http://www.w3.org/2000/svg" viewBox="0 0 128 128"><defs><style>.a{fill:#0000;}.b{fill:none;}.c{fill:#fff;}</style></defs><rect class="a" x="-541" y="-949" width="2450" height="2182"/><path class="b" d="M47.57,82.09a17.461,17.461,0,0,0,5.95,4,19.934,19.934,0,0,0,7.68,1.43,21.693,21.693,0,0,0,6.51-.96,19.35,19.35,0,0,0,5.54-2.73,16.124,16.124,0,0,0,4.09-4.21,14.223,14.223,0,0,1-2.56.58,23.222,23.222,0,0,1-3.44.24,24.894,24.894,0,0,1-8.84-1.5,19.417,19.417,0,0,1-6.83-4.29,18.977,18.977,0,0,1-4.39-6.7,23.58,23.58,0,0,1-1.54-8.71,25.389,25.389,0,0,1,.29-3.85,14.24,14.24,0,0,1,.83-3.21,20.554,20.554,0,0,0-7.44,10.01,20.646,20.646,0,0,0,.3,13.9A18.127,18.127,0,0,0,47.57,82.09Z"/><path class="c" d="M45.14,84.54a20.678,20.678,0,0,0,7.01,4.67,23.528,23.528,0,0,0,9.01,1.67,24.794,24.794,0,0,0,8.69-1.48,20.651,20.651,0,0,0,6.99-4.28,20.053,20.053,0,0,0,4.72-6.76,2.651,2.651,0,0,0,.26-1.31,1.545,1.545,0,0,0-.4-.93,1.335,1.335,0,0,0-.82-.36,2.5,2.5,0,0,0-1.16.18,17.746,17.746,0,0,1-3.28.91,22.636,22.636,0,0,1-4.06.33,21.212,21.212,0,0,1-10.13-2.29,16.148,16.148,0,0,1-6.64-6.51,20.275,20.275,0,0,1-2.35-10.02A24.7,24.7,0,0,1,53.36,54a13.3,13.3,0,0,1,1.06-3.5,2.652,2.652,0,0,0,.32-1.27,1.456,1.456,0,0,0-.34-.95,1.525,1.525,0,0,0-.95-.47,2.651,2.651,0,0,0-1.43.27,19.967,19.967,0,0,0-5.28,3.31,21.729,21.729,0,0,0-4.11,4.8,23.443,23.443,0,0,0-2.68,5.95A23.854,23.854,0,0,0,39,68.92a22.967,22.967,0,0,0,1.6,8.63A21.1,21.1,0,0,0,45.14,84.54ZM43.42,62.19a20.554,20.554,0,0,1,7.44-10.01,14.24,14.24,0,0,0-.83,3.21,25.389,25.389,0,0,0-.29,3.85,23.58,23.58,0,0,0,1.54,8.71,18.977,18.977,0,0,0,4.39,6.7,19.417,19.417,0,0,0,6.83,4.29,24.894,24.894,0,0,0,8.84,1.5,23.222,23.222,0,0,0,3.44-.24,14.223,14.223,0,0,0,2.56-.58,16.124,16.124,0,0,1-4.09,4.21,19.35,19.35,0,0,1-5.54,2.73,21.693,21.693,0,0,1-6.51.96,19.934,19.934,0,0,1-7.68-1.43,17.461,17.461,0,0,1-5.95-4,18.127,18.127,0,0,1-3.85-6,20.646,20.646,0,0,1-.3-13.9Z"/><path class="c" d="M83.57,55.63a3.28,3.28,0,0,1-1.29-1.23,6.891,6.891,0,0,1-.73-2.09Q81.28,51,81,48.92a.842.842,0,0,0-.24-.53.723.723,0,0,0-.52-.19.7.7,0,0,0-.5.19.822.822,0,0,0-.24.51q-.3,2.1-.56,3.44a7.362,7.362,0,0,1-.71,2.15,3.182,3.182,0,0,1-1.26,1.26,7.941,7.941,0,0,1-2.19.74q-1.38.289-3.54.61a.829.829,0,0,0-.48.24.7.7,0,0,0-.2.52.672.672,0,0,0,.2.51.975.975,0,0,0,.48.25q2.16.4,3.53.72a8.477,8.477,0,0,1,2.19.78,3.292,3.292,0,0,1,1.27,1.24,6.922,6.922,0,0,1,.71,2.09q.26,1.309.56,3.39a.8.8,0,0,0,.24.49.7.7,0,0,0,.5.19.7.7,0,0,0,.52-.2A.866.866,0,0,0,81,66.8q.28-2.081.54-3.41a7.07,7.07,0,0,1,.71-2.12,3.2,3.2,0,0,1,1.27-1.24,8.326,8.326,0,0,1,2.18-.75q1.36-.3,3.46-.66.761-.12.76-.76a.689.689,0,0,0-.19-.51.931.931,0,0,0-.49-.25q-2.1-.4-3.47-.71A8.741,8.741,0,0,1,83.57,55.63Z"/><path class="c" d="M62.14,44.68q1.7.34,2.65.62a3.241,3.241,0,0,1,1.42.76,3.079,3.079,0,0,1,.71,1.4q.24.919.52,2.54.1.42.46.42a.442.442,0,0,0,.46-.42q.3-1.62.54-2.55a3.161,3.161,0,0,1,.71-1.42,3.1,3.1,0,0,1,1.42-.76q.95-.27,2.65-.59a.459.459,0,0,0,.44-.48c0-.253-.147-.407-.44-.46a26.8,26.8,0,0,1-2.62-.63,3.157,3.157,0,0,1-1.38-.78,3.3,3.3,0,0,1-.71-1.41Q68.72,40,68.36,38.4a.434.434,0,0,0-.46-.4.451.451,0,0,0-.46.4q-.341,1.6-.59,2.52a3.371,3.371,0,0,1-.7,1.41,3.077,3.077,0,0,1-1.38.78q-.93.289-2.63.63c-.293.053-.44.207-.44.46A.459.459,0,0,0,62.14,44.68Z"/></svg>