<svg xmlns="http://www.w3.org/2000/svg" viewBox="0 0 128 128"><defs><style>.a{fill:#0000;}.b{fill:none;}.c{fill:#fff;}</style></defs><rect class="a" x="-541" y="-341" width="2450" height="2182"/><path class="b" d="M47.56,84.11a17.571,17.571,0,0,0,5.96,4,19.934,19.934,0,0,0,7.68,1.43,21.718,21.718,0,0,0,6.5-.96,19.332,19.332,0,0,0,5.55-2.73,15.842,15.842,0,0,0,4.07-4.21,13.693,13.693,0,0,1-2.54.58,23.372,23.372,0,0,1-3.46.24,24.814,24.814,0,0,1-8.83-1.5,19.535,19.535,0,0,1-6.83-4.29,18.928,18.928,0,0,1-4.4-6.69,23.559,23.559,0,0,1-1.54-8.72,24.518,24.518,0,0,1,.3-3.85,15.43,15.43,0,0,1,.82-3.21,20.737,20.737,0,0,0-4.45,4.39,20.452,20.452,0,0,0-2.97,5.62,19.738,19.738,0,0,0-1.06,6.49,20.028,20.028,0,0,0,1.35,7.42A17.935,17.935,0,0,0,47.56,84.11Z"/><path class="c" d="M66.22,45.42a5.991,5.991,0,0,0-.52.79,1.48,1.48,0,0,0-.16.69,1.085,1.085,0,0,0,.37.85,1.374,1.374,0,0,0,.95.33h8.4a1.207,1.207,0,0,0,.86-.32,1.245,1.245,0,0,0,0-1.71,1.184,1.184,0,0,0-.86-.33H69.3V45.6l6.06-7.96a6.469,6.469,0,0,0,.53-.8,1.392,1.392,0,0,0,.17-.66,1.054,1.054,0,0,0-.39-.86A1.48,1.48,0,0,0,74.7,35h-8a1.218,1.218,0,0,0-.87.33,1.219,1.219,0,0,0,0,1.71,1.241,1.241,0,0,0,.87.32h5.64v.14Z"/><path class="c" d="M69.46,63.78a5.166,5.166,0,0,0-.47.71,1.393,1.393,0,0,0-.15.65.99.99,0,0,0,.34.78,1.252,1.252,0,0,0,.86.3h5.82a1.055,1.055,0,0,0,.78-.3,1.082,1.082,0,0,0,.3-.8,1.029,1.029,0,0,0-.3-.76,1.055,1.055,0,0,0-.78-.3H72.18v-.12L75.94,59a7.46,7.46,0,0,0,.48-.73,1.241,1.241,0,0,0,.16-.61.96.96,0,0,0-.36-.79,1.359,1.359,0,0,0-.88-.29H69.9a1.124,1.124,0,0,0-.8.3,1.123,1.123,0,0,0,0,1.57,1.148,1.148,0,0,0,.8.29h3.3v.12Z"/><path class="c" d="M45.12,86.57a20.756,20.756,0,0,0,7.01,4.66,23.58,23.58,0,0,0,9.03,1.67,24.733,24.733,0,0,0,8.67-1.48,20.763,20.763,0,0,0,7-4.28,19.98,19.98,0,0,0,4.73-6.76,2.651,2.651,0,0,0,.26-1.31,1.456,1.456,0,0,0-.4-.91,1.283,1.283,0,0,0-.82-.38,2.5,2.5,0,0,0-1.16.18,18.308,18.308,0,0,1-3.29.91,22.465,22.465,0,0,1-4.05.33,21.272,21.272,0,0,1-10.14-2.29,16.131,16.131,0,0,1-6.65-6.51,20.234,20.234,0,0,1-2.35-10,24.159,24.159,0,0,1,.39-4.38,13.779,13.779,0,0,1,1.05-3.48,2.763,2.763,0,0,0,.32-1.29,1.456,1.456,0,0,0-.34-.95,1.473,1.473,0,0,0-.94-.46A2.9,2.9,0,0,0,52,50.1a20.639,20.639,0,0,0-5.26,3.32,21.743,21.743,0,0,0-4.12,4.79,23,23,0,0,0-2.68,5.95A24.066,24.066,0,0,0,39,70.94a23.179,23.179,0,0,0,1.59,8.64A20.825,20.825,0,0,0,45.12,86.57Zm-1.7-22.36a20.452,20.452,0,0,1,2.97-5.62,20.737,20.737,0,0,1,4.45-4.39,15.43,15.43,0,0,0-.82,3.21,24.518,24.518,0,0,0-.3,3.85,23.559,23.559,0,0,0,1.54,8.72,18.928,18.928,0,0,0,4.4,6.69,19.535,19.535,0,0,0,6.83,4.29,24.814,24.814,0,0,0,8.83,1.5,23.372,23.372,0,0,0,3.46-.24,13.693,13.693,0,0,0,2.54-.58,15.842,15.842,0,0,1-4.07,4.21,19.332,19.332,0,0,1-5.55,2.73,21.718,21.718,0,0,1-6.5.96,19.934,19.934,0,0,1-7.68-1.43,17.571,17.571,0,0,1-5.96-4,17.935,17.935,0,0,1-3.85-5.99,20.028,20.028,0,0,1-1.35-7.42A19.738,19.738,0,0,1,43.42,64.21Z"/><path class="c" d="M79.76,55.16a3.928,3.928,0,0,0-.48.75,1.615,1.615,0,0,0-.14.67,1.062,1.062,0,0,0,.35.82,1.269,1.269,0,0,0,.89.32H87a1.154,1.154,0,0,0,.84-.31,1.223,1.223,0,0,0,0-1.65,1.136,1.136,0,0,0-.84-.32H82.62v-.1L87.1,49.5a5.136,5.136,0,0,0,.5-.75,1.4,1.4,0,0,0,.16-.65,1,1,0,0,0-.37-.82,1.43,1.43,0,0,0-.93-.3H80.22a1.164,1.164,0,0,0-.83.31,1.037,1.037,0,0,0-.33.79,1.11,1.11,0,0,0,.33.85,1.164,1.164,0,0,0,.83.31h4v.12Z"/></svg>