<svg xmlns="http://www.w3.org/2000/svg" viewBox="0 0 128 128"><defs><style>.a{fill:#0000;}.b{fill:none;}.c{fill:#fff;}</style></defs><rect class="a" x="-389" y="-1709" width="2450" height="2182"/><path class="b" d="M72.32,71.86A18.505,18.505,0,0,1,63.71,70a12.843,12.843,0,0,1-5.5-5.37,17.451,17.451,0,0,1-1.91-8.45,15.851,15.851,0,0,1,.18-2.45,11.6,11.6,0,0,1,.56-2.19A13.692,13.692,0,0,0,53.7,54.7a14.456,14.456,0,0,0-2.15,4.07,14.063,14.063,0,0,0-.75,4.55,14.731,14.731,0,0,0,1.03,5.57,13.023,13.023,0,0,0,7.31,7.32,14.6,14.6,0,0,0,5.54,1.03,15.359,15.359,0,0,0,4.71-.72,13.741,13.741,0,0,0,4.06-2.07,12,12,0,0,0,2.99-3.21,10.418,10.418,0,0,1-1.97.48A15.449,15.449,0,0,1,72.32,71.86Z"/><path class="c" d="M78.7,68.22a2.633,2.633,0,0,0-.41.03,2.78,2.78,0,0,0-.51.15,12.118,12.118,0,0,1-2.32.63,15.513,15.513,0,0,1-2.7.23,15.694,15.694,0,0,1-7.36-1.62,11.345,11.345,0,0,1-4.77-4.62,14.418,14.418,0,0,1-1.67-7.12,18.376,18.376,0,0,1,.27-3.27,7.946,7.946,0,0,1,.69-2.27,2.675,2.675,0,0,0,.25-.6,2.286,2.286,0,0,0,.05-.5,1.3,1.3,0,0,0-.36-.84,1.158,1.158,0,0,0-.92-.42,2.346,2.346,0,0,0-.34.04,3.659,3.659,0,0,0-.62.18,15.167,15.167,0,0,0-5.17,3.52,17.256,17.256,0,0,0-3.53,5.35A16.161,16.161,0,0,0,48,63.44a17.464,17.464,0,0,0,1.23,6.63,15.781,15.781,0,0,0,3.45,5.26,15.588,15.588,0,0,0,5.25,3.46,18.536,18.536,0,0,0,13.04.09,15.258,15.258,0,0,0,5.14-3.28,15.614,15.614,0,0,0,3.49-5.12,2.856,2.856,0,0,0,.21-.63,2.494,2.494,0,0,0,.05-.41,1.106,1.106,0,0,0-.39-.89A1.2,1.2,0,0,0,78.7,68.22Zm-5.25,6.23a13.741,13.741,0,0,1-4.06,2.07,15.359,15.359,0,0,1-4.71.72,14.6,14.6,0,0,1-5.54-1.03,13.023,13.023,0,0,1-7.31-7.32,14.731,14.731,0,0,1-1.03-5.57,14.063,14.063,0,0,1,.75-4.55A14.456,14.456,0,0,1,53.7,54.7a13.692,13.692,0,0,1,3.34-3.16,11.6,11.6,0,0,0-.56,2.19,15.851,15.851,0,0,0-.18,2.45,17.451,17.451,0,0,0,1.91,8.45A12.843,12.843,0,0,0,63.71,70a18.505,18.505,0,0,0,8.61,1.86,15.449,15.449,0,0,0,2.15-.14,10.418,10.418,0,0,0,1.97-.48A12,12,0,0,1,73.45,74.45Z"/></svg>