<svg xmlns="http://www.w3.org/2000/svg" viewBox="0 0 128 128"><defs><style>.a{fill:#0000;}.b{fill:none;}.c{fill:#fff;}</style></defs><rect class="a" x="-541" y="-493" width="2450" height="2182"/><path class="b" d="M55.56,63.02a15.926,15.926,0,0,1,.14-2.12,10.256,10.256,0,0,1,.38-1.78,11.436,11.436,0,0,0-2.33,2.55,11.853,11.853,0,0,0-1.49,3.16,12.191,12.191,0,0,0-.52,3.57,11.379,11.379,0,0,0,1.44,5.73,10.471,10.471,0,0,0,3.98,3.98,11.525,11.525,0,0,0,5.82,1.45,12.414,12.414,0,0,0,5.13-1.06,10.168,10.168,0,0,0,3.85-2.9,8.721,8.721,0,0,1-1.25.22,15.3,15.3,0,0,1-1.83.1,14.363,14.363,0,0,1-6.95-1.63,11.779,11.779,0,0,1-4.69-4.54A13.217,13.217,0,0,1,55.56,63.02Z"/><path class="c" d="M79.68,59.74a.76.76,0,0,0-.86-.86H76.46v-.06l2.48-3.26a1.929,1.929,0,0,0,.44-1,.724.724,0,0,0-.26-.58.983.983,0,0,0-.66-.22H74.6a.752.752,0,0,0-.86.84.837.837,0,0,0,.25.65.87.87,0,0,0,.61.23h2.1v.06l-2.46,3.24a1.716,1.716,0,0,0-.44,1.02.757.757,0,0,0,.24.57.887.887,0,0,0,.64.23h4.14A.76.76,0,0,0,79.68,59.74Z"/><path class="c" d="M59,57.44q.52-1.02.02-1.6a1.107,1.107,0,0,0-.66-.36,1.872,1.872,0,0,0-1,.14A12.139,12.139,0,0,0,53,58.51a13.972,13.972,0,0,0-2.94,4.54A14.705,14.705,0,0,0,49,68.64a13.957,13.957,0,0,0,1.03,5.39,13.053,13.053,0,0,0,2.9,4.34,13.441,13.441,0,0,0,4.41,2.89,15.569,15.569,0,0,0,10.95.09,12.584,12.584,0,0,0,7.23-7.03,1.834,1.834,0,0,0,.18-.97,1.156,1.156,0,0,0-.32-.67.875.875,0,0,0-.58-.26,1.69,1.69,0,0,0-.82.14,9.14,9.14,0,0,1-1.96.54,14.8,14.8,0,0,1-2.42.18,12.639,12.639,0,0,1-6.03-1.37,9.759,9.759,0,0,1-3.98-3.85,11.618,11.618,0,0,1-1.41-5.84,15,15,0,0,1,.25-2.8A8.371,8.371,0,0,1,59,57.44Zm2.93,16.85a14.363,14.363,0,0,0,6.95,1.63,15.3,15.3,0,0,0,1.83-.1,8.721,8.721,0,0,0,1.25-.22,10.168,10.168,0,0,1-3.85,2.9,12.414,12.414,0,0,1-5.13,1.06,11.525,11.525,0,0,1-5.82-1.45,10.471,10.471,0,0,1-3.98-3.98,11.379,11.379,0,0,1-1.44-5.73,12.191,12.191,0,0,1,.52-3.57,11.853,11.853,0,0,1,1.49-3.16,11.436,11.436,0,0,1,2.33-2.55,10.256,10.256,0,0,0-.38,1.78,15.926,15.926,0,0,0-.14,2.12,13.217,13.217,0,0,0,1.68,6.73A11.779,11.779,0,0,0,61.93,74.29Z"/><path class="c" d="M71.86,61.44a3.708,3.708,0,0,0,.34-.52.921.921,0,0,0,.1-.42.682.682,0,0,0-.25-.55.917.917,0,0,0-.61-.21H68a.716.716,0,0,0-.82.8.793.793,0,0,0,.23.6.817.817,0,0,0,.59.22h1.76v.06l-2.12,2.84a2.718,2.718,0,0,0-.31.51,1.13,1.13,0,0,0-.09.45.734.734,0,0,0,.22.54.81.81,0,0,0,.6.22h3.7a.716.716,0,0,0,.8-.82.707.707,0,0,0-.8-.8H69.74V64.3Z"/><path class="c" d="M71.4,47.92a2.023,2.023,0,0,0,.48-1.06.783.783,0,0,0-.27-.63,1.029,1.029,0,0,0-.69-.23h-5.2a.8.8,0,0,0-.9.9.855.855,0,0,0,.26.66.908.908,0,0,0,.64.24h3.3v.08l-3.68,4.78a1.953,1.953,0,0,0-.48,1.08.816.816,0,0,0,.26.61.938.938,0,0,0,.68.25h5.48a.934.934,0,0,0,.66-.24.881.881,0,0,0,.26-.68q0-.88-.92-.88h-3.5v-.08Z"/></svg>