<svg xmlns="http://www.w3.org/2000/svg" viewBox="0 0 128 128"><defs><style>.a{fill:#0000;}.b{fill:#fff;}.c{fill:#b3b3b3;}</style></defs><rect class="a" x="-541" y="-797" width="2450" height="2182"/><path class="b" d="M78.94,55.56a1.929,1.929,0,0,0,.44-1,.724.724,0,0,0-.26-.58.983.983,0,0,0-.66-.22H74.6a.752.752,0,0,0-.86.84.837.837,0,0,0,.25.65.87.87,0,0,0,.61.23h2.1v.06l-2.46,3.24a1.716,1.716,0,0,0-.44,1.02.757.757,0,0,0,.24.57.887.887,0,0,0,.64.23h4.14a.86.86,0,0,0,0-1.72H76.46v-.06Z"/><path class="c" d="M58.64,57.54q.461-.9.04-1.4-.44-.52-1.44-.16a11.431,11.431,0,0,0-4.33,2.85,13.9,13.9,0,0,0-2.88,4.51A14.637,14.637,0,0,0,49,68.82a13.734,13.734,0,0,0,1.03,5.36,12.96,12.96,0,0,0,2.88,4.28,13.151,13.151,0,0,0,4.35,2.83,14.5,14.5,0,0,0,5.48,1.01,14.705,14.705,0,0,0,5.28-.93,12.379,12.379,0,0,0,7.14-6.93,1.223,1.223,0,0,0-.1-1.44q-.4-.4-1.2-.08a8.8,8.8,0,0,1-2.08.57,15.768,15.768,0,0,1-2.36.17,12.853,12.853,0,0,1-6.13-1.39,9.932,9.932,0,0,1-4.05-3.92A11.827,11.827,0,0,1,57.8,62.4a15.788,15.788,0,0,1,.24-2.73A8.625,8.625,0,0,1,58.64,57.54Z"/><path class="b" d="M71.86,61.44a3.708,3.708,0,0,0,.34-.52.921.921,0,0,0,.1-.42.682.682,0,0,0-.25-.55.917.917,0,0,0-.61-.21H68a.716.716,0,0,0-.82.8.793.793,0,0,0,.23.6.817.817,0,0,0,.59.22h1.76v.06l-2.12,2.84a2.718,2.718,0,0,0-.31.51,1.13,1.13,0,0,0-.09.45.734.734,0,0,0,.22.54.81.81,0,0,0,.6.22h3.7a.716.716,0,0,0,.8-.82.707.707,0,0,0-.8-.8H69.74V64.3Z"/><path class="b" d="M71.4,47.92a2.023,2.023,0,0,0,.48-1.06.783.783,0,0,0-.27-.63,1.029,1.029,0,0,0-.69-.23h-5.2a.8.8,0,0,0-.9.9.855.855,0,0,0,.26.66.908.908,0,0,0,.64.24h3.3v.08l-3.68,4.78a1.953,1.953,0,0,0-.48,1.08.816.816,0,0,0,.26.61.938.938,0,0,0,.68.25h5.48a.934.934,0,0,0,.66-.24.881.881,0,0,0,.26-.68q0-.88-.92-.88h-3.5v-.08Z"/></svg>