<svg xmlns="http://www.w3.org/2000/svg" viewBox="0 0 128 128"><defs><style>.a{fill:#0000;}.b{fill:#fff;}.c{fill:#b3b3b3;}</style></defs><rect class="a" x="-541" y="-1405" width="2450" height="2182"/><path class="b" d="M75.27,62.1a2.983,2.983,0,0,1,1.39-.69q.919-.23,2.5-.47.619-.1.62-.6a.57.57,0,0,0-.54-.6q-1.6-.3-2.54-.55a3.367,3.367,0,0,1-1.42-.69,2.6,2.6,0,0,1-.7-1.32,18.3,18.3,0,0,1-.38-2.44q-.079-.581-.6-.58a.549.549,0,0,0-.6.56q-.2,1.6-.41,2.51a2.8,2.8,0,0,1-.68,1.38,2.887,2.887,0,0,1-1.41.69q-.94.221-2.56.44a.541.541,0,0,0-.54.6.57.57,0,0,0,.54.6q1.62.3,2.55.55a3.2,3.2,0,0,1,1.4.7,2.709,2.709,0,0,1,.69,1.33A22.153,22.153,0,0,1,73,65.96a.541.541,0,0,0,.6.54q.521,0,.6-.58a19.054,19.054,0,0,1,.38-2.46A2.793,2.793,0,0,1,75.27,62.1Z"/><path class="b" d="M62.58,52.22a11.574,11.574,0,0,1,1.91.49,1.322,1.322,0,0,1,.78.8,12.664,12.664,0,0,1,.45,1.85.374.374,0,0,0,.38.34q.3,0,.36-.34a15.552,15.552,0,0,1,.46-1.85,1.288,1.288,0,0,1,.77-.8,11.553,11.553,0,0,1,1.93-.49.367.367,0,0,0,.32-.38.341.341,0,0,0-.32-.36,13.164,13.164,0,0,1-1.92-.5,1.293,1.293,0,0,1-.77-.79,13.811,13.811,0,0,1-.47-1.87A.341.341,0,0,0,66.1,48a.367.367,0,0,0-.38.32,15.406,15.406,0,0,1-.46,1.87,1.259,1.259,0,0,1-.77.79,13.736,13.736,0,0,1-1.91.5q-.34.06-.34.36A.374.374,0,0,0,62.58,52.22Z"/><path class="c" d="M57.64,56.22q.439-.919.04-1.42-.44-.52-1.44-.14a11.489,11.489,0,0,0-4.33,2.84A13.779,13.779,0,0,0,49.03,62,14.637,14.637,0,0,0,48,67.48a13.858,13.858,0,0,0,1.02,5.36,12.828,12.828,0,0,0,2.87,4.28,13.134,13.134,0,0,0,4.36,2.83,15.412,15.412,0,0,0,10.76.08,12.549,12.549,0,0,0,4.26-2.69,12.769,12.769,0,0,0,2.89-4.24,1.267,1.267,0,0,0-.1-1.44q-.4-.4-1.2-.08a9.538,9.538,0,0,1-2.09.58,14.676,14.676,0,0,1-2.35.18,12.845,12.845,0,0,1-6.14-1.4,9.908,9.908,0,0,1-4.05-3.93,11.9,11.9,0,0,1-1.43-5.95,16.493,16.493,0,0,1,.23-2.73A7.477,7.477,0,0,1,57.64,56.22Z"/></svg>