<svg xmlns="http://www.w3.org/2000/svg" viewBox="0 0 128 128"><defs><style>.a{fill:#0000;}.b{fill:none;}.c{fill:#fff;}</style></defs><rect class="a" x="-1453" y="-1253" width="2450" height="2182"/><path class="b" d="M69.94,49.96a6.22,6.22,0,0,0-3.08-.78,8.434,8.434,0,0,0-1.6.14q-.72.139-1.24.28a2.922,2.922,0,0,1-1.6.13,1.831,1.831,0,0,1-1.1-.89,9.947,9.947,0,0,0-3.29-3.29,8.537,8.537,0,0,0-4.43-1.21,8.692,8.692,0,0,0-4.52,1.21,9.261,9.261,0,0,0-3.25,3.21,8.13,8.13,0,0,0-1.19,4.36,2.547,2.547,0,0,1-.45,1.68,2.355,2.355,0,0,1-1.53.66,6.929,6.929,0,0,0-3.18,1.24,7.491,7.491,0,0,0-2.29,2.6,7.264,7.264,0,0,0-.85,3.5,6.514,6.514,0,0,0,1.05,3.62,7.272,7.272,0,0,0,2.99,2.57,9.955,9.955,0,0,0,3.938.92,10.077,10.077,0,0,1,1.8-1.48,9.977,9.977,0,0,1,4.64-1.55,10.281,10.281,0,0,1,5.4-7.29,10,10,0,0,1,4.6-1.11,9.379,9.379,0,0,1,1.57.13q.77.131,1.53.33a12.526,12.526,0,0,1,4.37-3.81,11.909,11.909,0,0,1,4.687-1.33,5.841,5.841,0,0,0-.717-1.7A6.209,6.209,0,0,0,69.94,49.96Z"/><path class="b" d="M87.25,81.92a6.948,6.948,0,0,0,2.83-2.57,7.528,7.528,0,0,0,.18-7.24,7.414,7.414,0,0,0-2.28-2.59,6.788,6.788,0,0,0-3.22-1.22,2.535,2.535,0,0,1-1.62-.6,2.661,2.661,0,0,1-.4-1.7,8.777,8.777,0,0,0-1.17-4.48,9,9,0,0,0-3.16-3.23,8.394,8.394,0,0,0-4.45-1.21,9.425,9.425,0,0,0-4.73,1.24,8.031,8.031,0,0,0-3.19,3.3,1.811,1.811,0,0,1-1.01.96,2.491,2.491,0,0,1-1.57-.2,9.529,9.529,0,0,0-1.38-.42,6.557,6.557,0,0,0-1.32-.12,6.8,6.8,0,0,0-3.32.81,6.6,6.6,0,0,0-2.41,2.25,7.277,7.277,0,0,0-1.11,3.3,1.9,1.9,0,0,1-.64,1.47,3.24,3.24,0,0,1-1.78.45,6.6,6.6,0,0,0-3.3.88,6.444,6.444,0,0,0-2.34,2.3A6.126,6.126,0,0,0,45,76.5a6.413,6.413,0,0,0,.84,3.31,5.865,5.865,0,0,0,2.33,2.23,7.229,7.229,0,0,0,3.47.8H83.06A9.13,9.13,0,0,0,87.25,81.92Z"/><path class="c" d="M89.02,84.77a10.325,10.325,0,0,0,3.99-3.82,10.442,10.442,0,0,0,1.43-5.43,10.592,10.592,0,0,0-1.09-4.68,10.753,10.753,0,0,0-2.96-3.67,11.075,11.075,0,0,0-4.35-2.11,12.116,12.116,0,0,0-1.93-5.72,12.552,12.552,0,0,0-4.31-4.08,11.2,11.2,0,0,0-3.378-1.254,10.229,10.229,0,0,1,.1,1.174h-3.4a6.551,6.551,0,0,0-.2-1.38,11.909,11.909,0,0,0-4.687,1.33,12.526,12.526,0,0,0-4.37,3.81q-.76-.2-1.53-.33a9.379,9.379,0,0,0-1.57-.13,10,10,0,0,0-4.6,1.11,10.281,10.281,0,0,0-5.4,7.29,9.977,9.977,0,0,0-4.64,1.55,10.077,10.077,0,0,0-1.8,1.48c.214.01.421.03.642.03h.92l-1.14,3.34H44.5a14.914,14.914,0,0,1-2.223-.179,9.4,9.4,0,0,0-.617,3.4,9.59,9.59,0,0,0,1.29,4.98,9.336,9.336,0,0,0,3.54,3.44,10.36,10.36,0,0,0,5.15,1.26H83.06A12.157,12.157,0,0,0,89.02,84.77ZM48.17,82.04a5.865,5.865,0,0,1-2.33-2.23A6.413,6.413,0,0,1,45,76.5a6.126,6.126,0,0,1,.86-3.2A6.444,6.444,0,0,1,48.2,71a6.6,6.6,0,0,1,3.3-.88,3.24,3.24,0,0,0,1.78-.45,1.9,1.9,0,0,0,.64-1.47,7.277,7.277,0,0,1,1.11-3.3,6.6,6.6,0,0,1,2.41-2.25,6.8,6.8,0,0,1,3.32-.81,6.557,6.557,0,0,1,1.32.12,9.529,9.529,0,0,1,1.38.42,2.491,2.491,0,0,0,1.57.2,1.811,1.811,0,0,0,1.01-.96,8.031,8.031,0,0,1,3.19-3.3,9.425,9.425,0,0,1,4.73-1.24,8.394,8.394,0,0,1,4.45,1.21,9,9,0,0,1,3.16,3.23A8.777,8.777,0,0,1,82.74,66a2.661,2.661,0,0,0,.4,1.7,2.535,2.535,0,0,0,1.62.6,6.788,6.788,0,0,1,3.22,1.22,7.414,7.414,0,0,1,2.28,2.59,7.528,7.528,0,0,1-.18,7.24,6.948,6.948,0,0,1-2.83,2.57,9.13,9.13,0,0,1-4.19.92H51.64A7.229,7.229,0,0,1,48.17,82.04Z"/><path class="c" d="M72.917,53.8a6.551,6.551,0,0,1,.2,1.38h3.4a10.229,10.229,0,0,0-.1-1.174,12.24,12.24,0,0,0-2.462-.266C73.605,53.74,73.262,53.772,72.917,53.8Z"/><path class="c" d="M44.74,73.28l1.14-3.34h-.92c-.221,0-.428-.02-.642-.03a9.862,9.862,0,0,0-1.458,1.94,8.868,8.868,0,0,0-.583,1.251,14.914,14.914,0,0,0,2.223.179Z"/><path class="c" d="M44.318,69.91a9.955,9.955,0,0,1-3.938-.92,7.272,7.272,0,0,1-2.99-2.57,6.514,6.514,0,0,1-1.05-3.62,7.264,7.264,0,0,1,.85-3.5,7.491,7.491,0,0,1,2.29-2.6,6.929,6.929,0,0,1,3.18-1.24,2.355,2.355,0,0,0,1.53-.66,2.547,2.547,0,0,0,.45-1.68,8.13,8.13,0,0,1,1.19-4.36,9.261,9.261,0,0,1,3.25-3.21,8.692,8.692,0,0,1,4.52-1.21,8.537,8.537,0,0,1,4.43,1.21,9.947,9.947,0,0,1,3.29,3.29,1.831,1.831,0,0,0,1.1.89,2.922,2.922,0,0,0,1.6-.13q.521-.14,1.24-.28a8.434,8.434,0,0,1,1.6-.14A6.232,6.232,0,0,1,72.2,52.1a5.841,5.841,0,0,1,.717,1.7c.345-.028.688-.06,1.043-.06a12.24,12.24,0,0,1,2.462.266,9.116,9.116,0,0,0-.7-2.506,9.668,9.668,0,0,0-2.05-2.97,9.411,9.411,0,0,0-2.97-1.98,9.158,9.158,0,0,0-3.6-.71,13,13,0,0,0-1.85.12,15.385,15.385,0,0,0-1.61.32,15.061,15.061,0,0,0-4.61-3.97A11.413,11.413,0,0,0,53.6,41a11.863,11.863,0,0,0-4.53.87,12.492,12.492,0,0,0-7.75,10.47,10.925,10.925,0,0,0-4.34,2.12,10.689,10.689,0,0,0-2.93,3.68A10.516,10.516,0,0,0,33,62.8a10.056,10.056,0,0,0,1.41,5.22,10.433,10.433,0,0,0,3.99,3.82A11.31,11.31,0,0,0,42.277,73.1a8.868,8.868,0,0,1,.583-1.251A9.862,9.862,0,0,1,44.318,69.91Z"/></svg>