<svg xmlns="http://www.w3.org/2000/svg" viewBox="0 0 128 128"><defs><style>.a{fill:#0000;}.b{fill:#fff;}</style></defs><rect class="a" x="-1453" y="-1557" width="2450" height="2182"/><path class="b" d="M91.04,68.35a10.293,10.293,0,0,0-4.36-1.91A11.8,11.8,0,0,0,85.63,62a12.325,12.325,0,0,0-2.54-3.66,11.644,11.644,0,0,0-3.68-2.47,11.4,11.4,0,0,0-4.51-.89,11.773,11.773,0,0,0-5.8,1.45,12.038,12.038,0,0,0-4.28,3.97,11.2,11.2,0,0,0-1.68-.44,9.764,9.764,0,0,0-1.68-.14,9.549,9.549,0,0,0-4.55,1.1,9.8,9.8,0,0,0-3.43,3.01,9.68,9.68,0,0,0-1.7,4.35,9.334,9.334,0,0,0-4.67,1.36,9.624,9.624,0,0,0-3.32,3.37,8.848,8.848,0,0,0-1.23,4.57,9.373,9.373,0,0,0,1.21,4.75,8.84,8.84,0,0,0,3.38,3.34,10.025,10.025,0,0,0,5.03,1.23H84.36a11.372,11.372,0,0,0,5.65-1.36,9.936,9.936,0,0,0,3.8-3.7,10.182,10.182,0,0,0,1.37-5.24,9.97,9.97,0,0,0-1.11-4.66A10.5,10.5,0,0,0,91.04,68.35Z"/><path class="b" d="M45.62,66.75a11.679,11.679,0,0,1,4.02-1.43,12.138,12.138,0,0,1,2.63-4.87,11.673,11.673,0,0,1,4.24-2.98,13.642,13.642,0,0,1,5.25-1.01,10.256,10.256,0,0,1,1.15.06q.529.06,1.01.16a10.637,10.637,0,0,1,4.45-3.82,13.937,13.937,0,0,1,6.19-1.16,6.8,6.8,0,0,0-2.69-3.4,8.778,8.778,0,0,0-5.13-1.4,10.054,10.054,0,0,0-1.76.14,13.637,13.637,0,0,0-1.62.4,12.648,12.648,0,0,0-4.31-4A11.322,11.322,0,0,0,53.42,42a11.492,11.492,0,0,0-4.51.89,12.2,12.2,0,0,0-6.34,6.1,11.738,11.738,0,0,0-1.09,4.43,10.633,10.633,0,0,0-4.38,1.96,10.393,10.393,0,0,0-3.01,3.6,10.451,10.451,0,0,0,.87,10.74,9.918,9.918,0,0,0,5.56,3.68,12.95,12.95,0,0,1,2.03-3.93A10.76,10.76,0,0,1,45.62,66.75Z"/></svg>