<svg xmlns="http://www.w3.org/2000/svg" viewBox="0 0 128 128"><defs><style>.a{fill:#0000;}.b{fill:#fff;}</style></defs><rect class="a" x="-1453" y="-1709" width="2450" height="2182"/><path class="b" d="M52.82,64.66a7.716,7.716,0,0,1,2.6-1.04,7.937,7.937,0,0,1,1.83-3.06,7.508,7.508,0,0,1,2.76-1.78,9.527,9.527,0,0,1,3.33-.58c.133,0,.277.007.43.02l.45.04a6.36,6.36,0,0,1,2.45-2.17,7.859,7.859,0,0,1,3.37-.77,3.861,3.861,0,0,0-1.54-1.68,5.419,5.419,0,0,0-3.02-.76,4.721,4.721,0,0,0-.99.1,8.808,8.808,0,0,0-.95.26,7.575,7.575,0,0,0-2.59-2.35,7.283,7.283,0,0,0-7.05.04,7.641,7.641,0,0,0-2.64,2.5,7.268,7.268,0,0,0-1.16,3.49,6.385,6.385,0,0,0-3.65,2.23,6.333,6.333,0,0,0-.23,7.77,6.57,6.57,0,0,0,3.42,2.36,8.311,8.311,0,0,1,1.21-2.72A6.941,6.941,0,0,1,52.82,64.66Z"/><path class="b" d="M78.38,64.72a7.332,7.332,0,0,0-1.15-3.49,7.551,7.551,0,0,0-2.63-2.5,7.338,7.338,0,0,0-7.06-.05,7.379,7.379,0,0,0-2.6,2.36A5.988,5.988,0,0,0,63,60.72a5.818,5.818,0,0,0-3.94,1.46,5.9,5.9,0,0,0-2.02,3.66,5.528,5.528,0,0,0-2.83.83,5.83,5.83,0,0,0-2.01,2.08,5.629,5.629,0,0,0-.74,2.85,5.871,5.871,0,0,0,.74,2.92,5.5,5.5,0,0,0,2.09,2.1,6.185,6.185,0,0,0,3.15.78H76.86a6.755,6.755,0,0,0,3.47-.87,6.417,6.417,0,0,0-1.95-11.81Z"/></svg>