<svg xmlns="http://www.w3.org/2000/svg" viewBox="0 0 128 128"><defs><style>.a{fill:#0000;}.b{fill:none;}.c{fill:#fff;}</style></defs><rect class="a" x="-1453" y="-1405" width="2450" height="2182"/><path class="b" d="M56.76,74.9h18.7a4.635,4.635,0,0,0,3.21-1.1,3.7,3.7,0,0,0,1.23-2.9,3.918,3.918,0,0,0-1-2.65,3.618,3.618,0,0,0-2.46-1.29,1.923,1.923,0,0,1-1.19-.49,1.873,1.873,0,0,1-.33-1.25,4.736,4.736,0,0,0-.67-2.48,5.114,5.114,0,0,0-1.79-1.79,4.736,4.736,0,0,0-2.48-.67,5.051,5.051,0,0,0-2.63.72,4.34,4.34,0,0,0-1.77,1.92,1.163,1.163,0,0,1-.7.67,1.72,1.72,0,0,1-1.12-.15,7.61,7.61,0,0,0-.8-.26,3.277,3.277,0,0,0-.78-.08,3.56,3.56,0,0,0-2.55,1,3.689,3.689,0,0,0-1.15,2.52,1.437,1.437,0,0,1-.46,1.06,2.263,2.263,0,0,1-1.3.36,3.584,3.584,0,0,0-2.53,1.01,3.476,3.476,0,0,0-.03,4.91A3.641,3.641,0,0,0,56.76,74.9Z"/><path class="b" d="M65.58,55.52a4.261,4.261,0,0,0-.97.11q-.469.11-.81.21a1.72,1.72,0,0,1-1.08.08,1.347,1.347,0,0,1-.76-.64,5.446,5.446,0,0,0-1.87-1.92,4.92,4.92,0,0,0-2.49-.68,4.737,4.737,0,0,0-2.5.69,5.308,5.308,0,0,0-1.82,1.81,4.39,4.39,0,0,0-.64,2.46,1.772,1.772,0,0,1-.34,1.19,1.626,1.626,0,0,1-1.1.47,3.761,3.761,0,0,0-2.48,1.32,3.962,3.962,0,0,0-1.02,2.7,3.467,3.467,0,0,0,1.38,2.84,5.424,5.424,0,0,0,3.161,1.07,6.284,6.284,0,0,1,.9-.75,6.377,6.377,0,0,1,2.82-1.04,6.407,6.407,0,0,1,6.22-5.04,5.745,5.745,0,0,1,.89.07l.83.13a7.757,7.757,0,0,1,2.7-2.22,7.467,7.467,0,0,1,2.149-.688,3.252,3.252,0,0,0-.829-1.232A3.307,3.307,0,0,0,65.58,55.52Z"/><path class="c" d="M52.241,67.23a5.424,5.424,0,0,1-3.161-1.07,3.467,3.467,0,0,1-1.38-2.84,3.962,3.962,0,0,1,1.02-2.7A3.761,3.761,0,0,1,51.2,59.3a1.626,1.626,0,0,0,1.1-.47,1.772,1.772,0,0,0,.34-1.19,4.39,4.39,0,0,1,.64-2.46,5.308,5.308,0,0,1,1.82-1.81,4.737,4.737,0,0,1,2.5-.69,4.92,4.92,0,0,1,2.49.68,5.446,5.446,0,0,1,1.87,1.92,1.347,1.347,0,0,0,.76.64,1.72,1.72,0,0,0,1.08-.08q.341-.1.81-.21a4.261,4.261,0,0,1,.97-.11,3.307,3.307,0,0,1,2.34.94,3.252,3.252,0,0,1,.829,1.232,7.493,7.493,0,0,1,1.231-.112,7.659,7.659,0,0,1,1.652.186A5.711,5.711,0,0,0,70.9,55.74a5.932,5.932,0,0,0-2.14-2.12,5.815,5.815,0,0,0-2.98-.78,9.686,9.686,0,0,0-1.09.06,4.314,4.314,0,0,0-.93.2,9.473,9.473,0,0,0-2.89-2.36A7.251,7.251,0,0,0,57.6,50a7.378,7.378,0,0,0-3.59.9,7.894,7.894,0,0,0-2.73,2.45,7.631,7.631,0,0,0-1.32,3.47A6.73,6.73,0,0,0,45,63.32a6.291,6.291,0,0,0,.91,3.31,6.71,6.71,0,0,0,2.55,2.42,7.1,7.1,0,0,0,2.237.759,5.64,5.64,0,0,1,.483-1.189A6.167,6.167,0,0,1,52.241,67.23Z"/><path class="c" d="M68.749,57.692A3.067,3.067,0,0,1,68.96,58.7h2.76a6.2,6.2,0,0,0-.088-.934,7.659,7.659,0,0,0-1.652-.186A7.493,7.493,0,0,0,68.749,57.692Z"/><path class="c" d="M52.48,69.96l.78-2.7H52.7c-.161,0-.3-.021-.459-.03a6.167,6.167,0,0,0-1.061,1.39,5.64,5.64,0,0,0-.483,1.189,9.24,9.24,0,0,0,1.623.151Z"/><path class="c" d="M51.28,74.62a5.889,5.889,0,0,0,2.24,2.17,6.549,6.549,0,0,0,3.24.79h18.7a7.617,7.617,0,0,0,3.76-.89,6.457,6.457,0,0,0,2.49-2.41,6.768,6.768,0,0,0-.52-7.49,6.862,6.862,0,0,0-3.61-2.43,7.333,7.333,0,0,0-1.3-3.45,8,8,0,0,0-2.72-2.43,7.18,7.18,0,0,0-1.928-.714,6.2,6.2,0,0,1,.088.934H68.96a3.067,3.067,0,0,0-.211-1.008,7.467,7.467,0,0,0-2.149.688,7.757,7.757,0,0,0-2.7,2.22l-.83-.13a5.745,5.745,0,0,0-.89-.07,6.407,6.407,0,0,0-6.22,5.04,6.377,6.377,0,0,0-2.82,1.04,6.284,6.284,0,0,0-.9.75c.154.009.3.03.459.03h.56l-.78,2.7h-.16a9.24,9.24,0,0,1-1.623-.151,6.277,6.277,0,0,0,.583,4.811Zm2.91-5.57a3.584,3.584,0,0,1,2.53-1.01,2.263,2.263,0,0,0,1.3-.36,1.437,1.437,0,0,0,.46-1.06,3.689,3.689,0,0,1,1.15-2.52,3.56,3.56,0,0,1,2.55-1,3.277,3.277,0,0,1,.78.08,7.61,7.61,0,0,1,.8.26,1.72,1.72,0,0,0,1.12.15,1.163,1.163,0,0,0,.7-.67A4.34,4.34,0,0,1,67.35,61a5.051,5.051,0,0,1,2.63-.72,4.736,4.736,0,0,1,2.48.67,5.114,5.114,0,0,1,1.79,1.79,4.736,4.736,0,0,1,.67,2.48,1.873,1.873,0,0,0,.33,1.25,1.923,1.923,0,0,0,1.19.49,3.618,3.618,0,0,1,2.46,1.29,3.918,3.918,0,0,1,1,2.65,3.7,3.7,0,0,1-1.23,2.9,4.635,4.635,0,0,1-3.21,1.1H56.76a3.641,3.641,0,0,1-2.6-.94,3.476,3.476,0,0,1,.03-4.91Z"/></svg>