<svg xmlns="http://www.w3.org/2000/svg" viewBox="0 0 128 128"><defs><style>.a{fill:#0000;}.b{fill:#fff;}</style></defs><rect class="a" x="-1605" y="-493" width="2450" height="2182"/><path class="b" d="M86.19,52.14A1.543,1.543,0,0,0,86,50.92a1.436,1.436,0,0,0-2.14-.48l-5.42,3.1-.02-5.72a1.816,1.816,0,0,0-.36-1.17A1.276,1.276,0,0,0,77,46.2a1.3,1.3,0,0,0-1,.44,1.618,1.618,0,0,0-.38,1.18l.02,7.34L72.4,57.02l-7.66,4.9.42-9.08V49.08l6.36-3.62a1.643,1.643,0,0,0,.82-.93,1.306,1.306,0,0,0-.12-1.09,1.32,1.32,0,0,0-.94-.69,1.806,1.806,0,0,0-1.2.27l-4.92,2.82v-6.2a1.7,1.7,0,0,0-.41-1.19A1.451,1.451,0,0,0,63.62,38a1.435,1.435,0,0,0-1.1.45,1.674,1.674,0,0,0-.42,1.19v6.22l-5-2.84a1.769,1.769,0,0,0-1.18-.27,1.314,1.314,0,0,0-.92.69,1.351,1.351,0,0,0-.1,1.09,1.655,1.655,0,0,0,.8.93l6.4,3.64v3.74l.42,9.08-7.68-4.9-3.26-1.86.04-7.34a1.645,1.645,0,0,0-.37-1.18,1.289,1.289,0,0,0-1.01-.44,1.247,1.247,0,0,0-1.05.45,1.853,1.853,0,0,0-.35,1.17l-.04,5.72-5.4-3.1a1.668,1.668,0,0,0-1.22-.23,1.41,1.41,0,0,0-.94.71,1.529,1.529,0,0,0-.18,1.23,1.651,1.651,0,0,0,.8.95l5.38,3.08-4.92,2.88a2.014,2.014,0,0,0-.82.9,1.308,1.308,0,0,0,.12,1.16,1.281,1.281,0,0,0,.9.64,1.774,1.774,0,0,0,1.24-.24l6.32-3.7L53.3,59.7l8.2,4.18-8.18,4.18-3.26,1.86L43.74,66.2a1.671,1.671,0,0,0-1.2-.24,1.272,1.272,0,0,0-.88.64,1.423,1.423,0,0,0-.15,1.17,1.74,1.74,0,0,0,.81.87l4.94,2.92-5.38,3.1a1.7,1.7,0,0,0-.81.95,1.4,1.4,0,0,0,.17,1.19,1.456,1.456,0,0,0,.96.75,1.608,1.608,0,0,0,1.2-.23l5.4-3.1.02,5.68a1.858,1.858,0,0,0,.36,1.18,1.382,1.382,0,0,0,2.06,0,1.66,1.66,0,0,0,.38-1.18l-.02-7.32,3.24-1.84,7.68-4.9L62.1,74.9v3.72l-6.4,3.64a1.655,1.655,0,0,0-.8.93,1.351,1.351,0,0,0,.1,1.09,1.314,1.314,0,0,0,.92.69,1.769,1.769,0,0,0,1.18-.27l5-2.84v6.22a1.674,1.674,0,0,0,.42,1.19,1.435,1.435,0,0,0,1.1.45,1.451,1.451,0,0,0,1.13-.45,1.7,1.7,0,0,0,.41-1.19v-6.2l4.92,2.82a1.806,1.806,0,0,0,1.2.27,1.32,1.32,0,0,0,.94-.69,1.306,1.306,0,0,0,.12-1.09,1.643,1.643,0,0,0-.82-.93l-6.36-3.62V74.9l-.42-9.06,7.66,4.88,3.26,1.86-.04,7.32a1.638,1.638,0,0,0,.39,1.18,1.3,1.3,0,0,0,1.01.46,1.234,1.234,0,0,0,1.05-.46,1.9,1.9,0,0,0,.35-1.18l.02-5.72,5.4,3.14a1.673,1.673,0,0,0,1.23.22A1.433,1.433,0,0,0,86,76.8a1.6,1.6,0,0,0,.15-1.21,1.546,1.546,0,0,0-.77-.93l-5.4-3.1,4.96-2.92a1.844,1.844,0,0,0,.81-.89,1.22,1.22,0,0,0-.13-1.11,1.428,1.428,0,0,0-.91-.67,1.61,1.61,0,0,0-1.19.23l-6.36,3.72-3.24-1.86-8.18-4.18,8.2-4.18,3.24-1.9,6.3,3.72a1.729,1.729,0,0,0,1.23.24,1.337,1.337,0,0,0,.93-.66,1.248,1.248,0,0,0,.1-1.12,1.99,1.99,0,0,0-.82-.92L80,56.18l5.38-3.08A1.667,1.667,0,0,0,86.19,52.14Z"/></svg>