<svg xmlns="http://www.w3.org/2000/svg" viewBox="0 0 128 128"><defs><style>.a{fill:#0000;}.b{fill:#fff;}.c{fill:#ff0;}</style></defs><rect class="a" x="-389" y="-645" width="2450" height="2182"/><path class="b" d="M59.21,88.38a1.2,1.2,0,0,0,.37-.9,1.158,1.158,0,0,0-.37-.86,1.243,1.243,0,0,0-1.75,0,1.174,1.174,0,0,0-.36.86,1.221,1.221,0,0,0,.36.9,1.243,1.243,0,0,0,1.75,0Z"/><path class="b" d="M66.82,94.61a1.255,1.255,0,0,0,.36-.91,1.141,1.141,0,0,0-.36-.85,1.193,1.193,0,0,0-.86-.35,1.241,1.241,0,0,0-.9.35,1.141,1.141,0,0,0-.36.85,1.255,1.255,0,0,0,.36.91,1.2,1.2,0,0,0,.9.37A1.158,1.158,0,0,0,66.82,94.61Z"/><path class="b" d="M70.11,88.38a1.2,1.2,0,0,0,.37-.9,1.158,1.158,0,0,0-.37-.86,1.243,1.243,0,0,0-1.75,0,1.174,1.174,0,0,0-.36.86,1.221,1.221,0,0,0,.36.9,1.243,1.243,0,0,0,1.75,0Z"/><path class="b" d="M61.64,80a1.23,1.23,0,0,0-.89.36,1.158,1.158,0,0,0-.37.86,1.2,1.2,0,0,0,.37.9,1.23,1.23,0,0,0,.89.36,1.174,1.174,0,0,0,.86-.36,1.221,1.221,0,0,0,.36-.9A1.229,1.229,0,0,0,61.64,80Z"/><path class="b" d="M55.92,94.61a1.255,1.255,0,0,0,.36-.91,1.141,1.141,0,0,0-.36-.85,1.281,1.281,0,0,0-1.76,0,1.141,1.141,0,0,0-.36.85,1.255,1.255,0,0,0,.36.91,1.231,1.231,0,0,0,1.76,0Z"/><path class="b" d="M45.01,94.61a1.236,1.236,0,0,0,.37-.91,1.125,1.125,0,0,0-.37-.85,1.269,1.269,0,0,0-1.75,0,1.141,1.141,0,0,0-.36.85,1.255,1.255,0,0,0,.36.91,1.22,1.22,0,0,0,1.75,0Z"/><path class="b" d="M47.44,88.74a1.246,1.246,0,0,0,1.24-1.26,1.158,1.158,0,0,0-.37-.86,1.208,1.208,0,0,0-.87-.36,1.23,1.23,0,0,0-.89.36,1.158,1.158,0,0,0-.37.86,1.2,1.2,0,0,0,.37.9A1.23,1.23,0,0,0,47.44,88.74Z"/><path class="c" d="M91.62,60.34H84.54a1.976,1.976,0,0,0-1.4.52,1.659,1.659,0,0,0-.56,1.26,1.737,1.737,0,0,0,.57,1.26,1.942,1.942,0,0,0,1.39.52h7.08a1.942,1.942,0,0,0,1.39-.52,1.67,1.67,0,0,0,.55-1.26,1.648,1.648,0,0,0-.55-1.24A2.014,2.014,0,0,0,91.62,60.34Z"/><path class="c" d="M49.96,62.74a12.381,12.381,0,0,0,.35,2.95,13.63,13.63,0,0,0,.97,2.71H76.26a14.109,14.109,0,0,0,.98-2.71,12.037,12.037,0,0,0,.36-2.95,13.23,13.23,0,0,0-1.09-5.33,14.264,14.264,0,0,0-2.99-4.42,14.1,14.1,0,0,0-4.4-3,13.626,13.626,0,0,0-10.68,0,14.215,14.215,0,0,0-4.41,3,14.043,14.043,0,0,0-2.99,4.42A13.341,13.341,0,0,0,49.96,62.74Z"/><path class="c" d="M85.34,43a1.716,1.716,0,0,0-.52-1.26,1.6,1.6,0,0,0-1.25-.53,1.972,1.972,0,0,0-1.37.61l-5,5.02a1.9,1.9,0,0,0-.62,1.35,1.687,1.687,0,0,0,.5,1.29,1.755,1.755,0,0,0,1.29.49,1.86,1.86,0,0,0,1.35-.61l5.02-5.02A1.856,1.856,0,0,0,85.34,43Z"/><path class="b" d="M38.94,80.36a1.174,1.174,0,0,0-.36.86,1.23,1.23,0,0,0,1.26,1.26,1.174,1.174,0,0,0,.86-.36,1.221,1.221,0,0,0,.36-.9A1.229,1.229,0,0,0,39.84,80,1.221,1.221,0,0,0,38.94,80.36Z"/><path class="b" d="M84.31,82.12a1.2,1.2,0,0,0,.37-.9,1.158,1.158,0,0,0-.37-.86,1.243,1.243,0,0,0-1.75,0,1.174,1.174,0,0,0-.36.86,1.221,1.221,0,0,0,.36.9,1.243,1.243,0,0,0,1.75,0Z"/><path class="b" d="M35.65,86.62a1.158,1.158,0,0,0-.37.86,1.2,1.2,0,0,0,.37.9,1.23,1.23,0,0,0,.89.36,1.174,1.174,0,0,0,.86-.36,1.221,1.221,0,0,0,.36-.9,1.229,1.229,0,0,0-1.22-1.22A1.23,1.23,0,0,0,35.65,86.62Z"/><path class="c" d="M42.21,42.99a1.9,1.9,0,0,0,.61,1.35l5.02,5.02a1.9,1.9,0,0,0,1.35.62,1.687,1.687,0,0,0,1.29-.5,1.775,1.775,0,0,0,.48-1.3,1.913,1.913,0,0,0-.6-1.34l-5.02-5.02a1.865,1.865,0,0,0-1.35-.6,1.727,1.727,0,0,0-1.27.52A1.627,1.627,0,0,0,42.21,42.99Z"/><path class="b" d="M50.74,80a1.221,1.221,0,0,0-.9.36,1.174,1.174,0,0,0-.36.86,1.23,1.23,0,0,0,1.26,1.26,1.174,1.174,0,0,0,.86-.36,1.221,1.221,0,0,0,.36-.9A1.229,1.229,0,0,0,50.74,80Z"/><path class="b" d="M76.86,92.5a1.241,1.241,0,0,0-.9.35,1.141,1.141,0,0,0-.36.85,1.255,1.255,0,0,0,.36.91,1.2,1.2,0,0,0,.9.37,1.158,1.158,0,0,0,.86-.37,1.255,1.255,0,0,0,.36-.91,1.141,1.141,0,0,0-.36-.85A1.193,1.193,0,0,0,76.86,92.5Z"/><path class="b" d="M90.14,71.18H37.34a1.423,1.423,0,0,0-1.02.4,1.436,1.436,0,0,0,0,2.03,1.407,1.407,0,0,0,1.02.41h52.8a1.407,1.407,0,0,0,1.02-.41,1.436,1.436,0,0,0,0-2.03A1.423,1.423,0,0,0,90.14,71.18Z"/><path class="b" d="M90.16,86.62a1.174,1.174,0,0,0-.36.86,1.23,1.23,0,0,0,1.26,1.26,1.174,1.174,0,0,0,.86-.36,1.221,1.221,0,0,0,.36-.9,1.229,1.229,0,0,0-1.22-1.22A1.221,1.221,0,0,0,90.16,86.62Z"/><path class="b" d="M81.02,88.38a1.221,1.221,0,0,0,.36-.9,1.174,1.174,0,0,0-.36-.86,1.256,1.256,0,0,0-1.76,0,1.174,1.174,0,0,0-.36.86,1.221,1.221,0,0,0,.36.9,1.256,1.256,0,0,0,1.76,0Z"/><path class="b" d="M86.87,92.85a1.125,1.125,0,0,0-.37.85,1.236,1.236,0,0,0,.37.91,1.212,1.212,0,0,0,.89.37,1.158,1.158,0,0,0,.86-.37,1.255,1.255,0,0,0,.36-.91,1.141,1.141,0,0,0-.36-.85,1.193,1.193,0,0,0-.86-.35A1.25,1.25,0,0,0,86.87,92.85Z"/><path class="c" d="M35.92,63.9h7.1a1.976,1.976,0,0,0,1.4-.52,1.6,1.6,0,0,0,.54-1.26,1.678,1.678,0,0,0-.55-1.25,1.924,1.924,0,0,0-1.39-.53h-7.1a1.915,1.915,0,0,0-1.37.52,1.718,1.718,0,0,0,0,2.52A1.915,1.915,0,0,0,35.92,63.9Z"/><path class="b" d="M72.54,80a1.23,1.23,0,0,0-.89.36,1.158,1.158,0,0,0-.37.86,1.2,1.2,0,0,0,.37.9,1.23,1.23,0,0,0,.89.36,1.246,1.246,0,0,0,1.24-1.26,1.158,1.158,0,0,0-.37-.86A1.208,1.208,0,0,0,72.54,80Z"/><path class="c" d="M62.52,33.55A1.915,1.915,0,0,0,62,34.92v7.1a1.976,1.976,0,0,0,.52,1.4,1.659,1.659,0,0,0,1.26.56,1.737,1.737,0,0,0,1.26-.57,1.942,1.942,0,0,0,.52-1.39v-7.1a1.915,1.915,0,0,0-.52-1.37,1.718,1.718,0,0,0-2.52,0Z"/></svg>