<svg xmlns="http://www.w3.org/2000/svg" viewBox="0 0 128 128"><defs><style>.a{fill:#0000;}.b{fill:none;}.c{fill:#fff;}</style></defs><rect class="a" x="-237" y="-341" width="2450" height="2182"/><path class="b" d="M58.6,64.1a5.213,5.213,0,0,0,.74,2.72,5.651,5.651,0,0,0,1.97,1.98,5.369,5.369,0,0,0,5.44,0,5.651,5.651,0,0,0,1.97-1.98,5.369,5.369,0,0,0,0-5.44,5.651,5.651,0,0,0-1.97-1.98,5.369,5.369,0,0,0-5.44,0,5.651,5.651,0,0,0-1.97,1.98A5.213,5.213,0,0,0,58.6,64.1Z"/><path class="c" d="M56.99,60.01a8.09,8.09,0,0,0,0,8.18,8.509,8.509,0,0,0,2.96,2.96,8.053,8.053,0,0,0,8.16,0,8.509,8.509,0,0,0,2.96-2.96,8.09,8.09,0,0,0,0-8.18,8.509,8.509,0,0,0-2.96-2.96,8.053,8.053,0,0,0-8.16,0A8.509,8.509,0,0,0,56.99,60.01Zm4.32-.61a5.369,5.369,0,0,1,5.44,0,5.651,5.651,0,0,1,1.97,1.98,5.369,5.369,0,0,1,0,5.44,5.651,5.651,0,0,1-1.97,1.98,5.369,5.369,0,0,1-5.44,0,5.651,5.651,0,0,1-1.97-1.98,5.369,5.369,0,0,1,0-5.44A5.651,5.651,0,0,1,61.31,59.4Z"/><path class="c" d="M47.46,63a1.56,1.56,0,0,0,1.1,2.66h3.18a1.56,1.56,0,0,0,0-3.12H48.56A1.5,1.5,0,0,0,47.46,63Z"/><path class="c" d="M72.73,71.26a1.5,1.5,0,0,0-1.55,1.55,1.482,1.482,0,0,0,.44,1.09l2.3,2.3a1.447,1.447,0,0,0,1.09.43,1.589,1.589,0,0,0,1.11-.45,1.482,1.482,0,0,0,.44-1.09,1.55,1.55,0,0,0-.44-1.11l-2.3-2.28A1.482,1.482,0,0,0,72.73,71.26Z"/><path class="c" d="M53.04,76.61a1.459,1.459,0,0,0,1.1-.43l2.28-2.28a1.447,1.447,0,0,0,.46-1.09,1.55,1.55,0,0,0-.44-1.11,1.595,1.595,0,0,0-2.2,0l-2.28,2.26a1.512,1.512,0,0,0-.46,1.11,1.482,1.482,0,0,0,.44,1.09A1.529,1.529,0,0,0,53.04,76.61Z"/><path class="c" d="M79.52,62.54h-3.2a1.56,1.56,0,0,0,0,3.12h3.2a1.51,1.51,0,0,0,1.09-.46,1.522,1.522,0,0,0,0-2.2A1.51,1.51,0,0,0,79.52,62.54Z"/><path class="c" d="M65.14,80.73a1.51,1.51,0,0,0,.46-1.09V76.42a1.51,1.51,0,0,0-.46-1.09,1.522,1.522,0,0,0-2.2,0,1.51,1.51,0,0,0-.46,1.09v3.22a1.51,1.51,0,0,0,.46,1.09,1.522,1.522,0,0,0,2.2,0Z"/><path class="c" d="M75.01,51.58a1.482,1.482,0,0,0-1.09.44l-2.3,2.3a1.482,1.482,0,0,0-.44,1.09,1.55,1.55,0,0,0,.44,1.11,1.589,1.589,0,0,0,1.11.45,1.477,1.477,0,0,0,1.11-.45l2.28-2.28a1.562,1.562,0,0,0,.44-1.12,1.493,1.493,0,0,0-.44-1.1A1.55,1.55,0,0,0,75.01,51.58Z"/><path class="c" d="M54.16,52.02a1.428,1.428,0,0,0-1.08-.44,1.493,1.493,0,0,0-1.1.44,1.458,1.458,0,0,0-.46,1.1,1.493,1.493,0,0,0,.44,1.1l2.28,2.3a1.57,1.57,0,0,0,2.18,0,1.458,1.458,0,0,0,.46-1.1,1.493,1.493,0,0,0-.44-1.1Z"/><path class="c" d="M64.04,47a1.487,1.487,0,0,0-1.1.47,1.51,1.51,0,0,0-.46,1.09v3.22a1.51,1.51,0,0,0,.46,1.09,1.522,1.522,0,0,0,2.2,0,1.51,1.51,0,0,0,.46-1.09V48.56a1.51,1.51,0,0,0-.46-1.09A1.487,1.487,0,0,0,64.04,47Z"/></svg>