<svg xmlns="http://www.w3.org/2000/svg" viewBox="0 0 128 128"><defs><style>.a{fill:#0000;}.b{fill:#ff0;}.c{fill:#fff;}</style></defs><rect class="a" x="-389" y="-1405" width="2450" height="2182"/><path class="b" d="M53.46,50.4a1.579,1.579,0,0,0-1.11-.51,1.429,1.429,0,0,0-1.05.41,1.32,1.32,0,0,0-.42,1.04,1.7,1.7,0,0,0,.52,1.14l2.42,2.4a1.6,1.6,0,0,0,1.13.54A1.331,1.331,0,0,0,56,55a1.361,1.361,0,0,0,.4-1.05,1.637,1.637,0,0,0-.52-1.13Z"/><path class="b" d="M65.11,51.19a1.6,1.6,0,0,0,.43-1.15V46.62a1.622,1.622,0,0,0-.43-1.17,1.4,1.4,0,0,0-2.06,0,1.622,1.622,0,0,0-.43,1.17v3.42a1.665,1.665,0,0,0,.43,1.17,1.288,1.288,0,0,0,1.03.45A1.445,1.445,0,0,0,65.11,51.19Z"/><path class="b" d="M56.67,58.76a8.235,8.235,0,0,0-1.17,4.3,8.074,8.074,0,0,0,.14,1.5,8.943,8.943,0,0,0,.38,1.4H72.14a8.943,8.943,0,0,0,.38-1.4,8.074,8.074,0,0,0,.14-1.5,8.235,8.235,0,0,0-1.17-4.3,8.933,8.933,0,0,0-3.12-3.13,8.45,8.45,0,0,0-8.58,0A8.933,8.933,0,0,0,56.67,58.76Z"/><path class="b" d="M81.71,61.65a1.622,1.622,0,0,0-1.17-.43H77.12a1.665,1.665,0,0,0-1.17.43,1.288,1.288,0,0,0-.45,1.03,1.445,1.445,0,0,0,.47,1.03,1.6,1.6,0,0,0,1.15.43h3.42a1.622,1.622,0,0,0,1.17-.43,1.4,1.4,0,0,0,0-2.06Z"/><path class="c" d="M46.32,75.86a1.062,1.062,0,0,0,.78.32H78.7a1.062,1.062,0,0,0,.78-.32,1.16,1.16,0,0,0,0-1.6,1.062,1.062,0,0,0-.78-.32H47.1a1.062,1.062,0,0,0-.78.32,1.16,1.16,0,0,0,0,1.6Z"/><path class="b" d="M75.82,49.89a1.59,1.59,0,0,0-1.12.51l-2.42,2.42a1.68,1.68,0,0,0-.53,1.13A1.3,1.3,0,0,0,72.16,55a1.443,1.443,0,0,0,1.06.41,1.56,1.56,0,0,0,1.12-.53l2.42-2.4a1.649,1.649,0,0,0,.51-1.13,1.429,1.429,0,0,0-.41-1.05A1.378,1.378,0,0,0,75.82,49.89Z"/><path class="b" d="M46.45,61.65a1.4,1.4,0,0,0,0,2.06,1.622,1.622,0,0,0,1.17.43h3.42a1.665,1.665,0,0,0,1.17-.43,1.288,1.288,0,0,0,.45-1.03,1.445,1.445,0,0,0-.47-1.03,1.6,1.6,0,0,0-1.15-.43H47.62A1.622,1.622,0,0,0,46.45,61.65Z"/><path class="c" d="M81.84,68.24a1.062,1.062,0,0,0-.78-.32H49.46a1.062,1.062,0,0,0-.78.32,1.16,1.16,0,0,0,0,1.6,1.062,1.062,0,0,0,.78.32h31.6a1.062,1.062,0,0,0,.78-.32,1.16,1.16,0,0,0,0-1.6Z"/><path class="c" d="M81.06,79.96H49.46a1.062,1.062,0,0,0-.78.32,1.16,1.16,0,0,0,0,1.6,1.062,1.062,0,0,0,.78.32h31.6a1.062,1.062,0,0,0,.78-.32,1.16,1.16,0,0,0,0-1.6A1.062,1.062,0,0,0,81.06,79.96Z"/></svg>