<svg xmlns="http://www.w3.org/2000/svg" viewBox="0 0 128 128"><defs><style>.a{fill:#0000;}.b{fill:none;}.c{fill:#fff;}</style></defs><rect class="a" x="-1909" y="-189" width="2450" height="2182"/><path class="b" d="M68.8,72.39a5.519,5.519,0,0,0,1.06-3.31,5.579,5.579,0,0,0-.78-2.91,5.983,5.983,0,0,0-2.1-2.1,5.718,5.718,0,0,0-5.8,0,5.983,5.983,0,0,0-2.1,2.1,5.579,5.579,0,0,0-.78,2.91,5.519,5.519,0,0,0,1.06,3.31,5.8,5.8,0,0,0,1.631,1.53h6.178A5.8,5.8,0,0,0,68.8,72.39Z"/><path class="c" d="M53.82,60.88a1.637,1.637,0,0,0,1.13.52A1.361,1.361,0,0,0,56,61a1.424,1.424,0,0,0,.4-1.07,1.637,1.637,0,0,0-.52-1.13l-2.42-2.42a1.539,1.539,0,0,0-1.11-.5,1.467,1.467,0,0,0-1.05.42,1.3,1.3,0,0,0-.43,1.03,1.569,1.569,0,0,0,.53,1.13Z"/><path class="c" d="M73.22,61.39a1.59,1.59,0,0,0,1.12-.51l2.42-2.42a1.59,1.59,0,0,0,.51-1.12,1.378,1.378,0,0,0-.41-1.04,1.348,1.348,0,0,0-1.04-.43,1.59,1.59,0,0,0-1.12.51L72.28,58.8a1.688,1.688,0,0,0-.53,1.14A1.313,1.313,0,0,0,72.16,61,1.48,1.48,0,0,0,73.22,61.39Z"/><path class="c" d="M75.95,67.64a1.282,1.282,0,0,0-.45,1.04,1.445,1.445,0,0,0,.47,1.03,1.6,1.6,0,0,0,1.15.43h3.42a1.622,1.622,0,0,0,1.17-.43,1.415,1.415,0,0,0,0-2.07,1.646,1.646,0,0,0-1.17-.42H77.12A1.69,1.69,0,0,0,75.95,67.64Z"/><path class="c" d="M64.08,57.66a1.429,1.429,0,0,0,1.03-.48,1.631,1.631,0,0,0,.43-1.16V52.6a1.6,1.6,0,0,0-.43-1.15,1.4,1.4,0,0,0-2.06,0,1.6,1.6,0,0,0-.43,1.15v3.42a1.665,1.665,0,0,0,.43,1.17A1.35,1.35,0,0,0,64.08,57.66Z"/><path class="c" d="M66.1,74.46h4.72c.142-.169.25-.361.376-.54H67.169A5.67,5.67,0,0,1,66.1,74.46Z"/><path class="c" d="M62.06,74.46a5.67,5.67,0,0,1-1.069-.54H56.964c.127.179.234.371.376.54Z"/><path class="c" d="M45.56,76.8H82.6a1.553,1.553,0,0,0,1.1-.43,1.35,1.35,0,0,0,0-2.03,1.575,1.575,0,0,0-1.1-.42H71.2c-.126.179-.234.371-.376.54H66.1a5.67,5.67,0,0,0,1.069-.54H60.991a5.67,5.67,0,0,0,1.069.54H57.34c-.142-.169-.249-.361-.376-.54H45.56a1.575,1.575,0,0,0-1.1.42,1.35,1.35,0,0,0,0,2.03A1.553,1.553,0,0,0,45.56,76.8Z"/><path class="c" d="M59.36,72.39a5.519,5.519,0,0,1-1.06-3.31,5.579,5.579,0,0,1,.78-2.91,5.983,5.983,0,0,1,2.1-2.1,5.718,5.718,0,0,1,5.8,0,5.983,5.983,0,0,1,2.1,2.1,5.579,5.579,0,0,1,.78,2.91,5.519,5.519,0,0,1-1.06,3.31,5.8,5.8,0,0,1-1.631,1.53H71.2a8.176,8.176,0,0,0,1.044-1.94,8.456,8.456,0,0,0,.5-2.9,8.3,8.3,0,0,0-1.18-4.35,9.111,9.111,0,0,0-3.15-3.16,8.473,8.473,0,0,0-8.66,0,9.111,9.111,0,0,0-3.15,3.16,8.3,8.3,0,0,0-1.18,4.35,8.456,8.456,0,0,0,.5,2.9,8.176,8.176,0,0,0,1.044,1.94h4.027A5.8,5.8,0,0,1,59.36,72.39Z"/><path class="c" d="M47.62,70.14h3.42a1.665,1.665,0,0,0,1.17-.43,1.288,1.288,0,0,0,.45-1.03,1.432,1.432,0,0,0-.47-1.04,1.618,1.618,0,0,0-1.15-.42H47.62a1.646,1.646,0,0,0-1.17.42,1.415,1.415,0,0,0,0,2.07A1.622,1.622,0,0,0,47.62,70.14Z"/></svg>