<svg xmlns="http://www.w3.org/2000/svg" viewBox="0 0 128 128"><defs><style>.a{fill:#0000;}.b{fill:none;}.c{fill:#fff;}</style></defs><rect class="a" x="-389" y="-949" width="2450" height="2182"/><path class="b" d="M73.46,67.59a10.272,10.272,0,0,0-.08-7.85,10.807,10.807,0,0,0-2.25-3.32,10.41,10.41,0,0,0-3.32-2.25,10.43,10.43,0,0,0-8.06,0,10.6,10.6,0,0,0-5.58,5.57,10.048,10.048,0,0,0-.81,4.02,9.93,9.93,0,0,0,.74,3.83,10.381,10.381,0,0,0,2.05,3.18A10.257,10.257,0,0,0,57.8,72.18H69.758a10.257,10.257,0,0,0,1.652-1.41A10.381,10.381,0,0,0,73.46,67.59Z"/><path class="c" d="M92.12,72.18H74.813c-.215.273-.436.543-.673.8H68.4a10.059,10.059,0,0,0,1.358-.8H57.8a10.059,10.059,0,0,0,1.358.8H53.4c-.234-.257-.453-.527-.666-.8H39.32a1.423,1.423,0,0,0-1.02.4,1.324,1.324,0,0,0-.42,1,1.348,1.348,0,0,0,.42,1.02,1.423,1.423,0,0,0,1.02.4h52.8a1.423,1.423,0,0,0,1.02-.4,1.348,1.348,0,0,0,.42-1.02,1.324,1.324,0,0,0-.42-1A1.423,1.423,0,0,0,92.12,72.18Z"/><path class="c" d="M59.16,72.98a10.059,10.059,0,0,1-1.358-.8H52.734c.213.273.432.543.666.8Z"/><path class="c" d="M63.78,44.96a1.737,1.737,0,0,0,1.26-.57,1.915,1.915,0,0,0,.52-1.37v-7.1a1.906,1.906,0,0,0-.52-1.38,1.74,1.74,0,0,0-2.52,0A1.906,1.906,0,0,0,62,35.92v7.1a1.986,1.986,0,0,0,.52,1.39A1.583,1.583,0,0,0,63.78,44.96Z"/><path class="c" d="M56.15,70.77a10.381,10.381,0,0,1-2.05-3.18,9.93,9.93,0,0,1-.74-3.83,10.048,10.048,0,0,1,.81-4.02,10.6,10.6,0,0,1,5.58-5.57,10.43,10.43,0,0,1,8.06,0,10.41,10.41,0,0,1,3.32,2.25,10.807,10.807,0,0,1,2.25,3.32,10.272,10.272,0,0,1,.08,7.85,10.381,10.381,0,0,1-2.05,3.18,10.257,10.257,0,0,1-1.652,1.41h5.055a13.656,13.656,0,0,0,1.957-3.39,13.833,13.833,0,0,0-.14-10.42,14.274,14.274,0,0,0-7.47-7.48,13.847,13.847,0,0,0-10.77,0,14.063,14.063,0,0,0-4.45,3.02,14.407,14.407,0,0,0-3.02,4.46,13.708,13.708,0,0,0-.14,10.42,14.064,14.064,0,0,0,1.954,3.39H57.8A10.257,10.257,0,0,1,56.15,70.77Z"/><path class="c" d="M42.21,43.98a1.914,1.914,0,0,0,.61,1.36l5.02,5.02a1.925,1.925,0,0,0,1.35.6,1.687,1.687,0,0,0,1.29-.5,1.71,1.71,0,0,0,.48-1.28,1.982,1.982,0,0,0-.6-1.36L45.34,42.8a1.894,1.894,0,0,0-1.35-.58,1.766,1.766,0,0,0-1.27.5A1.639,1.639,0,0,0,42.21,43.98Z"/><path class="c" d="M78.37,50.95a1.889,1.889,0,0,0,1.35-.59l5.02-5.02a1.865,1.865,0,0,0,.6-1.35,1.727,1.727,0,0,0-.52-1.27,1.627,1.627,0,0,0-1.25-.51,2,2,0,0,0-1.37.59l-5,5.02a1.962,1.962,0,0,0-.62,1.37,1.624,1.624,0,0,0,.5,1.27A1.755,1.755,0,0,0,78.37,50.95Z"/><path class="c" d="M68.4,72.98h5.74c.237-.257.458-.527.673-.8H69.758A10.059,10.059,0,0,1,68.4,72.98Z"/><path class="c" d="M35.44,84.92h52.8a1.42,1.42,0,1,0,0-2.84H35.44a1.407,1.407,0,0,0-1.02.41,1.424,1.424,0,0,0,0,2.02A1.407,1.407,0,0,0,35.44,84.92Z"/><path class="c" d="M91.62,61.34H84.54a1.976,1.976,0,0,0-1.4.52,1.659,1.659,0,0,0-.56,1.26,1.748,1.748,0,0,0,.57,1.25,1.924,1.924,0,0,0,1.39.53h7.08a1.942,1.942,0,0,0,1.39-.52,1.718,1.718,0,0,0,0-2.52A1.942,1.942,0,0,0,91.62,61.34Z"/><path class="c" d="M35.92,64.9h7.1a1.976,1.976,0,0,0,1.4-.52,1.6,1.6,0,0,0,.54-1.26,1.67,1.67,0,0,0-.55-1.26,1.942,1.942,0,0,0-1.39-.52h-7.1a1.915,1.915,0,0,0-1.37.52,1.707,1.707,0,0,0,0,2.51A1.9,1.9,0,0,0,35.92,64.9Z"/><path class="c" d="M92.12,92H39.32a1.407,1.407,0,0,0-1.02.41,1.424,1.424,0,0,0,0,2.02,1.407,1.407,0,0,0,1.02.41h52.8a1.407,1.407,0,0,0,1.02-.41,1.424,1.424,0,0,0,0-2.02A1.407,1.407,0,0,0,92.12,92Z"/></svg>