<svg xmlns="http://www.w3.org/2000/svg" viewBox="0 0 128 128"><defs><style>.a{fill:#0000;}.b{fill:#ff0;}.c{fill:#fff;}</style></defs><rect class="a" x="-389" y="-1253" width="2450" height="2182"/><path class="b" d="M91.62,61.34H84.54a1.976,1.976,0,0,0-1.4.52,1.659,1.659,0,0,0-.56,1.26,1.748,1.748,0,0,0,.57,1.25,1.924,1.924,0,0,0,1.39.53h7.08a1.942,1.942,0,0,0,1.39-.52,1.718,1.718,0,0,0,0-2.52A1.942,1.942,0,0,0,91.62,61.34Z"/><path class="b" d="M43.99,42.22a1.766,1.766,0,0,0-1.27.5,1.639,1.639,0,0,0-.51,1.26,1.914,1.914,0,0,0,.61,1.36l5.02,5.02a1.925,1.925,0,0,0,1.35.6,1.687,1.687,0,0,0,1.29-.5,1.71,1.71,0,0,0,.48-1.28,1.982,1.982,0,0,0-.6-1.36l-5.02-5A1.865,1.865,0,0,0,43.99,42.22Z"/><path class="b" d="M35.92,64.9h7.1a1.976,1.976,0,0,0,1.4-.52,1.6,1.6,0,0,0,.54-1.26,1.67,1.67,0,0,0-.55-1.26,1.942,1.942,0,0,0-1.39-.52h-7.1a1.915,1.915,0,0,0-1.37.52,1.707,1.707,0,0,0,0,2.51A1.9,1.9,0,0,0,35.92,64.9Z"/><path class="c" d="M92.12,92H39.32a1.407,1.407,0,0,0-1.02.41,1.424,1.424,0,0,0,0,2.02,1.407,1.407,0,0,0,1.02.41h52.8a1.407,1.407,0,0,0,1.02-.41,1.424,1.424,0,0,0,0-2.02A1.407,1.407,0,0,0,92.12,92Z"/><path class="b" d="M62.52,34.54A1.906,1.906,0,0,0,62,35.92v7.1a1.986,1.986,0,0,0,.52,1.39,1.583,1.583,0,0,0,1.26.55,1.737,1.737,0,0,0,1.26-.57,1.915,1.915,0,0,0,.52-1.37v-7.1a1.906,1.906,0,0,0-.52-1.38,1.74,1.74,0,0,0-2.52,0Z"/><path class="c" d="M89.25,84.51a1.42,1.42,0,0,0-1.01-2.43H35.44a1.407,1.407,0,0,0-1.02.41,1.424,1.424,0,0,0,0,2.02,1.407,1.407,0,0,0,1.02.41h52.8A1.373,1.373,0,0,0,89.25,84.51Z"/><path class="b" d="M79.72,50.36l5.02-5.02a1.865,1.865,0,0,0,.6-1.35,1.727,1.727,0,0,0-.52-1.27,1.627,1.627,0,0,0-1.25-.51,1.972,1.972,0,0,0-1.37.61l-5,5a1.962,1.962,0,0,0-.62,1.37,1.624,1.624,0,0,0,.5,1.27,1.687,1.687,0,0,0,1.29.5A1.925,1.925,0,0,0,79.72,50.36Z"/><path class="b" d="M50.31,66.69a13.163,13.163,0,0,0,.97,2.69H76.26a13.613,13.613,0,0,0,.98-2.69,12.037,12.037,0,0,0,.36-2.95,13.211,13.211,0,0,0-1.09-5.34,14.29,14.29,0,0,0-2.99-4.41,14.1,14.1,0,0,0-4.4-3,13.626,13.626,0,0,0-10.68,0,14.215,14.215,0,0,0-4.41,3,14.067,14.067,0,0,0-2.99,4.41,13.322,13.322,0,0,0-1.08,5.34A12.381,12.381,0,0,0,50.31,66.69Z"/><path class="c" d="M92.12,72.18H39.32a1.423,1.423,0,0,0-1.02.4,1.324,1.324,0,0,0-.42,1,1.348,1.348,0,0,0,.42,1.02,1.423,1.423,0,0,0,1.02.4h52.8a1.423,1.423,0,0,0,1.02-.4,1.348,1.348,0,0,0,.42-1.02,1.324,1.324,0,0,0-.42-1A1.423,1.423,0,0,0,92.12,72.18Z"/></svg>