<svg xmlns="http://www.w3.org/2000/svg" viewBox="0 0 128 128"><defs><style>.a{fill:#0000;}.b{fill:#ff0;}</style></defs><rect class="a" x="-237" y="-493" width="2450" height="2182"/><path class="b" d="M76.26,49.52a1.887,1.887,0,0,0,.54,1.36,1.937,1.937,0,0,0,1.37.55,1.829,1.829,0,0,0,1.37-.55l3.96-3.96a2.008,2.008,0,0,0,0-2.74,1.931,1.931,0,0,0-2.72,0L76.8,48.16A1.887,1.887,0,0,0,76.26,49.52Z"/><path class="b" d="M80.78,83.58a1.817,1.817,0,0,0,1.36.55,1.945,1.945,0,0,0,1.36-3.29L79.52,76.9a1.931,1.931,0,0,0-2.72,0,1.887,1.887,0,0,0-.54,1.36,1.82,1.82,0,0,0,.54,1.34Z"/><path class="b" d="M65.74,84.24A1.982,1.982,0,0,0,63.8,82.3a1.828,1.828,0,0,0-1.35.58,1.879,1.879,0,0,0-.57,1.36V89.8a1.869,1.869,0,0,0,.57,1.37,1.845,1.845,0,0,0,1.35.57,1.879,1.879,0,0,0,1.36-.57,1.851,1.851,0,0,0,.58-1.37Z"/><path class="b" d="M89.68,65.8a1.879,1.879,0,0,0,1.36-.57,1.828,1.828,0,0,0,.58-1.35,1.982,1.982,0,0,0-1.94-1.94H84.14a1.982,1.982,0,0,0-1.94,1.94,1.828,1.828,0,0,0,.58,1.35,1.879,1.879,0,0,0,1.36.57Z"/><path class="b" d="M51.92,68.85a13.154,13.154,0,0,0,6.89,6.9,12.733,12.733,0,0,0,9.94,0,13.219,13.219,0,0,0,6.9-6.9,12.782,12.782,0,0,0,0-9.96,13.219,13.219,0,0,0-6.9-6.9,12.733,12.733,0,0,0-9.94,0,13.154,13.154,0,0,0-6.89,6.9,12.9,12.9,0,0,0,0,9.96Z"/><path class="b" d="M43.54,82.18a1.9,1.9,0,0,0,1.91,1.93,1.829,1.829,0,0,0,1.37-.55l3.94-3.94a1.834,1.834,0,0,0,.57-1.35,1.862,1.862,0,0,0-.53-1.37,2.008,2.008,0,0,0-2.74,0L44.1,80.82A1.853,1.853,0,0,0,43.54,82.18Z"/><path class="b" d="M61.88,37.94V43.5a1.879,1.879,0,0,0,.57,1.36,1.828,1.828,0,0,0,1.35.58,1.982,1.982,0,0,0,1.94-1.94V37.94A1.982,1.982,0,0,0,63.8,36a1.828,1.828,0,0,0-1.35.58A1.879,1.879,0,0,0,61.88,37.94Z"/><path class="b" d="M48.06,50.88a1.92,1.92,0,0,0,3.27-1.36,1.809,1.809,0,0,0-.53-1.36l-3.94-3.98a1.868,1.868,0,0,0-1.35-.55,1.829,1.829,0,0,0-1.37.55,1.864,1.864,0,0,0-.56,1.37,1.832,1.832,0,0,0,.54,1.35Z"/><path class="b" d="M37.94,65.8h5.54a1.879,1.879,0,0,0,1.36-.57,1.828,1.828,0,0,0,.58-1.35,1.982,1.982,0,0,0-1.94-1.94H37.94a1.851,1.851,0,0,0-1.37.58A1.879,1.879,0,0,0,36,63.88a1.845,1.845,0,0,0,.57,1.35A1.869,1.869,0,0,0,37.94,65.8Z"/></svg>