<svg xmlns="http://www.w3.org/2000/svg" viewBox="0 0 128 128"><defs><style>.a{fill:#0000;}.b{fill:none;}.c{fill:#fff;}</style></defs><rect class="a" x="-389" y="-493" width="2450" height="2182"/><path class="b" d="M68.8,66.39a5.519,5.519,0,0,0,1.06-3.31,5.6,5.6,0,0,0-.78-2.9,5.87,5.87,0,0,0-2.1-2.1,5.781,5.781,0,0,0-5.8,0,5.87,5.87,0,0,0-2.1,2.1,5.6,5.6,0,0,0-.78,2.9,5.519,5.519,0,0,0,1.06,3.31,5.911,5.911,0,0,0,1.618,1.53h6.2A5.911,5.911,0,0,0,68.8,66.39Z"/><path class="c" d="M69.98,74.88a.814.814,0,0,0,.24-.6.819.819,0,0,0-.82-.82.814.814,0,0,0-.6.24.79.79,0,0,0-.24.58.82.82,0,0,0,.84.84A.79.79,0,0,0,69.98,74.88Z"/><path class="c" d="M52.35,49.89a1.429,1.429,0,0,0-1.05.41,1.32,1.32,0,0,0-.42,1.04,1.628,1.628,0,0,0,.52,1.12l2.42,2.42a1.68,1.68,0,0,0,1.13.53A1.3,1.3,0,0,0,56,55a1.411,1.411,0,0,0,.4-1.06,1.628,1.628,0,0,0-.52-1.12L53.46,50.4A1.579,1.579,0,0,0,52.35,49.89Z"/><path class="c" d="M66.1,68.48a5.8,5.8,0,0,0,1.082-.56h-6.2a5.8,5.8,0,0,0,1.082.56H57.34c-.145-.176-.256-.374-.385-.56H48.24a1.062,1.062,0,0,0-.78.32,1.16,1.16,0,0,0,0,1.6,1.062,1.062,0,0,0,.78.32h31.6a1.062,1.062,0,0,0,.78-.32,1.16,1.16,0,0,0,0-1.6,1.062,1.062,0,0,0-.78-.32H71.205c-.129.186-.24.384-.385.56Z"/><path class="c" d="M47.54,77.26a.814.814,0,0,0-.6.24.79.79,0,0,0-.24.58.82.82,0,0,0,.84.84.79.79,0,0,0,.58-.24.814.814,0,0,0,.24-.6.819.819,0,0,0-.82-.82Z"/><path class="c" d="M66.1,68.48h4.72c.145-.176.256-.374.385-.56H67.182A5.8,5.8,0,0,1,66.1,68.48Z"/><path class="c" d="M55.42,63.08a8.086,8.086,0,0,0,1.535,4.84h4.023a5.911,5.911,0,0,1-1.618-1.53,5.519,5.519,0,0,1-1.06-3.31,5.6,5.6,0,0,1,.78-2.9,5.87,5.87,0,0,1,2.1-2.1,5.781,5.781,0,0,1,5.8,0,5.87,5.87,0,0,1,2.1,2.1,5.6,5.6,0,0,1,.78,2.9,5.519,5.519,0,0,1-1.06,3.31,5.911,5.911,0,0,1-1.618,1.53h4.023a8.086,8.086,0,0,0,1.535-4.84,8.3,8.3,0,0,0-1.18-4.35,9.032,9.032,0,0,0-3.15-3.15,8.534,8.534,0,0,0-8.66,0,9.032,9.032,0,0,0-3.15,3.15A8.3,8.3,0,0,0,55.42,63.08Z"/><path class="c" d="M56.74,74.88a.814.814,0,0,0,.24-.6.819.819,0,0,0-.82-.82.814.814,0,0,0-.6.24.79.79,0,0,0-.24.58.82.82,0,0,0,.84.84A.79.79,0,0,0,56.74,74.88Z"/><path class="c" d="M65.98,82.46a.814.814,0,0,0,.24-.6.819.819,0,0,0-.82-.82.814.814,0,0,0-.6.24.79.79,0,0,0-.24.58.82.82,0,0,0,.84.84A.79.79,0,0,0,65.98,82.46Z"/><path class="c" d="M52.74,82.46a.814.814,0,0,0,.24-.6.819.819,0,0,0-.82-.82.814.814,0,0,0-.6.24.79.79,0,0,0-.24.58.82.82,0,0,0,.84.84A.79.79,0,0,0,52.74,82.46Z"/><path class="c" d="M61.36,78.68a.814.814,0,0,0,.24-.6.819.819,0,0,0-.82-.82.814.814,0,0,0-.6.24.79.79,0,0,0-.24.58.82.82,0,0,0,.84.84A.79.79,0,0,0,61.36,78.68Z"/><path class="c" d="M63.05,45.45a1.622,1.622,0,0,0-.43,1.17v3.42a1.665,1.665,0,0,0,.43,1.17,1.288,1.288,0,0,0,1.03.45,1.445,1.445,0,0,0,1.03-.47,1.6,1.6,0,0,0,.43-1.15V46.62a1.622,1.622,0,0,0-.43-1.17,1.4,1.4,0,0,0-2.06,0Z"/><path class="c" d="M59.36,82.46a.814.814,0,0,0,.24-.6.819.819,0,0,0-.82-.82.814.814,0,0,0-.6.24.79.79,0,0,0-.24.58.82.82,0,0,0,.84.84A.79.79,0,0,0,59.36,82.46Z"/><path class="c" d="M62.78,73.46a.814.814,0,0,0-.6.24.79.79,0,0,0-.24.58.82.82,0,0,0,.84.84.79.79,0,0,0,.58-.24.814.814,0,0,0,.24-.6.819.819,0,0,0-.82-.82Z"/><path class="c" d="M54.74,78.68a.814.814,0,0,0,.24-.6.819.819,0,0,0-.82-.82.814.814,0,0,0-.6.24.79.79,0,0,0-.24.58.82.82,0,0,0,.84.84A.79.79,0,0,0,54.74,78.68Z"/><path class="c" d="M67.98,78.68a.814.814,0,0,0,.24-.6.819.819,0,0,0-.82-.82.814.814,0,0,0-.6.24.79.79,0,0,0-.24.58.82.82,0,0,0,.84.84A.79.79,0,0,0,67.98,78.68Z"/><path class="c" d="M80.04,77.5a.79.79,0,0,0-.24.58.82.82,0,0,0,.84.84.79.79,0,0,0,.58-.24.814.814,0,0,0,.24-.6.819.819,0,0,0-.82-.82A.814.814,0,0,0,80.04,77.5Z"/><path class="c" d="M75.95,61.65a1.288,1.288,0,0,0-.45,1.03,1.445,1.445,0,0,0,.47,1.03,1.6,1.6,0,0,0,1.15.43h3.42a1.622,1.622,0,0,0,1.17-.43,1.4,1.4,0,0,0,0-2.06,1.622,1.622,0,0,0-1.17-.43H77.12A1.665,1.665,0,0,0,75.95,61.65Z"/><path class="c" d="M78.04,81.28a.79.79,0,0,0-.24.58.82.82,0,0,0,.84.84.79.79,0,0,0,.58-.24.814.814,0,0,0,.24-.6.819.819,0,0,0-.82-.82A.814.814,0,0,0,78.04,81.28Z"/><path class="c" d="M72.28,52.82a1.68,1.68,0,0,0-.53,1.13A1.3,1.3,0,0,0,72.16,55a1.411,1.411,0,0,0,1.06.4,1.628,1.628,0,0,0,1.12-.52l2.42-2.42a1.579,1.579,0,0,0,.51-1.11,1.429,1.429,0,0,0-.41-1.05,1.32,1.32,0,0,0-1.04-.42,1.628,1.628,0,0,0-1.12.52Z"/><path class="c" d="M62.06,68.48a5.8,5.8,0,0,1-1.082-.56H56.955c.129.186.24.384.385.56Z"/><path class="c" d="M48.94,73.7a.79.79,0,0,0-.24.58.82.82,0,0,0,.84.84.79.79,0,0,0,.58-.24.814.814,0,0,0,.24-.6.819.819,0,0,0-.82-.82A.814.814,0,0,0,48.94,73.7Z"/><path class="c" d="M76.84,74.28a.819.819,0,0,0-.82-.82.814.814,0,0,0-.6.24.79.79,0,0,0-.24.58.82.82,0,0,0,.84.84.79.79,0,0,0,.58-.24A.814.814,0,0,0,76.84,74.28Z"/><path class="c" d="M46.45,63.71a1.622,1.622,0,0,0,1.17.43h3.42a1.665,1.665,0,0,0,1.17-.43,1.288,1.288,0,0,0,.45-1.03,1.445,1.445,0,0,0-.47-1.03,1.6,1.6,0,0,0-1.15-.43H47.62a1.622,1.622,0,0,0-1.17.43,1.4,1.4,0,0,0,0,2.06Z"/><path class="c" d="M74.6,78.68a.814.814,0,0,0,.24-.6.819.819,0,0,0-.82-.82.814.814,0,0,0-.6.24.79.79,0,0,0-.24.58.82.82,0,0,0,.84.84A.79.79,0,0,0,74.6,78.68Z"/><path class="c" d="M72.6,82.46a.814.814,0,0,0,.24-.6.819.819,0,0,0-.82-.82.814.814,0,0,0-.6.24.79.79,0,0,0-.24.58.82.82,0,0,0,.84.84A.79.79,0,0,0,72.6,82.46Z"/></svg>