<svg xmlns="http://www.w3.org/2000/svg" viewBox="0 0 128 128"><defs><style>.a{fill:#0000;}.b{fill:#ff0;}.c{fill:#fff;}</style></defs><rect class="a" x="-1909" y="-341" width="2450" height="2182"/><path class="b" d="M82.5,51.82l-5.02,5.02a1.925,1.925,0,0,0-.6,1.35,1.687,1.687,0,0,0,.5,1.29,1.741,1.741,0,0,0,1.28.49,1.914,1.914,0,0,0,1.36-.61l5.02-5a1.921,1.921,0,0,0,.6-1.36,1.716,1.716,0,0,0-.52-1.26,1.661,1.661,0,0,0-1.25-.52A1.93,1.93,0,0,0,82.5,51.82Z"/><path class="b" d="M65.33,53.41a1.924,1.924,0,0,0,.53-1.39V44.94a1.924,1.924,0,0,0-.53-1.39,1.707,1.707,0,0,0-2.51,0,1.942,1.942,0,0,0-.52,1.39v7.08a2.013,2.013,0,0,0,.52,1.41,1.583,1.583,0,0,0,1.26.55A1.748,1.748,0,0,0,65.33,53.41Z"/><path class="c" d="M96.57,81.76a1.935,1.935,0,0,0-1.35-.52H32.92a1.935,1.935,0,0,0-1.35.52,1.645,1.645,0,0,0,0,2.49,1.958,1.958,0,0,0,1.35.51h62.3a1.958,1.958,0,0,0,1.35-.51,1.645,1.645,0,0,0,0-2.49Z"/><path class="b" d="M36.22,73.9h7.1a1.976,1.976,0,0,0,1.4-.52,1.6,1.6,0,0,0,.54-1.26,1.765,1.765,0,0,0-.56-1.25,1.889,1.889,0,0,0-1.38-.53h-7.1a1.9,1.9,0,0,0-1.37.53,1.707,1.707,0,0,0,0,2.51A1.915,1.915,0,0,0,36.22,73.9Z"/><path class="b" d="M48.12,59.36a1.962,1.962,0,0,0,1.37.62,1.624,1.624,0,0,0,1.27-.5,1.687,1.687,0,0,0,.5-1.29,1.925,1.925,0,0,0-.6-1.35l-5.02-5.02a1.865,1.865,0,0,0-1.35-.6,1.727,1.727,0,0,0-1.27.52,1.661,1.661,0,0,0-.52,1.25,1.9,1.9,0,0,0,.62,1.37Z"/><path class="b" d="M54.33,63a14.191,14.191,0,0,0-2.99,4.42,13.322,13.322,0,0,0-1.08,5.34,12.507,12.507,0,0,0,.35,2.96,12.8,12.8,0,0,0,.99,2.72H76.54a12.8,12.8,0,0,0,.99-2.72,12.507,12.507,0,0,0,.35-2.96,13.322,13.322,0,0,0-1.08-5.34A14.191,14.191,0,0,0,73.81,63a13.979,13.979,0,0,0-4.41-3,13.692,13.692,0,0,0-10.66,0A13.979,13.979,0,0,0,54.33,63Z"/><path class="b" d="M83.43,70.87a1.589,1.589,0,0,0-.55,1.25,1.737,1.737,0,0,0,.57,1.26,1.915,1.915,0,0,0,1.37.52h7.1a1.906,1.906,0,0,0,1.38-.52,1.728,1.728,0,0,0,0-2.51,1.889,1.889,0,0,0-1.38-.53h-7.1A1.967,1.967,0,0,0,83.43,70.87Z"/></svg>