<svg xmlns="http://www.w3.org/2000/svg" viewBox="0 0 128 128"><defs><style>.a{fill:#0000;}.b{fill:none;}.c{fill:#fff;}</style></defs><rect class="a" x="-1757" y="-1709" width="2450" height="2182"/><path class="b" d="M73.74,76.61a9.93,9.93,0,0,0,.74-3.83,10.121,10.121,0,0,0-.81-4.03,10.5,10.5,0,0,0-2.24-3.32,10.643,10.643,0,0,0-3.32-2.25,10.338,10.338,0,0,0-8.07,0,10.807,10.807,0,0,0-3.32,2.25,10.41,10.41,0,0,0-2.25,3.32,10.121,10.121,0,0,0-.81,4.03,9.93,9.93,0,0,0,.74,3.83,10.262,10.262,0,0,0,3.672,4.57H70.08a10.024,10.024,0,0,0,1.62-1.39A10.465,10.465,0,0,0,73.74,76.61Z"/><path class="c" d="M95.22,81.18h-20.1c-.217.28-.439.556-.677.82H68.68a10.2,10.2,0,0,0,1.4-.82H58.072A10.185,10.185,0,0,0,59.46,82H53.7c-.238-.264-.46-.54-.677-.82H32.92a1.935,1.935,0,0,0-1.35.52,1.645,1.645,0,0,0,0,2.49,1.958,1.958,0,0,0,1.35.51h62.3a1.958,1.958,0,0,0,1.35-.51,1.645,1.645,0,0,0,0-2.49A1.935,1.935,0,0,0,95.22,81.18Z"/><path class="c" d="M64.08,53.98a1.748,1.748,0,0,0,1.25-.57,1.924,1.924,0,0,0,.53-1.39V44.94a1.924,1.924,0,0,0-.53-1.39,1.707,1.707,0,0,0-2.51,0,1.942,1.942,0,0,0-.52,1.39v7.08a2.013,2.013,0,0,0,.52,1.41A1.583,1.583,0,0,0,64.08,53.98Z"/><path class="c" d="M44.29,51.22a1.727,1.727,0,0,0-1.27.52A1.672,1.672,0,0,0,42.5,53a1.849,1.849,0,0,0,.62,1.36l5,5a1.962,1.962,0,0,0,1.37.62,1.624,1.624,0,0,0,1.27-.5,1.687,1.687,0,0,0,.5-1.29,1.925,1.925,0,0,0-.6-1.35l-5.02-5.02A1.865,1.865,0,0,0,44.29,51.22Z"/><path class="c" d="M68.68,82h5.76c.238-.264.46-.54.677-.82H70.08A10.2,10.2,0,0,1,68.68,82Z"/><path class="c" d="M78.66,59.97a1.914,1.914,0,0,0,1.36-.61l5.02-5a1.865,1.865,0,0,0,.6-1.35,1.727,1.727,0,0,0-.52-1.27,1.661,1.661,0,0,0-1.25-.52,1.93,1.93,0,0,0-1.37.6l-5.02,5.02a1.934,1.934,0,0,0-.6,1.36,1.635,1.635,0,0,0,.5,1.28A1.741,1.741,0,0,0,78.66,59.97Z"/><path class="c" d="M36.22,73.9h7.1a1.976,1.976,0,0,0,1.4-.52,1.6,1.6,0,0,0,.54-1.26,1.765,1.765,0,0,0-.56-1.25,1.889,1.889,0,0,0-1.38-.53h-7.1a1.9,1.9,0,0,0-1.37.53,1.707,1.707,0,0,0,0,2.51A1.915,1.915,0,0,0,36.22,73.9Z"/><path class="c" d="M83.43,70.87a1.589,1.589,0,0,0-.55,1.25,1.737,1.737,0,0,0,.57,1.26,1.915,1.915,0,0,0,1.37.52h7.1a1.906,1.906,0,0,0,1.38-.52,1.728,1.728,0,0,0,0-2.51,1.889,1.889,0,0,0-1.38-.53h-7.1A1.967,1.967,0,0,0,83.43,70.87Z"/><path class="c" d="M59.46,82a10.185,10.185,0,0,1-1.388-.82H53.023c.217.28.439.556.677.82Z"/><path class="c" d="M56.45,79.79a10.381,10.381,0,0,1-2.05-3.18,9.93,9.93,0,0,1-.74-3.83,10.121,10.121,0,0,1,.81-4.03,10.41,10.41,0,0,1,2.25-3.32,10.807,10.807,0,0,1,3.32-2.25,10.338,10.338,0,0,1,8.07,0,10.643,10.643,0,0,1,3.32,2.25,10.5,10.5,0,0,1,2.24,3.32,10.121,10.121,0,0,1,.81,4.03,9.93,9.93,0,0,1-.74,3.83,10.465,10.465,0,0,1-2.04,3.18,10.024,10.024,0,0,1-1.62,1.39h5.037A14.319,14.319,0,0,0,77.06,77.8a13.194,13.194,0,0,0,.96-5.02,13.471,13.471,0,0,0-1.09-5.39,14.274,14.274,0,0,0-7.47-7.48,13.847,13.847,0,0,0-10.77,0,14.063,14.063,0,0,0-4.45,3.02,14.407,14.407,0,0,0-3.02,4.46,13.377,13.377,0,0,0-1.1,5.39,13.194,13.194,0,0,0,.96,5.02,14.284,14.284,0,0,0,1.943,3.38h5.049A10.3,10.3,0,0,1,56.45,79.79Z"/></svg>