<svg xmlns="http://www.w3.org/2000/svg" viewBox="0 0 128 128"><defs><style>.a{fill:#0000;}.b{fill:none;}.c{fill:#fff;}</style></defs><rect class="a" x="-389" y="-1101" width="2450" height="2182"/><path class="b" d="M68.8,66.39a5.519,5.519,0,0,0,1.06-3.31,5.6,5.6,0,0,0-.78-2.9,5.87,5.87,0,0,0-2.1-2.1,5.781,5.781,0,0,0-5.8,0,5.87,5.87,0,0,0-2.1,2.1,5.6,5.6,0,0,0-.78,2.9,5.519,5.519,0,0,0,1.06,3.31,5.911,5.911,0,0,0,1.618,1.53h6.2A5.911,5.911,0,0,0,68.8,66.39Z"/><path class="c" d="M53.46,50.4a1.579,1.579,0,0,0-1.11-.51,1.429,1.429,0,0,0-1.05.41,1.32,1.32,0,0,0-.42,1.04,1.7,1.7,0,0,0,.52,1.14l2.42,2.4a1.6,1.6,0,0,0,1.13.54A1.331,1.331,0,0,0,56,55a1.361,1.361,0,0,0,.4-1.05,1.637,1.637,0,0,0-.52-1.13Z"/><path class="c" d="M81.84,81.88a1.16,1.16,0,0,0,0-1.6,1.062,1.062,0,0,0-.78-.32H49.46a1.062,1.062,0,0,0-.78.32,1.16,1.16,0,0,0,0,1.6,1.062,1.062,0,0,0,.78.32h31.6A1.062,1.062,0,0,0,81.84,81.88Z"/><path class="c" d="M75.5,62.68a1.445,1.445,0,0,0,.47,1.03,1.6,1.6,0,0,0,1.15.43h3.42a1.622,1.622,0,0,0,1.17-.43,1.4,1.4,0,0,0,0-2.06,1.622,1.622,0,0,0-1.17-.43H77.12a1.665,1.665,0,0,0-1.17.43A1.288,1.288,0,0,0,75.5,62.68Z"/><path class="c" d="M75.82,49.89a1.59,1.59,0,0,0-1.12.51l-2.42,2.42a1.68,1.68,0,0,0-.53,1.13A1.3,1.3,0,0,0,72.16,55a1.443,1.443,0,0,0,1.06.41,1.56,1.56,0,0,0,1.12-.53l2.42-2.4a1.649,1.649,0,0,0,.51-1.13,1.429,1.429,0,0,0-.41-1.05A1.378,1.378,0,0,0,75.82,49.89Z"/><path class="c" d="M66.1,68.48a5.8,5.8,0,0,0,1.082-.56h-6.2a5.8,5.8,0,0,0,1.082.56H57.34c-.145-.177-.256-.374-.386-.56H49.46a1.062,1.062,0,0,0-.78.32,1.16,1.16,0,0,0,0,1.6,1.062,1.062,0,0,0,.78.32h31.6a1.062,1.062,0,0,0,.78-.32,1.16,1.16,0,0,0,0-1.6,1.062,1.062,0,0,0-.78-.32H71.206c-.13.186-.241.383-.386.56Z"/><path class="c" d="M66.1,68.48h4.72c.145-.177.256-.374.386-.56H67.182A5.8,5.8,0,0,1,66.1,68.48Z"/><path class="c" d="M65.11,51.19a1.6,1.6,0,0,0,.43-1.15V46.62a1.622,1.622,0,0,0-.43-1.17,1.4,1.4,0,0,0-2.06,0,1.622,1.622,0,0,0-.43,1.17v3.42a1.665,1.665,0,0,0,.43,1.17,1.288,1.288,0,0,0,1.03.45A1.445,1.445,0,0,0,65.11,51.19Z"/><path class="c" d="M56.6,58.73a8.3,8.3,0,0,0-1.18,4.35,8.03,8.03,0,0,0,1.534,4.84h4.024a5.911,5.911,0,0,1-1.618-1.53,5.519,5.519,0,0,1-1.06-3.31,5.6,5.6,0,0,1,.78-2.9,5.87,5.87,0,0,1,2.1-2.1,5.781,5.781,0,0,1,5.8,0,5.87,5.87,0,0,1,2.1,2.1,5.6,5.6,0,0,1,.78,2.9,5.519,5.519,0,0,1-1.06,3.31,5.911,5.911,0,0,1-1.618,1.53h4.024a8.03,8.03,0,0,0,1.534-4.84,8.3,8.3,0,0,0-1.18-4.35,9.032,9.032,0,0,0-3.15-3.15,8.534,8.534,0,0,0-8.66,0A9.032,9.032,0,0,0,56.6,58.73Z"/><path class="c" d="M46.45,61.65a1.4,1.4,0,0,0,0,2.06,1.622,1.622,0,0,0,1.17.43h3.42a1.665,1.665,0,0,0,1.17-.43,1.288,1.288,0,0,0,.45-1.03,1.445,1.445,0,0,0-.47-1.03,1.6,1.6,0,0,0-1.15-.43H47.62A1.622,1.622,0,0,0,46.45,61.65Z"/><path class="c" d="M62.06,68.48a5.8,5.8,0,0,1-1.082-.56H56.954c.13.186.241.383.386.56Z"/><path class="c" d="M46.32,75.86a1.062,1.062,0,0,0,.78.32H78.7a1.062,1.062,0,0,0,.78-.32,1.16,1.16,0,0,0,0-1.6,1.062,1.062,0,0,0-.78-.32H47.1a1.062,1.062,0,0,0-.78.32,1.16,1.16,0,0,0,0,1.6Z"/></svg>