<svg xmlns="http://www.w3.org/2000/svg" viewBox="0 0 128 128"><defs><style>.a{fill:#0000;}.b{fill:#ff0;}</style></defs><rect class="a" x="-237" y="-645" width="2450" height="2182"/><path class="b" d="M71.07,68.19a8.09,8.09,0,0,0,0-8.18,8.509,8.509,0,0,0-2.96-2.96,8.053,8.053,0,0,0-8.16,0,8.509,8.509,0,0,0-2.96,2.96,8.09,8.09,0,0,0,0,8.18,8.509,8.509,0,0,0,2.96,2.96,8.053,8.053,0,0,0,8.16,0A8.509,8.509,0,0,0,71.07,68.19Z"/><path class="b" d="M54.24,56.52a1.57,1.57,0,0,0,2.18,0,1.458,1.458,0,0,0,.46-1.1,1.493,1.493,0,0,0-.44-1.1l-2.28-2.3a1.428,1.428,0,0,0-1.08-.44,1.493,1.493,0,0,0-1.1.44,1.458,1.458,0,0,0-.46,1.1,1.493,1.493,0,0,0,.44,1.1Z"/><path class="b" d="M62.94,75.33a1.51,1.51,0,0,0-.46,1.09v3.22a1.51,1.51,0,0,0,.46,1.09,1.522,1.522,0,0,0,2.2,0,1.51,1.51,0,0,0,.46-1.09V76.42a1.51,1.51,0,0,0-.46-1.09,1.522,1.522,0,0,0-2.2,0Z"/><path class="b" d="M52.84,65.2a1.56,1.56,0,0,0-1.1-2.66H48.56a1.56,1.56,0,0,0,0,3.12h3.18A1.5,1.5,0,0,0,52.84,65.2Z"/><path class="b" d="M64.04,47a1.487,1.487,0,0,0-1.1.47,1.51,1.51,0,0,0-.46,1.09v3.22a1.51,1.51,0,0,0,.46,1.09,1.522,1.522,0,0,0,2.2,0,1.51,1.51,0,0,0,.46-1.09V48.56a1.51,1.51,0,0,0-.46-1.09A1.487,1.487,0,0,0,64.04,47Z"/><path class="b" d="M73.84,56.52l2.28-2.28a1.562,1.562,0,0,0,.44-1.12,1.493,1.493,0,0,0-.44-1.1,1.55,1.55,0,0,0-1.11-.44,1.482,1.482,0,0,0-1.09.44l-2.3,2.3a1.482,1.482,0,0,0-.44,1.09,1.55,1.55,0,0,0,.44,1.11,1.589,1.589,0,0,0,1.11.45A1.477,1.477,0,0,0,73.84,56.52Z"/><path class="b" d="M53.04,76.61a1.459,1.459,0,0,0,1.1-.43l2.28-2.28a1.447,1.447,0,0,0,.46-1.09,1.55,1.55,0,0,0-.44-1.11,1.595,1.595,0,0,0-2.2,0l-2.28,2.26a1.512,1.512,0,0,0-.46,1.11,1.482,1.482,0,0,0,.44,1.09A1.529,1.529,0,0,0,53.04,76.61Z"/><path class="b" d="M76.12,76.18a1.482,1.482,0,0,0,.44-1.09,1.55,1.55,0,0,0-.44-1.11l-2.3-2.28a1.482,1.482,0,0,0-1.09-.44,1.5,1.5,0,0,0-1.55,1.55,1.482,1.482,0,0,0,.44,1.09l2.3,2.3a1.447,1.447,0,0,0,1.09.43A1.589,1.589,0,0,0,76.12,76.18Z"/><path class="b" d="M80.61,65.2a1.522,1.522,0,0,0,0-2.2,1.51,1.51,0,0,0-1.09-.46h-3.2a1.56,1.56,0,0,0,0,3.12h3.2A1.51,1.51,0,0,0,80.61,65.2Z"/></svg>