<svg xmlns="http://www.w3.org/2000/svg" viewBox="0 0 128 128"><defs><style>.a{fill:#0000;}.b{fill:none;}.c{fill:#fff;}</style></defs><rect class="a" x="-237" y="-189" width="2450" height="2182"/><path class="b" d="M57.08,70.58a9.649,9.649,0,0,0,3.04,2.06,9.446,9.446,0,0,0,7.33,0,9.5,9.5,0,0,0,3.04-2.06,9.738,9.738,0,0,0,2.05-3.04,9.471,9.471,0,0,0,0-7.34,9.614,9.614,0,0,0-2.05-3.03,9.736,9.736,0,0,0-3.04-2.06,9.33,9.33,0,0,0-7.33,0,9.888,9.888,0,0,0-3.04,2.06,9.528,9.528,0,0,0-2.06,3.03,9.471,9.471,0,0,0,0,7.34A9.649,9.649,0,0,0,57.08,70.58Z"/><path class="c" d="M82.2,63.88a1.828,1.828,0,0,0,.58,1.35,1.879,1.879,0,0,0,1.36.57h5.54a1.879,1.879,0,0,0,1.36-.57,1.828,1.828,0,0,0,.58-1.35,1.982,1.982,0,0,0-1.94-1.94H84.14a1.982,1.982,0,0,0-1.94,1.94Z"/><path class="c" d="M49.43,76.36a1.9,1.9,0,0,0-1.37.54L44.1,80.82a1.853,1.853,0,0,0-.56,1.36,1.9,1.9,0,0,0,1.91,1.93,1.829,1.829,0,0,0,1.37-.55l3.94-3.94a1.834,1.834,0,0,0,.57-1.35,1.862,1.862,0,0,0-.53-1.37A1.9,1.9,0,0,0,49.43,76.36Z"/><path class="c" d="M78.17,51.43a1.829,1.829,0,0,0,1.37-.55l3.96-3.96a2.008,2.008,0,0,0,0-2.74,1.931,1.931,0,0,0-2.72,0L76.8,48.16a1.983,1.983,0,0,0,0,2.72A1.937,1.937,0,0,0,78.17,51.43Z"/><path class="c" d="M48.06,50.88a1.92,1.92,0,0,0,3.27-1.36,1.809,1.809,0,0,0-.53-1.36l-3.94-3.98a1.868,1.868,0,0,0-1.35-.55,1.829,1.829,0,0,0-1.37.55,1.864,1.864,0,0,0-.56,1.37,1.832,1.832,0,0,0,.54,1.35Z"/><path class="c" d="M51.92,68.85a13.154,13.154,0,0,0,6.89,6.9,12.733,12.733,0,0,0,9.94,0,13.219,13.219,0,0,0,6.9-6.9,12.782,12.782,0,0,0,0-9.96,13.219,13.219,0,0,0-6.9-6.9,12.733,12.733,0,0,0-9.94,0,13.154,13.154,0,0,0-6.89,6.9,12.9,12.9,0,0,0,0,9.96Zm3.1-8.65a9.528,9.528,0,0,1,2.06-3.03,9.888,9.888,0,0,1,3.04-2.06,9.33,9.33,0,0,1,7.33,0,9.736,9.736,0,0,1,3.04,2.06,9.614,9.614,0,0,1,2.05,3.03,9.471,9.471,0,0,1,0,7.34,9.738,9.738,0,0,1-2.05,3.04,9.5,9.5,0,0,1-3.04,2.06,9.446,9.446,0,0,1-7.33,0,9.73,9.73,0,0,1-5.1-5.1,9.471,9.471,0,0,1,0-7.34Z"/><path class="c" d="M37.94,65.8h5.54a1.879,1.879,0,0,0,1.36-.57,1.828,1.828,0,0,0,.58-1.35,1.982,1.982,0,0,0-1.94-1.94H37.94a1.851,1.851,0,0,0-1.37.58A1.879,1.879,0,0,0,36,63.88a1.845,1.845,0,0,0,.57,1.35A1.869,1.869,0,0,0,37.94,65.8Z"/><path class="c" d="M63.8,45.44a1.982,1.982,0,0,0,1.94-1.94V37.94A1.982,1.982,0,0,0,63.8,36a1.828,1.828,0,0,0-1.35.58,1.879,1.879,0,0,0-.57,1.36V43.5a1.879,1.879,0,0,0,.57,1.36A1.828,1.828,0,0,0,63.8,45.44Z"/><path class="c" d="M79.52,76.9a1.931,1.931,0,0,0-2.72,0,1.887,1.887,0,0,0-.54,1.36,1.82,1.82,0,0,0,.54,1.34l3.98,3.98a1.817,1.817,0,0,0,1.36.55,1.945,1.945,0,0,0,1.36-3.29Z"/><path class="c" d="M65.74,84.24A1.982,1.982,0,0,0,63.8,82.3a1.828,1.828,0,0,0-1.35.58,1.879,1.879,0,0,0-.57,1.36V89.8a1.869,1.869,0,0,0,.57,1.37,1.845,1.845,0,0,0,1.35.57,1.879,1.879,0,0,0,1.36-.57,1.851,1.851,0,0,0,.58-1.37Z"/></svg>