<svg xmlns="http://www.w3.org/2000/svg" viewBox="0 0 128 128"><defs><style>.a{fill:#0000;}.b{fill:#fff;}.c{fill:#ff0;}</style></defs><rect class="a" x="-389" y="-797" width="2450" height="2182"/><path class="b" d="M55.56,73.69a.824.824,0,0,0-.24.59.82.82,0,0,0,.84.84.79.79,0,0,0,.58-.24.814.814,0,0,0,.24-.6.824.824,0,0,0-.24-.59.773.773,0,0,0-.58-.25A.8.8,0,0,0,55.56,73.69Z"/><path class="c" d="M72.28,52.8a1.754,1.754,0,0,0-.53,1.15A1.3,1.3,0,0,0,72.16,55a1.411,1.411,0,0,0,1.06.4,1.628,1.628,0,0,0,1.12-.52l2.42-2.42a1.59,1.59,0,0,0,.51-1.12,1.378,1.378,0,0,0-.41-1.04,1.348,1.348,0,0,0-1.04-.43,1.56,1.56,0,0,0-1.12.53Z"/><path class="b" d="M80.04,77.49a.824.824,0,0,0-.24.59.82.82,0,0,0,.84.84.79.79,0,0,0,.58-.24.814.814,0,0,0,.24-.6.824.824,0,0,0-.24-.59.773.773,0,0,0-.58-.25A.8.8,0,0,0,80.04,77.49Z"/><path class="b" d="M80.62,69.84a1.16,1.16,0,0,0,0-1.6,1.062,1.062,0,0,0-.78-.32H48.24a1.062,1.062,0,0,0-.78.32,1.16,1.16,0,0,0,0,1.6,1.062,1.062,0,0,0,.78.32h31.6A1.062,1.062,0,0,0,80.62,69.84Z"/><path class="b" d="M73.42,77.49a.824.824,0,0,0-.24.59.82.82,0,0,0,.84.84.79.79,0,0,0,.58-.24.814.814,0,0,0,.24-.6.824.824,0,0,0-.24-.59.773.773,0,0,0-.58-.25A.8.8,0,0,0,73.42,77.49Z"/><path class="c" d="M75.95,61.65a1.288,1.288,0,0,0-.45,1.03,1.445,1.445,0,0,0,.47,1.03,1.6,1.6,0,0,0,1.15.43h3.42a1.622,1.622,0,0,0,1.17-.43,1.4,1.4,0,0,0,0-2.06,1.622,1.622,0,0,0-1.17-.43H77.12A1.665,1.665,0,0,0,75.95,61.65Z"/><path class="b" d="M47.54,78.92a.79.79,0,0,0,.58-.24.814.814,0,0,0,.24-.6.824.824,0,0,0-.24-.59.773.773,0,0,0-.58-.25.8.8,0,0,0-.6.25.824.824,0,0,0-.24.59.82.82,0,0,0,.84.84Z"/><path class="b" d="M76.02,75.12a.79.79,0,0,0,.58-.24.814.814,0,0,0,.24-.6.824.824,0,0,0-.24-.59.773.773,0,0,0-.58-.25.8.8,0,0,0-.6.25.824.824,0,0,0-.24.59.82.82,0,0,0,.84.84Z"/><path class="b" d="M78.04,81.28a.79.79,0,0,0-.24.58.82.82,0,0,0,.84.84.79.79,0,0,0,.58-.24.814.814,0,0,0,.24-.6.819.819,0,0,0-.82-.82A.814.814,0,0,0,78.04,81.28Z"/><path class="b" d="M50.12,74.88a.814.814,0,0,0,.24-.6.824.824,0,0,0-.24-.59.773.773,0,0,0-.58-.25.8.8,0,0,0-.6.25.824.824,0,0,0-.24.59.82.82,0,0,0,.84.84A.79.79,0,0,0,50.12,74.88Z"/><path class="c" d="M46.45,63.71a1.622,1.622,0,0,0,1.17.43h3.42a1.665,1.665,0,0,0,1.17-.43,1.288,1.288,0,0,0,.45-1.03,1.445,1.445,0,0,0-.47-1.03,1.6,1.6,0,0,0-1.15-.43H47.62a1.622,1.622,0,0,0-1.17.43,1.4,1.4,0,0,0,0,2.06Z"/><path class="c" d="M52.35,49.88a1.467,1.467,0,0,0-1.05.42,1.32,1.32,0,0,0-.42,1.04,1.628,1.628,0,0,0,.52,1.12l2.42,2.42a1.637,1.637,0,0,0,1.13.52A1.361,1.361,0,0,0,56,55a1.411,1.411,0,0,0,.4-1.06,1.7,1.7,0,0,0-.52-1.14l-2.42-2.4A1.511,1.511,0,0,0,52.35,49.88Z"/><path class="b" d="M53.56,77.49a.824.824,0,0,0-.24.59.82.82,0,0,0,.84.84.79.79,0,0,0,.58-.24.814.814,0,0,0,.24-.6.824.824,0,0,0-.24-.59.773.773,0,0,0-.58-.25A.8.8,0,0,0,53.56,77.49Z"/><path class="b" d="M71.42,81.28a.79.79,0,0,0-.24.58.82.82,0,0,0,.84.84.79.79,0,0,0,.58-.24.814.814,0,0,0,.24-.6.819.819,0,0,0-.82-.82A.814.814,0,0,0,71.42,81.28Z"/><path class="b" d="M66.22,81.86a.819.819,0,0,0-.82-.82.814.814,0,0,0-.6.24.79.79,0,0,0-.24.58.82.82,0,0,0,.84.84.79.79,0,0,0,.58-.24A.814.814,0,0,0,66.22,81.86Z"/><path class="b" d="M60.18,77.49a.824.824,0,0,0-.24.59.82.82,0,0,0,.84.84.79.79,0,0,0,.58-.24.814.814,0,0,0,.24-.6.824.824,0,0,0-.24-.59.773.773,0,0,0-.58-.25A.8.8,0,0,0,60.18,77.49Z"/><path class="b" d="M58.18,81.28a.79.79,0,0,0-.24.58.82.82,0,0,0,.84.84.79.79,0,0,0,.58-.24.814.814,0,0,0,.24-.6.819.819,0,0,0-.82-.82A.814.814,0,0,0,58.18,81.28Z"/><path class="b" d="M62.78,75.12a.79.79,0,0,0,.58-.24.814.814,0,0,0,.24-.6.824.824,0,0,0-.24-.59.773.773,0,0,0-.58-.25.8.8,0,0,0-.6.25.824.824,0,0,0-.24.59.82.82,0,0,0,.84.84Z"/><path class="c" d="M55.5,63.06a7.921,7.921,0,0,0,.14,1.49,9.679,9.679,0,0,0,.38,1.41H72.14a9.679,9.679,0,0,0,.38-1.41,7.921,7.921,0,0,0,.14-1.49,8.235,8.235,0,0,0-1.17-4.3,9.019,9.019,0,0,0-3.12-3.14,8.388,8.388,0,0,0-8.58,0,9.019,9.019,0,0,0-3.12,3.14A8.235,8.235,0,0,0,55.5,63.06Z"/><path class="c" d="M63.05,45.45a1.6,1.6,0,0,0-.43,1.15v3.42a1.693,1.693,0,0,0,.43,1.19,1.288,1.288,0,0,0,1.03.45,1.445,1.445,0,0,0,1.03-.47,1.622,1.622,0,0,0,.43-1.17V46.6a1.6,1.6,0,0,0-.43-1.15,1.4,1.4,0,0,0-2.06,0Z"/><path class="b" d="M68.8,73.69a.824.824,0,0,0-.24.59.82.82,0,0,0,.84.84.79.79,0,0,0,.58-.24.814.814,0,0,0,.24-.6.824.824,0,0,0-.24-.59.773.773,0,0,0-.58-.25A.8.8,0,0,0,68.8,73.69Z"/><path class="b" d="M66.8,77.49a.824.824,0,0,0-.24.59.82.82,0,0,0,.84.84.79.79,0,0,0,.58-.24.814.814,0,0,0,.24-.6.824.824,0,0,0-.24-.59.773.773,0,0,0-.58-.25A.8.8,0,0,0,66.8,77.49Z"/><path class="b" d="M51.56,81.28a.79.79,0,0,0-.24.58.82.82,0,0,0,.84.84.79.79,0,0,0,.58-.24.814.814,0,0,0,.24-.6.819.819,0,0,0-.82-.82A.814.814,0,0,0,51.56,81.28Z"/></svg>