<svg xmlns="http://www.w3.org/2000/svg" viewBox="0 0 128 128"><defs><style>.a{fill:#0000;}.b{fill:none;}.c{fill:#fff;}</style></defs><rect class="a" x="-389" y="-341" width="2450" height="2182"/><path class="b" d="M73.46,66.6a10.272,10.272,0,0,0-.08-7.85,10.769,10.769,0,0,0-2.25-3.33,10.41,10.41,0,0,0-3.32-2.25,10.43,10.43,0,0,0-8.06,0,10.575,10.575,0,0,0-5.58,5.58,10.121,10.121,0,0,0-.81,4.03,9.953,9.953,0,0,0,.74,3.82,10.345,10.345,0,0,0,2.05,3.19,10.019,10.019,0,0,0,1.632,1.39h12a10.019,10.019,0,0,0,1.632-1.39A10.345,10.345,0,0,0,73.46,66.6Z"/><path class="c" d="M82.2,41.82l-5,5.02a1.9,1.9,0,0,0-.62,1.35,1.624,1.624,0,0,0,.5,1.27,1.687,1.687,0,0,0,1.29.5,1.925,1.925,0,0,0,1.35-.6l5.02-5.02a1.856,1.856,0,0,0,.6-1.34,1.782,1.782,0,0,0-.52-1.28,1.627,1.627,0,0,0-1.25-.51A1.972,1.972,0,0,0,82.2,41.82Z"/><path class="c" d="M56.15,69.79A10.345,10.345,0,0,1,54.1,66.6a9.953,9.953,0,0,1-.74-3.82,10.121,10.121,0,0,1,.81-4.03,10.575,10.575,0,0,1,5.58-5.58,10.43,10.43,0,0,1,8.06,0,10.41,10.41,0,0,1,3.32,2.25,10.769,10.769,0,0,1,2.25,3.33,10.272,10.272,0,0,1,.08,7.85,10.345,10.345,0,0,1-2.05,3.19,10.019,10.019,0,0,1-1.632,1.39h5.035A13.648,13.648,0,0,0,76.77,67.8a13.833,13.833,0,0,0-.14-10.42,14.367,14.367,0,0,0-7.47-7.48,13.731,13.731,0,0,0-10.77,0,14.192,14.192,0,0,0-4.45,3.03,14.445,14.445,0,0,0-3.02,4.45,13.355,13.355,0,0,0-1.1,5.4,13.194,13.194,0,0,0,.96,5.02,14.024,14.024,0,0,0,1.954,3.38h5.048A10.019,10.019,0,0,1,56.15,69.79Z"/><path class="c" d="M59.16,71.98a9.815,9.815,0,0,1-1.378-.8H52.734c.213.273.431.543.666.8Z"/><path class="c" d="M68.4,71.98h5.74c.237-.257.458-.527.673-.8H69.778A9.815,9.815,0,0,1,68.4,71.98Z"/><path class="c" d="M90.16,86.62a1.174,1.174,0,0,0-.36.86,1.23,1.23,0,0,0,.36.89,1.2,1.2,0,0,0,.9.37,1.158,1.158,0,0,0,.86-.37,1.23,1.23,0,0,0,.36-.89,1.229,1.229,0,0,0-1.22-1.22A1.221,1.221,0,0,0,90.16,86.62Z"/><path class="c" d="M38.94,80.36a1.174,1.174,0,0,0-.36.86,1.23,1.23,0,0,0,.36.89,1.2,1.2,0,0,0,.9.37,1.158,1.158,0,0,0,.86-.37,1.23,1.23,0,0,0,.36-.89A1.229,1.229,0,0,0,39.84,80,1.221,1.221,0,0,0,38.94,80.36Z"/><path class="c" d="M91.62,60.34H84.54a1.976,1.976,0,0,0-1.4.52,1.659,1.659,0,0,0-.56,1.26,1.737,1.737,0,0,0,.57,1.26,1.942,1.942,0,0,0,1.39.52h7.08a1.942,1.942,0,0,0,1.39-.52,1.707,1.707,0,0,0,0-2.51A1.924,1.924,0,0,0,91.62,60.34Z"/><path class="c" d="M84.31,82.11a1.212,1.212,0,0,0,.37-.89,1.158,1.158,0,0,0-.37-.86,1.243,1.243,0,0,0-1.75,0,1.174,1.174,0,0,0-.36.86,1.23,1.23,0,0,0,.36.89,1.22,1.22,0,0,0,1.75,0Z"/><path class="c" d="M50.74,80a1.221,1.221,0,0,0-.9.36,1.174,1.174,0,0,0-.36.86,1.23,1.23,0,0,0,.36.89,1.2,1.2,0,0,0,.9.37,1.158,1.158,0,0,0,.86-.37,1.23,1.23,0,0,0,.36-.89A1.229,1.229,0,0,0,50.74,80Z"/><path class="c" d="M90.14,71.18H74.813c-.215.273-.436.543-.673.8H68.4a9.815,9.815,0,0,0,1.378-.8h-12a9.815,9.815,0,0,0,1.378.8H53.4c-.235-.257-.453-.527-.666-.8H37.34a1.423,1.423,0,0,0-1.02.4,1.348,1.348,0,0,0-.42,1.02,1.324,1.324,0,0,0,.42,1,1.423,1.423,0,0,0,1.02.4h52.8a1.423,1.423,0,0,0,1.02-.4,1.324,1.324,0,0,0,.42-1,1.348,1.348,0,0,0-.42-1.02A1.423,1.423,0,0,0,90.14,71.18Z"/><path class="c" d="M86.87,92.84a1.158,1.158,0,0,0-.37.86,1.236,1.236,0,0,0,.37.91,1.212,1.212,0,0,0,.89.37,1.158,1.158,0,0,0,.86-.37,1.255,1.255,0,0,0,.36-.91,1.229,1.229,0,0,0-1.22-1.22A1.23,1.23,0,0,0,86.87,92.84Z"/><path class="c" d="M65.04,43.4a1.949,1.949,0,0,0,.52-1.38v-7.1a1.906,1.906,0,0,0-.52-1.38,1.74,1.74,0,0,0-2.52,0A1.906,1.906,0,0,0,62,34.92v7.1a1.986,1.986,0,0,0,.52,1.39,1.583,1.583,0,0,0,1.26.55A1.659,1.659,0,0,0,65.04,43.4Z"/><path class="c" d="M35.65,86.62a1.158,1.158,0,0,0-.37.86,1.263,1.263,0,0,0,1.26,1.26,1.158,1.158,0,0,0,.86-.37,1.23,1.23,0,0,0,.36-.89,1.229,1.229,0,0,0-1.22-1.22A1.23,1.23,0,0,0,35.65,86.62Z"/><path class="c" d="M59.21,88.37a1.212,1.212,0,0,0,.37-.89,1.158,1.158,0,0,0-.37-.86,1.243,1.243,0,0,0-1.75,0,1.174,1.174,0,0,0-.36.86,1.23,1.23,0,0,0,.36.89,1.22,1.22,0,0,0,1.75,0Z"/><path class="c" d="M70.11,88.37a1.212,1.212,0,0,0,.37-.89,1.158,1.158,0,0,0-.37-.86,1.243,1.243,0,0,0-1.75,0,1.174,1.174,0,0,0-.36.86,1.23,1.23,0,0,0,.36.89,1.22,1.22,0,0,0,1.75,0Z"/><path class="c" d="M81.02,88.37a1.23,1.23,0,0,0,.36-.89,1.174,1.174,0,0,0-.36-.86,1.256,1.256,0,0,0-1.76,0,1.174,1.174,0,0,0-.36.86,1.23,1.23,0,0,0,.36.89,1.231,1.231,0,0,0,1.76,0Z"/><path class="c" d="M47.84,49.36a1.965,1.965,0,0,0,1.35.61,1.625,1.625,0,0,0,1.29-.51,1.71,1.71,0,0,0,.48-1.28,1.913,1.913,0,0,0-.6-1.34l-5.02-5.02a1.865,1.865,0,0,0-1.35-.6,1.766,1.766,0,0,0-1.27.5,1.692,1.692,0,0,0-.51,1.27,1.9,1.9,0,0,0,.61,1.35Z"/><path class="c" d="M66.82,94.61a1.255,1.255,0,0,0,.36-.91,1.229,1.229,0,0,0-1.22-1.22,1.221,1.221,0,0,0-.9.36,1.174,1.174,0,0,0-.36.86,1.255,1.255,0,0,0,.36.91,1.2,1.2,0,0,0,.9.37A1.158,1.158,0,0,0,66.82,94.61Z"/><path class="c" d="M76.86,92.48a1.221,1.221,0,0,0-.9.36,1.174,1.174,0,0,0-.36.86,1.255,1.255,0,0,0,.36.91,1.2,1.2,0,0,0,.9.37,1.158,1.158,0,0,0,.86-.37,1.255,1.255,0,0,0,.36-.91,1.229,1.229,0,0,0-1.22-1.22Z"/><path class="c" d="M61.64,80a1.23,1.23,0,0,0-.89.36,1.158,1.158,0,0,0-.37.86,1.263,1.263,0,0,0,1.26,1.26,1.158,1.158,0,0,0,.86-.37,1.23,1.23,0,0,0,.36-.89A1.229,1.229,0,0,0,61.64,80Z"/><path class="c" d="M72.54,80a1.23,1.23,0,0,0-.89.36,1.158,1.158,0,0,0-.37.86,1.263,1.263,0,0,0,1.26,1.26,1.19,1.19,0,0,0,.87-.37,1.212,1.212,0,0,0,.37-.89,1.158,1.158,0,0,0-.37-.86A1.208,1.208,0,0,0,72.54,80Z"/><path class="c" d="M45.01,94.61a1.236,1.236,0,0,0,.37-.91,1.158,1.158,0,0,0-.37-.86,1.243,1.243,0,0,0-1.75,0,1.174,1.174,0,0,0-.36.86,1.255,1.255,0,0,0,.36.91,1.22,1.22,0,0,0,1.75,0Z"/><path class="c" d="M35.92,63.9h7.1a1.976,1.976,0,0,0,1.4-.52,1.6,1.6,0,0,0,.54-1.26,1.678,1.678,0,0,0-.55-1.25,1.924,1.924,0,0,0-1.39-.53h-7.1a1.915,1.915,0,0,0-1.37.52,1.718,1.718,0,0,0,0,2.52A1.915,1.915,0,0,0,35.92,63.9Z"/><path class="c" d="M55.92,94.61a1.255,1.255,0,0,0,.36-.91,1.174,1.174,0,0,0-.36-.86,1.256,1.256,0,0,0-1.76,0,1.174,1.174,0,0,0-.36.86,1.255,1.255,0,0,0,.36.91,1.231,1.231,0,0,0,1.76,0Z"/><path class="c" d="M47.44,88.74a1.19,1.19,0,0,0,.87-.37,1.212,1.212,0,0,0,.37-.89,1.158,1.158,0,0,0-.37-.86,1.208,1.208,0,0,0-.87-.36,1.23,1.23,0,0,0-.89.36,1.158,1.158,0,0,0-.37.86,1.263,1.263,0,0,0,1.26,1.26Z"/></svg>