<svg xmlns="http://www.w3.org/2000/svg" viewBox="0 0 128 128"><defs><style>.a{fill:#0000;}.b{fill:#ff0;}.c{fill:#fff;}</style></defs><rect class="a" x="-1909" y="-493" width="2450" height="2182"/><path class="b" d="M65.11,57.18a1.631,1.631,0,0,0,.43-1.16V52.6a1.6,1.6,0,0,0-.43-1.15,1.4,1.4,0,0,0-2.06,0,1.6,1.6,0,0,0-.43,1.15v3.42a1.665,1.665,0,0,0,.43,1.17,1.35,1.35,0,0,0,1.03.47A1.429,1.429,0,0,0,65.11,57.18Z"/><path class="b" d="M75.82,55.87a1.59,1.59,0,0,0-1.12.51L72.28,58.8a1.688,1.688,0,0,0-.53,1.14A1.313,1.313,0,0,0,72.16,61a1.411,1.411,0,0,0,1.06.4,1.628,1.628,0,0,0,1.12-.52l2.42-2.42a1.59,1.59,0,0,0,.51-1.12,1.378,1.378,0,0,0-.41-1.04A1.348,1.348,0,0,0,75.82,55.87Z"/><path class="b" d="M56.67,64.76a8.235,8.235,0,0,0-1.17,4.3,8.366,8.366,0,0,0,.54,2.96H72.12a8.366,8.366,0,0,0,.54-2.96,8.235,8.235,0,0,0-1.17-4.3,9.019,9.019,0,0,0-3.12-3.14,8.388,8.388,0,0,0-8.58,0A9.019,9.019,0,0,0,56.67,64.76Z"/><path class="c" d="M44.46,74.4a1.35,1.35,0,0,0,0,2.03,1.553,1.553,0,0,0,1.1.43H82.6a1.553,1.553,0,0,0,1.1-.43,1.35,1.35,0,0,0,0-2.03,1.575,1.575,0,0,0-1.1-.42H45.56A1.575,1.575,0,0,0,44.46,74.4Z"/><path class="b" d="M46.45,67.64a1.415,1.415,0,0,0,0,2.07,1.622,1.622,0,0,0,1.17.43h3.42a1.665,1.665,0,0,0,1.17-.43,1.288,1.288,0,0,0,.45-1.03,1.432,1.432,0,0,0-.47-1.04,1.618,1.618,0,0,0-1.15-.42H47.62A1.646,1.646,0,0,0,46.45,67.64Z"/><path class="b" d="M75.5,68.68a1.445,1.445,0,0,0,.47,1.03,1.6,1.6,0,0,0,1.15.43h3.42a1.622,1.622,0,0,0,1.17-.43,1.415,1.415,0,0,0,0-2.07,1.646,1.646,0,0,0-1.17-.42H77.12a1.69,1.69,0,0,0-1.17.42A1.282,1.282,0,0,0,75.5,68.68Z"/><path class="b" d="M53.46,56.38a1.539,1.539,0,0,0-1.11-.5,1.467,1.467,0,0,0-1.05.42,1.348,1.348,0,0,0-.43,1.04,1.56,1.56,0,0,0,.53,1.12l2.42,2.42a1.637,1.637,0,0,0,1.13.52A1.361,1.361,0,0,0,56,61a1.424,1.424,0,0,0,.4-1.07,1.637,1.637,0,0,0-.52-1.13Z"/></svg>