<svg xmlns="http://www.w3.org/2000/svg" viewBox="0 0 128 128"><defs><style>.a{fill:#0000;}.b{fill:#ff0;}.c{fill:#fff;}</style></defs><rect class="a" x="-237" y="-1253" width="2450" height="2182"/><path class="b" d="M75.82,59.25a1.59,1.59,0,0,0-1.12.51l-2.42,2.42a1.68,1.68,0,0,0-.53,1.13,1.3,1.3,0,0,0,.41,1.05,1.443,1.443,0,0,0,1.06.41,1.59,1.59,0,0,0,1.12-.51l2.42-2.42a1.59,1.59,0,0,0,.51-1.12,1.443,1.443,0,0,0-.41-1.06A1.378,1.378,0,0,0,75.82,59.25Z"/><path class="b" d="M75.5,72.04a1.445,1.445,0,0,0,.47,1.03,1.6,1.6,0,0,0,1.15.43h3.42a1.622,1.622,0,0,0,1.17-.43,1.4,1.4,0,0,0,0-2.06,1.622,1.622,0,0,0-1.17-.43H77.12a1.665,1.665,0,0,0-1.17.43A1.288,1.288,0,0,0,75.5,72.04Z"/><path class="b" d="M53.46,59.76a1.579,1.579,0,0,0-1.11-.51,1.429,1.429,0,0,0-1.05.41,1.36,1.36,0,0,0-.43,1.05,1.569,1.569,0,0,0,.53,1.13l2.42,2.42a1.637,1.637,0,0,0,1.13.52A1.331,1.331,0,0,0,56,64.36a1.361,1.361,0,0,0,.4-1.05,1.637,1.637,0,0,0-.52-1.13Z"/><path class="b" d="M55.5,72.42a8.366,8.366,0,0,0,.54,2.96H72.12a8.366,8.366,0,0,0,.54-2.96,8.235,8.235,0,0,0-1.17-4.3,8.933,8.933,0,0,0-3.12-3.13,8.45,8.45,0,0,0-8.58,0,8.933,8.933,0,0,0-3.12,3.13A8.235,8.235,0,0,0,55.5,72.42Z"/><path class="c" d="M44.46,77.77a1.35,1.35,0,0,0,0,2.03,1.575,1.575,0,0,0,1.1.42H82.6a1.575,1.575,0,0,0,1.1-.42,1.35,1.35,0,0,0,0-2.03,1.553,1.553,0,0,0-1.1-.43H45.56A1.553,1.553,0,0,0,44.46,77.77Z"/><path class="c" d="M68.16,53.62a1.386,1.386,0,0,0,.43.29,1.263,1.263,0,0,0,.51.11,1.211,1.211,0,0,0,.88-.33,1.131,1.131,0,0,0,.34-.85,1.191,1.191,0,0,0-.1-.5,1.445,1.445,0,0,0-.3-.42l-4.88-4.46a1.232,1.232,0,0,0-1.92,0l-4.88,4.46a1.445,1.445,0,0,0-.3.42,1.191,1.191,0,0,0-.1.5,1.131,1.131,0,0,0,.34.85,1.211,1.211,0,0,0,.88.33,1.263,1.263,0,0,0,.51-.11,1.386,1.386,0,0,0,.43-.29l2-2.02.84-1.04-.22,2.26v5.7a1.579,1.579,0,0,0,.43,1.12,1.383,1.383,0,0,0,2.06,0,1.579,1.579,0,0,0,.43-1.12v-5.7l-.22-2.26,1.04,1.24Z"/><path class="b" d="M46.45,71.01a1.4,1.4,0,0,0,0,2.06,1.622,1.622,0,0,0,1.17.43h3.42a1.665,1.665,0,0,0,1.17-.43,1.288,1.288,0,0,0,.45-1.03,1.445,1.445,0,0,0-.47-1.03,1.6,1.6,0,0,0-1.15-.43H47.62A1.622,1.622,0,0,0,46.45,71.01Z"/></svg>