<svg xmlns="http://www.w3.org/2000/svg" viewBox="0 0 128 128"><defs><style>.a{fill:#0000;}.b{fill:none;}.c{fill:#fff;}</style></defs><rect class="a" x="-237" y="-949" width="2450" height="2182"/><path class="b" d="M68.8,75.81a5.519,5.519,0,0,0,1.06-3.31,5.6,5.6,0,0,0-.78-2.9,5.87,5.87,0,0,0-2.1-2.1,5.781,5.781,0,0,0-5.8,0,5.87,5.87,0,0,0-2.1,2.1,5.6,5.6,0,0,0-.78,2.9,5.519,5.519,0,0,0,1.06,3.31,5.911,5.911,0,0,0,1.618,1.53h6.2A5.911,5.911,0,0,0,68.8,75.81Z"/><path class="c" d="M75.82,59.31a1.59,1.59,0,0,0-1.12.51l-2.42,2.42a1.68,1.68,0,0,0-.53,1.13,1.3,1.3,0,0,0,.41,1.05,1.443,1.443,0,0,0,1.06.41,1.56,1.56,0,0,0,1.12-.53l2.42-2.4a1.649,1.649,0,0,0,.51-1.13,1.429,1.429,0,0,0-.41-1.05A1.378,1.378,0,0,0,75.82,59.31Z"/><path class="c" d="M59.36,75.81A5.519,5.519,0,0,1,58.3,72.5a5.6,5.6,0,0,1,.78-2.9,5.87,5.87,0,0,1,2.1-2.1,5.781,5.781,0,0,1,5.8,0,5.87,5.87,0,0,1,2.1,2.1,5.6,5.6,0,0,1,.78,2.9,5.519,5.519,0,0,1-1.06,3.31,5.911,5.911,0,0,1-1.618,1.53h4.024A8.03,8.03,0,0,0,72.74,72.5a8.319,8.319,0,0,0-1.18-4.34A9,9,0,0,0,68.41,65a8.534,8.534,0,0,0-8.66,0,9,9,0,0,0-3.15,3.16,8.319,8.319,0,0,0-1.18,4.34,8.03,8.03,0,0,0,1.534,4.84h4.024A5.911,5.911,0,0,1,59.36,75.81Z"/><path class="c" d="M66.1,77.9h4.72c.145-.177.256-.374.386-.56H67.182A5.8,5.8,0,0,1,66.1,77.9Z"/><path class="c" d="M53.82,64.3a1.6,1.6,0,0,0,1.13.54A1.331,1.331,0,0,0,56,64.42a1.361,1.361,0,0,0,.4-1.05,1.637,1.637,0,0,0-.52-1.13l-2.42-2.42a1.579,1.579,0,0,0-1.11-.51,1.429,1.429,0,0,0-1.05.41,1.348,1.348,0,0,0-.43,1.04,1.627,1.627,0,0,0,.53,1.14Z"/><path class="c" d="M75.5,72.1a1.445,1.445,0,0,0,.47,1.03,1.6,1.6,0,0,0,1.15.43h3.42a1.622,1.622,0,0,0,1.17-.43,1.4,1.4,0,0,0,0-2.06,1.622,1.622,0,0,0-1.17-.43H77.12a1.665,1.665,0,0,0-1.17.43A1.288,1.288,0,0,0,75.5,72.1Z"/><path class="c" d="M68.16,53.62a1.386,1.386,0,0,0,.43.29,1.263,1.263,0,0,0,.51.11,1.211,1.211,0,0,0,.88-.33,1.131,1.131,0,0,0,.34-.85,1.191,1.191,0,0,0-.1-.5,1.445,1.445,0,0,0-.3-.42l-4.88-4.46a1.232,1.232,0,0,0-1.92,0l-4.88,4.46a1.445,1.445,0,0,0-.3.42,1.191,1.191,0,0,0-.1.5,1.131,1.131,0,0,0,.34.85,1.211,1.211,0,0,0,.88.33,1.263,1.263,0,0,0,.51-.11,1.386,1.386,0,0,0,.43-.29l2-2.02.84-1.04-.22,2.26v5.7a1.579,1.579,0,0,0,.43,1.12,1.383,1.383,0,0,0,2.06,0,1.579,1.579,0,0,0,.43-1.12v-5.7l-.22-2.26,1.04,1.24Z"/><path class="c" d="M44.46,77.77a1.35,1.35,0,0,0,0,2.03,1.575,1.575,0,0,0,1.1.42H82.6a1.575,1.575,0,0,0,1.1-.42,1.35,1.35,0,0,0,0-2.03,1.553,1.553,0,0,0-1.1-.43H71.206c-.13.186-.241.383-.386.56H66.1a5.8,5.8,0,0,0,1.082-.56h-6.2a5.8,5.8,0,0,0,1.082.56H57.34c-.145-.177-.256-.374-.386-.56H45.56A1.553,1.553,0,0,0,44.46,77.77Z"/><path class="c" d="M62.06,77.9a5.8,5.8,0,0,1-1.082-.56H56.954c.13.186.241.383.386.56Z"/><path class="c" d="M46.45,71.07a1.4,1.4,0,0,0,0,2.06,1.622,1.622,0,0,0,1.17.43h3.42a1.665,1.665,0,0,0,1.17-.43,1.288,1.288,0,0,0,.45-1.03,1.445,1.445,0,0,0-.47-1.03,1.6,1.6,0,0,0-1.15-.43H47.62A1.622,1.622,0,0,0,46.45,71.07Z"/></svg>