<svg xmlns="http://www.w3.org/2000/svg" viewBox="0 0 128 128"><defs><style>.a{fill:#0000;}.b{fill:#fff;}.c{fill:#ff0;}</style></defs><rect class="a" x="-237" y="-1709" width="2450" height="2182"/><path class="b" d="M56.92,48.08a1.575,1.575,0,0,0-.55-.39,1.612,1.612,0,0,0-.63-.13,1.5,1.5,0,0,0-1.09.42,1.443,1.443,0,0,0-.43,1.08,1.566,1.566,0,0,0,.13.65,1.821,1.821,0,0,0,.43.57l8.08,7.66a1.587,1.587,0,0,0,2.42,0l8.08-7.66a1.965,1.965,0,0,0,.44-.57,1.479,1.479,0,0,0,.14-.65,1.428,1.428,0,0,0-.44-1.08,1.53,1.53,0,0,0-1.1-.42,1.612,1.612,0,0,0-.63.13,1.575,1.575,0,0,0-.55.39l-3.5,3.52L65.6,53.98l.26-4.08V39.94a1.943,1.943,0,0,0-.53-1.37A1.653,1.653,0,0,0,64.08,38a1.674,1.674,0,0,0-1.27.57,1.943,1.943,0,0,0-.53,1.37V49.9l.26,4.08L60.62,51.8Z"/><path class="c" d="M83.43,77.07a1.589,1.589,0,0,0-.55,1.25,1.737,1.737,0,0,0,.57,1.26,1.915,1.915,0,0,0,1.37.52h7.1a1.906,1.906,0,0,0,1.38-.52,1.728,1.728,0,0,0,0-2.51,1.889,1.889,0,0,0-1.38-.53h-7.1A1.967,1.967,0,0,0,83.43,77.07Z"/><path class="c" d="M50.26,78.96a12.507,12.507,0,0,0,.35,2.96,13.257,13.257,0,0,0,.99,2.74H76.54a13.257,13.257,0,0,0,.99-2.74,12.507,12.507,0,0,0,.35-2.96,13.322,13.322,0,0,0-1.08-5.34,14.067,14.067,0,0,0-2.99-4.41,14.215,14.215,0,0,0-4.41-3,13.577,13.577,0,0,0-10.66,0,14.215,14.215,0,0,0-4.41,3,14.067,14.067,0,0,0-2.99,4.41A13.322,13.322,0,0,0,50.26,78.96Z"/><path class="c" d="M83.87,57.42a1.93,1.93,0,0,0-1.37.6l-5.02,5.02a1.994,1.994,0,0,0-.6,1.37,1.624,1.624,0,0,0,.5,1.27,1.741,1.741,0,0,0,1.28.49,1.945,1.945,0,0,0,1.36-.59l5.02-5.02a1.865,1.865,0,0,0,.6-1.35,1.727,1.727,0,0,0-.52-1.27A1.661,1.661,0,0,0,83.87,57.42Z"/><path class="c" d="M42.5,59.2a1.849,1.849,0,0,0,.62,1.36l5,5.02a1.994,1.994,0,0,0,1.37.6,1.624,1.624,0,0,0,1.27-.5,1.673,1.673,0,0,0,.5-1.28,1.982,1.982,0,0,0-.6-1.36l-5.02-5.02a1.827,1.827,0,0,0-1.35-.59,1.8,1.8,0,0,0-1.27.51A1.672,1.672,0,0,0,42.5,59.2Z"/><path class="b" d="M95.22,87.44H32.92a1.935,1.935,0,0,0-1.35.52,1.645,1.645,0,0,0,0,2.49,1.958,1.958,0,0,0,1.35.51h62.3a1.958,1.958,0,0,0,1.35-.51,1.645,1.645,0,0,0,0-2.49A1.935,1.935,0,0,0,95.22,87.44Z"/><path class="c" d="M34.85,77.07a1.707,1.707,0,0,0,0,2.51,1.915,1.915,0,0,0,1.37.52h7.1a1.976,1.976,0,0,0,1.4-.52,1.6,1.6,0,0,0,.54-1.26,1.765,1.765,0,0,0-.56-1.25,1.889,1.889,0,0,0-1.38-.53h-7.1A1.9,1.9,0,0,0,34.85,77.07Z"/></svg>