<svg xmlns="http://www.w3.org/2000/svg" viewBox="0 0 128 128"><defs><style>.a{fill:#0000;}.b{fill:none;}.c{fill:#fff;}</style></defs><rect class="a" x="-237" y="-1405" width="2450" height="2182"/><path class="b" d="M73.74,82.87a9.93,9.93,0,0,0,.74-3.83,10.121,10.121,0,0,0-.81-4.03,10.5,10.5,0,0,0-5.56-5.56,10.455,10.455,0,0,0-8.07,0,10.656,10.656,0,0,0-3.32,2.24,10.41,10.41,0,0,0-2.25,3.32,10.121,10.121,0,0,0-.81,4.03,9.93,9.93,0,0,0,.74,3.83,10.262,10.262,0,0,0,3.672,4.57H70.08a10.024,10.024,0,0,0,1.62-1.39A10.465,10.465,0,0,0,73.74,82.87Z"/><path class="c" d="M68.68,88.26h5.76c.238-.264.46-.54.677-.82H70.08A10.2,10.2,0,0,1,68.68,88.26Z"/><path class="c" d="M83.87,57.48a1.93,1.93,0,0,0-1.37.6L77.48,63.1a1.994,1.994,0,0,0-.6,1.37,1.624,1.624,0,0,0,.5,1.27,1.741,1.741,0,0,0,1.28.49,1.945,1.945,0,0,0,1.36-.59l5.02-5.02a1.865,1.865,0,0,0,.6-1.35A1.727,1.727,0,0,0,85.12,58,1.661,1.661,0,0,0,83.87,57.48Z"/><path class="c" d="M59.46,88.26a10.185,10.185,0,0,1-1.388-.82H53.023c.217.28.439.556.677.82Z"/><path class="c" d="M95.22,87.44h-20.1c-.217.28-.439.556-.677.82H68.68a10.2,10.2,0,0,0,1.4-.82H58.072a10.185,10.185,0,0,0,1.388.82H53.7c-.238-.264-.46-.54-.677-.82H32.92a1.935,1.935,0,0,0-1.35.52,1.645,1.645,0,0,0,0,2.49,1.958,1.958,0,0,0,1.35.51h62.3a1.958,1.958,0,0,0,1.35-.51,1.645,1.645,0,0,0,0-2.49A1.935,1.935,0,0,0,95.22,87.44Z"/><path class="c" d="M83.43,77.13a1.589,1.589,0,0,0-.55,1.25,1.737,1.737,0,0,0,.57,1.26,1.915,1.915,0,0,0,1.37.52h7.1a1.906,1.906,0,0,0,1.38-.52,1.728,1.728,0,0,0,0-2.51,1.889,1.889,0,0,0-1.38-.53h-7.1A1.967,1.967,0,0,0,83.43,77.13Z"/><path class="c" d="M56.45,86.05a10.381,10.381,0,0,1-2.05-3.18,9.93,9.93,0,0,1-.74-3.83,10.121,10.121,0,0,1,.81-4.03,10.41,10.41,0,0,1,2.25-3.32,10.656,10.656,0,0,1,3.32-2.24,10.455,10.455,0,0,1,8.07,0,10.5,10.5,0,0,1,5.56,5.56,10.121,10.121,0,0,1,.81,4.03,9.93,9.93,0,0,1-.74,3.83,10.465,10.465,0,0,1-2.04,3.18,10.024,10.024,0,0,1-1.62,1.39h5.037a14.284,14.284,0,0,0,1.943-3.38,13.194,13.194,0,0,0,.96-5.02,13.471,13.471,0,0,0-1.09-5.39,14.274,14.274,0,0,0-7.47-7.48,13.847,13.847,0,0,0-10.77,0,14.063,14.063,0,0,0-4.45,3.02,14.407,14.407,0,0,0-3.02,4.46,13.377,13.377,0,0,0-1.1,5.39,13.194,13.194,0,0,0,.96,5.02,14.284,14.284,0,0,0,1.943,3.38h5.049A10.3,10.3,0,0,1,56.45,86.05Z"/><path class="c" d="M56.92,48.08a1.575,1.575,0,0,0-.55-.39,1.612,1.612,0,0,0-.63-.13,1.5,1.5,0,0,0-1.09.42,1.443,1.443,0,0,0-.43,1.08,1.566,1.566,0,0,0,.13.65,1.821,1.821,0,0,0,.43.57l8.08,7.66a1.587,1.587,0,0,0,2.42,0l8.08-7.66a1.965,1.965,0,0,0,.44-.57,1.479,1.479,0,0,0,.14-.65,1.428,1.428,0,0,0-.44-1.08,1.53,1.53,0,0,0-1.1-.42,1.612,1.612,0,0,0-.63.13,1.575,1.575,0,0,0-.55.39l-3.5,3.52L65.6,53.98l.26-4.08V39.94a1.943,1.943,0,0,0-.53-1.37A1.653,1.653,0,0,0,64.08,38a1.674,1.674,0,0,0-1.27.57,1.943,1.943,0,0,0-.53,1.37V49.9l.26,4.08L60.62,51.8Z"/><path class="c" d="M42.5,59.26a1.849,1.849,0,0,0,.62,1.36l5,5.02a1.994,1.994,0,0,0,1.37.6,1.624,1.624,0,0,0,1.27-.5,1.673,1.673,0,0,0,.5-1.28,1.982,1.982,0,0,0-.6-1.36l-5.02-5.02a1.827,1.827,0,0,0-1.35-.59,1.8,1.8,0,0,0-1.27.51A1.672,1.672,0,0,0,42.5,59.26Z"/><path class="c" d="M34.85,77.13a1.707,1.707,0,0,0,0,2.51,1.915,1.915,0,0,0,1.37.52h7.1a1.976,1.976,0,0,0,1.4-.52,1.6,1.6,0,0,0,.54-1.26,1.765,1.765,0,0,0-.56-1.25,1.889,1.889,0,0,0-1.38-.53h-7.1A1.9,1.9,0,0,0,34.85,77.13Z"/></svg>