<svg xmlns="http://www.w3.org/2000/svg" viewBox="0 0 128 128"><defs><style>.a{fill:#0000;}.b{fill:#fff;}.c{fill:#ff0;}</style></defs><rect class="a" x="-389" y="-189" width="2450" height="2182"/><path class="b" d="M58.24,55.18l4.88,4.46a1.232,1.232,0,0,0,1.92,0l4.88-4.46a1.445,1.445,0,0,0,.3-.42,1.191,1.191,0,0,0,.1-.5,1.131,1.131,0,0,0-.34-.85,1.211,1.211,0,0,0-.88-.33,1.263,1.263,0,0,0-.51.11,1.244,1.244,0,0,0-.43.31l-1.8,1.8-1.04,1.24.22-2.26v-5.7a1.579,1.579,0,0,0-.43-1.12,1.383,1.383,0,0,0-2.06,0,1.579,1.579,0,0,0-.43,1.12v5.7l.22,2.26L62,55.5l-2-2a1.244,1.244,0,0,0-.43-.31,1.263,1.263,0,0,0-.51-.11,1.211,1.211,0,0,0-.88.33,1.131,1.131,0,0,0-.34.85,1.191,1.191,0,0,0,.1.5A1.445,1.445,0,0,0,58.24,55.18Z"/><path class="c" d="M73.22,64.77a1.59,1.59,0,0,0,1.12-.51l2.42-2.42a1.59,1.59,0,0,0,.51-1.12,1.443,1.443,0,0,0-.41-1.06,1.378,1.378,0,0,0-1.04-.41,1.59,1.59,0,0,0-1.12.51l-2.42,2.42a1.68,1.68,0,0,0-.53,1.13,1.3,1.3,0,0,0,.41,1.05A1.443,1.443,0,0,0,73.22,64.77Z"/><path class="c" d="M47.62,73.5h3.42a1.665,1.665,0,0,0,1.17-.43,1.288,1.288,0,0,0,.45-1.03,1.445,1.445,0,0,0-.47-1.03,1.6,1.6,0,0,0-1.15-.43H47.62a1.622,1.622,0,0,0-1.17.43,1.4,1.4,0,0,0,0,2.06A1.622,1.622,0,0,0,47.62,73.5Z"/><path class="b" d="M45.56,80.22H82.6a1.575,1.575,0,0,0,1.1-.42,1.35,1.35,0,0,0,0-2.03,1.553,1.553,0,0,0-1.1-.43H45.56a1.553,1.553,0,0,0-1.1.43,1.35,1.35,0,0,0,0,2.03A1.575,1.575,0,0,0,45.56,80.22Z"/><path class="c" d="M75.95,71.01a1.288,1.288,0,0,0-.45,1.03,1.445,1.445,0,0,0,.47,1.03,1.6,1.6,0,0,0,1.15.43h3.42a1.622,1.622,0,0,0,1.17-.43,1.4,1.4,0,0,0,0-2.06,1.622,1.622,0,0,0-1.17-.43H77.12A1.665,1.665,0,0,0,75.95,71.01Z"/><path class="c" d="M53.82,64.26a1.637,1.637,0,0,0,1.13.52A1.331,1.331,0,0,0,56,64.36a1.361,1.361,0,0,0,.4-1.05,1.637,1.637,0,0,0-.52-1.13l-2.42-2.42a1.579,1.579,0,0,0-1.11-.51,1.429,1.429,0,0,0-1.05.41,1.36,1.36,0,0,0-.43,1.05,1.569,1.569,0,0,0,.53,1.13Z"/><path class="c" d="M56.04,75.38H72.12a8.366,8.366,0,0,0,.54-2.96,8.235,8.235,0,0,0-1.17-4.3,8.933,8.933,0,0,0-3.12-3.13,8.45,8.45,0,0,0-8.58,0,8.933,8.933,0,0,0-3.12,3.13,8.235,8.235,0,0,0-1.17,4.3A8.366,8.366,0,0,0,56.04,75.38Z"/></svg>