<svg xmlns="http://www.w3.org/2000/svg" viewBox="0 0 128 128"><defs><style>.a{fill:#0000;}.b{fill:none;}.c{fill:#00c9ea;}.d{fill:#fff;}</style></defs><rect class="a" x="-1757" y="-645" width="2450" height="2182"/><path class="b" d="M52.39,76.43a5.761,5.761,0,0,0,2.08,2.08,5.79,5.79,0,0,0,5.77,0,5.78,5.78,0,0,0,2.07-2.08,5.713,5.713,0,0,0-1.81-7.67,1.7,1.7,0,0,1-.51-.48,1.332,1.332,0,0,1-.15-.7V52.7a3.462,3.462,0,0,0-.69-2.25,2.2,2.2,0,0,0-1.79-.85,2.246,2.246,0,0,0-1.82.85,3.427,3.427,0,0,0-.7,2.25V67.58a1.332,1.332,0,0,1-.15.7,1.764,1.764,0,0,1-.49.48,5.748,5.748,0,0,0-1.81,7.67Zm1.87-4.8a3.775,3.775,0,0,1,1.4-1.29,1.336,1.336,0,0,0,.52-.42,1.5,1.5,0,0,0,.14-.76V65.88a1.3,1.3,0,0,1,.3-.91.94.94,0,0,1,.72-.33.961.961,0,0,1,.74.33,1.3,1.3,0,0,1,.3.91v3.28a1.5,1.5,0,0,0,.14.76,1.336,1.336,0,0,0,.52.42,3.775,3.775,0,0,1,1.4,1.29,3.387,3.387,0,0,1,.54,1.89,3.63,3.63,0,1,1-7.26,0A3.387,3.387,0,0,1,54.26,71.63Z"/><path class="c" d="M64.49,48.14a.787.787,0,0,0-.53.4.778.778,0,0,0-.08.68,1.076,1.076,0,0,0,.48.56l2.6,1.5.06,5.26-2.58-1.52v2.06l1.7.96-1.7.96v2.06l2.58-1.52-.06,5.22-2.3,1.32q.26.341.55.69t.57.67l1.16-.66-.02,2.26a1.116,1.116,0,0,0,.25.74.85.85,0,0,0,.69.3.879.879,0,0,0,.7-.3,1.092,1.092,0,0,0,.26-.74L68.8,66.8l1.74,1a.974.974,0,0,0,.69.1.787.787,0,0,0,.53-.4.778.778,0,0,0,.08-.68,1.076,1.076,0,0,0-.48-.56l-2.58-1.5-.06-5.22,4.46,2.62v3a1.009,1.009,0,0,0,.24.68.858.858,0,0,0,.64.3.757.757,0,0,0,.6-.28.956.956,0,0,0,.24-.64l.02-2.02,1.98,1.16a1.172,1.172,0,0,0,.79.15.875.875,0,0,0,.61-.43.86.86,0,0,0,.08-.76,1.139,1.139,0,0,0-.52-.6l-2.02-1.14,1.76-1.02a.863.863,0,0,0,.36-1.2.717.717,0,0,0-.54-.42,1.158,1.158,0,0,0-.74.14l-2.6,1.5L69.6,58.04l4.52-2.56L76.74,57a1.019,1.019,0,0,0,.71.13.873.873,0,0,0,.57-.41.816.816,0,0,0,.07-.67.9.9,0,0,0-.43-.53L75.9,54.5l1.98-1.12a1.112,1.112,0,0,0,.52-.61.892.892,0,0,0-.1-.75.875.875,0,0,0-.59-.45.965.965,0,0,0-.73.11l-2.02,1.18v-2a.934.934,0,0,0-.24-.66.807.807,0,0,0-.62-.26.783.783,0,0,0-.63.27,1.06,1.06,0,0,0-.23.71l-.02,2.98-4.5,2.64.06-5.26,2.6-1.5a1.076,1.076,0,0,0,.48-.56.778.778,0,0,0-.08-.68.787.787,0,0,0-.53-.4.974.974,0,0,0-.69.1L68.8,49.26l.02-2.22a1.092,1.092,0,0,0-.26-.74.879.879,0,0,0-.7-.3.856.856,0,0,0-.68.3,1.092,1.092,0,0,0-.26.74l.02,2.22-1.76-1.02A.974.974,0,0,0,64.49,48.14Z"/><path class="d" d="M57.34,77.16a3.619,3.619,0,0,0,3.64-3.64,3.387,3.387,0,0,0-.54-1.89,3.775,3.775,0,0,0-1.4-1.29,1.336,1.336,0,0,1-.52-.42,1.5,1.5,0,0,1-.14-.76V65.88a1.3,1.3,0,0,0-.3-.91.961.961,0,0,0-.74-.33.94.94,0,0,0-.72.33,1.3,1.3,0,0,0-.3.91v3.28a1.5,1.5,0,0,1-.14.76,1.336,1.336,0,0,1-.52.42,3.775,3.775,0,0,0-1.4,1.29,3.387,3.387,0,0,0-.54,1.89,3.619,3.619,0,0,0,3.62,3.64Z"/><path class="d" d="M49.73,70.15a8.311,8.311,0,0,0,.4,7.59,8.481,8.481,0,0,0,3.03,3.02,8.416,8.416,0,0,0,8.39,0,8.509,8.509,0,0,0,3.02-3.02,8.311,8.311,0,0,0,.4-7.59,8.929,8.929,0,0,0-2.13-2.87,1.166,1.166,0,0,1-.38-.88l.02-13.82a6.406,6.406,0,0,0-.64-2.94,4.766,4.766,0,0,0-1.79-1.96,5.068,5.068,0,0,0-2.69-.7,4.81,4.81,0,0,0-3.72,1.55,5.758,5.758,0,0,0-1.42,4.05l.02,13.82a1.166,1.166,0,0,1-.38.88A8.929,8.929,0,0,0,49.73,70.15Zm2.57.67a5.626,5.626,0,0,1,1.9-2.06,1.764,1.764,0,0,0,.49-.48,1.332,1.332,0,0,0,.15-.7V52.7a3.427,3.427,0,0,1,.7-2.25,2.246,2.246,0,0,1,1.82-.85,2.2,2.2,0,0,1,1.79.85,3.462,3.462,0,0,1,.69,2.25V67.58a1.332,1.332,0,0,0,.15.7,1.7,1.7,0,0,0,.51.48,5.748,5.748,0,0,1,1.81,7.67,5.78,5.78,0,0,1-2.07,2.08,5.79,5.79,0,0,1-5.77,0,5.761,5.761,0,0,1-2.08-2.08,5.795,5.795,0,0,1-.09-5.61Z"/></svg>