<svg xmlns="http://www.w3.org/2000/svg" viewBox="0 0 128 128"><defs><style>.a{fill:#0000;}.b{fill:none;}.c{fill:#fff;}</style></defs><rect class="a" x="-1757" y="-189" width="2450" height="2182"/><path class="b" d="M44.17,91.55a10.111,10.111,0,0,0,3.18,2.15,9.723,9.723,0,0,0,3.89.78,9.6,9.6,0,0,0,3.86-.78,10.143,10.143,0,0,0,5.32-5.33,9.974,9.974,0,0,0-.32-8.42,9.626,9.626,0,0,0-3.18-3.53,2.7,2.7,0,0,1-.89-.92,2.729,2.729,0,0,1-.27-1.3V49.36a6.145,6.145,0,0,0-1.26-4.08,4.06,4.06,0,0,0-3.26-1.5,4.1,4.1,0,0,0-3.3,1.5,6.145,6.145,0,0,0-1.26,4.08V74.2a2.729,2.729,0,0,1-.27,1.3,2.7,2.7,0,0,1-.89.92,9.6,9.6,0,0,0-4.28,8.06,9.723,9.723,0,0,0,.78,3.89A10.111,10.111,0,0,0,44.17,91.55Zm1.51-10.46a6.771,6.771,0,0,1,2.52-2.33,2.449,2.449,0,0,0,.91-.75,2.7,2.7,0,0,0,.25-1.37V51.5a2.206,2.206,0,0,1,.54-1.55,1.772,1.772,0,0,1,2.64,0,2.206,2.206,0,0,1,.54,1.55V76.64a2.7,2.7,0,0,0,.25,1.37,2.449,2.449,0,0,0,.91.75,6.771,6.771,0,0,1,2.52,2.33,6.087,6.087,0,0,1,.96,3.37,6.392,6.392,0,0,1-.87,3.3,6.586,6.586,0,0,1-2.35,2.36,6.585,6.585,0,0,1-6.56.01,6.491,6.491,0,0,1-3.22-5.67A6.087,6.087,0,0,1,45.68,81.09Z"/><path class="b" d="M63.52,66.92a9.146,9.146,0,0,0,4.75-1.25,9.377,9.377,0,0,0,3.36-3.38,9.688,9.688,0,0,0,0-9.52,9.377,9.377,0,0,0-3.36-3.38,9.146,9.146,0,0,0-4.75-1.25,8.37,8.37,0,0,0-2.5.38,9.558,9.558,0,0,0-1.98.894L59.012,65.75a9.884,9.884,0,0,0,1.508.67A9.2,9.2,0,0,0,63.52,66.92Z"/><path class="c" d="M77.98,69.5a1.792,1.792,0,0,0-1.26-.51,1.68,1.68,0,0,0-1.26.51,1.787,1.787,0,0,0,0,2.56l4.28,4.26a1.682,1.682,0,0,0,1.28.52,1.787,1.787,0,0,0,1.26-.54,1.727,1.727,0,0,0,.52-1.27,1.661,1.661,0,0,0-.52-1.25Z"/><path class="c" d="M41.88,93.82a13.225,13.225,0,0,0,4.22,2.84,13.436,13.436,0,0,0,10.27,0,13.15,13.15,0,0,0,4.2-2.84,13.478,13.478,0,0,0,2.84-4.21,12.814,12.814,0,0,0,1.03-5.13,12.5,12.5,0,0,0-1.18-5.39,13.878,13.878,0,0,0-3.52-4.55,2.36,2.36,0,0,1-.59-.74,2.451,2.451,0,0,1-.15-.96l.006-3.542a11.992,11.992,0,0,1-1.186-.538V65a9.883,9.883,0,0,0,1.192.75l.028-16.336c-.112.065-.23.116-.34.186l-1.76-2.78a13.409,13.409,0,0,1,1.633-.857,8.721,8.721,0,0,0-.513-1.323,7.327,7.327,0,0,0-2.73-3.04,8.3,8.3,0,0,0-8.19,0,7.378,7.378,0,0,0-2.75,3.04,9.989,9.989,0,0,0-.99,4.56l.04,23.64a2.451,2.451,0,0,1-.15.96,2.36,2.36,0,0,1-.59.74,13.878,13.878,0,0,0-3.52,4.55A12.5,12.5,0,0,0,38,84.48a12.814,12.814,0,0,0,1.03,5.13A13.4,13.4,0,0,0,41.88,93.82Zm.46-13.87a9.626,9.626,0,0,1,3.18-3.53,2.7,2.7,0,0,0,.89-.92,2.729,2.729,0,0,0,.27-1.3V49.36a6.145,6.145,0,0,1,1.26-4.08,4.1,4.1,0,0,1,3.3-1.5,4.06,4.06,0,0,1,3.26,1.5,6.145,6.145,0,0,1,1.26,4.08V74.2a2.729,2.729,0,0,0,.27,1.3,2.7,2.7,0,0,0,.89.92,9.6,9.6,0,0,1,4.28,8.06,9.723,9.723,0,0,1-.78,3.89A10.143,10.143,0,0,1,55.1,93.7a9.6,9.6,0,0,1-3.86.78,9.723,9.723,0,0,1-3.89-.78,10.116,10.116,0,0,1-5.33-5.33,9.974,9.974,0,0,1,.32-8.42Z"/><path class="c" d="M47.94,90.13a6.585,6.585,0,0,0,6.56-.01,6.586,6.586,0,0,0,2.35-2.36,6.392,6.392,0,0,0,.87-3.3,6.087,6.087,0,0,0-.96-3.37,6.771,6.771,0,0,0-2.52-2.33,2.449,2.449,0,0,1-.91-.75,2.7,2.7,0,0,1-.25-1.37V51.5a2.206,2.206,0,0,0-.54-1.55,1.772,1.772,0,0,0-2.64,0,2.206,2.206,0,0,0-.54,1.55V76.64a2.7,2.7,0,0,1-.25,1.37,2.449,2.449,0,0,1-.91.75,6.771,6.771,0,0,0-2.52,2.33,6.087,6.087,0,0,0-.96,3.37,6.491,6.491,0,0,0,3.22,5.67Z"/><path class="c" d="M58.7,49.6c.11-.07.228-.121.34-.186V49.2a10.908,10.908,0,0,0-.467-3.237,13.409,13.409,0,0,0-1.633.857Z"/><path class="c" d="M76.73,46.15a1.686,1.686,0,0,0,1.29-.53l4.26-4.26a1.793,1.793,0,0,0,.52-1.29,1.727,1.727,0,0,0-.52-1.27,1.753,1.753,0,0,0-1.26-.53,1.714,1.714,0,0,0-1.28.53l-4.28,4.28a1.662,1.662,0,0,0-.53,1.27,1.764,1.764,0,0,0,.53,1.27A1.719,1.719,0,0,0,76.73,46.15Z"/><path class="c" d="M80.9,56.25a1.738,1.738,0,0,0-.54,1.29,1.717,1.717,0,0,0,.54,1.27,1.744,1.744,0,0,0,1.26.53h6.02a1.724,1.724,0,0,0,1.28-.53,1.748,1.748,0,0,0,.52-1.27,1.771,1.771,0,0,0-.52-1.29,1.724,1.724,0,0,0-1.28-.53H82.16A1.744,1.744,0,0,0,80.9,56.25Z"/><path class="c" d="M63.52,40.64a1.827,1.827,0,0,0,1.82-1.8V32.82a1.817,1.817,0,0,0-3.1-1.29,1.738,1.738,0,0,0-.54,1.29v6.02a1.727,1.727,0,0,0,.54,1.26A1.75,1.75,0,0,0,63.52,40.64Z"/><path class="c" d="M59.04,49.414a9.558,9.558,0,0,1,1.98-.894,8.37,8.37,0,0,1,2.5-.38,9.146,9.146,0,0,1,4.75,1.25,9.377,9.377,0,0,1,3.36,3.38,9.688,9.688,0,0,1,0,9.52,9.377,9.377,0,0,1-3.36,3.38,9.495,9.495,0,0,1-7.75.75,9.884,9.884,0,0,1-1.508-.67L59.006,69.3a11.851,11.851,0,0,0,1.574.512,12.722,12.722,0,0,0,7.86-.63,12.714,12.714,0,0,0,4.01-2.71,12.663,12.663,0,0,0,0-17.88,12.714,12.714,0,0,0-4.01-2.71,12.331,12.331,0,0,0-4.92-.98,11.9,11.9,0,0,0-3.41.49,12.7,12.7,0,0,0-1.537.573A10.908,10.908,0,0,1,59.04,49.2Z"/><path class="c" d="M57.82,65v3.76a11.992,11.992,0,0,0,1.186.538l.006-3.548A9.883,9.883,0,0,1,57.82,65Z"/></svg>