<svg xmlns="http://www.w3.org/2000/svg" viewBox="0 0 128 128"><defs><style>.a{fill:#0000;}.b{fill:none;}.c{fill:#fff;}.d{fill:#ff0;}</style></defs><rect class="a" x="-1757" y="-1405" width="2450" height="2182"/><path class="b" d="M44.17,91.55a10.111,10.111,0,0,0,3.18,2.15,9.723,9.723,0,0,0,3.89.78,9.6,9.6,0,0,0,3.86-.78,10.143,10.143,0,0,0,5.32-5.33,9.974,9.974,0,0,0-.32-8.42,9.626,9.626,0,0,0-3.18-3.53,2.7,2.7,0,0,1-.89-.92,2.729,2.729,0,0,1-.27-1.3V49.36a6.145,6.145,0,0,0-1.26-4.08,4.06,4.06,0,0,0-3.26-1.5,4.1,4.1,0,0,0-3.3,1.5,6.145,6.145,0,0,0-1.26,4.08V74.2a2.729,2.729,0,0,1-.27,1.3,2.7,2.7,0,0,1-.89.92,9.6,9.6,0,0,0-4.28,8.06,9.723,9.723,0,0,0,.78,3.89A10.111,10.111,0,0,0,44.17,91.55Zm1.51-10.46a6.771,6.771,0,0,1,2.52-2.33,2.449,2.449,0,0,0,.91-.75,2.7,2.7,0,0,0,.25-1.37V51.5a2.206,2.206,0,0,1,.54-1.55,1.772,1.772,0,0,1,2.64,0,2.206,2.206,0,0,1,.54,1.55V76.64a2.7,2.7,0,0,0,.25,1.37,2.449,2.449,0,0,0,.91.75,6.771,6.771,0,0,1,2.52,2.33,6.087,6.087,0,0,1,.96,3.37,6.392,6.392,0,0,1-.87,3.3,6.586,6.586,0,0,1-2.35,2.36,6.585,6.585,0,0,1-6.56.01,6.491,6.491,0,0,1-3.22-5.67A6.087,6.087,0,0,1,45.68,81.09Z"/><path class="c" d="M47.94,90.13a6.585,6.585,0,0,0,6.56-.01,6.586,6.586,0,0,0,2.35-2.36,6.392,6.392,0,0,0,.87-3.3,6.087,6.087,0,0,0-.96-3.37,6.771,6.771,0,0,0-2.52-2.33,2.449,2.449,0,0,1-.91-.75,2.7,2.7,0,0,1-.25-1.37V51.5a2.206,2.206,0,0,0-.54-1.55,1.772,1.772,0,0,0-2.64,0,2.206,2.206,0,0,0-.54,1.55V76.64a2.7,2.7,0,0,1-.25,1.37,2.449,2.449,0,0,1-.91.75,6.771,6.771,0,0,0-2.52,2.33,6.087,6.087,0,0,0-.96,3.37,6.491,6.491,0,0,0,3.22,5.67Z"/><path class="d" d="M62.65,70.1a6.3,6.3,0,0,0,.87.06,12.331,12.331,0,0,0,4.92-.98,12.714,12.714,0,0,0,4.01-2.71,12.663,12.663,0,0,0,0-17.88,12.714,12.714,0,0,0-4.01-2.71,12.331,12.331,0,0,0-4.92-.98,7.167,7.167,0,0,0-1.14.09,7.6,7.6,0,0,0-1.12.27,11.942,11.942,0,0,1,.42,1.89,14.677,14.677,0,0,1,.14,2.05l-.04,20.74Q62.22,70.041,62.65,70.1Z"/><path class="d" d="M81.02,76.84a1.787,1.787,0,0,0,1.26-.54,1.727,1.727,0,0,0,.52-1.27,1.661,1.661,0,0,0-.52-1.25l-4.3-4.28a1.792,1.792,0,0,0-1.26-.51,1.68,1.68,0,0,0-1.26.51,1.787,1.787,0,0,0,0,2.56l4.28,4.26A1.682,1.682,0,0,0,81.02,76.84Z"/><path class="c" d="M41.88,93.82a13.225,13.225,0,0,0,4.22,2.84,13.436,13.436,0,0,0,10.27,0,13.15,13.15,0,0,0,4.2-2.84,13.478,13.478,0,0,0,2.84-4.21,12.814,12.814,0,0,0,1.03-5.13,12.5,12.5,0,0,0-1.18-5.39,13.878,13.878,0,0,0-3.52-4.55,2.36,2.36,0,0,1-.59-.74,2.451,2.451,0,0,1-.15-.96l.04-23.64a10.078,10.078,0,0,0-.98-4.56,7.327,7.327,0,0,0-2.73-3.04,8.3,8.3,0,0,0-8.19,0,7.378,7.378,0,0,0-2.75,3.04,9.989,9.989,0,0,0-.99,4.56l.04,23.64a2.451,2.451,0,0,1-.15.96,2.36,2.36,0,0,1-.59.74,13.878,13.878,0,0,0-3.52,4.55A12.5,12.5,0,0,0,38,84.48a12.814,12.814,0,0,0,1.03,5.13A13.4,13.4,0,0,0,41.88,93.82Zm.46-13.87a9.626,9.626,0,0,1,3.18-3.53,2.7,2.7,0,0,0,.89-.92,2.729,2.729,0,0,0,.27-1.3V49.36a6.145,6.145,0,0,1,1.26-4.08,4.1,4.1,0,0,1,3.3-1.5,4.06,4.06,0,0,1,3.26,1.5,6.145,6.145,0,0,1,1.26,4.08V74.2a2.729,2.729,0,0,0,.27,1.3,2.7,2.7,0,0,0,.89.92,9.6,9.6,0,0,1,4.28,8.06,9.723,9.723,0,0,1-.78,3.89A10.143,10.143,0,0,1,55.1,93.7a9.6,9.6,0,0,1-3.86.78,9.723,9.723,0,0,1-3.89-.78,10.116,10.116,0,0,1-5.33-5.33,9.974,9.974,0,0,1,.32-8.42Z"/><path class="d" d="M89.46,58.81a1.748,1.748,0,0,0,.52-1.27,1.771,1.771,0,0,0-.52-1.29,1.724,1.724,0,0,0-1.28-.53H82.16a1.827,1.827,0,0,0-1.8,1.82,1.717,1.717,0,0,0,.54,1.27,1.744,1.744,0,0,0,1.26.53h6.02A1.724,1.724,0,0,0,89.46,58.81Z"/><path class="d" d="M63.52,31a1.767,1.767,0,0,0-1.28.53,1.738,1.738,0,0,0-.54,1.29v6.02a1.727,1.727,0,0,0,.54,1.26,1.815,1.815,0,0,0,3.1-1.26V32.82A1.81,1.81,0,0,0,63.52,31Z"/><path class="d" d="M76.73,46.15a1.686,1.686,0,0,0,1.29-.53l4.26-4.26a1.793,1.793,0,0,0,.52-1.29,1.727,1.727,0,0,0-.52-1.27,1.753,1.753,0,0,0-1.26-.53,1.714,1.714,0,0,0-1.28.53l-4.28,4.28a1.662,1.662,0,0,0-.53,1.27,1.764,1.764,0,0,0,.53,1.27A1.719,1.719,0,0,0,76.73,46.15Z"/></svg>