<svg xmlns="http://www.w3.org/2000/svg" viewBox="0 0 128 128"><defs><style>.a{fill:#0000;}.b{fill:none;}.c{fill:#ff0;}.d{fill:#fff;}</style></defs><rect class="a" x="-1757" y="-1557" width="2450" height="2182"/><path class="b" d="M53.47,80.86a5.725,5.725,0,0,0,5.77,0,5.884,5.884,0,0,0,2.07-2.08,5.551,5.551,0,0,0,.77-2.88,5.665,5.665,0,0,0-2.58-4.78,1.7,1.7,0,0,1-.51-.48,1.38,1.38,0,0,1-.15-.72V55.06a3.494,3.494,0,0,0-.69-2.27,2.2,2.2,0,0,0-1.79-.85,2.246,2.246,0,0,0-1.82.85,3.458,3.458,0,0,0-.7,2.27V69.92a1.38,1.38,0,0,1-.15.72,1.764,1.764,0,0,1-.49.48,5.665,5.665,0,0,0-2.58,4.78,5.551,5.551,0,0,0,.77,2.88A5.863,5.863,0,0,0,53.47,80.86Zm-.21-6.87a3.941,3.941,0,0,1,1.4-1.31,1.21,1.21,0,0,0,.52-.4,1.5,1.5,0,0,0,.14-.76V56.28a1.273,1.273,0,0,1,.3-.89.94.94,0,0,1,.72-.33.961.961,0,0,1,.74.33,1.273,1.273,0,0,1,.3.89V71.52a1.5,1.5,0,0,0,.14.76,1.21,1.21,0,0,0,.52.4,3.941,3.941,0,0,1,1.4,1.31,3.387,3.387,0,0,1,.54,1.89,3.63,3.63,0,1,1-7.26,0A3.387,3.387,0,0,1,53.26,73.99Z"/><path class="c" d="M62.76,44.44a1.446,1.446,0,0,0-.44,1.06v3.12a1.456,1.456,0,0,0,.44,1.05,1.473,1.473,0,0,0,2.12,0,1.456,1.456,0,0,0,.44-1.05V45.5a1.5,1.5,0,0,0-2.56-1.06Z"/><path class="c" d="M73.3,71.96a1.4,1.4,0,0,0,1.05.43,1.468,1.468,0,0,0,1.48-1.49,1.348,1.348,0,0,0-.43-1.04l-2.24-2.22a1.506,1.506,0,0,0-1.05-.43,1.4,1.4,0,0,0-1.05.43,1.548,1.548,0,0,0,0,2.12Z"/><path class="c" d="M74.35,48.38a1.467,1.467,0,0,0-1.05.42l-2.24,2.24a1.522,1.522,0,0,0,0,2.1,1.4,1.4,0,0,0,1.06.44,1.469,1.469,0,0,0,1.08-.44l2.2-2.22a1.41,1.41,0,0,0,.43-1.06,1.519,1.519,0,0,0-.43-1.06A1.467,1.467,0,0,0,74.35,48.38Z"/><path class="c" d="M70.62,64.35a7.964,7.964,0,0,0,0-7.94,8.028,8.028,0,0,0-2.84-2.85,7.591,7.591,0,0,0-3.96-1.06,2.815,2.815,0,0,0-.34.02c-.107.013-.22.027-.34.04a6.767,6.767,0,0,1,.23,1.14,10.62,10.62,0,0,1,.07,1.24l-.02,13.28a1.043,1.043,0,0,0,.2.02h.2a7.65,7.65,0,0,0,3.96-1.05A7.944,7.944,0,0,0,70.62,64.35Z"/><path class="c" d="M79.71,61.44a1.522,1.522,0,0,0,0-2.12,1.414,1.414,0,0,0-1.05-.44H75.54a1.456,1.456,0,0,0-1.05.44,1.473,1.473,0,0,0,0,2.12,1.456,1.456,0,0,0,1.05.44h3.12A1.414,1.414,0,0,0,79.71,61.44Z"/><path class="d" d="M56.36,84.24a8.014,8.014,0,0,0,4.19-1.13,8.615,8.615,0,0,0,3.02-3.02,8.311,8.311,0,0,0,.4-7.59,9.2,9.2,0,0,0-2.13-2.88,1.105,1.105,0,0,1-.38-.86l.02-13.82A6.406,6.406,0,0,0,60.84,52a4.766,4.766,0,0,0-1.79-1.96,5.068,5.068,0,0,0-2.69-.7,4.823,4.823,0,0,0-3.72,1.54,5.752,5.752,0,0,0-1.42,4.06l.02,13.82a1.105,1.105,0,0,1-.38.86,9.2,9.2,0,0,0-2.13,2.88,8.311,8.311,0,0,0,.4,7.59,8.585,8.585,0,0,0,3.03,3.02A8.068,8.068,0,0,0,56.36,84.24ZM50.62,75.9a5.665,5.665,0,0,1,2.58-4.78,1.764,1.764,0,0,0,.49-.48,1.38,1.38,0,0,0,.15-.72V55.06a3.458,3.458,0,0,1,.7-2.27,2.246,2.246,0,0,1,1.82-.85,2.2,2.2,0,0,1,1.79.85,3.494,3.494,0,0,1,.69,2.27V69.92a1.38,1.38,0,0,0,.15.72,1.7,1.7,0,0,0,.51.48,5.665,5.665,0,0,1,2.58,4.78,5.551,5.551,0,0,1-.77,2.88,5.884,5.884,0,0,1-2.07,2.08,5.725,5.725,0,0,1-5.77,0,5.863,5.863,0,0,1-2.08-2.08A5.551,5.551,0,0,1,50.62,75.9Z"/><path class="d" d="M56.34,79.52a3.636,3.636,0,0,0,3.64-3.64,3.387,3.387,0,0,0-.54-1.89,3.941,3.941,0,0,0-1.4-1.31,1.21,1.21,0,0,1-.52-.4,1.5,1.5,0,0,1-.14-.76V56.28a1.273,1.273,0,0,0-.3-.89.961.961,0,0,0-.74-.33.94.94,0,0,0-.72.33,1.273,1.273,0,0,0-.3.89V71.52a1.5,1.5,0,0,1-.14.76,1.21,1.21,0,0,1-.52.4,3.941,3.941,0,0,0-1.4,1.31,3.387,3.387,0,0,0-.54,1.89,3.619,3.619,0,0,0,3.62,3.64Z"/></svg>