<svg xmlns="http://www.w3.org/2000/svg" viewBox="0 0 128 128"><defs><style>.a{fill:#0000;}.b{fill:none;}.c{fill:#00c9ea;}.d{fill:#fff;}</style></defs><rect class="a" x="-1757" y="-493" width="2450" height="2182"/><path class="b" d="M43.24,80.48a9.723,9.723,0,0,0,.78,3.89,10.116,10.116,0,0,0,5.33,5.33,9.723,9.723,0,0,0,3.89.78,9.6,9.6,0,0,0,3.86-.78,10.143,10.143,0,0,0,5.32-5.33,9.974,9.974,0,0,0-.32-8.42,9.626,9.626,0,0,0-3.18-3.53,2.7,2.7,0,0,1-.89-.92,2.729,2.729,0,0,1-.27-1.3V45.36a6.145,6.145,0,0,0-1.26-4.08,4.06,4.06,0,0,0-3.26-1.5,4.1,4.1,0,0,0-3.3,1.5,6.145,6.145,0,0,0-1.26,4.08V70.2a2.729,2.729,0,0,1-.27,1.3,2.7,2.7,0,0,1-.89.92,9.6,9.6,0,0,0-4.28,8.06Zm4.44-3.39a6.771,6.771,0,0,1,2.52-2.33,2.449,2.449,0,0,0,.91-.75,2.7,2.7,0,0,0,.25-1.37V67.8a2.206,2.206,0,0,1,.54-1.55,1.772,1.772,0,0,1,2.64,0,2.206,2.206,0,0,1,.54,1.55v4.84a2.7,2.7,0,0,0,.25,1.37,2.449,2.449,0,0,0,.91.75,6.771,6.771,0,0,1,2.52,2.33,6.087,6.087,0,0,1,.96,3.37,6.491,6.491,0,0,1-3.22,5.67,6.618,6.618,0,0,1-6.56,0,6.491,6.491,0,0,1-3.22-5.67A6.087,6.087,0,0,1,47.68,77.09Z"/><path class="c" d="M87.55,44.75a1.167,1.167,0,0,0-.11-.99,1.109,1.109,0,0,0-.79-.57,1.418,1.418,0,0,0-.97.17l-3.72,2.16V41.7a1.329,1.329,0,0,0-.31-.9,1.019,1.019,0,0,0-.81-.36,1.043,1.043,0,0,0-.86.37,1.46,1.46,0,0,0-.3.95l-.02,5.1-8,4.68.06-9.3,4.44-2.58a1.51,1.51,0,0,0,.67-.74A1.11,1.11,0,0,0,76,37.47a1.29,1.29,0,0,0-.92.17l-3.34,1.94.02-4.18a1.561,1.561,0,0,0-.32-.99,1.076,1.076,0,0,0-.9-.41,1.1,1.1,0,0,0-.91.41,1.528,1.528,0,0,0-.33.99l.02,4.18L66,37.64a1.336,1.336,0,0,0-.93-.17,1.113,1.113,0,0,0-.82,1.45,1.528,1.528,0,0,0,.65.74l4.44,2.58.06,9.3-5.58-3.28v2.7l4.44,2.56-4.44,2.52v2.72L69.4,55.5l-.06,9.26-4.1,2.36a1.635,1.635,0,0,0,.23.71,3.165,3.165,0,0,0,.52.68,1.94,1.94,0,0,0,.67.45l2.66-1.54-.02,4.22a1.521,1.521,0,0,0,.32.98,1.108,1.108,0,0,0,.92.4,1.085,1.085,0,0,0,.9-.4,1.521,1.521,0,0,0,.32-.98l-.02-4.2,3.32,1.9a1.333,1.333,0,0,0,.92.18,1.013,1.013,0,0,0,.74-.54,1.061,1.061,0,0,0,.09-.92,1.51,1.51,0,0,0-.67-.74l-4.42-2.56-.06-9.26,7.96,4.66v5.1a1.4,1.4,0,0,0,.31.93,1.105,1.105,0,0,0,.85.39,1.006,1.006,0,0,0,.81-.37,1.339,1.339,0,0,0,.31-.89l.02-3.82,3.68,2.14a1.5,1.5,0,0,0,1.02.22,1.17,1.17,0,0,0,.91-1.56,1.469,1.469,0,0,0-.71-.78l-3.7-2.12,3.32-1.94a1.225,1.225,0,0,0,.62-.7,1.069,1.069,0,0,0-.08-.9,1.035,1.035,0,0,0-.76-.55,1.449,1.449,0,0,0-.96.21L80.8,58.06l-7.98-4.54,8.04-4.58,4.46,2.58a1.445,1.445,0,0,0,.94.19,1.092,1.092,0,0,0,.78-.55,1,1,0,0,0,.07-.88,1.367,1.367,0,0,0-.61-.72l-3.32-1.92,3.66-2.1A1.447,1.447,0,0,0,87.55,44.75Z"/><path class="d" d="M44.7,70.54a13.878,13.878,0,0,0-3.52,4.55A12.5,12.5,0,0,0,40,80.48a12.814,12.814,0,0,0,1.03,5.13,13.4,13.4,0,0,0,2.85,4.21,13.225,13.225,0,0,0,4.22,2.84,13.436,13.436,0,0,0,10.27,0,13.15,13.15,0,0,0,4.2-2.84,13.478,13.478,0,0,0,2.84-4.21,12.814,12.814,0,0,0,1.03-5.13,12.5,12.5,0,0,0-1.18-5.39,13.878,13.878,0,0,0-3.52-4.55,2.36,2.36,0,0,1-.59-.74,2.451,2.451,0,0,1-.15-.96l.04-23.62a10.06,10.06,0,0,0-.98-4.57,7.414,7.414,0,0,0-2.73-3.04,8.237,8.237,0,0,0-8.19,0,7.466,7.466,0,0,0-2.75,3.04,9.97,9.97,0,0,0-.99,4.57l.04,23.62a2.451,2.451,0,0,1-.15.96A2.36,2.36,0,0,1,44.7,70.54Zm2.82,1.88a2.7,2.7,0,0,0,.89-.92,2.729,2.729,0,0,0,.27-1.3V45.36a6.145,6.145,0,0,1,1.26-4.08,4.1,4.1,0,0,1,3.3-1.5,4.06,4.06,0,0,1,3.26,1.5,6.145,6.145,0,0,1,1.26,4.08V70.2a2.729,2.729,0,0,0,.27,1.3,2.7,2.7,0,0,0,.89.92,9.6,9.6,0,0,1,4.28,8.06,9.723,9.723,0,0,1-.78,3.89A10.143,10.143,0,0,1,57.1,89.7a9.6,9.6,0,0,1-3.86.78,9.723,9.723,0,0,1-3.89-.78,10.116,10.116,0,0,1-5.33-5.33,9.974,9.974,0,0,1,.32-8.42A9.626,9.626,0,0,1,47.52,72.42Z"/><path class="d" d="M49.94,86.13a6.618,6.618,0,0,0,6.56,0,6.491,6.491,0,0,0,3.22-5.67,6.087,6.087,0,0,0-.96-3.37,6.771,6.771,0,0,0-2.52-2.33,2.449,2.449,0,0,1-.91-.75,2.7,2.7,0,0,1-.25-1.37V67.8a2.206,2.206,0,0,0-.54-1.55,1.772,1.772,0,0,0-2.64,0,2.206,2.206,0,0,0-.54,1.55v4.84a2.7,2.7,0,0,1-.25,1.37,2.449,2.449,0,0,1-.91.75,6.771,6.771,0,0,0-2.52,2.33,6.087,6.087,0,0,0-.96,3.37,6.491,6.491,0,0,0,3.22,5.67Z"/></svg>