<svg xmlns="http://www.w3.org/2000/svg" viewBox="0 0 128 128"><defs><style>.a{fill:#0000;}.b{fill:none;}.c{fill:#fff;}</style></defs><rect class="a" x="-1757" y="-949" width="2450" height="2182"/><path class="b" d="M59.47,78.53a5.79,5.79,0,0,0,5.77,0,5.78,5.78,0,0,0,2.07-2.08,5.713,5.713,0,0,0-1.81-7.67,1.7,1.7,0,0,1-.51-.48,1.332,1.332,0,0,1-.15-.7V52.72a3.462,3.462,0,0,0-.69-2.25,2.2,2.2,0,0,0-1.79-.85,2.246,2.246,0,0,0-1.82.85,3.427,3.427,0,0,0-.7,2.25V67.6a1.332,1.332,0,0,1-.15.7,1.764,1.764,0,0,1-.49.48,5.748,5.748,0,0,0-1.81,7.67A5.761,5.761,0,0,0,59.47,78.53Zm-.21-6.88a3.775,3.775,0,0,1,1.4-1.29,1.336,1.336,0,0,0,.52-.42,1.5,1.5,0,0,0,.14-.76V60.76a1.3,1.3,0,0,1,.3-.91.94.94,0,0,1,.72-.33.961.961,0,0,1,.74.33,1.3,1.3,0,0,1,.3.91v8.42a1.5,1.5,0,0,0,.14.76,1.336,1.336,0,0,0,.52.42,3.775,3.775,0,0,1,1.4,1.29,3.387,3.387,0,0,1,.54,1.89,3.63,3.63,0,1,1-7.26,0A3.387,3.387,0,0,1,59.26,71.65Z"/><path class="c" d="M69.76,56.91a.972.972,0,0,0,.76.31h3.46a.948.948,0,0,0,.74-.31A1.027,1.027,0,0,0,75,56.2a1.053,1.053,0,0,0-.28-.73.948.948,0,0,0-.74-.31H70.52a.972.972,0,0,0-.76.31,1.053,1.053,0,0,0-.28.73A1.027,1.027,0,0,0,69.76,56.91Z"/><path class="c" d="M69.76,61.31a.972.972,0,0,0,.76.31h3.46a.948.948,0,0,0,.74-.31A1.027,1.027,0,0,0,75,60.6a1.053,1.053,0,0,0-.28-.73.948.948,0,0,0-.74-.31H70.52a.972.972,0,0,0-.76.31,1.053,1.053,0,0,0-.28.73A1.027,1.027,0,0,0,69.76,61.31Z"/><path class="c" d="M69.76,65.71a.972.972,0,0,0,.76.31h3.46a.948.948,0,0,0,.74-.31A1.027,1.027,0,0,0,75,65a1.053,1.053,0,0,0-.28-.73.948.948,0,0,0-.74-.31H70.52a.972.972,0,0,0-.76.31,1.053,1.053,0,0,0-.28.73A1.027,1.027,0,0,0,69.76,65.71Z"/><path class="c" d="M70.52,50.76a.972.972,0,0,0-.76.31,1.053,1.053,0,0,0-.28.73,1.027,1.027,0,0,0,.28.71.972.972,0,0,0,.76.31h3.46a.948.948,0,0,0,.74-.31A1.027,1.027,0,0,0,75,51.8a1.053,1.053,0,0,0-.28-.73.948.948,0,0,0-.74-.31Z"/><path class="c" d="M58.16,80.78a8.416,8.416,0,0,0,8.39,0,8.509,8.509,0,0,0,3.02-3.02,8.311,8.311,0,0,0,.4-7.59,8.929,8.929,0,0,0-2.13-2.87,1.166,1.166,0,0,1-.38-.88l.02-13.82a6.406,6.406,0,0,0-.64-2.94,4.766,4.766,0,0,0-1.79-1.96,5.068,5.068,0,0,0-2.69-.7,4.81,4.81,0,0,0-3.72,1.55,5.758,5.758,0,0,0-1.42,4.05l.02,13.82a1.166,1.166,0,0,1-.38.88,8.929,8.929,0,0,0-2.13,2.87,8.311,8.311,0,0,0,.4,7.59A8.481,8.481,0,0,0,58.16,80.78Zm-.86-9.94a5.626,5.626,0,0,1,1.9-2.06,1.764,1.764,0,0,0,.49-.48,1.332,1.332,0,0,0,.15-.7V52.72a3.427,3.427,0,0,1,.7-2.25,2.246,2.246,0,0,1,1.82-.85,2.2,2.2,0,0,1,1.79.85,3.462,3.462,0,0,1,.69,2.25V67.6a1.332,1.332,0,0,0,.15.7,1.7,1.7,0,0,0,.51.48,5.748,5.748,0,0,1,1.81,7.67,5.78,5.78,0,0,1-2.07,2.08,5.79,5.79,0,0,1-5.77,0,5.761,5.761,0,0,1-2.08-2.08,5.795,5.795,0,0,1-.09-5.61Z"/><path class="c" d="M62.34,77.18a3.619,3.619,0,0,0,3.64-3.64,3.387,3.387,0,0,0-.54-1.89,3.775,3.775,0,0,0-1.4-1.29,1.336,1.336,0,0,1-.52-.42,1.5,1.5,0,0,1-.14-.76V60.76a1.3,1.3,0,0,0-.3-.91.961.961,0,0,0-.74-.33.94.94,0,0,0-.72.33,1.3,1.3,0,0,0-.3.91v8.42a1.5,1.5,0,0,1-.14.76,1.336,1.336,0,0,1-.52.42,3.775,3.775,0,0,0-1.4,1.29,3.387,3.387,0,0,0-.54,1.89,3.619,3.619,0,0,0,3.62,3.64Z"/></svg>