<svg xmlns="http://www.w3.org/2000/svg" viewBox="0 0 128 128"><defs><style>.a{fill:#0000;}.b{fill:none;}.c{fill:#fff;}</style></defs><rect class="a" x="-1757" y="-797" width="2450" height="2182"/><path class="b" d="M54.17,86.03a10.111,10.111,0,0,0,3.18,2.15,9.723,9.723,0,0,0,3.89.78,9.6,9.6,0,0,0,3.86-.78,10.143,10.143,0,0,0,5.32-5.33,9.974,9.974,0,0,0-.32-8.42,9.626,9.626,0,0,0-3.18-3.53,2.7,2.7,0,0,1-.89-.92,2.729,2.729,0,0,1-.27-1.3V43.84a6.145,6.145,0,0,0-1.26-4.08,4.06,4.06,0,0,0-3.26-1.5,4.1,4.1,0,0,0-3.3,1.5,6.145,6.145,0,0,0-1.26,4.08V68.68a2.729,2.729,0,0,1-.27,1.3,2.7,2.7,0,0,1-.89.92,9.6,9.6,0,0,0-4.28,8.06,9.723,9.723,0,0,0,.78,3.89A10.111,10.111,0,0,0,54.17,86.03Zm1.51-10.46a6.771,6.771,0,0,1,2.52-2.33,2.449,2.449,0,0,0,.91-.75,2.7,2.7,0,0,0,.25-1.37V57.44a2.206,2.206,0,0,1,.54-1.55,1.772,1.772,0,0,1,2.64,0,2.206,2.206,0,0,1,.54,1.55V71.12a2.7,2.7,0,0,0,.25,1.37,2.449,2.449,0,0,0,.91.75,6.771,6.771,0,0,1,2.52,2.33,6.087,6.087,0,0,1,.96,3.37,6.491,6.491,0,0,1-3.22,5.67,6.618,6.618,0,0,1-6.56,0,6.491,6.491,0,0,1-3.22-5.67A6.087,6.087,0,0,1,55.68,75.57Z"/><path class="c" d="M73.68,51.6h5.5a1.308,1.308,0,0,0,.98-.39,1.288,1.288,0,0,0,.38-.93,1.264,1.264,0,0,0-.38-.91,1.308,1.308,0,0,0-.98-.39h-5.5a1.308,1.308,0,0,0-.98.39,1.264,1.264,0,0,0-.38.91,1.288,1.288,0,0,0,.38.93A1.308,1.308,0,0,0,73.68,51.6Z"/><path class="c" d="M72.7,58.45a1.308,1.308,0,0,0,.98.39h5.5a1.308,1.308,0,0,0,.98-.39,1.264,1.264,0,0,0,.38-.91,1.288,1.288,0,0,0-.38-.93,1.308,1.308,0,0,0-.98-.39h-5.5a1.308,1.308,0,0,0-.98.39,1.288,1.288,0,0,0-.38.93A1.264,1.264,0,0,0,72.7,58.45Z"/><path class="c" d="M72.7,65.71a1.308,1.308,0,0,0,.98.39h5.5a1.308,1.308,0,0,0,.98-.39,1.325,1.325,0,0,0-.98-2.25h-5.5a1.323,1.323,0,0,0-.98,2.25Z"/><path class="c" d="M57.94,84.61a6.618,6.618,0,0,0,6.56,0,6.491,6.491,0,0,0,3.22-5.67,6.087,6.087,0,0,0-.96-3.37,6.771,6.771,0,0,0-2.52-2.33,2.449,2.449,0,0,1-.91-.75,2.7,2.7,0,0,1-.25-1.37V57.44a2.206,2.206,0,0,0-.54-1.55,1.772,1.772,0,0,0-2.64,0,2.206,2.206,0,0,0-.54,1.55V71.12a2.7,2.7,0,0,1-.25,1.37,2.449,2.449,0,0,1-.91.75,6.771,6.771,0,0,0-2.52,2.33,6.087,6.087,0,0,0-.96,3.37,6.491,6.491,0,0,0,3.22,5.67Z"/><path class="c" d="M79.18,41.72h-5.5a1.323,1.323,0,0,0-.98,2.25,1.308,1.308,0,0,0,.98.39h5.5a1.308,1.308,0,0,0,.98-.39,1.325,1.325,0,0,0-.98-2.25Z"/><path class="c" d="M49.03,84.09a13.4,13.4,0,0,0,2.85,4.21,13.225,13.225,0,0,0,4.22,2.84,13.436,13.436,0,0,0,10.27,0,13.15,13.15,0,0,0,4.2-2.84,13.478,13.478,0,0,0,2.84-4.21,12.814,12.814,0,0,0,1.03-5.13,12.5,12.5,0,0,0-1.18-5.39,13.878,13.878,0,0,0-3.52-4.55,2.36,2.36,0,0,1-.59-.74,2.451,2.451,0,0,1-.15-.96l.04-23.62a10.06,10.06,0,0,0-.98-4.57,7.414,7.414,0,0,0-2.73-3.04,8.237,8.237,0,0,0-8.19,0,7.466,7.466,0,0,0-2.75,3.04,9.97,9.97,0,0,0-.99,4.57l.04,23.62a2.451,2.451,0,0,1-.15.96,2.36,2.36,0,0,1-.59.74,13.878,13.878,0,0,0-3.52,4.55A12.5,12.5,0,0,0,48,78.96,12.814,12.814,0,0,0,49.03,84.09Zm3.31-9.66a9.626,9.626,0,0,1,3.18-3.53,2.7,2.7,0,0,0,.89-.92,2.729,2.729,0,0,0,.27-1.3V43.84a6.145,6.145,0,0,1,1.26-4.08,4.1,4.1,0,0,1,3.3-1.5,4.06,4.06,0,0,1,3.26,1.5,6.145,6.145,0,0,1,1.26,4.08V68.68a2.729,2.729,0,0,0,.27,1.3,2.7,2.7,0,0,0,.89.92,9.6,9.6,0,0,1,4.28,8.06,9.723,9.723,0,0,1-.78,3.89,10.143,10.143,0,0,1-5.32,5.33,9.6,9.6,0,0,1-3.86.78,9.723,9.723,0,0,1-3.89-.78,10.116,10.116,0,0,1-5.33-5.33,9.974,9.974,0,0,1,.32-8.42Z"/></svg>