<svg xmlns="http://www.w3.org/2000/svg" viewBox="0 0 128 128"><defs><style>.a{fill:#0000;}.b{fill:none;}.c{fill:#fff;}</style></defs><rect class="a" x="-1757" y="-341" width="2450" height="2182"/><path class="b" d="M51.39,78.78a5.863,5.863,0,0,0,2.08,2.08,5.725,5.725,0,0,0,5.77,0,5.884,5.884,0,0,0,2.07-2.08,5.551,5.551,0,0,0,.77-2.88,5.665,5.665,0,0,0-2.58-4.78,1.7,1.7,0,0,1-.51-.48,1.38,1.38,0,0,1-.15-.72V55.06a3.494,3.494,0,0,0-.69-2.27,2.2,2.2,0,0,0-1.79-.85,2.246,2.246,0,0,0-1.82.85,3.458,3.458,0,0,0-.7,2.27V69.92a1.38,1.38,0,0,1-.15.72,1.764,1.764,0,0,1-.49.48,5.665,5.665,0,0,0-2.58,4.78A5.551,5.551,0,0,0,51.39,78.78Zm1.87-4.79a3.941,3.941,0,0,1,1.4-1.31,1.21,1.21,0,0,0,.52-.4,1.5,1.5,0,0,0,.14-.76V56.28a1.273,1.273,0,0,1,.3-.89.94.94,0,0,1,.72-.33.961.961,0,0,1,.74.33,1.273,1.273,0,0,1,.3.89V71.52a1.5,1.5,0,0,0,.14.76,1.21,1.21,0,0,0,.52.4,3.941,3.941,0,0,1,1.4,1.31,3.387,3.387,0,0,1,.54,1.89,3.63,3.63,0,1,1-7.26,0A3.387,3.387,0,0,1,53.26,73.99Z"/><path class="b" d="M63.82,65.62a5.282,5.282,0,0,0,4.54-7.91,5.272,5.272,0,0,0-1.88-1.89,5.111,5.111,0,0,0-2.66-.7,4.767,4.767,0,0,0-2.341.62l-.014,9.287a5.885,5.885,0,0,0,.585.273A4.993,4.993,0,0,0,63.82,65.62Z"/><path class="c" d="M64.88,49.67a1.456,1.456,0,0,0,.44-1.05V45.5a1.5,1.5,0,0,0-3,0v3.12a1.456,1.456,0,0,0,.44,1.05,1.473,1.473,0,0,0,2.12,0Z"/><path class="c" d="M56.34,79.52a3.636,3.636,0,0,0,3.64-3.64,3.387,3.387,0,0,0-.54-1.89,3.941,3.941,0,0,0-1.4-1.31,1.21,1.21,0,0,1-.52-.4,1.5,1.5,0,0,1-.14-.76V56.28a1.273,1.273,0,0,0-.3-.89.961.961,0,0,0-.74-.33.94.94,0,0,0-.72.33,1.273,1.273,0,0,0-.3.89V71.52a1.5,1.5,0,0,1-.14.76,1.21,1.21,0,0,1-.52.4,3.941,3.941,0,0,0-1.4,1.31,3.387,3.387,0,0,0-.54,1.89,3.619,3.619,0,0,0,3.62,3.64Z"/><path class="c" d="M61.36,55.8c.039-.023.08-.038.119-.06v-.8a7.041,7.041,0,0,0-.268-1.958,7.862,7.862,0,0,0-1.272.578Z"/><path class="c" d="M61.479,55.74a4.767,4.767,0,0,1,2.341-.62,5.111,5.111,0,0,1,2.66.7,5.272,5.272,0,0,1,1.88,1.89,5.221,5.221,0,0,1-4.54,7.91,4.993,4.993,0,0,1-1.77-.32,5.885,5.885,0,0,1-.585-.273l0,2.842c.21.066.421.132.639.181a7.75,7.75,0,0,0,1.72.19,7.65,7.65,0,0,0,3.96-1.05,7.944,7.944,0,0,0,2.84-2.84,7.964,7.964,0,0,0,0-7.94,8.028,8.028,0,0,0-2.84-2.85,7.591,7.591,0,0,0-3.96-1.06,7.412,7.412,0,0,0-2.03.28c-.2.056-.387.133-.578.2a7.041,7.041,0,0,1,.268,1.958Z"/><path class="c" d="M48.73,72.5a8.311,8.311,0,0,0,.4,7.59,8.585,8.585,0,0,0,3.03,3.02,8.352,8.352,0,0,0,8.39,0,8.615,8.615,0,0,0,3.02-3.02,8.311,8.311,0,0,0,.4-7.59,9.2,9.2,0,0,0-2.13-2.88,1.105,1.105,0,0,1-.38-.86v-.891A7.475,7.475,0,0,1,60.5,67.5V64.42a5.691,5.691,0,0,0,.965.607l.014-9.287c-.039.022-.08.037-.119.06l-1.42-2.24a7.862,7.862,0,0,1,1.272-.578A5.547,5.547,0,0,0,60.84,52a4.766,4.766,0,0,0-1.79-1.96,5.068,5.068,0,0,0-2.69-.7,4.823,4.823,0,0,0-3.72,1.54,5.752,5.752,0,0,0-1.42,4.06l.02,13.82a1.105,1.105,0,0,1-.38.86A9.2,9.2,0,0,0,48.73,72.5Zm2.57.68a5.626,5.626,0,0,1,1.9-2.06,1.764,1.764,0,0,0,.49-.48,1.38,1.38,0,0,0,.15-.72V55.06a3.458,3.458,0,0,1,.7-2.27,2.246,2.246,0,0,1,1.82-.85,2.2,2.2,0,0,1,1.79.85,3.494,3.494,0,0,1,.69,2.27V69.92a1.38,1.38,0,0,0,.15.72,1.7,1.7,0,0,0,.51.48,5.665,5.665,0,0,1,2.58,4.78,5.551,5.551,0,0,1-.77,2.88,5.884,5.884,0,0,1-2.07,2.08,5.725,5.725,0,0,1-5.77,0,5.863,5.863,0,0,1-2.08-2.08,5.551,5.551,0,0,1-.77-2.88A5.643,5.643,0,0,1,51.3,73.18Z"/><path class="c" d="M78.66,61.88a1.414,1.414,0,0,0,1.05-.44,1.522,1.522,0,0,0,0-2.12,1.414,1.414,0,0,0-1.05-.44H75.54a1.456,1.456,0,0,0-1.05.44,1.473,1.473,0,0,0,0,2.12,1.456,1.456,0,0,0,1.05.44Z"/><path class="c" d="M73.3,48.8l-2.24,2.24a1.522,1.522,0,0,0,0,2.1,1.4,1.4,0,0,0,1.06.44,1.469,1.469,0,0,0,1.08-.44l2.2-2.22a1.41,1.41,0,0,0,.43-1.06,1.519,1.519,0,0,0-.43-1.06,1.523,1.523,0,0,0-2.1,0Z"/><path class="c" d="M72.11,67.21a1.4,1.4,0,0,0-1.05.43,1.548,1.548,0,0,0,0,2.12l2.24,2.2a1.4,1.4,0,0,0,1.05.43,1.468,1.468,0,0,0,1.48-1.49,1.348,1.348,0,0,0-.43-1.04l-2.24-2.22A1.506,1.506,0,0,0,72.11,67.21Z"/><path class="c" d="M60.5,64.42V67.5a7.475,7.475,0,0,0,.961.369l0-2.842A5.691,5.691,0,0,1,60.5,64.42Z"/></svg>