<svg xmlns="http://www.w3.org/2000/svg" viewBox="0 0 128 128"><defs><style>.a{fill:#0000;}.b{fill:#fff;}</style></defs><rect class="a" x="-1605" y="-949" width="2450" height="2182"/><path class="b" d="M63.94,83.111a45.673,45.673,0,0,0,4.92.31,42.747,42.747,0,0,0,5.21-.26,29.622,29.622,0,0,0,5.01-.99,1.5,1.5,0,0,0,1.04-.78,1.472,1.472,0,0,0,.08-1.16,1.233,1.233,0,0,0-.76-.83,2.276,2.276,0,0,0-1.36-.01,34.255,34.255,0,0,1-4.41.86,37.372,37.372,0,0,1-4.65.31,36.372,36.372,0,0,1-4.6-.27,1.908,1.908,0,0,0-1.3.23,1.249,1.249,0,0,0-.6.93,1.5,1.5,0,0,0,.25,1.09A1.577,1.577,0,0,0,63.94,83.111Z"/><path class="b" d="M58.5,66.751q3.12.26,6.02.26a67.239,67.239,0,0,0,11.39-.92,42.27,42.27,0,0,0,9.27-2.58,1.64,1.64,0,0,0,.93-.84,1.259,1.259,0,0,0-.05-1.18,1.222,1.222,0,0,0-.89-.69,2.552,2.552,0,0,0-1.35.17,38.462,38.462,0,0,1-5.51,1.66,57.858,57.858,0,0,1-6.56,1.08,66.883,66.883,0,0,1-7.23.38q-2.8,0-5.79-.24t-5.85-.71a45.968,45.968,0,0,1-5.28-1.17,2.051,2.051,0,0,0-1.33,0,1.211,1.211,0,0,0-.75.86,1.357,1.357,0,0,0,.11,1.15,1.736,1.736,0,0,0,1.09.75,49.291,49.291,0,0,0,5.64,1.26Q55.379,66.491,58.5,66.751Z"/><path class="b" d="M86.15,45.3a15.611,15.611,0,0,0-6.08-2.7,38.176,38.176,0,0,0-9.01-.95,46.94,46.94,0,0,0-10.19,1.01,38.717,38.717,0,0,0-7.99,2.63,1.758,1.758,0,0,0-1.03,1.07,1.633,1.633,0,0,0,.09,1.27,1.5,1.5,0,0,0,1.04.79,2.225,2.225,0,0,0,1.42-.13,52.854,52.854,0,0,1,7.12-2.36,37.049,37.049,0,0,1,9.36-1.06,39.5,39.5,0,0,1,7.53.62,14.77,14.77,0,0,1,4.83,1.66q1.68,1.039,1.68,2.28a2.807,2.807,0,0,1-1.49,2.14,15.529,15.529,0,0,1-4.29,1.89,42.221,42.221,0,0,1-6.73,1.36,69.091,69.091,0,0,1-8.83.51,59.033,59.033,0,0,1-11.01-.87,17.134,17.134,0,0,1-6.81-2.57,5.072,5.072,0,0,1-2.32-4.22,6.38,6.38,0,0,1,2.36-4.51q2.359-2.25,7.92-4.01a1.89,1.89,0,0,0,1.11-.85,1.53,1.53,0,0,0,.11-1.27,1.447,1.447,0,0,0-.84-.92,2.239,2.239,0,0,0-1.5.04,27.2,27.2,0,0,0-6.98,3.08,13.869,13.869,0,0,0-4.21,4.01A8.259,8.259,0,0,0,40,47.771q0,5.3,6.04,8.08t17.68,2.78a71.4,71.4,0,0,0,10.31-.67,36.318,36.318,0,0,0,7.75-1.91,13.994,13.994,0,0,0,4.88-2.92,5.122,5.122,0,0,0,1.68-3.68A5.184,5.184,0,0,0,86.15,45.3Z"/><path class="b" d="M61.24,88.691a1.282,1.282,0,0,0-.54.86,1.37,1.37,0,0,0,.29,1.06,1.683,1.683,0,0,0,1.19.58q.78.1,1.68.13t1.82-.01q.919-.041,1.74-.14a1.639,1.639,0,0,0,1.12-.55,1.427,1.427,0,0,0,.3-1.07,1.331,1.331,0,0,0-.52-.9,1.713,1.713,0,0,0-1.28-.24,16.27,16.27,0,0,1-2.27.17,17.334,17.334,0,0,1-2.31-.13A1.627,1.627,0,0,0,61.24,88.691Z"/><path class="b" d="M85.42,69.481a2.458,2.458,0,0,0-1.44.11,54.826,54.826,0,0,1-8.58,2.08,57.8,57.8,0,0,1-9.08.7q-1.98,0-3.96-.12t-3.6-.34a1.891,1.891,0,0,0-1.29.18,1.3,1.3,0,0,0-.61.9,1.485,1.485,0,0,0,.23,1.1,1.742,1.742,0,0,0,1.21.66,35.415,35.415,0,0,0,3.57.4q2.07.14,4.45.12a62.893,62.893,0,0,0,9.85-.79,55.748,55.748,0,0,0,8.97-2.21,1.528,1.528,0,0,0,1.09-.89,1.611,1.611,0,0,0,.01-1.13A1.225,1.225,0,0,0,85.42,69.481Z"/></svg>