<svg xmlns="http://www.w3.org/2000/svg" viewBox="0 0 128 128"><defs><style>.a{fill:#0000;}.b{fill:#fff;}</style></defs><rect class="a" x="-1605" y="-1101" width="2450" height="2182"/><path class="b" d="M77.73,69.411a1.339,1.339,0,0,0-.01-.9.959.959,0,0,0-.65-.6,1.944,1.944,0,0,0-1.15.08,34.544,34.544,0,0,1-5.27,1.26,34.963,34.963,0,0,1-5.33.4q-1.159,0-2.32-.08t-2.12-.22a1.559,1.559,0,0,0-1.03.16.994.994,0,0,0-.47.72,1.2,1.2,0,0,0,.18.88,1.349,1.349,0,0,0,.96.52,20.483,20.483,0,0,0,2.1.25q1.22.09,2.7.07a41.5,41.5,0,0,0,5.94-.46,32.49,32.49,0,0,0,5.6-1.36A1.215,1.215,0,0,0,77.73,69.411Z"/><path class="b" d="M57.84,49.571a1.537,1.537,0,0,0,.92-.7,1.279,1.279,0,0,0,.08-1.04q-.4-1.161-1.9-.7a13.953,13.953,0,0,0-6,3.19A5.945,5.945,0,0,0,49,54.531q0,3.44,3.76,5.22t11.08,1.78a37.963,37.963,0,0,0,8.34-.78,13.715,13.715,0,0,0,5.16-2.11,3.79,3.79,0,0,0,1.76-3.03,3.4,3.4,0,0,0-1.38-2.71,9.672,9.672,0,0,0-3.82-1.74,23.175,23.175,0,0,0-5.6-.61,29.55,29.55,0,0,0-6.4.62,22.09,22.09,0,0,0-4.84,1.62,1.332,1.332,0,0,0-.79.85,1.351,1.351,0,0,0,.07.99,1.213,1.213,0,0,0,.84.66,1.725,1.725,0,0,0,1.1-.08,34.1,34.1,0,0,1,4.28-1.42,21.665,21.665,0,0,1,5.56-.64,23.3,23.3,0,0,1,4.44.36,9.209,9.209,0,0,1,2.78.92q.96.56.96,1.16,0,.559-.83,1.12a9.176,9.176,0,0,1-2.44,1.04,25.322,25.322,0,0,1-3.96.78,42.823,42.823,0,0,1-5.37.3,27.134,27.134,0,0,1-8.87-1.11q-3.03-1.11-3.03-3.27a3.588,3.588,0,0,1,1.3-2.49A12.588,12.588,0,0,1,57.84,49.571Z"/><path class="b" d="M71.26,66.2a28.063,28.063,0,0,0,5.7-1.55,1.259,1.259,0,0,0,.71-.67,1.018,1.018,0,0,0-.03-.93,1.074,1.074,0,0,0-.71-.54,1.874,1.874,0,0,0-1.05.12,28.971,28.971,0,0,1-5.15,1.32,37.849,37.849,0,0,1-6.43.52q-1.66,0-3.42-.14t-3.49-.42a26.057,26.057,0,0,1-3.27-.74,1.569,1.569,0,0,0-1.05,0,.966.966,0,0,0-.59.68,1.185,1.185,0,0,0,.1.93,1.361,1.361,0,0,0,.86.61,37.467,37.467,0,0,0,5.35,1.03,45.617,45.617,0,0,0,5.51.35A40.643,40.643,0,0,0,71.26,66.2Z"/><path class="b" d="M65.76,79.691a11.672,11.672,0,0,1-2.72,0,1.333,1.333,0,0,0-.97.21,1.03,1.03,0,0,0-.41.69,1.074,1.074,0,0,0,.23.83,1.359,1.359,0,0,0,.95.45,12.532,12.532,0,0,0,3.16,0,1.319,1.319,0,0,0,.9-.43,1.159,1.159,0,0,0,.24-.85.99.99,0,0,0-.39-.7A1.277,1.277,0,0,0,65.76,79.691Z"/><path class="b" d="M73.18,76.291a1.2,1.2,0,0,0,.84-.62,1.234,1.234,0,0,0,.08-.92,1.027,1.027,0,0,0-.6-.68,1.725,1.725,0,0,0-1.08-.02,22.967,22.967,0,0,1-3.98.63,20.972,20.972,0,0,1-4.14-.11,1.592,1.592,0,0,0-1.05.21,1.012,1.012,0,0,0-.47.75,1.184,1.184,0,0,0,.21.87,1.224,1.224,0,0,0,.93.43q1.44.159,3.01.18a26.9,26.9,0,0,0,3.17-.15A19.967,19.967,0,0,0,73.18,76.291Z"/></svg>