<svg xmlns="http://www.w3.org/2000/svg" viewBox="0 0 128 128"><defs><style>.a{fill:#0000;}.b{fill:#fff;}</style></defs><rect class="a" x="-1605" y="-189" width="2450" height="2182"/><path class="b" d="M38.764,56.06a1.59,1.59,0,0,0,1.27.04,35.9,35.9,0,0,1,5.6-1.43,33.309,33.309,0,0,1,5.64-.49q2.48,0,4.57.21t4.12.41q2.029.2,4.37.2a7.823,7.823,0,0,0,3.87-.92,6.436,6.436,0,0,0,2.54-2.51,7.227,7.227,0,0,0,.89-3.59,6.961,6.961,0,0,0-.93-3.6,6.766,6.766,0,0,0-2.5-2.48,6.932,6.932,0,0,0-3.51-.9,6.743,6.743,0,0,0-2.82.59,7.173,7.173,0,0,0-2.26,1.6,6.764,6.764,0,0,0-1.44,2.27,1.661,1.661,0,0,0-.11,1.14,1.279,1.279,0,0,0,.75.84,1.432,1.432,0,0,0,1.1.04,1.654,1.654,0,0,0,.9-.86,4.078,4.078,0,0,1,1.45-1.93,3.93,3.93,0,0,1,2.43-.79,4.055,4.055,0,0,1,2.05.52,3.912,3.912,0,0,1,1.45,1.44,4.109,4.109,0,0,1,.54,2.12,3.9,3.9,0,0,1-1.21,2.99,4.488,4.488,0,0,1-3.19,1.13q-1.7,0-3.23-.13t-3.06-.29q-1.53-.16-3.19-.28t-3.58-.12a35.052,35.052,0,0,0-6.24.56,40.861,40.861,0,0,0-5.92,1.52,1.5,1.5,0,0,0-.96.75,1.452,1.452,0,0,0-.08,1.11A1.33,1.33,0,0,0,38.764,56.06Z"/><path class="b" d="M66.694,72.22q-4.481-2.4-12.92-2.4a42.3,42.3,0,0,0-7.51.69,46.849,46.849,0,0,0-7.15,1.85,1.6,1.6,0,0,0-.95.77,1.426,1.426,0,0,0-.09,1.11,1.36,1.36,0,0,0,.7.85,1.544,1.544,0,0,0,1.26.05,37.8,37.8,0,0,1,6.65-1.78,40.933,40.933,0,0,1,7.09-.62q7.08,0,10.79,1.7t3.71,4.64a3.883,3.883,0,0,1-1.13,2.93,3.839,3.839,0,0,1-2.77,1.09,3.535,3.535,0,0,1-2.6-.99,4.746,4.746,0,0,1-1.28-2.69,1.923,1.923,0,0,0-.53-1.06,1.417,1.417,0,0,0-1.15-.4,1.279,1.279,0,0,0-1.08.6,1.8,1.8,0,0,0-.22,1.22,7.308,7.308,0,0,0,2.18,4.45,6.434,6.434,0,0,0,4.68,1.79,6.792,6.792,0,0,0,3.46-.89,6.572,6.572,0,0,0,2.44-2.45,7.074,7.074,0,0,0,.9-3.6Q71.174,74.621,66.694,72.22Z"/><path class="b" d="M86.4,51.3a8.784,8.784,0,0,0-4.47-1.16,8.463,8.463,0,0,0-7.15,3.71,8.694,8.694,0,0,0-1.45,3.83,1.554,1.554,0,0,0,.26,1.18,1.361,1.361,0,0,0,.96.58,1.4,1.4,0,0,0,1.09-.29,1.807,1.807,0,0,0,.61-1.15,5.662,5.662,0,0,1,5.68-4.94,5.919,5.919,0,0,1,3,.77A5.816,5.816,0,0,1,87.874,59a5.485,5.485,0,0,1-1.95,4.36,7.739,7.739,0,0,1-5.23,1.68,28.62,28.62,0,0,1-6.1-.68q-3.12-.68-6.43-1.57t-6.87-1.56a40.252,40.252,0,0,0-7.46-.67,43.674,43.674,0,0,0-7.68.65,42.021,42.021,0,0,0-7.04,1.89,1.591,1.591,0,0,0-.95.78,1.409,1.409,0,0,0-.09,1.1,1.329,1.329,0,0,0,.7.86,1.525,1.525,0,0,0,1.26.02,30.723,30.723,0,0,1,6.55-1.84,44.536,44.536,0,0,1,7.25-.56,38.1,38.1,0,0,1,7.33.68q3.469.68,6.7,1.56t6.4,1.56a30.586,30.586,0,0,0,6.43.68,11.509,11.509,0,0,0,5.27-1.15,8.778,8.778,0,0,0,3.54-3.16A8.487,8.487,0,0,0,90.774,59a8.671,8.671,0,0,0-4.37-7.7Z"/></svg>