<svg xmlns="http://www.w3.org/2000/svg" viewBox="0 0 128 128"><defs><style>.a{fill:#0000;}.b{fill:#fff;}</style></defs><rect class="a" x="-1605" y="-797" width="2450" height="2182"/><path class="b" d="M72.7,52.76a.628.628,0,0,0,.07.54.562.562,0,0,0,.4.28.646.646,0,0,0,.5-.08l1.04-.72-.079,1.24a.618.618,0,0,0,.159.48.629.629,0,0,0,.92,0,.623.623,0,0,0,.161-.48l-.1-1.24,1.02.72a.678.678,0,0,0,.48.07.615.615,0,0,0,.49-.8.573.573,0,0,0-.369-.39l-1.1-.54,1.14-.54a.673.673,0,0,0,.28-.92.571.571,0,0,0-.42-.28.634.634,0,0,0-.52.1l-1,.7.121-1.2a.636.636,0,0,0-.171-.49.607.607,0,0,0-.47-.21.639.639,0,0,0-.47.19.6.6,0,0,0-.169.49l.1,1.24-1.04-.72a.58.58,0,0,0-.49-.1.558.558,0,0,0-.39.28.634.634,0,0,0-.08.53.6.6,0,0,0,.34.39l1.12.54-1.1.54A.572.572,0,0,0,72.7,52.76Z"/><path class="b" d="M77.764,73.72a.622.622,0,0,0-.05-.52.686.686,0,0,0-.94-.2l-1,.72.121-1.2a.667.667,0,0,0-.171-.5.594.594,0,0,0-.47-.22.635.635,0,0,0-.639.7l.1,1.24L73.674,73a.659.659,0,0,0-.49-.09.519.519,0,0,0-.39.29.616.616,0,0,0-.08.52.6.6,0,0,0,.34.38l1.12.56-1.1.54a.572.572,0,0,0-.37.37.659.659,0,0,0,.07.55.562.562,0,0,0,.4.28.6.6,0,0,0,.5-.1l1.04-.7-.079,1.22a.647.647,0,0,0,.159.5.593.593,0,0,0,.46.2.578.578,0,0,0,.46-.21.655.655,0,0,0,.161-.49l-.1-1.22,1.02.7a.62.62,0,0,0,.48.09.615.615,0,0,0,.49-.8.573.573,0,0,0-.369-.39l-1.1-.54,1.14-.56A.644.644,0,0,0,77.764,73.72Z"/><path class="b" d="M63.954,77.54a1.788,1.788,0,0,1-1.39-.56,2.884,2.884,0,0,1-.669-1.5,1.527,1.527,0,0,0-.421-.83,1.108,1.108,0,0,0-.92-.31.972.972,0,0,0-.86.48,1.483,1.483,0,0,0-.16.96,4.952,4.952,0,0,0,1.38,2.86,4.038,4.038,0,0,0,3.04,1.2,4.312,4.312,0,0,0,4.421-4.48A4.754,4.754,0,0,0,65.584,71q-2.79-1.52-8.11-1.52a26.506,26.506,0,0,0-4.349.37,26.164,26.164,0,0,0-4.211,1.05,1.3,1.3,0,0,0-.769.6,1.1,1.1,0,0,0-.091.88,1.144,1.144,0,0,0,.55.69,1.223,1.223,0,0,0,1.011.03,23.938,23.938,0,0,1,7.859-1.32,16.451,16.451,0,0,1,6.421.97q2.179.971,2.179,2.61a2.057,2.057,0,0,1-.63,1.61A2.146,2.146,0,0,1,63.954,77.54Z"/><path class="b" d="M69.234,61.94a1.318,1.318,0,0,0,.18.94,1.05,1.05,0,0,0,.74.48,1.113,1.113,0,0,0,.89-.22,1.472,1.472,0,0,0,.51-.94,2.862,2.862,0,0,1,1.071-1.84,3.143,3.143,0,0,1,1.99-.68,3.349,3.349,0,0,1,2.379.92,3.187,3.187,0,0,1,.98,2.44,3.059,3.059,0,0,1-1.1,2.44,4.342,4.342,0,0,1-2.921.94,16.907,16.907,0,0,1-3.64-.41q-1.86-.41-3.85-.95t-4.14-.95a23.947,23.947,0,0,0-4.49-.41,28.9,28.9,0,0,0-4.61.36,25.667,25.667,0,0,0-4.31,1.08,1.3,1.3,0,0,0-.769.6,1.1,1.1,0,0,0-.091.88,1.184,1.184,0,0,0,.55.7,1.151,1.151,0,0,0,1.011.02,24.809,24.809,0,0,1,3.929-1,25.7,25.7,0,0,1,4.29-.34,22.25,22.25,0,0,1,4.43.42q2.071.42,3.99.95t3.82.94a18.373,18.373,0,0,0,3.88.41,7.086,7.086,0,0,0,3.27-.73,5.574,5.574,0,0,0,2.24-2.02,5.4,5.4,0,0,0,.81-2.93,5.643,5.643,0,0,0-.76-2.94,5.43,5.43,0,0,0-2.04-2,5.728,5.728,0,0,0-2.859-.72,5.3,5.3,0,0,0-5.381,4.56Z"/><path class="b" d="M63.934,58.34q-1.219,0-2.4-.1l-2.43-.21q-1.249-.109-2.69-.11a24.663,24.663,0,0,0-3.83.3,31.161,31.161,0,0,0-3.67.8,1.194,1.194,0,0,0-.779.58,1.123,1.123,0,0,0-.081.88,1.148,1.148,0,0,0,.55.71,1.269,1.269,0,0,0,1.011.05,24.117,24.117,0,0,1,6.8-1q1.4,0,2.61.1t2.41.21q1.2.109,2.5.11A4.579,4.579,0,0,0,67.4,59.35a4.483,4.483,0,0,0,1.259-3.23,4.305,4.305,0,0,0-1.32-3.26,4.439,4.439,0,0,0-3.18-1.26,4.376,4.376,0,0,0-2.42.71,4.686,4.686,0,0,0-1.66,1.79,1.428,1.428,0,0,0-.14.9,1.009,1.009,0,0,0,.54.72,1.2,1.2,0,0,0,.9.09,1.285,1.285,0,0,0,.779-.67,2.214,2.214,0,0,1,.8-.87,2.163,2.163,0,0,1,1.2-.35,2.247,2.247,0,0,1,1.55.58,2.331,2.331,0,0,1-.01,3.24A2.515,2.515,0,0,1,63.934,58.34Z"/></svg>