<svg xmlns="http://www.w3.org/2000/svg" viewBox="0 0 128 128"><defs><style>.a{fill:#0000;}.b{fill:#fff;}</style></defs><rect class="a" x="-1757" y="-1101" width="2450" height="2182"/><path class="b" d="M43.78,58.52a2.9,2.9,0,0,0-.52.86,2.658,2.658,0,0,0-.14.88,1.936,1.936,0,0,0,.58,1.46,2.153,2.153,0,0,0,1.56.56H61.72a1.752,1.752,0,0,0,1.24-.41,1.5,1.5,0,0,0,.44-1.15,1.464,1.464,0,0,0-.44-1.14,1.776,1.776,0,0,0-1.24-.4H47.46v-.1L62.34,41.1a4.209,4.209,0,0,0,.7-1.07,2.535,2.535,0,0,0,.18-.95,1.954,1.954,0,0,0-.62-1.51A2.475,2.475,0,0,0,60.86,37H44.68a1.752,1.752,0,0,0-1.24.41,1.723,1.723,0,0,0,0,2.3,1.752,1.752,0,0,0,1.24.41H58.92v.1Z"/><path class="b" d="M51.38,86.6a3.751,3.751,0,0,0-.58.87,2.12,2.12,0,0,0-.16.85,1.748,1.748,0,0,0,.53,1.3,1.952,1.952,0,0,0,1.43.52H63.1a1.563,1.563,0,0,0,1.12-.38,1.391,1.391,0,0,0,.4-1.06,1.333,1.333,0,0,0-.4-1.03,1.586,1.586,0,0,0-1.12-.37H54.52v-.1l8.96-10.88a5.027,5.027,0,0,0,.72-1.1,2.343,2.343,0,0,0,.2-.94,1.685,1.685,0,0,0-.53-1.33,2.172,2.172,0,0,0-1.49-.47H52a1.563,1.563,0,0,0-1.12.38,1.552,1.552,0,0,0,0,2.08A1.616,1.616,0,0,0,52,75.3h8.64v.1Z"/><path class="b" d="M84.7,59.02a5.762,5.762,0,0,0,.77-1.13,2.176,2.176,0,0,0,.21-.93,1.947,1.947,0,0,0-.59-1.48,2.362,2.362,0,0,0-1.69-.56H70.6a1.678,1.678,0,0,0-1.19.4,1.454,1.454,0,0,0-.43,1.12,1.421,1.421,0,0,0,.43,1.11,1.706,1.706,0,0,0,1.19.39H81.62v.1L69.9,72.22a2.875,2.875,0,0,0-.78,1.8,1.916,1.916,0,0,0,.55,1.4,2.049,2.049,0,0,0,1.53.56H84.28a1.685,1.685,0,0,0,1.21-.41,1.485,1.485,0,0,0,.43-1.13,1.4,1.4,0,0,0-.43-1.09,1.738,1.738,0,0,0-1.21-.39H73.22v-.1Z"/></svg>