<svg xmlns="http://www.w3.org/2000/svg" viewBox="0 0 128 128"><defs><style>.a{fill:#0000;}.b{fill:#fff;}</style></defs><rect class="a" x="-1757" y="-1253" width="2450" height="2182"/><path class="b" d="M56.62,77.68a2.087,2.087,0,0,0-.56,1.3,1.219,1.219,0,0,0,.39.94,1.458,1.458,0,0,0,1.03.36h6.3a1.219,1.219,0,0,0,.88-.29,1.073,1.073,0,0,0,.3-.81,1.041,1.041,0,0,0-.3-.8,1.243,1.243,0,0,0-.88-.28h-4.7v-.06l4.96-6.08a3.992,3.992,0,0,0,.6-.88,1.8,1.8,0,0,0,.16-.74,1.131,1.131,0,0,0-.4-.94,1.684,1.684,0,0,0-1.08-.32H57.06a1.227,1.227,0,0,0-.87.29,1.028,1.028,0,0,0-.31.79,1.048,1.048,0,0,0,.31.82,1.252,1.252,0,0,0,.87.28h4.82v.06Z"/><path class="b" d="M51.64,60.1a2.182,2.182,0,0,0-.4.65,2.111,2.111,0,0,0-.1.69,1.4,1.4,0,0,0,.44,1.07,1.606,1.606,0,0,0,1.14.41h9.96a1.358,1.358,0,0,0,.97-.33,1.191,1.191,0,0,0,.35-.91,1.158,1.158,0,0,0-.35-.9,1.386,1.386,0,0,0-.97-.32h-8.1V60.4L63.1,50.14a3.475,3.475,0,0,0,.58-.87,1.954,1.954,0,0,0,.14-.73,1.422,1.422,0,0,0-.47-1.13A1.962,1.962,0,0,0,62.02,47H52.34a1.415,1.415,0,0,0-.99.32,1.158,1.158,0,0,0-.35.9,1.191,1.191,0,0,0,.35.91,1.386,1.386,0,0,0,.99.33H60.4v.06Z"/><path class="b" d="M67.9,68.66a2.221,2.221,0,0,0-.62,1.38,1.371,1.371,0,0,0,.42,1.04,1.555,1.555,0,0,0,1.12.4h7.86a1.374,1.374,0,0,0,.96-.31,1.142,1.142,0,0,0,.34-.89,1.086,1.086,0,0,0-.34-.86,1.4,1.4,0,0,0-.96-.3H70.52v-.06l6.46-7.78a5.012,5.012,0,0,0,.63-.91,1.656,1.656,0,0,0,.17-.73,1.365,1.365,0,0,0-.45-1.09,1.879,1.879,0,0,0-1.27-.39H68.42a1.342,1.342,0,0,0-.94.31,1.283,1.283,0,0,0,0,1.74,1.342,1.342,0,0,0,.94.31h6.16v.06Z"/></svg>